<svg xmlns="http://www.w3.org/2000/svg" viewBox="0 0 102.2 76.8" enable-background="new 0 0 102.2 76.8"><linearGradient id="a" gradientUnits="userSpaceOnUse" x1="39.377" y1="57.855" x2="0" y2="57.855"><stop offset=".158" stop-color="#67B6C5"/><stop offset=".331" stop-color="#6BBDC5"/><stop offset=".589" stop-color="#76D2C6"/><stop offset=".898" stop-color="#88F3C7"/><stop offset="1" stop-color="#8FFFC8"/></linearGradient><path fill="url(#a)" d="M38.8 68.7c-16.6 0-30.1-13.3-30.5-29.8H0c.4 21.1 17.5 38 38.6 38h.7v-8.2h-.5z"/><linearGradient id="b" gradientUnits="userSpaceOnUse" x1="39.476" y1="11.213" x2="71.966" y2="11.213"><stop offset=".158" stop-color="#67B6C5"/><stop offset=".331" stop-color="#6BBDC5"/><stop offset=".589" stop-color="#76D2C6"/><stop offset=".898" stop-color="#88F3C7"/><stop offset="1" stop-color="#8FFFC8"/></linearGradient><path fill="url(#b)" d="M64.9 22.4l7.1-3.3C65.9 7.8 54 0 40.2 0h-.7v7.7h.5c10.7 0 20 6 24.9 14.7z"/><g fill="#68B0BF"><path d="M40.5 54.9v7.5h-.9V54h3.7v.9h-2.8zM48.2 54c.4 0 .8.1 1.1.4.3.3.4.6.4 1v1.9c0 .4-.1.8-.4 1.1-.3.3-.7.4-1.1.4h-1.9v3.6h-.9V54h2.8zm0 3.9c.3 0 .6-.2.6-.6v-1.9c0-.3-.2-.5-.6-.5h-1.9v2.9h1.9zM54.7 62.4h-.9l.5-2.3h-1.1c-.2 0-.4-.2-.5-.4L51.4 54h1l1.2 5c0 .1.1.1.1.1h.9l1.2-5.1h.9l-2 8.4zM62.3 62.4v-7.5h-2.4v7.5H59V54h4.3v8.4h-1zM69.4 62.4v-7.5H67v7.5h-1V54h4.3v8.4h-.9zM73.5 62.4h-.9l1.4-8.1c0-.2.2-.4.5-.4H76c.2 0 .4.2.5.4l1.4 8.1H77l-.3-2H74l-.5 2zm2.2-7.3c0-.1-.1-.1-.1-.1h-.8c-.1 0-.1 0-.1.1l-.7 4.3h2.4l-.7-4.3z"/></g><g fill="#2C2C2C"><path d="M66.5 28.7v7.1h2.8l3.8-7.1h2.1l-4.3 8v.2l4.3 9.9h-2.1l-3.8-9h-2.8v9h-2V28.7h2zM19.8 46.9h-2.1l3-17.4c.1-.4.5-.8 1-.8h3.6c.5 0 .9.4 1 .8l3 17.4h-2.1l-.7-4.4h-5.9l-.8 4.4zM24.6 31c0-.2-.1-.3-.2-.3h-1.7c-.1 0-.2.1-.2.3l-1.6 9.4h5.3L24.6 31zM33.2 30.8V47h-2V28.7h8.1v2h-6.1zM47.1 28.7c.9 0 1.7.3 2.3.9.6.6 1 1.3 1 2.2v4c0 .9-.3 1.7-1 2.3-.6.6-1.4 1-2.3 1H43v7.8h-2.1V28.7h6.2zm0 8.4c.7 0 1.2-.5 1.2-1.2v-4c0-.7-.5-1.1-1.2-1.1H43v6.3h4.1zM52.1 31.8c0-.9.3-1.7 1-2.3.6-.6 1.4-1 2.3-1h2.9c.9 0 1.7.3 2.3 1 .6.6 1 1.4 1 2.3v12c0 .9-.3 1.7-1 2.3-.6.6-1.4 1-2.3 1h-2.9c-.9 0-1.7-.3-2.3-1-.6-.6-1-1.4-1-2.3v-12zm2.1 12.1c0 .7.5 1.2 1.2 1.2h2.9c.7 0 1.2-.5 1.2-1.2v-12c0-.7-.5-1.2-1.2-1.2h-2.9c-.7 0-1.2.5-1.2 1.2v12zM76.4 31.8c0-.9.3-1.7 1-2.3.6-.6 1.4-1 2.3-1h2.9c.9 0 1.7.3 2.3 1 .6.6 1 1.4 1 2.3v12c0 .9-.3 1.7-1 2.3-.6.6-1.4 1-2.3 1h-2.9c-.9 0-1.7-.3-2.3-1-.6-.6-1-1.4-1-2.3v-12zm2 12.1c0 .7.5 1.2 1.2 1.2h2.9c.7 0 1.2-.5 1.2-1.2v-12c0-.7-.5-1.2-1.2-1.2h-2.9c-.7 0-1.2.5-1.2 1.2v12zM97.5 28.7h4.1l.7 18.2h-2.1l-.7-16.2h-.2l-3.2 15.9h-1.9L91 30.8h-.2L90.1 47H88l.7-18.2h4L95.1 42l2.4-13.3z"/></g></svg>