<svg xmlns="http://www.w3.org/2000/svg" viewBox="0 0 104.4 76.8" enable-background="new 0 0 104.4 76.8"><g fill="#1EB3C2"><path d="M50.4 58.6c.5-.2.8-.7.8-1.3v-1.6c0-.3-.1-.7-.3-.9-.3-.3-.5-.3-.9-.3h-3.1V63h1v-4H50c.3.2.4.4.4.8V63h1v-3.2c-.1-.6-.4-1.1-1-1.2zm-.1-1.4c0 .4-.1.6-.3.8h-2.1v-2.6H50c.2 0 .3.2.3.3v1.5zM42.5 54.4h-1.3c-.4 0-.8.2-1.1.4-.3.3-.4.7-.4 1v5.7c0 .4.2.8.4 1.1.3.3.7.4 1.1.4h1.3c.4 0 .8-.2 1.1-.4.3-.3.4-.7.4-1.1v-3h-2.5v1h1.6v2c0 .3-.2.6-.6.6h-1.3c-.3 0-.6-.3-.6-.6v-5.7c0-.3.3-.6.6-.6h1.3c.3 0 .6.3.6.6v1.3h1v-1.3c0-.4-.2-.8-.4-1-.4-.3-.9-.4-1.2-.4zM57.1 54.4h-1.4c-.4 0-.8.2-1.1.4-.3.3-.4.7-.4 1v5.7c0 .4.2.8.4 1.1.3.3.7.4 1.1.4h1.4c.4 0 .8-.2 1.1-.4.3-.3.4-.7.4-1.1v-5.7c0-.4-.2-.8-.4-1-.3-.3-.7-.4-1.1-.4zm.5 7.1c0 .3-.3.6-.6.6h-1.4c-.3 0-.6-.3-.6-.6v-5.7c0-.3.3-.6.6-.6H57c.3 0 .6.3.6.6v5.7zM65 61.5c0 .3-.3.6-.6.6H63c-.3 0-.6-.3-.6-.6v-7.2h-1v7.2c0 .4.2.8.4 1.1.3.3.7.4 1.1.4h1.4c.4 0 .8-.2 1.1-.4.3-.3.4-.7.4-1.1v-7.2h-1v7.2zM72.7 54.9c-.3-.3-.6-.4-1-.4h-2.9V63h1v-3.7h1.9c.4 0 .8-.2 1-.4.3-.3.4-.7.4-1.1v-1.9c.1-.4 0-.7-.4-1zm-.5 2.9c0 .3-.3.6-.6.6h-1.9v-3h1.9c.3 0 .6.2.6.5v1.9z"/></g><g fill="#2C2C2C"><path d="M26.3 42.7h-6l-.7 4.5h-2.1l3-17.7c.1-.3.5-.8 1-.8h3.7c.4 0 1 .3 1 .8l3 17.7h-2.1l-.8-4.5zm-.3-2.1L24.4 31c-.1-.2-.1-.3-.3-.3h-1.7c-.2 0-.2.1-.3.3l-1.6 9.6H26zM30.6 31.8c0-1 .3-1.7 1-2.4s1.4-1 2.4-1h2.9c1 0 1.7.3 2.4 1 .6.6 1 1.4 1 2.4v2.9H38v-2.9c0-.7-.5-1.2-1.2-1.2h-2.9c-.7 0-1.2.5-1.2 1.2V44c0 .7.5 1.2 1.2 1.2h2.9c.9 0 1.2-.4 1.2-1.2v-4.4h-3.3v-2.1h5.4V44c0 1-.3 1.7-1 2.4-.6.6-1.4 1-2.4 1h-2.9c-1 0-1.7-.3-2.4-1s-1-1.4-1-2.4c.2 0 .2-12.2.2-12.2zM49.4 28.6c.8 0 1.4.3 1.9.8s.8 1.2.8 1.9v3.3c0 1.1-.7 2.3-1.7 2.7 1.1.5 2 1.7 2 2.9v6.9h-2.1v-6.9c0-.9-.3-1.4-1-1.7h-4.5v8.7h-2.1V28.6h6.7zm-.1 7.8c.5-.3.8-.8.8-1.7v-3.4c0-.3-.3-.7-.8-.7h-4.5v5.8h4.5zM54.5 31.8c0-1 .3-1.7 1-2.4s1.4-1 2.4-1h3c1 0 1.7.3 2.4 1s1 1.4 1 2.4V44c0 1-.3 1.7-1 2.4-.6.6-1.4 1-2.4 1h-3c-1 0-1.7-.3-2.4-1-.6-.6-1-1.4-1-2.4V31.8zm2 12.2c0 .7.5 1.2 1.2 1.2h3c.7 0 1.2-.5 1.2-1.2V31.7c0-.7-.5-1.2-1.2-1.2h-3c-.7 0-1.2.5-1.2 1.2V44zM66.4 31.8c0-1 .3-1.7 1-2.4s1.5-1 2.4-1h3c1 0 1.7.3 2.4 1s1 1.4 1 2.4v2.9H74v-2.9c0-.7-.5-1.2-1.2-1.2h-3c-.7 0-1.2.5-1.2 1.2V44c0 .7.5 1.2 1.2 1.2h3.1c.6 0 1-.1 1-.3.2-.3.2-.4.2-.9v-3.7h2.1V44c0 1-.3 1.7-1 2.4-.6.6-1.4 1-2.4 1h-3.1c-1 0-1.7-.3-2.4-1-.6-.6-1-1.4-1-2.4l.1-12.2zM78.2 31.8c0-1 .3-1.7 1-2.4.6-.6 1.4-1 2.4-1h3c1 0 1.7.3 2.4 1 .6.6 1 1.4 1 2.4V44c0 1-.3 1.7-1 2.4-.6.6-1.4 1-2.4 1h-3c-1 0-1.7-.3-2.4-1-.6-.6-1-1.4-1-2.4V31.8zM80.3 44c0 .7.5 1.2 1.2 1.2h3c.7 0 1.2-.5 1.2-1.2V31.7c0-.7-.5-1.2-1.2-1.2h-3c-.7 0-1.2.5-1.2 1.2V44zM94.8 28.6L97.2 42l2.4-13.4h4.1l.7 18.5h-2.1l-.7-16.4h-.3l-3.1 16.2h-1.9L93 30.7h-.3L92 47.1h-2l.7-18.5h4.1z"/></g><linearGradient id="a" gradientUnits="userSpaceOnUse" x1="39.377" y1="57.855" x2="0" y2="57.855"><stop offset=".158" stop-color="#67B6C5"/><stop offset=".331" stop-color="#6BBDC5"/><stop offset=".589" stop-color="#76D2C6"/><stop offset=".898" stop-color="#88F3C7"/><stop offset="1" stop-color="#8FFFC8"/></linearGradient><path fill="url(#a)" d="M38.8 68.7c-16.6 0-30.1-13.3-30.5-29.8H0c.4 21.1 17.5 38 38.6 38h.7v-8.2h-.5z"/><linearGradient id="b" gradientUnits="userSpaceOnUse" x1="39.476" y1="11.213" x2="71.966" y2="11.213"><stop offset=".158" stop-color="#67B6C5"/><stop offset=".331" stop-color="#6BBDC5"/><stop offset=".589" stop-color="#76D2C6"/><stop offset=".898" stop-color="#88F3C7"/><stop offset="1" stop-color="#8FFFC8"/></linearGradient><path fill="url(#b)" d="M64.9 22.4l7.1-3.3C65.9 7.8 54 0 40.2 0h-.7v7.7h.5c10.7 0 20 6 24.9 14.7z"/></svg>