<svg xmlns="http://www.w3.org/2000/svg" viewBox="0 0 95.9 55.4" enable-background="new 0 0 95.9 55.4"><g opacity=".5" fill="#fff"><path d="M69.1 22.3s-3.9 2.6-8.8 1.9c-5-.8-6.2-3.4-6.8-3.9-.7-.5-5-7.2-5.8-8-.8-.8-3.4-5-7.9-5.1-4.5-.1-6.5 2.6-6.8 5.9-.3 3.3.6 6.3 2.6 9 2.1 2.9 3.3 3.7 5.1 4.6.5.2.9.5 1.5.8 2.8 1.6 7.7 2.1 7.7 2.1-1-.1-10.6-.5-15.3-7.8-4.1-6.4-2.2-10.8-1.7-12 .5-1.2 2.6-4.1 6.1-4.2 3.5-.1 5.9 1.2 9.2 6.6 3.3 5.4 5.4 7.3 6.6 8.3 1.2 1 4.7 2.6 7 2.4 2.3-.2 5.9-2.2 7.2-3.4 1.3-1.2 3.2-3.1 3.2-3.1s-2.5 6.8-4 9.8c-1.6 3-6.3 12.8-15.2 16.6-7.3 3.1-16.3 3.1-22.7-3-6.4-6.1-3.4-12.8-2.5-14.8.9-2 3.7-4.3 3.7-4.3s-2-3.4-3.4-6.6c-1.4-3.1-2.7-7.8-3.4-10.3C24 1.3 24 0 24 0s1 2.6 2 3.5c1 .8 1.2 1 1.9.9.7-.1.9-1 .6-1.7-.3-.8-.6-1.5-.6-1.5s1.7 1.3 1.7 2.9-.9 2.1-1.6 2.2c-.6.1-2.4-1.6-2.4-1.6s1.2 4.9 2.2 7.4c1 2.5 5.5 9.8 5.5 9.8s-3.1-.1-5 4.1c-2 4.2-1.3 7.2-.8 8.7.6 1.4 3.8 8.1 13.2 8.6 9.4.5 16.6-2.2 23.1-11.2 2.9-4 4.1-7.4 5.3-9.8zM16.5 53.5c-1.2.5-2.3.1-3-.5-.7-.6-2.2-2.5-3-4.2-.8-1.7-1.1-2.6-1.1-2.6s4-4 4.7-4.8c.7-.8 1.3-1.5 1.4-1.8.1-.4.2-1.2 0-1.2-.2-.1-1 .1-1.4.4-.4.3-.8.4-.8.8s-.3.9-.6 1.3-.6.9-1.4 1.8L9 45s-1.3-2.9-2-4-1.4-2.1-2.3-2.2c-.9-.2-1.7.1-2.1.3-.4.3-1.2.7-1.2.7l.1.4s1.3-.6 2.1.2 1.7 2.1 2.6 3.9c.3.6.7 1.5 1 2.4l-2 2c-.9.9-2.6 2.6-3.2 3.3-.6.7-1.6 1.7-1.7 2.1-.1.4-.4.9-.1 1.1.3.2.5.1 1.2-.1.6-.2 1.3-.6 1.3-.6s-.4-.7.3-1.4c.6-.7 1.6-2.2 2.3-3 .5-.6 1.6-1.6 2.4-2.3.5 1.4 1 2.8 1.5 3.6 1 1.7 1.7 2.5 2.6 3.3 1 .8 2.9.6 3.8.1 1-.5 1.8-1.3 1.8-1.3s.3-.4-.9 0zM62.8 47.2c-.6-.6-2.7-1.3-3-1.6-.3-.3.3-.7.7-1 .4-.3 1.8-1.3 2.1-2 .3-.7.3-1.7-.2-2.9-.6-1.2-3.4-1.1-3.4-1.1l-1.9 1-2.9 1.6s-.1 1.4-.2 2.9c-.1 1.4-.7 6.4-.8 7.6-.1 1.2-.4 2.9 1.7 3.3 2.1.4 4-.7 5.3-1.3 1.3-.6 3.2-2.1 3.5-3.4.4-1.2-.3-2.5-.9-3.1zm-1.7 4.4c-.4.9-1.3 1.5-2.2 1.7-.9.2-1.7.3-2.6-.2-.9-.5-.8-1.4-.8-2.5s.4-3.8.5-5.2c.1-1.3.2-4.8.2-4.9l.9-.8s.7-.1 1.5 0 1.5.7 1.8 1.6c.2.9 0 1.4-.3 2.1-.3.7-1.6 1.4-2.1 1.7-.5.3-1.1.4-1.1.9 0 .4 1.1.8 1.9 1.3.8.4 1.8 1 2.3 1.8.6.9.4 1.7 0 2.5zM69.9 38.9s-.5-.4-.7-.3c-.2.1-1.2.9-1.4 1-.2.1-.3.4-.1.6.2.2.3.7.4 1.1.1.4.1 1 .1 2s-.1 2.4-.1 2.4-.4.7-.5.8c-.2.1-.2.3-.1.5s.3.4.3.4-.1 2.2-.2 2.9c-.1.5-.2 1.9-.3 2.5 0 .6-.2 1.5.2 1.8.4.3.9-.3 1.9.2.6.3 3 .1 4 .1 1-.1 2.1-.2 2.8-.5.7-.3 1.8-1.1 1.8-1.1s.3-.3.2-.5c-.1-.2-.2 0-1 .4-.9.4-2.6.4-3.6.4-1.1 0-2.4.1-3-.2-.6-.2-1-.1-1.1-1.4-.1-1.3.4-4.4.4-4.4h2.6c.9 0 2.2-.3 2.8-.4.6-.2 1.7-.7 1.7-.7s.3-.5.2-.5c-.1 0-1.4.3-1.4.3h-3.5c-1.4-.1-2.3-.3-2.3-.3s.2-2.1.2-3.3v-2.4s1.2-.1 2.2-.1c1 0 2-.1 2.5-.3.5-.2 1.3-.6 1.3-.6l.4-.5s-2.9.1-3.6.1h-3.1zM80.9 39.6c-.1.4.3.7.4 1.1.1.4.1 2.8 0 4.1-.1 1.3-.6 5.3-.8 6.6-.1 1.4-.4 2.3-.3 2.7.2.4.4.9.6.9.3 0 .8-.1 1.2-.4.4-.2.6-.5.8-.7.2-.3.1-.5-.1-.6-.2-.2-.4-.3-.4-.3s.1-.6.2-1.5c.2-.9.1-3 .1-3s.2-.9.5-1c.3-.1.4-.4.9-.2.4.2 1 .7 1.6 1.6.6.9 1.6 2.2 2.2 3 .6.8 2 2.3 2.6 2.7.6.4 1.7.5 2.5.4.8-.2 1.4-.3 1.9-.7.4-.4 1.2-.8 1.2-.8l-.1-.5s-.5.3-1 .5c-.6.2-1.6.5-2.3.3-.7-.2-1.3-1.6-2.2-2.7-.9-1.1-4-5.4-4-5.4s1.9-1.5 2.7-2.2c.8-.6 2.8-2.1 3.3-2.8.5-.7.6-1.5.5-1.9-.1-.4-.5-.4-1-.4-.4.1-1.1.6-1.1.6s-.4.1-.5.5c-.1.4 0 .5-.3 1.1-.3.6-2.4 2.7-3 3.1-.6.4-3.2 2.3-3.2 2.3s-.5.2-.6.3c-.1 0 .2-2.9.3-4.2.1-1.3.1-2.3 0-2.9-.1-.6-.4-1.2-.7-1.1-.4.5-1.8 1.1-1.9 1.5zM35.6 53.5c-1.2.4-2.3.1-3-.5-.7-.6-2.2-2.5-3-4.2-.8-1.7-1.1-2.6-1.1-2.6s3.5-3.6 4.5-4.6l-.2-.1-1-.5s0-.1-.1-.1c-.3.4-.6.9-1.4 1.8L28 45s-1.3-3-2-4c-.7-1.1-1.4-2.1-2.3-2.2-.9-.2-1.7.1-2.1.3-.4.3-1.2.7-1.2.7l.1.5s1.3-.6 2.1.2 1.7 2.1 2.6 3.9c.3.6.7 1.5 1 2.4l-2 2c-.9.9-2.7 2.6-3.2 3.3-.6.7-1.6 1.7-1.7 2-.1.4-.4.9-.1 1.1.3.2.5.1 1.2-.1.6-.2 1.3-.6 1.3-.6s-.3-.6.3-1.3c.6-.7 1.6-2.2 2.3-3 .5-.6 1.6-1.6 2.4-2.3.5 1.4 1 2.8 1.5 3.6 1 1.7 1.7 2.5 2.6 3.3 1 .8 2.9.6 3.8.1 1-.5 1.8-1.3 1.8-1.3s.4-.6-.8-.1zM41.6 52.1c.1-.6.3-2.8.4-4.2.1-.7.2-2.3.3-3.6l-1.3-.1-.8-.3c-.1 1.9-.3 5-.5 6.1-.3 1.8-.7 4.6-.1 5 .6.4 1.3.2 1.8-.2s.8-.8.8-1.2c0 0-.4-.3-.6-.5-.1-.1-.1-.4 0-1z"/></g></svg>