<svg xmlns="http://www.w3.org/2000/svg" viewBox="0 0 72.4 50.3" enable-background="new 0 0 72.4 50.3"><g opacity=".5"><path fill="#fff" d="M38.9 50.2h-8.1L19.4 28.1l-.8 2.1 10.2 20.1h-4.5c-.3 0-2.3-.3-3.1-1-.9-.8-2-2.8-3-4.6-.4-.7-.7-1.4-1-1.8-.4-.6-1.1-1.2-1.9-1.2-.9 0-1.4.8-1.8 1.5-.7 1.4-1.2 2.6-1.6 3.6-.5 1.1-.8 1.7-1 2-1.1 1.4-3.3 1.5-3.4 1.5H0l18.4-47c.3-.9 1.5-2.8 3.7-2.8 1.5 0 2.9 1 3.7 2.5.4.8 24.1 46.6 24.1 46.6l.4.7h-8.9L23.6 15.7l-1 2.6 16.3 31.9zm-23.7-9.4c1 0 2.1.7 2.7 1.7.3.4.6 1.1 1 1.8.8 1.5 2 3.7 2.8 4.3.5.4 1.8.7 2.6.7h2.9l-9.7-19.1 1.8-4.4 12.1 23.4h5.9L21.6 18.3l2-5L42 49.2h6.7C45.7 43.5 25.4 4 25 3.3c-.6-1.2-1.7-2-2.8-2-2.1 0-2.8 2.1-2.8 2.2l-18 45.8h6s1.9 0 2.6-1.1c.2-.2.5-.9.9-1.9.4-.9.9-2.2 1.6-3.6.9-1.6 1.9-1.9 2.7-1.9zM52.4 50.3L29.9 5.9s-1-2.5-.2-4.1c1-1.7 3.1-1.9 4.7-1.8h37.9l-2.9 7.1H41.6L43 9.8h25.6l-2.8 6.5H46.3l1.3 2.5h17.2l-2 4.8s-.9 2-2.9 2c-1.6 0-3.4 0-5.1.1-1.9.1-2.8 1.9-1.7 4.1 1.6 3.2 2.4 4.7 2.7 5.3.8 1.6 1.4 4.1.5 6-.9 2-3.9 9.2-3.9 9.2z"/></g></svg>