<svg xmlns="http://www.w3.org/2000/svg" viewBox="0 0 85.6 55.8" enable-background="new 0 0 85.6 55.8"><g opacity=".5"><path fill="#fff" d="M42.8 0C30.7 0 21 7.4 21 16.5S30.8 33 42.8 33s21.8-7.4 21.8-16.5S54.8 0 42.8 0zm0 32.6c-11.8 0-21.4-7.2-21.4-16.1C21.4 7.6 31 .4 42.8.4s21.4 7.2 21.4 16.1c0 8.9-9.6 16.1-21.4 16.1z"/><g fill="#fff"><path d="M22.7 16.9h.3v-.3h-.1c0-.3.2-.5.5-.5h.4c.3 0 .5.2.5.5h-.1v.2h.4v-.2c0-.4-.3-.7-.7-.8h-.4c-.4 0-.7.3-.7.8-.1.1-.1.2-.1.3zM23.2 18.3l.4-.1c.1 0 .3-.1.3-.3l.4-.1c.2 0 .3-.2.3-.4v-.5h-.2v.1l-1.6.1c0 .2 0 .5.1.7-.1.4.1.6.3.5zm.6-.6v-.3h.5v.1c0 .1 0 .1-.1.1l-.4.1zm-.7.4c-.1 0-.1 0-.1-.1v-.4l.6-.1v.4c0 .1 0 .1-.1.1l-.4.1zM23.1 19.6l.2-.1c-.1-.2-.1-.4-.1-.5 0-.1 0-.1.1-.2l.5-.1c.1.2.1.4.1.6l.2-.1c-.1-.2-.1-.4-.1-.6l.3-.1c.1 0 .1 0 .1.1 0 .2.1.3.1.5l.2-.1c0-.1-.1-.3-.1-.5-.1-.2-.2-.3-.4-.3l-1.1.2c-.2 0-.3.3-.3.5.2.3.2.5.3.7zM23.9 21.7c.2-.3.5-.5.7-.8.1 0 .1.1.2 0l.3-.1.1.1.2-.1-.1-.1c-.1-.1-.2-.2-.3-.1l-.3.1c0-.1-.1-.1-.1-.2l.6-.2-.1-.3-.6.2V20l.3-.1c.1 0 .2-.2.1-.3v-.1l-.2.1v.1l-.3.1c-.1 0-.1.1-.2.2-.4 0-.7-.1-1.1-.1l.1.3c.3 0 .7 0 1 .1l.1.1-.9.3.1.3.9-.4.1.1c-.3.2-.5.5-.7.7 0 .1 0 .2.1.3zM24.4 22.7l.2-.1c-.1-.2-.2-.3-.3-.5v-.2l.4-.2.3.6.2-.1-.3-.6.3-.2c.1 0 .1 0 .2.1s.2.3.3.4l.2-.1c-.1-.1-.2-.3-.3-.4-.1-.2-.3-.2-.5-.2l-1 .5c-.2.1-.2.3-.1.5.2.2.3.4.4.5zM25.1 23.8l.2-.1c-.1-.1-.2-.3-.3-.5V23l.4-.3c.1.2.2.4.4.5l.2-.1c-.1-.2-.3-.3-.4-.5l.3-.2h.2c.1.1.2.3.3.4l.2-.1c-.1-.1-.2-.3-.3-.4-.1-.2-.3-.2-.5-.1l-.9.6c-.2.1-.2.3-.1.5s.2.3.3.5zM27.9 24.5l.2-.2-.3-.3-.5.1.2-.5-.3-.3-.2.2.1.1-1.2 1 .2.2 1-.9-.2.6.6-.1-1 1 .2.2 1.2-1.1zM28.9 25.5l.1-.2c-.2-.1-.3-.3-.5-.4-.1-.1-.4-.1-.5 0l-.2.3c-.1.1-.1.2-.1.3-.2.1-.4.2-.5.3l-.1-.1-.2.2.3.3.7-.4.2.2-.5.5.2.2 1-1.2h.1zm-.6.2l-.3-.2c-.1-.1-.1-.1 0-.2l.2-.3c0-.1.1-.1.2 0l.2.2-.3.5zM29 27.4l.2-.3-.3-.1-.1.1c-.2-.2-.3-.5-.1-.7l.2-.3c.2-.2.5-.2.7-.1l-.1.1.2.1.2-.3-.2-.1c-.3-.2-.8-.2-1 .1l-.2.3c-.3.3-.2.8.2 1.1l.3.1zM30.5 27.8l.4-.6c.1-.3.1-.6-.2-.8-.3-.2-.6-.1-.8.1l-.4.6c-.2.3-.1.6.2.8.3.2.6.1.8-.1zm-.2-.2c-.1.1-.3.2-.4.1-.2-.1-.2-.3-.1-.4l.4-.6c.1-.1.3-.2.4-.1.1.1.2.3.1.4l-.4.6zM32.7 28.4c.1-.2 0-.5-.3-.7-.3-.1-.5 0-.7.2s0 .5.3.7c.3.1.5 0 .7-.2zM34.6 30.2c0-.3-.1-.7-.1-1 .1 0 .1-.1.2-.1l.2-.5h.1l.1-.2H35c-.1 0-.3 0-.3.1l-.3.5-.4-.1.3-.7-.3-.1-.1.2h.1l-.6 1.5.3.1.3-.8.2.1c0 .3.1.6.1.9l.3.1zM36.1 30.1l.2-.7c.1-.3-.1-.6-.4-.7s-.6.1-.7.3l-.2.8c-.1.3.1.6.4.7.3.1.6-.1.7-.4zm-.2 0c0 .2-.2.3-.4.2-.2-.1-.3-.2-.2-.4l.2-.7c.1-.2.2-.3.4-.2.2.1.3.2.2.4l-.2.7zM37.8 29.5l.1-.2-.5-.1c-.2 0-.3 0-.4.2l-.6 1.2h-.1l-.1.2.3.1c.2-.5.5-.9.7-1.3 0-.1.1-.1.1-.1h.1l-.3 1.5.3.1.3-1.5.1-.1zM38.9 30.9l.1-.4c0-.2-.1-.4-.3-.4l-.5-.1.1-.5.5.1v.1h.3l.1-.4c-.4-.1-.7-.1-1.1-.2l-.1.4h.1l-.3 1.5.7.1c.2.1.4 0 .4-.2zm-.3-.1c0 .1-.1.1-.1.1l-.4-.1.1-.6.4.1c.1 0 .1.1.1.1l-.1.4zM40.5 29.9v-.2H40c-.2 0-.3.1-.4.2-.1.4-.3.8-.5 1.2H39v.2h.3l.2-.5c.2 0 .3 0 .5.1v.5h.3l.1-1.6.1.1zm-.4.8c-.1 0-.3 0-.4-.1.1-.1.1-.3.3-.7 0-.1.1-.1.1-.1h.1l-.1.9zM41.7 31.5v-.4h-.3v.1c-.3 0-.5-.2-.5-.5v-.4c0-.3.3-.5.5-.5v.2h.3v-.4h-.3c-.4 0-.8.3-.8.7v.4c0 .4.3.7.7.8h.4zM42.9 31.2v-.4c0-.2-.2-.4-.4-.4h-.3v-.7H42v1.4c0 .2.2.4.4.4h.2c.1 0 .3-.1.3-.3zm-.3 0c0 .1-.1.1-.1.1h-.2c-.1 0-.1-.1-.1-.1v-.5h.3c.1 0 .1.1.1.1v.4zm.7.3v-1.8H43v1.8h.3zM45.5 30.4c0-.3-.3-.5-.5-.4-.3 0-.5.3-.5.5 0 .3.3.5.5.4.3 0 .5-.3.5-.5zM47.9 29.4l-.1-.2-.4.1-.2.5-.4-.4-.4.1v.2h.1l.2 1.5h.3v-1.4l.4.5c.1-.2.2-.4.2-.6l.3 1.4.3-.1-.3-1.5v-.1zM49.3 29.1l-.1-.2c-.2 0-.4.1-.6.1-.2.1-.3.3-.3.4l.1.3c0 .1.1.2.2.2l-.1.6h-.1l.1.2c.1 0 .2-.1.4-.1l.1-.8.3-.1.2.7.3-.1-.4-1.5-.1.3zm-.2.7l-.3.1c-.1 0-.1 0-.1-.1l-.1-.3c0-.1 0-.1.1-.1l.3-.1.1.5zM50.9 30.3l-.1-.3h-.2v.1c-.3.1-.6-.1-.6-.3l-.1-.3c-.1-.3.1-.5.3-.6v.1l.2-.1-.1-.3-.2.1c-.4.1-.6.5-.5.9l.1.3c.1.4.5.6 1 .5l.2-.1zM52.2 28.9l-.1-.2-.1.1-.3-.7-.2.1.3.7-.6.2-.2-.7-.2.1.6 1.7.3-.1-.3-.8.6-.2.3.8.3-.1-.6-.9h.2zM53.5 28.9l-.2-.3c-.1-.2-.3-.2-.5-.1l-.2.1-.3-.7H52l.6 1.3c.1.2.3.3.5.2l.2-.1c.1 0 .2-.3.2-.4zm-.3.1c0 .1 0 .1-.1.2H53c-.1 0-.1 0-.2-.1l-.2-.4.3-.1c.1 0 .1 0 .2.1l.1.3zm.8 0l-.8-1.6-.2.1.8 1.6.2-.1zM55.1 28.4l-.1-.2c-.1.1-.3.2-.5.3h-.2l-.2-.5.6-.3-.1-.2-.6.3-.2-.3c0-.1 0-.1.1-.2s.3-.2.4-.3l-.1-.2c-.1.1-.3.2-.4.2-.2.1-.3.3-.2.5l.5 1c.1.2.3.2.5.1.1 0 .3-.1.5-.2zM57 27.3l-.2-.3-.1.1-.8-1.1h.1l-.1-.2c-.2.1-.3.2-.5.4-.2.1-.2.3-.1.5l.7 1-.1.1.2.3.2-.1-.1-.1c.2-.1.4-.3.6-.4l.1.1.1-.3zm-.6 0c-.1.1-.2.2-.3.2l-.7-1v-.2c.1-.1.1-.1.2-.1l.8 1.1zM57.9 26.5l-.1-.2-.4.3h-.2l-.3-.4.5-.4-.1-.2-.5.4-.2-.3v-.2l.4-.3-.2-.2-.4.3c-.2.1-.2.4-.1.5l.7.9c.1.2.4.2.5 0l.4-.2zM57.9 24.3l-.2-.2-.3.3c-.1.1-.1.3-.1.5.2.4.4.8.6 1.1l-.1.1.2.2.2-.2c-.2-.5-.5-.9-.7-1.3v-.1l.1-.1 1.1 1.1.2-.2-1-1.2zM58.9 23.2l-.2-.1-.2.3c.2.4.3.9.5 1.3l-.9-.9-.2.2 1.3 1.3.2-.2c-.1-.5-.3-.9-.5-1.4l1 .8.2-.2-1.2-1.1zM61.1 22.9c-.3 0-.7-.1-1-.1 0-.1 0-.2-.1-.2l-.4-.3.1-.1-.2-.2-.1.1c-.1.1 0 .3.1.3l.4.3c-.1.1-.1.2-.2.3l-.6-.4-.2.3.1.1.1-.1 1.2.9.2-.2-.7-.5.2-.1c.3.1.6.1.9.1l.2-.2zM60.4 20.9l-.2-.1c-.1.1-.2.2-.2.4-.1.1 0 .3.1.5l.9.9-.1.1.2.1.2-.3-.3-.4c.1-.1.2-.3.2-.4l.4.2.1-.3-1.3-.7zm.6.7l-.2.4c-.1-.1-.2-.2-.6-.5 0 0-.1-.1 0-.1l.1-.1.7.3zM61 19.6l-.3-.1c-.1.4-.3.7-.4 1.1l.3.1.1-.2-.1-.1c0-.1.1-.1.1-.2l1.6.6.1-.3-1.7-.5.1-.2h.1c.1 0 .1-.1.1-.2zM62.7 18.9l-.2-.1-.1.5c0 .1-.1.1-.1.1l-.5-.1.1-.6-.2-.1-.1.6-.3-.1c-.1 0-.1-.1-.1-.1l.1-.5-.2-.1-.3.6c0 .2.1.4.3.4l1 .3c.2.1.4-.1.5-.3l.1-.5zM62.9 17.5h-.4v.3h.1c0 .3-.3.5-.5.5l-.4-.1c-.3 0-.4-.3-.4-.5h.1v-.2H61v.2c0 .4.2.7.6.8l.4.1c.4.1.8-.2.8-.7l.1-.4zM62.6 16.2h-.4c-.2 0-.3.2-.3.4v.3h-.7v.2l1.4.1c.2 0 .4-.2.4-.4v-.2c-.1-.2-.2-.4-.4-.4zm0 .3c.1 0 .1.1.1.1v.2c0 .1-.1.1-.1.1h-.5v-.3c0-.1.1-.1.1-.1h.4zm.3-.7l-1.8.1v.2l1.8-.1v-.2z"/></g><path fill="#fff" d="M42.8 30.4"/><g fill="#fff"><path d="M28.9 9.2c-.1-.1-.1-.1 0 0-.1 0-.2 0-.2.1-.2.2-.3.1-.4 0l-1.6-1.6.1-.1c.3-.3.7-.4 1.1-.3h.1v-.2l-.7-.6s-.1 0-.1.1-.1.1-.1.1c.1 0 .1.1 0 .2-.6.6-1.3 1.2-1.8 1.9-.1.1-.1.1-.2 0 0 0-.1 0-.1.1l.7.7s.1 0 .1-.1c.1-.1 0-.1 0-.1-.2-.4-.1-.8.2-1.1l.1-.1 1.7 1.5c.1.1.2.2 0 .4l-.1.1.1.1h.1l.1-.1c.2-.2.2-.3.4-.5s.2-.2.5-.4l.1-.1h-.1zM29.3 5l-.2.1c.1.9.2 1.9.4 2.8.1.4 0 .5 0 .6v.1l.1.1.3-.3c.1-.1.3-.2.4-.3V8l-.1-.1c-.2.3-.3.1-.4.1 0 0 0-.1-.1-.2l-.1-.4.9-.6.4.3.1.1c.1.1 0 .2-.2.3v.1l.1.1c.2-.1.3-.3.5-.4.1-.1.3-.2.5-.3v-.1c0-.1-.1-.1-.1-.1-.2.1-.3 0-.5-.1-.5-.6-1.3-1.2-2-1.7zm1 1.6c-.2.2-.5.3-.7.5-.1-.4-.2-.8-.2-1.3.3.3.6.5.9.8zM33.8 4.2c.5-.2.5-.6.5-.9-.1-.1-.2-.3-.5-.3s-.6.1-.9.2c-.6.2-1.1.5-1.7.8v.1c0 .1.1.1.1.1.1 0 .1-.1.2-.1.3-.2.4 0 .5.1l.8 1.8c.1.2 0 .3-.2.4-.1 0-.1 0-.1.1v.1c0 .1.1.1.1.1.3-.2.5-.3.7-.4.4-.2.3-.1.7-.3.2-.1.6-.3.9-.6.1-.3.1-.5 0-.8-.1-.4-.6-.5-1.1-.4zm-1.4-.5c.1-.1.3-.1.4-.2.2-.1.4-.2.6-.1.2 0 .3.2.3.3.1.1.1.3 0 .5-.1.1-.3.3-.4.3l-.2.1v.1c0 .1.1.1.1.1.1 0 .1-.1.2-.1.3-.1.7-.2.9.3.1.2.1.3 0 .5s-.3.3-.4.4c-.5.2-.5 0-.6-.1l-.9-2.1zM44.7 2.6c.5 0 .8-.3.8-.6 0-.2-.1-.4-.3-.5-.2-.1-.5-.2-.9-.2-.6 0-1.2-.1-1.9 0v.2h.2c.4 0 .3.2.3.3v2c0 .2-.1.3-.3.3h-.1v.2h.7c.5 0 .3.1.8.1.2 0 .7 0 1.1-.2.2-.2.4-.4.4-.6 0-.6-.4-.9-.8-1zm-1.1-1.1h.4c.2 0 .4 0 .6.2.1.1.1.3.1.4 0 .1-.1.3-.2.4-.2.1-.4.1-.5.1h-.2v.2h.2c.3 0 .7.1.7.7 0 .2-.1.3-.2.4 0 .1-.2.2-.4.1-.5 0-.5-.3-.5-.4V1.5zM36 2.4c.1-.1.2-.1.4-.1.7-.2.8.2.9.4.1.5-.1.7-.4.8-.1 0-.2 0-.3.1v.2c.1 0 .3 0 .5-.1.3-.1.7-.2.9-.5v-.7c-.1-.8-1.3-.6-1.5-.5-.5.1-1.1.3-1.6.5v.1c0 .1.1.1.1.1.1 0 .1-.1.2-.1.4-.1.4.1.4.2l.4 2c.1.2 0 .3-.2.4h-.1v.1c0 .1.1.1.1.1h.1c.4-.1.3-.1.6-.2.2-.2.2-.2.6-.3.1 0 .1 0 .1-.1v-.1c0-.1-.1-.1-.1-.1-.1 0-.1 0-.2.1-.3.1-.3-.1-.4-.2L36 2.4zM40.2 1.3c-.6.1-1 .3-1.2.6-.4.5-.3.9-.3 1.2.1.3.2.8.6 1.1.2.2.6.3 1.1.3.5 0 .9-.3 1.1-.5.4-.5.5-.9.5-1.3 0-.3-.1-.8-.5-1.1-.3-.2-.7-.4-1.3-.3zm0 .2c.2 0 .5 0 .8.3.2.3.3.7.3.9s0 .7-.1 1c-.2.3-.4.4-.6.5-.2 0-.5 0-.7-.3-.2-.3-.3-.7-.3-.9 0-.2-.1-.7.1-1 0-.3.2-.5.5-.5zM49.5 1.9l-.1-.1h-.1c0 .1 0 .1-.2.1-.1.1-.1 0-.3 0-.1-.1-.3-.1-.4-.1-.5-.1-1 0-1.3.1-.4.2-.7.6-.8 1.2-.1.4.1.8.2 1 .1.2.5.6 1.3.7.3.1.7.1 1.1 0h.1l.2-.7-.1-.1H49c-.2.3-.5.7-1.1.5-.2-.1-.5-.1-.7-.5 0-.1-.2-.4-.1-1 .1-.3.2-.6.4-.8.3-.4.7-.3.9-.3.5.1.7.4.7.8l.1.1h.1l.2-.9zM54.1 7.4c0-.1-.1-.1 0 0 0-.1-.5 0-1-.3-.3-.2-.5-.6-.7-1.3 0-.1-.2-.6-.3-.8-.1-.3-.2-.5-.6-.8-.1 0-.1-.1-.2-.1.3 0 .5-.1.7-.2.2-.1.3-.2.4-.3.2-.2.3-.2.4-.2l-.1.1-.1.1c-.1.2.1.4.3.4.2.1.4 0 .5-.2.1-.1.1-.4-.4-.6-.1-.1-.2-.1-.4-.1-.3 0-.5.2-.7.4-.6.5-.8.4-.9.4l.3-.7c.1-.3.3-.2.4-.2.1 0 .1 0 .1.1 0 0 .1 0 .1-.1v-.1c-.1 0-.1 0-.1-.1-.3-.1-.5-.1-.7-.2-.2-.1-.3-.1-.7-.3h-.2s-.1 0-.1.1v.1H50.4c.2.1.2.2.1.3l-.5 2c0 .2-.1.3-.3.2h-.2l-.1.1v.1s.1 0 .1.1c.5.1.1 0 .6.2s.1.1.6.2h.1l.1-.1v-.1h-.1c-.2-.1-.2-.2-.1-.4l.4-1c.4.2.5.6.6.9.3.9.3.9.3 1 .1.4.4 1 1 1.3.2.2.7.2 1.1.1-.1.1-.1 0 0 0zM56.2 6.1l-1 1.4c-.1.2-.3.2-.5.1-.1 0-.1-.1-.1-.1s-.1 0-.1.1v.1l.1.1c.4.1.3 0 .6.2.2.1.3.2.5.4.1 0 .1.1.1.1s.1 0 .1-.1v-.1c-.1 0-.1-.1-.1-.1-.3-.2-.2-.2-.1-.4l1.2-1.5c.2-.2.3-.4.5-.3v-.2c-.2-.1-.8 0-.9 0-.8.1-1.5.4-2.3.6L55 5c.1-.2.3-.2.5-.1.1 0 .1.1.1.1s.1 0 .1-.1v-.1l-.1-.1c-.5-.3-.3-.2-.7-.3-.3-.1-.3-.2-.6-.4-.1 0-.1-.1-.2-.1 0 0-.1 0-.1.1v.1c.1 0 .1 0 .2.1.3.2.2.3.2.4l-1.2 2.3.1.1h.1c.9-.5 1.8-.7 2.8-.9zM59 7.6l.6.6c.2.3.4.5.1.9v.1c0 .1.1.1.1.1l.5-.4v-.1c-.6-.8-1.3-1.5-2.1-2.2 0 0-.1 0-.1.1v.1c.1 0 .1.1.2.1.3.3.1.4.1.5L57 8.9c-.2.2-.3.1-.5 0l-.1-.1s-.1 0-.1.1V9l.1.1.1-.1c.2.2.3.2.3.3.6.6.2.2.9 1 .1.2.4.5.8.4.2-.1.4-.3.5-.4v-.1l-.1-.1c-.4.2-.8.3-1.3-.3-.4-.4-.3-.6-.1-.8l.6-.6.2.2c.3.3.3.4 0 .7 0 0 0 .1.1.1l.1.1.9-.8s0-.1-.1-.1l-.1-.1c-.3.2-.4.2-.7-.1l-.2-.2.7-.6z"/></g><path fill="#fff" d="M58.8 15.6c-.3-.3-.7-.6-.8-.9-.1-.4.1-.8.2-1.1.2-.4.4-.9.1-1.4-.3-.5-.9-.7-1.4-.9-.5-.2-.9-.3-1.2-.6-.3-.3-.3-.7-.4-1.1 0-.4-.1-.9-.6-1.3-.5-.3-1.1-.4-1.7-.4-.5 0-1-.1-1.5-.3-.5-.2-.7-.6-1-.9-.3-.4-.5-.8-1.2-1-.2-.1-.4-.1-.7-.1-.4 0-.8.1-1.1.2-.4.1-.8.2-1.2.2h-.4c-.5-.1-1-.3-1.4-.6-.5-.3-1-.6-1.7-.6s-1.2.3-1.7.6c-.4.3-.8.5-1.4.6h-.4c-.4 0-.8-.1-1.2-.2-.4-.1-.8-.2-1.1-.2-.2 0-.5 0-.7.1-.6.2-.9.6-1.1.9-.2.3-.5.7-1 .9-.5.2-1 .2-1.5.3-.6 0-1.2.1-1.7.4-.5.4-.5.8-.6 1.3 0 .4-.1.7-.4 1.1-.3.3-.8.5-1.3.7-.5.2-1.1.4-1.4.9-.3.5-.1.9.1 1.3s.3.7.2 1.1c-.1.4-.5.7-.8 1-.3.4-.8.8-.8 1.3s.4.9.8 1.3c.3.3.7.6.8 1 .1.4 0 .8-.2 1.1-.2.4-.4.9-.1 1.3.3.5.8.7 1.3.8.5.2.9.3 1.3.7.4.3.4.7.4 1.1 0 .4.1.9.5 1.2.5.3 1.1.4 1.7.4.5 0 1.1.1 1.6.3.5.2.7.6 1 .9.2.4.5.8 1.1 1 .2.1.4.1.7.1.4 0 .7-.1 1.1-.2.4-.1.8-.2 1.2-.2h.4c.6.1 1.1.3 1.5.6.5.3.9.6 1.7.6.7 0 1.2-.3 1.8-.6.4-.2.8-.5 1.4-.6h.5c.4 0 .8.1 1.2.2.4.1.7.2 1.1.2.2 0 .4 0 .6-.1.6-.2.9-.6 1.2-1 .2-.3.5-.7.9-.9.5-.3 1-.3 1.5-.3.6 0 1.2 0 1.7-.4s.5-.8.6-1.3c0-.4.1-.7.4-1.1.3-.3.8-.5 1.2-.7.6-.2 1.1-.4 1.4-.9.3-.5.1-.9-.1-1.4-.2-.4-.3-.7-.2-1.1.1-.4.5-.7.8-1 .4-.3.8-.7.8-1.3 0-.3-.4-.6-.8-1zm-16 10.7c-7.3 0-13.2-4.2-13.2-9.4s5.9-9.4 13.2-9.4c7.3 0 13.2 4.2 13.2 9.4s-5.9 9.4-13.2 9.4zM38.6 15.4c.4-.3.6-.5.7-.7.1-.2.1-.5.1-.7.1.2.3.3.6.5.7.3 1.7.4 2.3.3.3 0 .8-.1 1.2-.3.1.1.2.5.4.7.2.3.7.7.9.8.3.2.5.2.8.3-.4-.3-.8-.9-1-1.5-.2-.6 0-1.1.1-1.4.1-.3.3-.7.4-.9.1.2.2.3.3.4s.4.5.3.6c0 .1-.1.1-.2.1.1.1.2.2.5.1.4-.1.7-.2.8-.5.1-.2-.1-.4-.1-.4 0-.1 0-.2.1-.3.1-.1.3-.4.3-.6.1-.3.1-.5.1-.8.6.1 1 .1 1.6 0 .7-.2 1.3-.5 1.6-.8-.5.2-1.3.4-2 .4-.5 0-1-.2-1.4-.4-.4-.2-.5-.5-.4-.8.1-.3.2-.5.4-.7-.3.1-.4.2-.6.4-.2.2-.4.5-.3 1.1-.1-.1-.1-.2-.1-.3-.3-.5-.9-.7-1.4-.8-.5-.1-1 .1-1.3.3 0 .1-.1.2-.5.4-.5.3-2.8 1.6-3.6 1.8-.5.1-.8 0-.8 0s-.3.1-.5.1c-.1.2-.2.3-.4.5l-.5.5c.2-.1.4-.3.4-.2v.3s.1.5.1.9c.1.2.2.5.6.8.4.2.5.4.5.8z"/><circle fill="#fff" cx="60.9" cy="12.4" r=".8"/><circle fill="#fff" cx="24.6" cy="12.4" r=".8"/><g fill="#fff"><path d="M34.1 16.2c.1 0 .2 0 .3.3l.8 2.1h.1l1-2.1c.1-.2.1-.2.2-.2h1.3v.4c-.5-.1-.6.3-.6.5v2c0 .2-.2.3-.3.3h-.3c-.1 0-.1 0-.1-.1v-1.8c0-.1 0-.5.1-.9h-.1l-1.5 3h-.2l-1-2.7c-.1-.3-.1-.4-.3-.4v2.5c0 .2 0 .6.6.4V19.8h-1.6V19.5c.6.1.6-.2.6-.5l.1-2.2c0-.3-.3-.3-.6-.3V16.2h1.5zM43.2 18.9c0-.1 0-.1-.1-.1H43c-.2.2-.5.3-.7.3-.3 0-.5-.1-.7-.3-.1-.2-.2-.4-.2-.7 0-.1 0-.6.3-.9.1-.1.3-.3.6-.3.1 0 .2 0 .3.1-.2 0-.2.2-.2.3 0 .2.2.3.3.3.2 0 .4-.2.4-.4 0-.3-.2-.6-.8-.6-.4 0-.7.1-1 .3-.3.3-.5.7-.5 1.1 0 .4.1.7.4.9s.6.4 1 .4.6-.1 1-.4c0 .1 0 .1 0 0zM46.4 19c-.1 0-.2 0-.3-.1-.1-.1-.1-.2-.1-.3v-1.8c.1-.1.2-.1.3-.1 0 0 .1 0 .1-.1s-.1-.1-.1-.1H45s-.1 0-.1.1.1.1.1.1h.1c.2 0 .2.1.2.3v.6h-1.2v-.8c.1-.1.2-.1.3-.1l.1-.1v-.1h-1.3l-.1.1v.2h.1c.2 0 .2.1.2.3v1.6c0 .1 0 .2-.1.3 0 0-.1.1-.2.1H43l-.1.1c0 .1.1.1.1.1H44.2s.1 0 .1-.1-.1-.1-.1-.1c-.1 0-.2 0-.3-.1-.1-.1-.1-.2-.1-.3V18H45v.7c0 .1 0 .2-.1.3h.3l-.1.1c0 .1.1.1.1.1H46.4s.1 0 .1-.1 0-.1-.1-.1zM49.1 17.8c-.2-.2-.5-.2-.6-.2-.2 0-.3 0-.6.1v.1c0 .1.1.1.1.1.1 0 .3-.1.4-.1.3 0 .4.2.4.5 0 .1 0 .3-.1.4-.2.3-.4.3-.6.3-.3 0-.4-.1-.4-.3V17c.1-.1.2-.1.3-.1 0 0 .1 0 .1-.1s-.1-.1-.1-.1h-1.3s-.1 0-.1.1.1.1.1.1h.1c.2 0 .2.1.2.3v1.6c0 .3-.1.4-.4.3l-.1.1c0 .1.1.1.1.1h1.5c.2 0 .5 0 .7-.2.3-.2.4-.4.4-.7.1-.2 0-.4-.1-.6zM50.6 19c-.1 0-.2 0-.3-.1-.1-.1-.1-.2-.1-.3v-1.8c.1-.1.2-.1.3-.1 0 0 .1 0 .1-.1s-.1-.1-.1-.1h-1.3l-.1.1c0 .1.1.1.1.1h.1c.2 0 .2.1.2.3v1.6c0 .1 0 .2-.1.3 0 0-.1.1-.2.1h-.1s-.1 0-.1.1.1.1.1.1H50.3s.1 0 .1-.1.3-.1.2-.1zM52.9 18.8c-.2.1-.4.2-.7.2-.3 0-.5-.1-.7-.3-.2-.2-.2-.5-.2-.7v-.2h1.5c.2 0 .3-.1.3-.2 0-.2-.1-.6-.4-.9-.2-.1-.4-.2-.7-.2-.3 0-.7.1-.9.3-.3.3-.4.7-.4 1.1 0 .5.2.7.3.9.1.2.5.4 1 .4.2 0 .6 0 1-.3v-.1h-.1zm-.8-2c.5 0 .5.5.5.7v.1h-1.1c0-.2.1-.4.2-.5 0-.1.1-.3.4-.3zM40.6 19c-.1 0-.3 0-.3-.1-.1-.1-.1-.2-.1-.3v-1.8c.1-.1.2-.1.3-.1V16.4h-1.2c-.5 0-.7 0-.9.1-.4.2-.4.5-.4.6 0 .2.1.4.3.5.1.1.3.1.5.1-.3.1-.5.3-.6.4l-.4.4c-.4.4-.6.7-.9.7-.3 0-.6-.1-.8-.2H36s0 .1-.1.1v.1c.2.2.6.3 1 .3.6 0 1-.3 1.2-.6.1-.1.4-.5.5-.7.2-.2.4-.5.7-.6l.1-.1c0-.1-.1-.1-.1-.1H39c-.3 0-.5-.2-.5-.4s.1-.3.2-.4c.2-.1.3-.1.5-.1.3 0 .3 0 .3.3v1.5c0 .1 0 .2-.1.3 0 0-.1.1-.2.1h-.1V19H40.3l.1-.1c.3.3.3.2.2.1 0 .1 0 0 0 0zM37.8 20.2l.6 2.8c0 .2.1.5.5.4l.1.1-.1.1H37.2l-.1-.1.1-.1c.2.1.6 0 .4-.6l-.5-2.3h-.3c-.1.9-.6 2.3-1 2.8-.1.2-.3.4-.6.4-.2 0-.4-.2-.4-.5s.2-.5.4-.5.3.2.3.3h.1c.2-.3.5-.8.7-1.3.2-.6.2-.8.2-1 0-.2 0-.3-.3-.3-.1 0-.3 0-.4.1l-.1-.1c0-.1.1-.1.1-.1l2-.1zM41.6 22.9c0-.1-.1-.1-.1-.1-.1 0-.1.1-.2.1h-.1s-.1-.1-.1-.2v-1.2c0-.3-.1-.5-.3-.7-.2-.2-.5-.3-.9-.3-.8 0-1.1.4-1.1.6 0 .2.1.3.3.3.2 0 .3-.1.3-.3 0-.1 0-.1-.1-.2l-.1-.1s.1-.1.4-.1c.5 0 .7.2.7.7v.1c-.1.1-.3.1-.4.1-.1 0-.2 0-.3.1-.2 0-.3.1-.5.1-.5.1-.7.4-.7.7 0 .4.3.7.8.7.3 0 .7-.1 1-.4 0 .1.1.4.5.4.2 0 .4-.1.5-.2.4.1.4 0 .4-.1zm-1-1.1v.8c-.3.2-.6.4-.8.4-.2 0-.4-.1-.4-.4 0-.5.5-.6 1.2-.8zM43.7 21.7c.1 0 .2-.1.3-.1.2-.1.2-.3.2-.5s-.1-.4-.4-.5c-.2-.1-.4-.1-.8-.1h-1.3s-.1 0-.1.1.1.1.1.1c.3-.1.4.1.4.3v1.6c0 .3-.1.4-.4.3 0 0-.1 0-.1.1s.1.1.1.1h1.5c.2 0 .5 0 .8-.2.2-.1.4-.4.4-.6 0-.2-.2-.5-.7-.6zm-.6 0h-.2s-.1 0-.1.1.1.1.1.1h.2c.5 0 .7.3.7.5s-.1.3-.2.4c-.2.1-.4.1-.5.1-.3 0-.4-.1-.4-.3v-1.8h.5c.3 0 .5.1.5.4-.1.1-.1.5-.6.5zM50.8 22.9c-.3.1-.4 0-.4-.3v-1.9c0-.1 0-.2.1-.3v-.1c0-.1-.1-.1-.1-.1-.1.1-.3.2-.9 1-.1.2-.8 1-.8 1V21c0-.2.1-.3.3-.3h.1s.1 0 .1-.1-.1-.1-.1-.1H47.8s-.1 0-.1.1.1.1.1.1c.3-.1.4.1.4.3v2.1l.1.1h.1l1.6-1.9v1.4c0 .3-.1.4-.4.3l-.1.1c0 .1.1.1.1.1H50.8s.1 0 .1-.1-.1-.2-.1-.2zM49.2 23.3c0-.1-.1-.1 0 0-.1-.1-.5.2-.9.2-.3 0-.6-.2-1-.7l-.5-.5c-.2-.2-.4-.3-.8-.4h-.1c.2-.1.4-.3.6-.7 0-.1.1-.3.2-.3v.2c0 .2.1.3.3.3.2 0 .4-.1.4-.4 0-.3-.3-.4-.5-.4-.3 0-.5.2-.6.3-.1.1-.1.3-.2.4 0 .1-.1.1-.1.2-.1.2-.3.3-.5.3V21c.1-.1.2-.1.3-.1 0 0 .1 0 .1-.1s-.1-.1-.1-.1h-1.3s-.1 0-.1.1.1.1.1.1h.1c.2 0 .2.1.2.3v1.6c0 .1 0 .2-.1.3-.1.1-.2.1-.3.1 0 0-.1 0-.1.1s.1.1.1.1H45.8s.1 0 .1-.1-.1-.1-.1-.1c-.1 0-.2 0-.3-.1-.1-.1-.1-.2-.1-.3v-.7c.4 0 .6.3.8.5.5.5.5.6.6.7.2.3.7.6 1.3.6.4 0 .9-.2 1.1-.3.1-.2.1-.3 0-.3z"/></g><g fill="#fff"><path d="M8.4 48.4c.3 0 .5.1.7.5l1.5 4.2h.1l2.1-4.3c.2-.3.3-.4.5-.4H16l.1.1c.1.1 0 .3 0 .3 0 .1-.1.1-.1.1-1.1-.2-1.2.6-1.2 1V54c0 .4-.4.6-.7.7-.3.1-.4 0-.6 0-.1 0-.2-.1-.2-.2v-3.7c0-.3 0-1 .1-1.8h-.1l-2.9 6.1H10l-2.2-5.2c-.2-.6-.3-.7-.5-.9V54.1c0 .4 0 1.1 1.2.9l.1.1v.3c0 .1-.1.1-.1.1H7.6c-.2 0-.5-.1-.7-.1-.3 0-.7.1-1.3.1h-.4l-.1-.1v-.3l.1-.1c1.2.2 1.3-.5 1.3-1l.1-4.5c0-.7-.7-.7-1.2-.6 0 0 0-.1-.1-.1v-.3c0-.1.1-.1.1-.1h3zM26.9 53.9c0-.1-.1-.2-.2-.2-.1-.1-.2-.1-.2-.1-.5.3-1 .5-1.5.5-.6 0-1.1-.2-1.4-.7-.3-.4-.4-.8-.4-1.4 0-.3 0-1.2.5-1.8.2-.2.6-.6 1.3-.6.3 0 .5.1.6.1-.3.1-.5.3-.5.6 0 .4.4.7.7.7.4 0 .8-.3.8-.8s-.4-1.1-1.6-1.1c-.8 0-1.4.2-2 .7-.7.6-1 1.3-1 2.3 0 .8.2 1.4.7 1.9.5.5 1.2.8 1.9.8s1.5-.2 2.2-.7c.1-.1.1-.1.1-.2zM33.5 54.1c-.3.1-.5 0-.6-.1-.1-.1-.1-.4-.1-.6v-3.2c0-.1 0-.3.1-.4.1-.2.3-.3.7-.2 0 0 .1-.1.1-.2s-.1-.3-.1-.3h-.8c-.4.1-.9 0-1.3 0H30.9s-.1.1-.1.2c0 .2.1.3.1.3h.3c.4 0 .5.3.5.6v1.1h-2.5v-1.1c0-.1 0-.3.1-.4.1-.2.3-.3.7-.2 0 0 .1-.1.1-.2s-.1-.3-.1-.3h-.8c-.4.1-.9 0-1.3 0H27.3s-.1 0-.1.1v.2c0 .1.1.1.1.1h.3c.4 0 .5.3.5.6v3.2c0 .1 0 .4-.1.5-.1.1-.2.1-.3.1h-.2s-.1.1-.1.2c0 .2.1.2.1.2h2.7s.1-.1.1-.2c0-.2-.1-.3-.1-.3-.3.1-.5 0-.6-.1-.1-.1-.1-.4-.1-.6v-1.5H32v1.5c0 .1 0 .4-.1.5-.1.1-.3.1-.6.1 0 0-.1.1-.1.2s.1.3.1.3h2.8s.1-.1.1-.2c-.5.2-.7 0-.7.1zM38.9 51.6c-.4-.4-1.1-.4-1.3-.4-.4 0-.7 0-1.2.2l-.1.1s-.1.1 0 .3c0 .1.1.2.1.2h.1c.2-.1.5-.2.8-.2.5 0 .8.4.8 1.1 0 .2-.1.6-.2.8-.2.3-.7.3-.9.3-.7 0-.7-.2-.7-.6v-3.1c0-.1 0-.3.1-.4.1-.2.3-.3.7-.2 0 0 .1-.1.1-.2s-.1-.3-.1-.3h-.8c-.4.1-.9 0-1.3 0H34.4s-.1.1-.1.2.1.3.1.3h.3c.4 0 .5.3.5.6v3.2c0 .6-.3.8-.9.7 0 0-.1.1-.1.2s.1.3.1.3h3c.4 0 .9 0 1.5-.4.5-.3.8-.9.8-1.5-.2-.5-.4-.9-.7-1.2zM42 54.1c-.3.1-.5 0-.6-.1-.1-.1-.1-.4-.1-.6v-3.2c0-.1 0-.3.1-.4.1-.2.3-.3.7-.2 0 0 .1-.1.1-.2 0-.2-.1-.3-.1-.3h-.8c-.4.1-.9 0-1.3 0H39.4s-.1.1-.1.2.1.3.1.3h.3c.4 0 .5.3.5.6v3.2c0 .1 0 .4-.1.5-.1.1-.2.1-.3.1h-.2s-.1.1-.1.2c0 .2.1.3.1.3h2.8s.1-.1.1-.2c-.3-.1-.4-.2-.5-.2zM46.7 53.7c-.4.3-.8.5-1.4.5-.6 0-1-.2-1.4-.6-.4-.5-.5-1.1-.5-1.5v-.3h3.1c.5 0 .5-.1.5-.4 0-.4-.1-1.3-.7-1.8-.2-.4-.8-.6-1.3-.6-.7 0-1.4.3-1.8.7-.5.5-.8 1.4-.8 2.3 0 .9.3 1.5.6 1.8.3.3.9.9 2.1.9.5 0 1.2-.1 2-.7 0 0 0-.1-.1-.3h-.3zM45 49.6c.9 0 1 .9 1 1.3v.2h-2.3c.1-.4.2-.8.4-1.1.1-.2.4-.4.9-.4zM21.8 54c-.3.1-.5 0-.6-.1-.2-.1-.2-.4-.2-.5v-3.2c0-.1 0-.3.1-.4.1-.2.3-.3.7-.2l.1-.1v-.2l-.1-.1h-2.5c-.9 0-1.4.1-1.8.3-.7.4-.8.9-.8 1.3 0 .5.2.9.6 1.1.3.2.6.3.9.3-.6.2-1 .5-1.3.8s-.5.6-.7.9c-.7.9-1.3 1.3-1.9 1.4-.7.1-1.3-.2-1.5-.4 0 0-.1 0-.1.1-.1 0-.1.1-.1.2v.1c.5.3 1.3.6 2 .6 1.2.1 2-.7 2.5-1.2.2-.2.8-1 1-1.4.3-.5.8-1.1 1.5-1.2 0 0 .1-.1.1-.3 0-.1-.1-.2-.1-.2-.4.1-.6.1-.7.1-.5 0-.9-.4-.9-.9 0-.4.1-.6.4-.8.3-.2.7-.2 1-.2.5 0 .5 0 .5.6v3.1c0 .1 0 .4-.1.5h-.7l-.1.1v.2c0 .1.1.1.1.1h2.7l.1-.1s0-.1-.1-.3c0 .1 0 0 0 0zM54.9 48.5l.1.1 1.1 5.5c.1.4.2 1.1.9.9 0 0 .1.1.1.3 0 .2-.1.3-.1.3h-.8c-.2 0-.5-.1-.7-.1-.3 0-.5 0-.7.1h-.9s-.1-.1-.1-.3c0-.1.1-.3.1-.3.4.1 1.1.1.8-1.2l-.9-4.7h-.6c-.2 1.8-1.2 4.6-2 5.8-.3.5-.7.8-1.2.8s-.9-.4-.9-.9c0-.6.4-.9.9-.9.4 0 .7.4.7.7l.1-.1c.5-.6.9-1.5 1.3-2.7.4-1.2.4-1.7.4-2.1 0-.3-.1-.6-.7-.6-.2 0-.5.1-.7.1 0 0-.1-.1-.1-.3 0-.2.1-.3.1-.3l3.8-.1zM62.5 54c-.1-.1-.2-.1-.2-.1-.1.1-.3.2-.3.2s-.2 0-.2-.1c-.1-.1-.1-.2-.1-.5l.1-2.5c0-.6-.2-1.1-.5-1.4-.4-.4-1-.6-1.8-.6-1.7 0-2.1.8-2.1 1.3 0 .3.2.7.7.7.4 0 .7-.3.7-.7 0-.2 0-.3-.1-.4l-.1-.1c0-.1.2-.2.7-.2 1 0 1.3.4 1.3 1.4v.1c-.3.1-.5.2-.8.2-.2 0-.3.1-.5.1-.3.1-.7.2-1 .3-1 .3-1.4.8-1.4 1.5 0 .9.7 1.4 1.7 1.4.7 0 1.4-.3 2.1-.8.1.3.3.8 1 .8.5 0 .9-.3 1-.4-.1.1-.1-.1-.2-.2zm-2-2.3v1.6c-.5.5-1.2.8-1.7.8s-.8-.3-.8-.8c0-1 1.1-1.3 2.4-1.6h.1zM66.8 51.6c.2-.1.5-.2.6-.3.3-.3.5-.5.5-.9 0-.5-.3-.8-.8-1-.4-.2-.8-.2-1.7-.2h-2.6s-.1.1-.1.2c0 .2.1.3.1.3.7-.1.7.2.7.6v3.2c0 .6-.2.8-.7.7 0 0-.1.1-.1.2s.1.3.1.3h1.4c.4 0 .7 0 1 .1h.7c.5 0 1.1 0 1.6-.4.5-.3.7-.8.7-1.2 0-.8-.4-1.4-1.4-1.6zm-1.2-.2h-.4s-.1.1-.1.2c0 .2.1.3.1.3h.4c1.1 0 1.3.6 1.3 1.1 0 .3-.1.6-.4.8-.3.2-.8.2-1 .2-.7 0-.8-.3-.8-.7v-3.6c.3 0 .6-.1.9-.1.6 0 1 .1 1 .8.1.4.1 1-1 1zM81.2 54c-.6.1-.8-.1-.8-.6v-3.7c0-.1 0-.4.2-.6V49c-.1-.1-.3-.2-.3-.2h-.1c-.3.1-.6.4-1.9 2-.3.4-1.6 2-1.6 2v-2.5c0-.5.2-.7.5-.7h.2s.1-.1.1-.3c0-.2-.1-.2-.1-.2h-2.8s-.1.1-.1.2.1.3.1.3c.7-.1.7.1.7.6v4.3s.1.1.2.1h.2l.1-.1 3.3-3.9v2.8c0 .6-.2.8-.7.7 0 0-.1.1-.1.2s.1.3.1.3H81.2s.1-.1.1-.2c0-.2-.1-.4-.1-.4zM78 54.7c-.1-.1-.2-.1-.2-.1s-.7.5-1.7.4c-.7-.1-1.2-.5-2-1.3-.2-.2-.8-.8-1-1.1-.4-.5-.8-.7-1.5-.8-.1 0-.2 0-.3-.1h.1c.3-.1.8-.6 1.2-1.5.1-.1.2-.5.4-.7-.1.1-.1.2-.1.3 0 .4.3.6.7.6.4 0 .7-.3.7-.8 0-.6-.5-.8-1-.8-.7 0-1 .4-1.2.7-.2.3-.3.6-.4.8-.1.1-.1.3-.2.4-.2.3-.5.6-.9.6v-1.2c0-.1 0-.3.1-.4.1-.2.3-.3.7-.2 0 0 .1-.1.1-.2 0-.2-.1-.3-.1-.3h-.8c-.4 0-.8.1-1.3 0H68.7s-.1.1-.1.2c0 .2.1.3.1.3h.3c.4 0 .5.3.5.6v3.2c0 .1 0 .4-.1.5-.1.1-.3.1-.6.1 0 0-.1.1-.1.2s.1.3.1.3h2.7s.1-.1.1-.2c0-.2-.1-.3-.1-.3-.3.1-.5 0-.6-.1-.1-.1-.1-.4-.1-.6V52c.8 0 1.1.6 1.6 1.1 1 1.1 1 1.1 1.2 1.4.5.5 1.4 1.2 2.6 1.1.9 0 1.7-.4 2.2-.7-.3 0-.3-.1-.4-.2zM6.2 46.2h-.4c-.9 0-1.1-.1-1.7-.1-.7 0-.8.1-1.7.1H2s-.1-.1-.1-.2c0-.2.1-.3.1-.3h.5c.8 0 .8-.4.8-.8v-6h-.5c-1.1 0-1.8.5-2.3 1.5 0 0-.1.1-.3.1-.1 0-.2-.1-.2-.1l.3-2.5s.1-.1.3-.1c.2 0 .3.1.3.1-.1.2 0 .4.3.4h5.9c.3 0 .3-.2.3-.4 0 0 .1-.1.3-.1.2 0 .3.1.3.1l.3 2.5s-.1.1-.3.1c-.1 0-.2-.1-.2-.1-.5-1-1.2-1.5-2.3-1.5h-.6v6c0 .4 0 .8.8.8h.5s.1.1.1.3c0 .1-.1.2-.1.2zM14.8 44.9c.2.6.4.9.9.9 0 0 .1.1.1.2s-.1.2-.1.2h-.1c-.5 0-.9-.1-1.4-.1-.6 0-1.2.1-1.7.1h-.1s-.1-.1-.1-.2.1-.3.1-.3c.4 0 .7 0 .7-.3 0-.1 0-.2-.1-.5l-.5-1.3H9.9l-.4 1.1c-.1.3-.1.5-.1.5 0 .2.1.7.9.5 0 0 .1.1.1.2s-.1.3-.1.3h-.1c-.5 0-.9-.1-1.3-.1s-.9.1-1.3.1h-.2s-.1-.1-.1-.2.1-.3.1-.3c.2-.1.6-.3 1.1-1.2l3.3-6.5h.6l2.4 6.9zM11.6 40l-1.4 3h2.3l-.9-3zM22.1 41.8c1.1.1 2.1.7 2.1 2 0 .6-.3 1.3-.9 1.8-.9.7-2.1.7-2.7.7-1.2 0-.8-.1-2.1-.1-.4 0-.9 0-2 .1h-.1s-.1-.1-.1-.3c0-.1.1-.3.1-.3h.4c.5 0 .9-.2.9-.8v-5.4c0-.3.1-.8-.8-.8h-.4s-.1-.1-.1-.2.1-.3.1-.3H21c.8 0 1.5.1 2.1.4.6.4.9.9.9 1.3-.1.9-.7 1.8-1.9 1.9zm-2.7 2.9c0 .3 0 .9 1.3.9.4 0 1-.1 1.4-.6.2-.2.4-.6.4-1.1 0-1.6-1-1.7-1.8-1.7h-.5s-.1-.1-.1-.3c0-.2.1-.3.1-.3h.5s.8 0 1.1-.3c.4-.3.5-.7.5-1.1s-.1-.7-.4-1c-.4-.3-1-.3-1.4-.3-.3 0-.7 0-1 .1l-.1 5.7zM46.8 41.8c1.1.1 2.1.7 2.1 2 0 .6-.3 1.3-.9 1.8-.9.7-2.1.7-2.7.7-1.2 0-.8-.1-2.1-.1-.4 0-.9 0-2 .1h-.1s-.1-.1-.1-.3c0-.1.1-.3.1-.3h.4c.5 0 .9-.2.9-.8v-5.4c0-.3.1-.8-.8-.8h-.4s-.1-.1-.1-.2.1-.3.1-.3h4.5c.8 0 1.5.1 2.1.4.6.4.9.9.9 1.3 0 .9-.6 1.8-1.9 1.9zm-2.6 2.9c0 .3 0 .9 1.3.9.4 0 1-.1 1.4-.6.2-.2.4-.6.4-1.1 0-1.6-1-1.7-1.8-1.7H45s-.1-.1-.1-.3c0-.2.1-.3.1-.3h.5s.8 0 1.1-.3c.4-.3.5-.7.5-1.1s-.1-.7-.4-1c-.4-.3-1-.3-1.4-.3-.3 0-.7 0-1 .1-.1.1-.1 5.7-.1 5.7zM27.7 45c0 .4 0 .8.8.8h.5s.1.1.1.3c0 .1-.1.2-.1.2h-.4c-.9 0-1-.1-1.7-.1-1 0-.5.1-1.7.1h-.4s-.1-.1-.1-.2.1-.2.1-.2h.4c.5 0 .9-.2.9-.8v-5.4c0-.3.1-.8-.8-.8h-.4s-.1-.1-.1-.3c0-.1.1-.3.1-.3H29c.6 0 3.3 0 3.3 2.1 0 .7-.2 1.2-.5 1.6-.7.8-1.7.9-2.4.9-.5 0-.9-.1-1.2-.2 0 0-.1-.1 0-.3 0-.1.1-.2.1-.2.5.1.7.1.9.1.7 0 1.4-.4 1.4-1.8 0-.6-.2-1.5-1.8-1.5-.4 0-.7.1-.9.1l-.2 5.9zM39.8 39.2c1.1 1 1.2 2.3 1.2 3.1s-.1 2.1-1.2 3.1c-.5.5-1.4 1.1-2.9 1.1-1.4 0-2.4-.6-2.9-1.1-1.1-1-1.2-2.3-1.2-3.1s.1-2.1 1.2-3.1c.5-.5 1.4-1.1 2.9-1.1s2.3.6 2.9 1.1zm-4.6.6c-.4.8-.5 1.9-.5 2.5s.1 1.7.5 2.5c.5.9 1.2 1.1 1.7 1.1.6 0 1.2-.2 1.7-1.1.4-.8.5-1.9.5-2.5s-.1-1.7-.5-2.5c-.5-.9-1.2-1.1-1.7-1.1-.6 0-1.3.2-1.7 1.1zM57 40.4s-.1.1-.3.1c-.2 0-.3-.1-.3-.1-.3-1.2-1-1.7-2.2-1.7-.5 0-1.4.1-2.1 1.2-.4.6-.5 1.6-.5 2.3 0 1.6.6 2.5.7 2.6.6.8 1.3.9 1.9.9 1.6 0 2.3-1.1 2.5-2.1 0 0 .1-.1.3-.1.2 0 .3.1.3.1v1.9l-.2.1c-.9.5-2.1.7-2.8.7-2.1 0-3.1-.8-3.6-1.3-.5-.6-.9-1.5-.9-2.6 0-1.6.6-2.8 1.5-3.5.7-.6 1.7-1 2.9-1 .3 0 .8 0 1.1.1.6.1.6.2.8.2.3 0 .4-.2.3-.4 0 0 .1-.1.3-.1.1 0 .3.1.3.1v2.6zM72.1 46.6l-.2-.2s-1.1.9-2.5.7c-1-.1-2.1-.8-3.2-2.2-.2-.3-1.1-1.3-1.4-1.7-.6-.7-1-1.1-2.1-1.4-.2 0-.3-.1-.5-.1.6-.2 1.1-.8 1.3-1.2.3-.4.4-.7.5-1.1.3-.6.4-.7.6-.8v.1c0 .1-.1.1-.1.2v.4c0 .6.6.8.9.8.6 0 .9-.4.9-1 0-.4-.3-1.1-1.4-1.1-.3 0-.6 0-1 .3-.6.4-.9 1.1-1.2 1.6-.9 1.7-1.3 1.6-1.6 1.6v-2c0-.8.5-.8.8-.8h.3s.1-.1.1-.2-.1-.3-.1-.3h-.4c-.8 0-1.1.1-1.6.1s-.8-.1-1.6-.1h-.4s-.1.1-.1.3c0 .2.1.2.1.2h.7c.5.1.5.4.5.8V45c0 .5-.2.8-.7.8H58.1s-.1.1-.1.2.1.2.1.2h.4c1.3 0 .2-.1 1.6-.1s.4.1 1.6.1h.4s.1-.1.1-.2-.1-.3-.1-.3h-.4c-.7 0-.7-.3-.7-.8v-2.8c1 .1 1.5 1 2.1 1.8 1.5 1.8 1.5 1.9 1.7 2.2.7.9 2 1.9 3.8 1.9 1.3-.1 2.5-.6 3.2-1.2.3 0 .4-.1.3-.2zM69 46.4c-.1.1-.2.1-.3.1-.1 0-.2-.1-.2-.1v-6.8c0-.3.1-.8-.8-.8h-.5s-.1-.1-.1-.3c0-.1.1-.2.1-.2h.4c1 0 1 .1 1.7.1.8 0 .4-.1 1.7-.1h.4s.1.1.1.3c0 .1-.1.2-.1.2H71c-.4 0-.9.1-.9.8v4.3l3.9-4.6c.2-.3 1.2-1.3 1.7-1.5 0 0 .1.1.2.1.1.1.1.2.1.2-.5.3-.5.9-.5 1.6V45c0 .4 0 .8.8.8h.5s.1.1.1.3c0 .1-.1.2-.1.2h-.4c-.8 0-1.1-.1-1.7-.1-.9 0-.5.1-1.7.1h-.4s-.1-.1-.1-.3c0-.1.1-.2.1-.2h.4c.5 0 .9-.2.9-.8v-4.5L69 46.4zM80.6 41.5h.6c1 0 1.2-.2 1.2-1.2 0 0 .1-.1.3-.1.1 0 .2.1.2.1v3.1s-.1.1-.3.1c-.2 0-.3-.1-.3-.1-.1-1-.2-1.2-1.2-1.2h-.6v2.3c0 .8.1 1.2 1.6 1.2 1.9 0 2.6-1 2.7-2.1 0 0 .1-.1.3-.1.1 0 .3.1.3.1.2.4.3 1.3.1 1.9-.4.9-1.5.9-2.2.9-2.7 0-1.3-.1-3.5-.1-.3 0-.5 0-1.2.1h-.9s-.1-.1-.1-.3c0-.1.1-.3.1-.3h.4c.5 0 .9-.2.9-.8v-5.4c0-.3.1-.8-.8-.8h-.4s-.1-.1-.1-.3c0-.1.1-.3.1-.3h7.1l.1.1V40.2s-.1.1-.3.1-.3-.1-.3-.1c-.3-1.3-1-1.4-1.8-1.4h-2v2.7z"/></g></g></svg>