<svg xmlns="http://www.w3.org/2000/svg" viewBox="0 0 58.9 71.8" enable-background="new 0 0 58.9 71.8"><g opacity=".5" fill="#fff"><path fill-rule="evenodd" clip-rule="evenodd" d="M30.2 11.6v-.1l.1-.1v-.1h.1v-.1h.2v-.1l.1-.2.4-.5v-.1h.1v-.2l-.7.6v.1h-.1v.1l-.1.1v.2h-.1v.1l-.1.1.1.2z"/><path d="M54.7 64.1l.1.1v-.7h-.1v.5zM44.9 36.4h.1v-.1h.1v-.2L45 36l-.1.1v.1l-.1.1v.1h.1zM45.1 35.4l.2.1.1-.1.1.2h.1l.2.7.1-.2-.1-.1.2-.2h.1V34.9l.1-.1-.1-.1H46l-.1.1v.5l-.3.3-.2-.6-.1.2v-.1.2l-.1.1H45h.1zm.3 0l.1.2-.1-.2zM54.6 60.1v-.4l-.2-.3V59.7h.1v.4h.1zM42.7 36.3v-.1h.1l-.4-.2v.2l.2.1zM43.2 36.4v-.1l-.1-.3H43l.1.3zM54.5 60.1v.1-.1zM45.1 34.6l.1-.1v-.1l.1-.1.1-.1h.1l.1-.1V34l.1-.2.5-.5V33l-.7.6-.1.1v.1h-.1v.1l-.1.1v.2l-.1.1-.1.1.1.2zM44.8 36.8v-.1l-.1-.1V36.3l-.1 1-.2-.3-.1-.1-.1-.1v-.1h-.1l.1.1.1.1.1.1.1.1.1.1.1.1v.4l-.3.3-.1-.1v-.2l-.1-.1H44l-.1-.1-.1-.1-.1-.1-.1-.1-.1-.1-.1-.1-.1-.1-.1-.1h-.1l-.1.1-.1-.1-.1-.1-.1-.1-.1-.1-.1-.1-.1-.1-.1-.1-.1-.1V36h-.1l.1.1.1.1.1.1.1.1.1.1.1.1.1.1.1.1v.1l.1.1.1.1.1.1v.1l.1.1v.1l.1.1v.1l.1.1v.1l.1.1.1.1v.1l.1.1.1.1V36.9l.5.4v.1l.2.8-.1.1h.1V38.6v-.2.6l.4.4h.1l-.1-.2-.7-.2-.1-.1h.1l.1-.1h.1l.1-.1.1.1.1.1.1.1.1.1.1.1.1.1.1.1.1.1V38.6l-.1-.1-.1-.1V38.1l.1-.5.1.1.1.1.1.1V38.2l.1.1v.1l.1.1.1.1v.1l.1.1v.2l-.1.1v.4l.1-.1.1-.1v-.1l.2-.2.1.7v.2V38.9v.1-.4l.2-.3v-.1.2l-.3.6.1.1.1-.7.1-.1.3-.8h-.2v-.1l-.1-.1v-.4l-.1 1.4-.1.1v-.2l.1-.1V38l.1-.1h-.1l-.1.1-.4-.2-.1.1v-.5l.1-.1.1-.1.1-.1.1-.1.1-.1.1-.1.1-.1.1-.1.1-.1v-.1h-.1l-.1.1-.1.1-.1.1.2-.3v-.1l-.6.2-.1.4v.1l-.1.1-.1.1-.1.1-.1.1-.1.1-.1.1v.1l-.1.1-.1.3V37.8l-.1-.1-.1-.1-.1-.1-.1-.1-.1-.1.2-.6.2.3.1.1-.1-.4-.2.1zm-.5 1.6l-.2.2v-.4.1l.2.1zm1-.2l.1-.1v-.2l.1-.1.1-.1.1-.1.1-.1v1.2l-.1.1-.1.1v.1-.4l-.3-.4zM49.1 34.8h.2l.2-.1v-.1h.1l.1-.1.1-.1-.1-.2h-.1l-.5.4-.1.2v.1zM48.7 35.8h.1l-.1.2h.1l.2-.2v-.1h-.1.1v-.2h-.1l-.3.1-.1.1v.1h.1zM48.4 42.6l-.2-.1h-.4l-.1.1v.2h.2l.1.1h.1l.1.1h.1l.1.1.1.1v.1h.1l.1.1v.1h.1l.1.1.1.1.1.1v.1l.1.1.1.1.1.1.1.1v.1h.1v.1l.1.1.1.1h.1v-.2l-.1-.1v-.1l-.1-.2-.1-.1v-.1l-.1-.1v-.1l-.1-.1-.1-.1v-.1l-.1-.1-.2-.2-.1-.1-.1-.1-.1-.1h-.1l-.1-.1h-.1zM47 44.9l.1.1v.1l.1.2.1.1v.2h.1v.2h.1v.2h.1v-.4l-.1-.1V45.2l-.1-.1V45l-.1-.1v-.1l-.1-.1v-.2l-.1-.1v-.2l-.1-.1V44l-.1-.2v-.1l-.1-.1h-.1v-.1l-.1-.1-.1-.1h-.1v.1h-.1v.1l.1.1v.1l.1.3v.1l.1.1.1.1v.1l.1.1v.1l.1.1v.1zM48.1 35.5v.2-.1h.1v-.2h-.1zM48.1 37.4v.1l-.2.1-.1.1-.1.1v.1l-.1.2-.1.1-.1.1-.1.2v.1h-.1v.3l.1-.1.1-.1v-.1l.1-.1v-.1h.1l.1-.1v-.1l.1-.1h.1l.1-.1v-.1l.1-.1.1-.1v-.1h.1l.1-.1v-.1l.1-.1H48.2zM46.9 35.3h.1v.1-.2h.1l.1-.1V35l.1-.1h.1v-.1h.1v-.2l.6-.6V33.7l-.7.6-.1.1v.1l-.1.1v.1l-.1.1v.1H47v.1h-.1l-.1.3zM46.8 37.1h.1V36.8h-.1v.1l-.1.1v.1h.1zM47.6 43.6l.1.1v.1h.1l.1.1v.1h.1V43.7l-.1-.1v-.1l-.1-.1v-.1l-.1-.1v-.1l-.1-.1v-.2l-.1-.1-.1-.1h-.1l-.1-.2-.2-.1-.1-.1-.1-.1-.1-.1h-.1v-.1h-.1l-.2-.1-.1-.1h-.1l-.1.1h-.1v.1l-.1.1h.1v.1H46.2l.1.1.1.1v.1h.1l.1.1v.1-.1l.1.1.1.1h.1v.1h.1l.1.1v.1l.1.1.1.1.1.1.1.1v.1l.1.1zM43.7 36.9h.1v-.1l.1-.1-.1-.1v-.1l-.1-.1v-.1l-.2-.1-.1.1V36.6l.3.3zM36.8 35.6h.1v-.2l-.3-1.2-.1-.1v.1h-.1l.4 1.4zM36.9 36.9v.6l.1.1V36.7l.1-.1v-.2l.1-.1v-.2l.3-.5V35.3h-.1l-.1.1-.1.3-.2.5v.4l-.1.1v.1zM37.1 34.9l.1.1.1-.1V34.2l.1-.1v-.4h-.1l-.1.1v.1l-.1.2v.8zM38.1 36.5v-.1l.1-.1V36h-.1l-.1.1v.4zM34.2 13.4h-.1l-.1.1h-.2v.1l.5-.1.5-.1h.4l.1.1h.2v-.1h-.2l-.1-.1H34.4l-.1.1zM35.3 34.2h-.1l-.1.1v.1l.5.6.2-.5-.1-.2h-.1v-.1h-.2zM36 36.4h.1l-.2-.5h-.1l.2.4zM36 35.5h.1v-.2H36l-.1.1.1.1zM54.1 61.2l-.1.1V61.6l.1-.1.1-.1v-.2zM42.8 35.2l.2-.5-.1-.1h.1l.2-.1h.1l.1-.1.1-.1.1-.1.1-.1-.1-.2h-.2l-.5.5-.1.1-.1-.1h-.1l-.1.1h-.1v.2l.4.5zM44.1 35.1h.1l.1-.1v-.6l.1-.1V34h-.1l-.1.1v.1l-.1.2v.7zM39.5 34.6v.1h.1l.1-.2-.1-.1-.1.1zM38.3 34.4v-.2h.1v-.1l.1-.1.1-.1h.1l.1-.1v-.1l.1-.2.6-.7V32.5l-.8.7-.1.1v.1l-.1.1v.1l-.1.1v.1l-.1.1v.1l-.1.2v.2zM40.8 35.6v-.1h.1l-.4-.2v.2zM38.2 35.3h.1l.1.1.1-.1.2.3h.1l-.2-.3.1-.2V35h.1v-.2h-.1l-.1.2h-.1v-.2l-.1.1v.2l-.1.1-.1-.1h-.1v.1l.1.1zM39.6 35.6l-.1.1v.1H40.6l-.1.1v.2-.2l.1.1v-.2l.1-.1.1-.1.1-.1.1-.1.1-.1.1-.1.1-.1.2-.1.2-.1.4.1h.1l.1.2-.1.1v.1H42.5l.9.1.5.1h.1V37.5v-1.6l.2-.4v-.1l.2.2.1-.5V35H44.2l-.1.1v.1l.1.1-.2.3-.1-.2.1.1-.2-1-.1-.1.3 1.2-.1-.1-.1-.1v-.1l-.4-.2v.2h-.3l-.1-.1-.3.1v-.1l-.2-.5-.1-.1v.4H42l-.1-.1-.1-.1v-.1l-.4-.2v.2h-.3l-.1-.1-.2.1h-.2l-.1.3h.1l.2-.2.1.1.8.1-.1.1-.2.1-.4.2-.1.1-.1.1-.1.1-.1.1-.1-.1-.1-.1h-.8zm4.3 0zM51.6 52.3h-.2l.1.2.7.6v.1l.1.1.1.1.1.1v.1h.1v.1l.1.1v.1-.1h-.1l-.3-.2v.1h-.2v.1l-.1-.1-.2.1v.1l-.1-.1h-.1v-.1l-.3.1.6.3v-.2l.4.1.2.2.1-.1-.1-.1.2.1h.1l.1.1h.1l-.1-.4h-.1v-.1l-.1-.1v-.1l-.1-.1v-.1h-.1v-.1l-.1-.1-.1-.1v-.1l-.1-.1h-.1l-.1-.1v-.1l-.1-.1h-.1l-.1-.1v-.1zM52.7 54.3h-.1l-.1-.1v.2h-.1v.1l.2.2h.1V54.4zM51.9 52.3l.1-.1V51.9h-.1v-.1h-.2V52.1l.2.2zM50.9 52.7v.1l.8.6.1.1h.1l-.2-.2-.7-.6zM51.2 51.8v-.1l-.3-.1v.1l.2.1zM51.8 54.1v.1l.2.1v-.1l-.2-.1zM49.4 56.4v.1h.6l.8-.1h.1v-.1h-.1l-.1-.1H49.7v.1h-.2l-.1.1zM51.1 56.1l-.1.1v.1h.1l.2-.1H51.6l.1-.1h.1l.1-.1h.2l.5.2v-.1h.1l-.1-.1h-.1v-.1h-.2l.1-.1v-.1H52.1v.1h-.2l-.1.1h-.2l-.1.1v-.1h-.2v-.1h-.2.2v-.1h.4l.1-.1.1-.1-.1-.1h-.5v.1h-.5v.1h-.1l-.1.1h-.1l-.2.2h.4l.6.1-.1.1zM47.9 36.2l-.3.4v.1l.4-.3-.1-.2zM48 41.2h.2l.1-.1V41l-.1-.1H47.9l-.2.1h-.2l-.2.1-.1.1h-.1v.1l-.1.1v.1l.3.1.2.2.3.4.1-.1-.1-.1-.1-.2v-.1l.1-.1h.6l-.1-.1v-.1l-.1-.1h-.1l-.1-.1zM48.2 38.3h-.1l-.2.1-.1.1v.1l-.1.1v.1h-.1v.2l-.1.1v.1l-.1.1-.1.2v.1l-.1.1-.1.1v.1H47v.4h.1l.1-.1 1-1.1v-.2h-.1l-.1.1-.1-.1v-.1h.1v-.1l.1-.1v-.1l.1-.1v-.1zM46.9 36.3h.1v-.1l.1.1.1-.1.1.2h.2l-.2-.2v-.1l.1-.1h-.1l.1-.1h.1v-.2h-.1l-.1.2h-.1l.1-.1.1-.1.1-.2h.2l.1-.1.1-.1h.1l.1-.1H48v-.1l-.1.1-.1.2h-.2l-.1.1-.1.1-.1.1-.1.1v-.1l-.1.1v.1l-.1.1h-.1v.2zM34.7 35.1v.1h.1l.2.2.1-.1-.2-.7-.1-.1h-.1v.3h-.1l-.1-.1-.1-.1v-.1l-.5-.2h-.1v.2h-.4l-.1-.1-.4.3.2.2h1l.5.2zM49.6 36.1h-.1l-.1.2h-.1l-.1.2-.1.1-.1.1-.1.1-.1.1v.2-.1h.1v-.2h.1l.1-.1v-.1l.1-.1v-.1h.1l.1-.1.1-.1.2-.1.1-.1h.1v-.1h-.1zM50.5 54.7l.4-.1v-.1h-.2l-.1-.1H50.3l-.1.1.1.2zM49.1 55.8h.1l.1-.1h.1v-.1h.1l.1-.1h.2v-.1H50.1l.1-.1h.5l.1-.1h.1v-.1h.1l-.2-.1h.2l.1-.1.1.1h.4l.1.1h.1l.6.5.2.1v-.1l-.1-.1-.1-.1v.1H52.7v.1h.1v-.2l-.3-.2-.1.1h-.1v.1l-.3-.3.1.1h.4v-.1l-.1-.1h-.1v-.1l-.1-.1h-.1v-.1H52l-.1-.1v-.1h-.2v-.1h-.1l-.1-.1h-.2v-.1h-.4v-.1h-.2l-.1.1h-.1l.1.1h.2l.1.1h.1l.1.1h.2l.1.1h.2v.1h.1l.1.1.1.1-.1-.1h-.4l-.1-.1h-.2l-.4.1v.1h.1v.1h-.7l-.1.1h-.2l-.1.1h-.1l-.1.1h-.1l-.1.1-.1.1v.1l-.1.1v.1zM48 54.4h.1l.2.1h.4v-.1l1-.1.1.1h.1v-.1l-.1-.1H49.5l-.1-.1H48.6l-.1.1h-.2l-.1.1H48v.1zM53.2 56.2l-.1-.1-.1-.2h-.2l.3.3h.1zM51.5 51v.2h-.3l-.1-.1-.2.2.1.1.7.1.3.1h.1l.1.2h.1v-.1l-.1-.4-.1-.1v.2l-.1-.1h-.1v-.1l-.4-.2zM50.6 36.6l.2-.2v-.2l-.3.1-.1.1v.1h.1zM51 35.5h.2l.1-.1h.1l.1-.1.1-.1.1-.1-.1-.2-.2.1-.4.4-.1.1v.1zM52.7 51.5V51h-.1l-.1-.1-.1.1h-.1v.1l.3.4zM52.9 52.4h.1l-.2-.3.1.3zM49.9 51.8v-.1l-.1-.1h-.1v.2l.2.1zM53.3 55.9v.1l.1.1v.1h.1v-.1l-.1-.1v-.2h-.1v-.1l-.1-.1v-.1h-.1v-.1l-.1-.1v-.1h-.1v-.1h-.1l-.1-.1v-.1h-.1v-.1h-.1l-.1-.1-.1-.1-.1.1.1.1.6.6.1.1v.1l.1.1.1.1v.1zM50.1 52h.4l.1.1h.2l.1.1.1.1h.1l-.1-.1v-.1h-.1l-.1-.1h-.1l-.1-.1h-.2l-.1-.1h-.2v.1zM49.8 53.5H49.5l-.1.1.2.2 1 .2h.1v-.1l-.1-.1h-.2v-.1h-.2l-.1-.1H50l-.1-.1zM53.5 54.7v.1l-.1-.3zM53.6 53.4l-.1.1h-.1v.1l.1.6h-.1l.1.1v.1l.1.2V54.3l.1-.1V53.4zM52.9 51.8h.1l-.1-.1v.1zM53.3 55.5l-.1-.1v.1zM53.7 51.4v.1-.2l.1-.1v-.6h-.1V50.9l-.1.1v.4zM52.9 52.9l-.1-.1h-.1v-.1l-.1-.1-.1-.1v-.1l-.1-.1-.1-.1h-.1v.1h.1v.1l.1.1.1.1v.1h.1v.1l.1.1.1.1v.2l.1.1v.1l.1.1v.2l.1.2.1.1v.1h.1v-.5h-.1v-.2l-.1-.1v-.2H53V53h-.1zM53.5 52.7v.5h.1V52.4l.1-.1v-.1l.2-.3v-.2h-.1l-.1.3-.1.3v.1l-.1.1v.2zM53.5 51.9v-.1l-.2-.8-.1-.1v.1l.2.9zM29.1 19.2H29l-.1.6v.1h.1v-.1l.1-.1v-.2l.1-.1V19.7h.1l-.1-1.7-.1-.1H29v.1l-.1.5.1.1v.1l.1.1V19.1l.1.1-.1.1zM31.9 12.9l-.1.1v.1h.1v-.2h.1v-.1l.1-.1.1-.1.1-.1.1-.1h.1l.1-.1.1-.1h.1v-.1h-.1l-.1.2h-.2l-.1.1-.1.1-.1.1v.1l-.1.1zM31.8 12.2l.2-.2v-.1h-.2l-.1.3zM33.4 12.7l.2-.1v-.2l-.3.1v.2zM30.8 12.8l.3-.2-.1-.2-.3.3v.1zM31.6 14.6h.1l.1-.1v-.1h.1v-.1l.1-.1.1-.1.1-.1h.1l.1-.1h.1l.1-.1h.2l.1-.1h.1l.1-.1h.1l.1-.1h.1v-.1l-.1-.1h-.6v.1h-.1l-.1.1-.1.1h-.2l-.1.2-.1.1-.1.1h-.1v.2l-.1.1v.1l-.1.1v.1zM31.2 11.9v-.1l.1-.1-.1-.1v.1l-.1.1v.1h.1zM34.5 35.6v-.1h-.1l-.1-.1-.1.1v.2h-.1v.1l.4.4.1-.1V35.8l-.1-.1zM31.6 15.7l.1-.1.1-.1.1-.1.2-.1.1-.1.1-.1.1-.1h.1l.1-.1.1-.1h.1l.1-.1.1-.1h.1l.1-.1h.2l.1-.1h.2l.1-.1h.5l.1-.1H34.7V14l-.1-.1H33.8l-.1.1h-.2l-.1.1h-.2l-.1.1h-.2v.1h-.2l-.1.1-.1.1h-.1l-.1.1-.1.1-.1.1-.1.1-.1.1v.1h-.1v.1l-.1.1v.1l-.1.1-.1.1.1.1zM33.8 11.8h.1l.1-.1h.1v-.1h.1l.1-.1.1-.1-.1-.2-.1.1-.5.3v.2zM29.4 22.4v-.1h-.1l-.1.1v.4l.1-.1.1-.1v-.1zM29.2 24.1l.1.1v-.1l.1-.1V23.7l-.1-.1v-.2l.1-.1-.1-.1V23h-.1V24zM28.9 20.6l-.1.1.1.1v.5h.1V20.5l-.1-.1v.1zM29.1 30.2v.2l.1.1v.2h.1V24.7l-.1-.1v.1l-.1.2v.2L29 28V30.1zM28.8 16.7v.1h.1l-.1-.1zM33.2 35.5l.1-.1h.1l-.4-.2h-.1l.1.1.2.2zM33.1 35.9H33l-.2-.1-.1-.1H32.4l-.1-.1h-.1l-.1-.1h-.4v.2h.1v.1h.5l.2.1h.2l.1.1.1.1.2.1h.1V36h-.1zM31.1 19.1h.1l.1.1.1.1.1.1.1.1.1.1v.1l.1.1v.1h.1v-.2h-.1v-.2l-.1-.1-.1-.1-.1-.1v-.1h-.1l-.1-.1-.4-.3V19h.1zM29.6 14.4l-.1.5.1.1.1-.7h.1l.2-.8h-.1v-.1l-.1-.1V13h-.1l-.1 1.2zM28.5 12.5v-.2h-.1v.1l.1.1zM26.3 12.5v-.1h.1l-.3-.2-.1.1.1.1zM28.1 12.1l.2-.4-.1-.1v-.1h-.1l-.1-.1h-.1l-.1.1-.1.1.4.5zM28.5 13.2v-.1l-.1-.3h-.1l.1.3zM27 12l.4.2.1.1.2.1v-.1l-.1-.5-.1-.1h-.1v.2h-.1l-.1-.1v-.1l-.4-.2-.1.1v.1h-.3l-.1-.1-.3.2.2.2zM25.7 15.1l.1-.1v-.1h-.1l-.1-.1h-.1l-.1-.1h-.1l-.1-.1H25v-.1H24.7l-.1-.1h-.1l-.1.1h-.1v.1l.3.2zM25.2 12.6v.1h.4l.1.1H26l.1.1.1.1h.1l-.1-.1v-.1h-.1l-.1-.1-.1-.1H25.6l-.1-.1h-.4v.1zM24.9 12.5v-.2h-.1l-.1-.1v.1h-.1v.1l.2.1zM29.3 12l.1.1V11.8l.1-.1v-.6h-.1v.1l-.1.1V12zM29.2 31.8l.1.1V32.2l.1.1V32.6h.1v-.1l-.2-1.2h-.1v.4zM30 13.2h.1V12.9H30v.1l-.1.1v.1h.1zM30.1 12.3l.1.1h.1l.1-.1.1.2v.1h.1l-.1-.3.1-.1h-.1v-.1h.1v-.2h-.1l-.1.2V12h-.1v.2h-.2v.1zM29.1 12.6l.1-.2-.3-.9-.1-.1v.1l.3 1.1zM28.4 13.8l-.1-.1-.1-.1-.1-.1v-.1l-.1-.1-.1-.1v-.1l-.1-.1h-.1v-.1h-.1v.1l.1.1v.1h.1v.1l.1.1.1.1v.1h.1v.1l.1.1.1.1v.2l.1.1v.1l.1.1v.1l.1.1v.1l.1.1v.2l.1.1v.1h.1v-.5l-.1-.1v-.2l-.1-.1v-.2h-.1v-.2h-.1v-.1zM29.2 13.5l-.1.1v.4l.1.1v-.7l.1-.1v-.2l.1-.1.2-.4v-.2h-.1l-.2.2-.1.4v.5zM30.5 14.4v.1h-.1l-.1.3h.1l.1-.1v-.1l.1-.1v-.1h.1v-.1l.1-.1h.1v-.1l.1-.1.1-.1.1-.1v-.1h.1l.1-.1v-.1h.1v-.2h-.1l-.1.1h-.1l-.1.1-.1.1-.1.1v.1l-.1.1-.1.1-.1.2v.1zM31.4 18.1l-.1-.1h-.4l-.1.1v.1l.1.1h.2l.1.1h.1l.1.1v.1l.1.1h.1v.1h.1l.1.1.1.1.1.1.1.1.1.1v.1l.1.1.1.1v.1l.1.1.1.1.1.1h.1v-.2h-.1v-.2l-.1-.1v-.2h-.1v-.1l-.1-.1V19h-.1v-.1l-.1-.1-.1-.1-.1-.1-.1-.1-.1-.1-.1-.1-.1-.1h-.1v-.1zM26.1 18.6v-.2H26.4l.1-.1h.1l.1-.1v-.1h.1l.1-.1h.1l.2-.1v-.1l.1-.1h.2v-.1h-.3l-.1.1h-.2l-.1.1h-.1l-.1.1h-.1v.1h-.1l-.1.1-.1.1v.1h-.1v.1l-.1.1zM27 16.7h-.4v.1h-.5l-.1.1h-.1l-.1.1h-.1l-.1.1-.3.2h.3l.6-.1.1-.1h.5l.1-.1h.2l.1-.1-.1-.2zM28.2 16.9h.1l.1-.1v-.1h-.1l-.4-.2h-.1v.1l-.1.1h.1v.1h.1l.1.1h.2zM27.7 17.1h-.2l-.1.1H27.1l-.1.1h-.1l-.1.1h-.1l-.1.1H26.3l-.1.1v.1l.1.1.2-.1h.2l.1-.1h.2l.1-.1h.1l.1-.1h.2l.1-.1h.2v-.2zM27.6 18.2l-.1.1v.1h.2v-.1l.1-.1v-.1h-.1zM27.9 22.3h.1l.1-.5v-.1l.1-.9h-.1v.1H28v.4l-.1.1v.7zM27.3 20.6v.2l-.1.1v.2l-.1.1v.2l.1-.1V21l.1-.1v-.1l.1-.1v-.1l.1-.1v-.1l.1-.1v-.1l.1-.1.1-.1v-.1l.1-.1v-.1l-.1.1-.1.1-.1.2v.1l-.1.1v.1l-.1.1zM26.1 19.3h.1v-.1l.1-.1h.1V19h.1v-.1l.1-.1v-.1h.1l.1-.1v-.1h.1l.1-.1.1-.1h.1l.1-.1h.1l.1-.1V18h.2l.1-.1h-.1l-.1-.1H27.3v.1h-.1l-.1.1-.1.1-.1.1h-.1v.1l-.1.1-.1.1v.1h-.1v.1l-.1.1-.1.1v.1h-.1l-.1.1v.1l-.1.1h.1zM28.8 26v-.8h-.1v-1.3l-.1-.1V23l-.1-.1v-.5h-.1v.1l.1.6v.1l.2 3.2-.1.1.1.9h.1v-1.2zM25.7 36.5l.2-.2-.4-.2-.1.1H25V36h-.1v-.1l-.5.3v.1l-.1.1h-.1l-.1.1v-.3H24l-.1.1-.2.6v.1l.1.1.2-.2h.1v-.1h.1l.5-.2zM23.6 35.9l-.1-.1h-.1l-.2.1v.1h-.1l-.1.1.2.6.5-.6V36zM28.7 19v.1h-.1v.2l-.1.3-.1.1-.1.6.1.1h.1l-.1.6v.4l.1-.1v-.2l.1-.1v-.5l.1-.1V19.3l.1-.2zM24.5 37.1l-.1.1h-.1v.1h-.1v.5h.1v.1l.4-.4v-.1l-.1-.1v-.1zM25.1 16.3h-.2l-.1.1h-.1l-.1.1h-.2l-.1.1-.1.1v.1h-.1l-.1.1-.1.1v.1l.1.1.1-.1h.1l.1-.1.1-.1h.1l.1-.1h.2l.1-.1h.1l.1-.1h.5v-.1h.5v-.1h.1l-.2-.2h.7l.1.1H27.1l.1.1H28v-.1l-.2-.1h-.1v-.1l-.1-.1h-.1v-.1h-.1l-.1-.1-.1-.1-.1-.1H27l-.1-.1h-.1v-.1h-.2l-.1-.1H26.2l-.1-.1H25.8l-.1.1h-.1l.1.1h.2l.1.1h.2l.1.1.1.1H26.7l.1.1.2.1h.1l.1.1.1.1h-.1l-.1-.1H26.8l-.2-.1H26.3l-.4.1-.1.1h.1v.1h-.5l-.1.1zM27.3 13v-.1l.1-.1v-.1l-.1-.1-.1-.1-.1-.1-.1.1v.2l.2.3zM29.6 25.8V24.8l.1-.1V24h-.1v.4h-.1V26.1h.1v-.2zM26.9 13h-.2v.1l.1.1.8.8v.1l.1.1.1.1.1.2h.1v.1l.1.1v.1l.1.1v.1l.1.1.1.1.1.1v-.1l-.1-.1v-.2l-.1-.1v-.2h-.1v-.1l-.1-.1v-.1H28v-.2h-.1V14l-.1-.1-.1-.1-.1-.1-.1-.1-.1-.1-.1-.1-.1-.1v-.1h-.1l-.1-.1zM25.6 15.9l.5-.1v-.1l-.1-.1H25.7l-.1-.1h-.2l-.1.1.1.3zM30.2 17v.1l.2.1.2.2.3.3v.1-.1h.1l-.1-.1v-.1l-.1-.1v-.1l.1-.1h.5v-.1l-.1-.1-.1-.1h-.1v-.1h.2l.1-.1h-.1v-.1h-.5l-.1.1h-.1l-.1.1h-.1l-.1.1-.1.1zM31 14.7h.1v-.1l.1-.1v-.1h.1v-.1h-.1l-.1-.1-.1.1-.1.1v.1l-.1.1v.1l-.1.1v.1l-.1.2-.1.1v.1l-.1.1v.1l-.1.1-.1.1V16h.1l.1-.1.9-.9v-.2H31zM29.7 17.9h.1l.1.2V18h-.1v-.1h-.1v-.1.1zM29.6 18.8V19.1l.1.3h.1v.1l.1.1v.1l.1.1v.1l.1.1v.1l.1.1.1.1v.1l.1.1v.1l.1.1v.1l.1.1v.2h.1v-.4l-.1-.1V20.3l-.1-.1v-.1l-.1-.2v-.1l-.1-.1v-.1l-.1-.1v-.2l-.1-.1v-.1L30 19l-.1-.1-.1-.1h-.1v-.1zM29.9 20.6l.1.2v-.1h.1l-.1-.5-.2-.5h-.1l.1.3v.2l.1.1V20.6zM30.7 18.2h-.1v-.1h-.1l-.1.1.3.3h.1v-.1l-.1-.1zM29.4 21.4l-.1.1h-.1l-.1.1-.1.1v.2h-.1v.4-.1h.1v-.1l.1-.1.1-.1.1.1.1.1V22h.1v.1l.1.1v.2h.1V22.7l.1.1V21.9l.1.1h.1l-.1-.2.1-.1v-.1h.1v-.1l-.4-.2h-.3zM29.3 14.3h-.1v.1h-.1l-.1.1v.1l.2.9v.2h.1V15h.1v-.6zM27.4 18.9v-.2l-.6.4v.1l-.4.3-.2.5h-.1v.1l-.1.1V20.5l.4-.4.5-.5zM46.7 45.4l.1.2v-.1h.1l-.1-.6-.2-.5h-.1v-.1l-.1.1.1.3v.1h.1v.2l.1.1V45.4zM27.1 14.9l-.1-.1h-.1v-.1l-.3.1.6.4.1-.1V15l-.1-.1zM25.5 37.1l.1.1.2-.2.1-.1-.1-.1-.4.2.1.1zM26.1 13.5v.1l.9.7.2.2v-.1l-.2-.2-.9-.7zM31.6 32.7h-4.2l-.7.5h5.6zM25.6 37.9l.1-.1h.1l.2-.1.1-.1h.2v-.1h.5l.1-.1h.1l.1-.1v-.1h-.5l-.1.1H26.2l-.1.1-.1.1-.2.1h-.1v.1h-.1v.2zM28 15.2V15l-.2-.2-.2-.1h-.1v.1l.5.5v-.1zM43.6 45.1l.1.1v.2h.1V44.5h-.1l-.1.1v.4zM44.1 57.2V57.5l.1.1V57.9l.1.1v.1h.1v-.2l-.2-1.3H44v.5zM44.4 50.5v-.6l.1-.1v-.7l.1-.1v-.5l-.1-.1v.2l-.1.1v.6l-.1.1v1.2l.1.1v.1h.1l-.1-.1v-.1zM56.2 61.8l-.1-.1v-.1l-.1-.1v-.1h-.1v-.1l-.3-.1v.1h.1l.1.1.1.1.1.1.1.1v.1h.1zM45.2 52l.1 1h.1V49.9l-.1-.1V48.9l-.1-.1V47.9l-.1-.2V47.4l-.1.1.1.7v.1l.2 3.6-.1.1zM44.3 46.7v-.1l-.1-.1h-.1v.1H44v.5h.1l.1-.2v-.1zM43.3 51.3l.2 1v-.2l.1-.1V50.6l-.1-.1V49l-.1-.1V47.9l-.1-.2V46.9l-.1-.1v-.1h-.1l.1.8v.1l.2 3.6zM44 48.5l.1.1v.1l.1-.2V47.5l-.1-.1v-.1l-.1.1v1zM45.5 45.8v.2l.1.1h.1v-1.3l-.1-.2.1-.1v-.1l.1-.1v-.2h.1V44.4h.1l-.1-1.9-.1-.1h-.1v.1l-.1.6.1.1v.2l.1.1V43.8l.1.1h-.1v-.1h-.1l-.1.1v.5l-.1-.1v-.1l-.1-.1v-.4h-.1l-.1-.1v-.1l-.1-.1v-.2l-.1-.1V43l-.1-.1.3-.1v-.1l-.1-.1-.2.1-.1.1-.1-.1v-.1h-.2v.4l.1.3.1.1v.1h.1v.1l.1.1v.1l.1.2.1.1v.2l-.1.1v.3l-.1-.5-.2-.5v-.1h-.1v.1l.1.3v.2l.1.1v.4l.1.1h.1l-.1.2.1.1.1.1-.1.5-.4-.3-.3.1-.1.1h-.1l-.1.1-.1.1-.1.1v.1l-.1.1v.5-.1l.1-.1.1-.1v-.1l.1-.1h.1v.1l.1.2.1-.1v-.1l.1.1v.2h.1l-.1.1v.4l.1.1v.2h.1V47l.1.1v-.9l.1.1v-.1h.1l-.1-.2.1-.1.1-.1v.5l.1-.1V46l.1-.1v-.5l.1-.1V44.5l.1.1v.2h.1V45.1h.1v.1l-.1.1v.4zM43.9 55.4v.2l.1.1v.1l.1.1v.1V49.2H44l-.1.3v.2l-.2 3.2v.6l.1.1V55.3zM52.7 57.1h.4l-.1-.2h-.2l-.1-.1H51.9h.1H51.2v.1H51l-.1.1V57.3l-.1.1-.1.1v-.1h.7v.1l-.1.1v.1l-.1.1h-.4l.2-.8H50.2l-.1.1v.1H51.1v.1l-.1.1v.1l-.1.1v.1h.1v-.1h.1V57.3h.7l-.2-.1h.7l.4-.1zm-1-.2h-.1.1zm.1-.4h-.1.1zm.4.1l-.1.1H52l-.2.1h.2l.1-.1h.1v-.1zm.3.2h-.2.2l-.1-.1h.1v.1h.1l.1.1-.2-.1zM56.6 61.7v-.1h-.1v-.2h-.1v-.1l-.1-.1-.1-.1-.1-.1-.1-.1h-.1l-.1-.1h-.2v.1l.1.1h.1l.1.1v.1h.2v.1h.1v.1l.1.1v.1h.1v.1h.1v.1h.1v.1l.1-.1h-.1zM46.1 47.4v-.2H46v.1h-.1V47.6h-.1v.1l.1.1h.1l.1-.1v-.2zM38.1 47l.1-.1v-.1l.1-.1v-.1l.1-.1.1-.1v-.1l-.1.1-.1.1v.1l-.1.1v.1l-.1.1v.1l-.1.1-.4-.2h-.3l-.1.2h-.1l-.1.1h-.1v.1h-.1l-.1.1v.2l-.1.1v.5-.1h.1l.1-.1v-.2h.1v-.1h.1l.1.1.1.2.1-.1v-.1h.1v.2l.1.1v.2l.1.1v.1l.1.3h.1l-.1-1 .1-.1v.2-.1h.2v-.4h.1l.1-.1v-.1l-.1-.1zM46.8 46.6l.1-.1v-.1l-.5-.2h-.3v.1l-.1.1h-.1l-.1.1h-.1v.1l-.1.1V47l-.1.3.1-.1h.1V47l.1-.1h.2l.1.2V47l.1-.1v.1l.1.1v.2l.1.1v.1l.1.3h.1l-.1-.9h.1l.1.1V46.7zM46 49.3l.1-.1v-1l-.1-.1h-.1v1.2l.1.1zM46 52.8V50l-.1-.1v.1l-.1.2v.1h-.1l.1.1-.2 3.3V55.4h.1v.7l.1.1v.2l.1.1v.2h.1V52.9zM46.3 51.2V50.4l.1-.1V49.3l.1-.1h-.1l-.1.1v.5l-.1.1V51.5l.1.1V51.3zM39.8 53.3v-2.4h-.1v.2l-.1.1v.1l-.1 2.7V55.6h.1v.5l.1.1v.2l.1.1v.1V53.4zM40.8 50v.1h.1v-.2l.1-.1v-.6h.1V48.1v.1H41v.2l-.1.2-.1.1v.6h.1l-.1.5zM40.1 52V51h.1v-.7h-.1v.4l-.1.1V52.3l.1-.1v-.1zM43.1 45.4l.1.2.1-.1V43.3l.1-.1h-.1l-.1.3-.1.2-.1.1-.1.1.1-.3-.1.1-.1.1-.1.1v.1l-.1.1-.1.1-.1.1v.1l-.1.2.1-.1v-.4l.1-.1v-.2h.1v-.1l.1-.1v-.1l.1-.1-.1.4.3.4-.1.1v.5l-.1.1-.2.1V45.9l.1-.1.2-.2v.5-.1.4l.1-.6.1-.8.3-.3v.3l-.3.4zm.1-.8h-.1v-.1h.2l-.1.1zM40.4 48.8v-.1l-.1.1v-.4h.1v-.2l.1-.1h.1V48l-.4-.2h-.3v.1h-.1l-.1.1-.1.1v.1h-.1v.2h-.1v.3h.1v-.1l.1-.1v-.1h.2l.1.1.1-.1v.1l.1.1v.2h.1v.2l-.1.1v.1l-.1.2h-.1v.2-.1l-.1-.1h-.1V50.3l.1.1v.1-.1l.1-.1v-.7l.1-.1v-.2l.1-.1.1-.1V49v.1h.1V48.8zM51 58.2h-.1v.1l-.1.1v.2l.4-.4.4-.4.1-.2h.5v-.1h.2l.1-.1h.1l-.1-.1h-.6l.1-.1v-.1l-.5.3v.1l-.2.2-.1.1zM39.4 47.5v.2h.2v-.5l-.1-.1v-.2l-.1.1v.4zM39 47.7v.2l.1-.1v-.4l.1-.1v-.6h.1V45.7h-.1v.2l-.2.3v.1l-.1.5v.1h.2l-.1.6zM39.1 52.6l.2.9v-.2l.1-.1v-1.1l-.1-.1v-1.3l-.1-.1V49.7l-.1-.1V48.8H39v.7l.2 3v.1zM39.7 49.1h.1l.1-.1V48.7h-.1l-.1.1V49.1zM41.5 54.9v-.6l.1-.1V52.8h-.1l-.1.2v.2l-.1 2.4V57.2l.1.1V57.6h.1v.2-.1h.1V57l-.1-.1v-.2l.1-.1V55.2l-.1-.1V55zM41.8 53.8V52.9h.1v-.7h-.1v.5l-.1.1V53.9l.1.1v-.2zM42.1 50.3h.1l.1-.1h-.1l-.3-.2h-.2l-.1.1-.1.1-.1.1-.1.1v.1l-.1.1v.3l.1-.1v-.1l.1-.1.1-.1v.1l.1.1.1-.1v.1h.1v.2l.1.1v.2h.1v-.7l.1.1v-.2zM41 54.3l.1.8v-.2h.1v-1.1l-.1-.1v-1.3l-.1-.1V51.4l-.1-.1v-.4l-.1.1.1.5v.1l.1 2.7zM41.2 49.7v.2l.1.1v-.1h.1v-.1l-.1-.1v-.4h-.1V49.6zM41.6 52.3V51.4h-.1V52.4h.1zM41.7 50.9v-.1h-.2V51.1h-.1v.1h.2v-.1l.1-.1zM58.1 58.3H58l-.1-.1h-.2l-.1.1h-.4v.1l.2-.1h.7v.1l.1-.1h-.1zM56.9 57.8v.1h.1l.1-.1v-.1zM58.4 54.9H57.6l-.1.1H57.2l.1.1.3-.1h.4v-.1H58.3v.1h.2-.1zM56.5 57.7l.1-.1-.1.1h-.1v-.6l-.1-.1v-.2l-.4.2-.1-.1-.1-.1-.1-.1.1-.1-.2.2h-.1l-.1-.1-.1-.1H55l.4-.4V55.9h-.1.1V55.6h-.1l-.1.1h-.1.2-.1v-.1h.1v-.1l.1-.1h-.2l.2-.4h-.1l-.1.1-.1.1-.1.1v.1h-.4l-.1.1-.1.1.2.1.2.2.2.2v.5l.2.2v-.2l.1-.1v.1H55.6l.1.1h.2v.1l-.9.3v.2h-.1l-.1.1v-.2.5l.2.1.1.1.2.2v.1-.2l.1-.1.1.1-.1-.1h.1l.1.1.1.1-.1.1V58l.1-.1V58.2v-.4l-.1-.1-.1-.1-.1-.1-.1-.1h-.1.1H55h.4l.1.1.1.1v.2l.1.1.1.1v.7l.1.1v-.4l.6-.7zM55.1 56h-.2v-.1h.2v.1zm.2 1.6zM58.9 52.6h-.2l-.1-.1H58l-.1.1h-.2l-.1.1h-.2v.1l.4-.1.5-.1h.4v.1h.2zM55.8 57.4v.1-.2zM54.1 56.4V55.6H54l-.1.1v.1l.1.6v.2l.1-.1v-.1zM55.1 58.3v.1-.1H55v-.2.2h-.1v.8l.1-.3.1-.3.1-.1zM54.5 57.2l.1.6.1-.1-.1-.5zM57.1 52l.2-.1v-.2l-.3.1v.2zM55.8 52.2l-.1.1v.1h.1v-.1l.1-.1v-.1l.1-.1.1-.1.1-.1.1-.1h.1l.1-.1h.1v-.1h-.1l-.1.1-.1.1-.1.1h-.1l-.1.1v.1l-.1.1zM55.7 51.6l.2-.2h-.1l-.1.2zM54.3 54.4v-.2h-.1l-.1.2-.1.3v.7-.5h.1V54.6zM57.4 51.2H57.7v-.1h.1l.1-.1v-.2h-.2l-.3.3-.1.1v.1zM57.4 57.1l-.2.2-.1.1h.2l.1-.1h.1v-.2zM57.6 55.5H57.9v-.2h-.7l-.1.1h-.2l-.1.1h-.1l-.1.1h-.2v.1h-.1v.1h-.1l-.1.1-.1.1-.1.1v.1h-.1v.1l-.1.1v.2l.1-.1.1-.1.1-.1.1-.1.1-.1h.1V56h.1l.1-.1h.1l.1-.1h.1v-.1H57.1v-.1h.4zM55.6 54.6v-.1h.1l.1-.1.1-.1.1-.1v-.1h.1l.1-.1.1-.1h.1l.1-.1h.1l.1-.1.1-.1h.1l.1-.1H57.3l.1-.1h.4l.1-.1H58.2v-.2h-.1V53h-.6l-.1.1H57.1v.1h-.2l-.1.1h-.1l-.1.1h-.2v.1h-.1v.1h-.1l-.1.1-.1.1h-.1v.1l-.1.2h-.1v.2h-.1v.1l-.1.1zM55.6 53.6h.1v-.1h.1v-.1l.1-.1.1-.1.1-.1h.1l.1-.1h.1l.1-.1h.2l.1-.1h.1l.1-.1h.1v-.1l-.1-.1h-.5v.1h-.1v.1h-.2l-.1.1-.1.1-.1.1-.1.1v.1l-.1.1v.1l-.1.1v.1zM54.3 56l.1-.4v-.1l.2-.5h-.1l-.1-.1v-.1h.2l.1-.1v-.1l.2-.3h.1l.3-.3v-.2h-.2v-.1l.1-.1v-.1l.1-.1v-.1h-.1l-.1.1-.1.1v.1h-.1v.1l-.1.1v.1l-.1.1v.1h-.1l.1.1h-.1v.1l-.1.1v.1l-.1.1-.1.9v.2l-.1.3zM55.2 51.2v.1h.1v-.2l-.1.1zM54.4 51.1v-.2h.1v-.1h.1l.1-.1h.1v-.2l.4-.4v-.2l-.5.4-.1.1-.1.1v.1l-.1.1v.2h-.1l.1.2zM54.3 51.7h.1l.1.1v-.1l.1.2h.1l-.1-.2.1-.1v-.2l-.1.1-.1-.1v.2h-.2v.1zM55.1 51.9v-.2l-.3.3v.1h.1zM53.8 56.2v-.4l-.1-.1v-.2h-.1v-.2h-.1v-.1l-.1-.1h-.1V55l-.1-.1-.1-.1v-.1H53v-.1h-.1v.1l.1.1.1.1v.1l.1.1.1.1.1.1v.2l.1.1v.1l.1.1v.2h.1v.1l.1.1zM55.3 52.6l-.1.1-.1.1-.1.1-.1.1-.1.1v.1l-.1.1-.1.2v.1l-.1.2h.1v-.1l.1-.1v.1-.1l.1-.1v-.1h.2v-.1l.1-.1.3-.4v-.1h.1v-.2h-.1l-.1.1zM54.3 52.5V52.2h-.1V52.5zM53.9 53.5v.2l-.1-.1v-.1h-.1v.1l.2.8.1-.2-.1-.3.1-.5.1-.1.2-.6h-.2v-.2H54V52.2l-.1 1.1zM53.8 57.3h-.1v.1h.1v-.1zM55.8 55.6l-.1.1v.1h.1v-.1l.1-.1.1-.1.1-.1h.1v-.1h.1l.1-.1h.2l.1-.1h.1l.1-.1h.1v-.1h-.2v-.1h-.2v.1h-.1l-.1.1h-.1l-.1.1-.1.1-.1.1h-.1v.1l-.1.1zM55.3 54.2l-.2.2v.1l.2-.2v-.1zM54.1 54l.1-.1v-.6h-.1v.7zM55.9 54.8v-.2h.1v-.1h.1v-.1l.1-.1h.1v-.1l.1-.1h.1l.1-.1h-.1l-.1.1-.1.1h-.1v.1l-.1.1H56v.1l-.1.1h-.1v.2zM57.3 53.8h.1l.1-.1.1-.1.1-.1-.1-.1h-.1l-.3.3v.1zM55.5 53.7h-.1v.2-.1h.1v-.1zM57 54.4l.1-.1v-.1l-.2.1v.1zM41.8 42.8v-.2h-.1l-.1.2-.1.4V43.5h-.1v.5h.1v-.6h.1V43.1zM39.7 46.3h.1l-.1-1.6v-.1h-.1v.1l-.1.5v.1l.1.1v.2l.1.1v.2l-.1-.1-.1.1-.1.5.1.1.1-.1v-.2l.1-.1V46v.2zM39.9 43.2v-.1l.1-.1v-.1l-.1-.1v-.1h-.2v.1l-.1.1.3.3zM40.6 44.6v.1l.1.1.1.1.1.1v-.1h-.1V44.6h-.1v-.2h-.1v-.1l-.1-.1v-.1l-.1-.1-.1-.1v-.1h-.1v-.1l-.1-.1-.1-.1h-.1v-.1l-.1-.1h-.1l-.1-.1-.1-.1h-.1v.1l.1.1.6.7.1.1.1.1.1.1.1.1v.1h.1zM40.9 44.4l.1.1v.1l.1.1v.2l.1.1h.1l-.1-.1v-.5l-.1-.1v-.2L41 44v-.1h-.1v-.1l-.1-.1-.1-.1-.1-.1-.1-.1-.1-.1v-.1h-.1v-.1h-.2.1v.1l.1.1.1.1v.1h.1v.1l.1.1.1.1v.2h.1v.1l.1.1v.1zM40.1 44.6l.4.4v-.2l-.2-.1v-.1h-.1v-.1.1zM40.6 41.9l-.1-.1h-.1l-.1.1v.1l.3.4.1-.4v-.1zM41.4 41.6h.1v-.1h.1v-.1l.1-.1-.1-.1h-.1l-.1.1v.1h-.1v.1h-.1v.2l-.1.1-.1.2v.1l-.1.1v.1l-.1.1-.1.1V42.8h.1l.1-.1.4-.4.1.5v-.2l-.1-.4.3-.2v.4l.1-.1v-.5h.1v-.2h-.1v-.1l-.1.1v.1l-.1.1-.1-.1zM40.8 43h-.1l.1.2.1.1-.1-.3zM44.7 41.7l-.1-.1h-.1.1v.1h.1v.1h.1l-.1-.1zM41.6 44.8v-.6h-.1v.1h-.1v.1l-.1.1.2.7v.2-.1h.1v-.4zM43.1 40.9v-.1l-.5.4-.1.1v.1l-.1.1v.1l-.1.1v.1h-.1l.1.2v-.1l.1-.1.1-.1h.1v-.1h.1v-.2l.4-.4zM41.5 48.7h.1l-.1-1.4-.1-.1v.1l-.1.4v.2l.1.1v.2l.1.1h-.2l-.1.5.1.1v-.1l.1-.1V48.4l.1.1v.1zM44.2 42.6l.1-.1h.1l.1-.1h-.1l-.1.1-.1.1-.1.1-.1-1h-.2l-.1.5v.1l-.1.2.1-.1.1.1v.1l.1.1v.1l-.1.1v.1h-.1l-.1.1v.2h.1v-.1l.1-.1V43l.1-.1.1.1v.2h-.1v-.1h-.1l-.1.7v.1l.1-.1.1-.1V43.4l.1-.1V43.6l.1.1.1-.1-.1-.9zM22.7 15.5l.3.1h.5l1.1-.2.2.1.1-.1h-.1l-.1-.1h-.2l-.1-.1H23.3l-.1.1H22.9l-.2.1h-.1v.1zM42.7 42.4v-.1l-.1-.1v.1l-.1.1v-.1h-.1v.2h-.2v.1h.1l.1.1.1-.1.1.2h.1l-.2-.2.1-.1v-.1zM42 47.2h-.1v-.1.1h.1v.1zM42.1 44.4l.1-.1.1-.1v-.1l.1-.1.1-.1.1-.1v-.1h-.2v.1l-.1.1-.1.2v.1l-.1.1v.1l-.1.2-.1.1v.2l-.1.1v.1l-.1.1v.4-.1l.1-.1V45.1l.1-.1v-.1l.1-.1v-.2l.1-.1zM43 42.6l-.3.3v.1h.1l.2-.2v-.2zM42.3 49.1l.1.1.1.1v.2l.1.1v.1l.1.1v.1-.6l-.1-.1v-.1l-.1-.1v-.2l-.1-.1v-.2h-.1v-.1l-.1-.1v-.2h-.1V48H42v-.1h-.2V48.2l.1.2.1.1.1.1v.2h.1v.1l.1.1zM42.7 47.7h.1v-.1l-.1-.1-.1-.1h-.1v.1l.2.2zM42.1 49.5v.1h.1v-.5l-.2-.4h-.1l.1.2V49.2h.1v.2zM41.2 46.3v-.1.1zM46.2 40.4h.2v-.1l-.1-.1h-.4l-.2.1h-.1l-.2.1-.1.1-.1.1-.1.1.1.1.2.1.2.2.3.4.1-.1v-.1h-.1v-.4h.1l.1-.1h.2l.1.1h.1v-.1l-.1-.1-.1-.1h-.1v-.1h-.1zM45.7 41.9l.1-.1-.1-.1h-.1l-.4.3v.2l.1-.1h.2l.2.2h.1l-.1-.1V42h-.1zM41.2 45.1V45l-.1-.1-.1-.1h-.1v.1l.3.3v-.1zM43.6 46.2v-.1l.1-.2v-.2l.1-.1v-.1l.1-.1v-.1l.1-.2.1-.1v-.1l.1-.1.1-.1.1-.1v-.2l-.1.1-.1.1v.1l-.1.1v.1l-.1.1v.1l-.1.2-.1.1v.1l-.1.1v.1l-.1.1v.5zM43.1 42.2h.1V42l-.1.1v.1zM45.5 41.2v-.1l-.1.1h.1zM42.2 43.3v-.1l.1-.1-.1-.1v.1h-.1v.2h.1zM42 43.1h-.1l-.1 1.1v.6l.1-.6h.1l.2-.6-.1-.1v.1H42v-.4zM40.8 46.9v.1l.1.1v.2h.1v.2l.1.1V47l-.1-.1v-.1l-.1-.1v-.2l-.1-.1v-.1l-.1-.1V46l-.1-.1v-.1l-.1-.1-.1-.1v-.1h-.1v-.1h-.2V45.7l.1.3h.1v.1l.1.1v.1l.1.1v.1l.1.1v.1l.1.1zM40.4 50.8h.1v.1l.1-.5.1-.8h-.1v.1h-.1V50l-.1.1v.6zM39.4 43.6v-.1.1zM40.4 47.2l.1.1v-.6l-.2-.4-.1-.1v.1l.1.3v.2l.1.1v.2zM41.1 36.3v-.2H40.8v.1l.2.2zM38.7 42.8H38.4l-.1-.1h-.2v.1h.1v.1h.4v.1l.4.3v-.2.1h.1v-.1H39V43h-.1v-.1h-.1zM55.7 60.1h.2l-.1-.1h-.2l-.1.1h-.1l-.1.1h-.1v.1h.1l.1.1.1.1.1.2v-.1h.1-.1v-.2h.1v-.1h.1l.1.1v-.1l-.1-.1h-.1zM37.7 42.5l-.1-.1v.1h.1v.1l.2.2v-.2l-.1-.1h-.1zM38.9 46.7V46l-.1-.2v-.2l-.1-.2-.1-.1v-.1l-.1-.2-.1-.1v-.2l-.1-.1v-.1l-.1-.2v-.1l-.1-.1-.1-.1v-.1l-.1-.1-.1-.1-.1-.1h-.1v.1h-.1v.2h.1v.1l.1.4v.1l.1.1.1.1.1.1v.1l.1.2v.1l.1.1.1.1.1.2v.1l.1.1.1.1v.2l.1.1v.2l.1.1v.1l.1.1zM39.1 42.7l.1-.1-.3-.1v.1zM55.5 61v-.1h-.1v-.1.1l.1.2V61h.1-.1zM38.2 41.2l-.2.1h-.1v.1h.1l.2-.1v-.1zM38.4 41.8l-.1-.2-.1.1.4.4h.1l-.1-.2zM38.6 48.7l.1-.5.1-.9h-.1v.1l-.1.1v.4l-.1.1v.6zM36.6 41.1l-.1-.1v.1h.1zM37.3 48.3v-.1l-.1-.1h-.1v.1l-.1.1v.2h-.1v.2l.1.1h.1l.1-.2v-.1zM37.9 46.1l.1.1h.1v-.7l-.3-.7h-.1l-.1.1.1.3v.1h.1V45.6l.1.1V46zM37 50.5v.1l.1.1.1-.2V49.3l-.1-.1v-.1H37v1.3zM36.6 46.5v.4h.1l.1-.1v-.5l-.1-.1v-.4h-.1l-.1.2V46.3zM36.9 44.3l-.1-.1h-.1l-.1.8.1.1V45l.1-.2.1-.1v-.2h.1V44.8l.1.1v-.1h.1l-.2-2.2h-.1l-.1-.1v.1l-.2.7.1.1v.1l.1.1V43.9l.1.1v.1l.1.1-.1.1zM36.8 41.6l-.1.1v.1h.1v-.2h.1v-.1h.1v-.1l.1-.1.1-.1h.1l.1-.1.1-.1h.1v-.1h-.1l-.1.1-.1.1h-.1v.1l-.1.1-.1.1h-.1v.1zM36.7 40.8l-.1.2.1.1.2-.2v-.1h-.1zM41.4 36.2h-.2v.1l.1.1.9.9.1.1.1.1.1.2.1.1v.1l.1.1.1.1v.1l.1.1v.1l.1.1.1.1.1.1v-.1l-.1-.1v-.2l-.1-.1V38l-.1-.1v-.1h-.1v-.1l-.1-.1v-.1l-.1-.1v-.1l-.1-.1h-.1v-.1l-.1-.1-.1-.1-.1-.1-.1-.1-.1-.1h.1l.1.1h.2l.1.1.1.1h.1v-.1l-.1-.1h-.1l-.1-.1-.1-.1H42l-.1-.1h-.1l-.1-.1h-.2zM41.8 36.2h.1v-.1l.1-.1v-.2l-.1-.1-.1-.1-.1-.1-.1.1v.1l-.1.1v.1l.3.3zM44.8 41.3h.1l.1-.1v-.1h-.1l-.4-.3-.1.1h-.1v.2h.1v.1H44.7l.1.1zM37.5 52.8v-1.2l.1-.1v-1l.1-.1h-.1l-.1.1v.4l-.1.1V51.9l-.1.1v.4l.1.1v.6h.1v-.2zM42.7 38.7V38.4l-.3-.2-.2-.1h-.1v.1l.5.5zM39.9 38.3v.1l-.1.1v.6l.1.1V39l.1-.1v-.7h-.1zM55.5 62.2v-.1l-.1-.1v-.2h-.1v-.2l-.1-.1v-.1h-.1v-.1l-.1-.1h-.1v.2l.1.1v.1l.1.1v.1h.1v.2h.1v.1l.1.1v.2h.1v.1-.2zM41.6 38.8l-.1.1v.1h.1l.1-.1v-.1h-.1zM42.1 39.3l.3-.2-.1-.1-.1.1zM43.6 39.8l.3-.2v-.1H43.6l-.1.1v.1h.1zM38.8 37.8l-.1.2-.1.1v.1l-.1.3.2-.1v-.1l.1-.1v-.1l.1-.1.1-.1.1-.1v-.1l.1-.1.1-.1.1-.1.1-.1.1-.1v-.1l.1-.1.1-.1.1-.1.1-.1v-.1h-.2l-.1.1h-.1l-.1.1-.1.1-.1.2-.2.1-.1.2-.1.1-.1.2zM55 62.6h-.2v.1h-.1l-.1.1v.1l-.1.1v.1h.1V63l.1-.1.1.1v-.1l.1.1v.2h.1v.2-.5l.1.1v-.2h.1v-.1zM55.1 62.2v.1h.1V62l-.2-.3V62h.1v.2zM54.9 65v-.5l.1-.1V64h-.1v.7h-.1v.2h.1V65.2v-.1zM39 35.9l.4-.3v-.2l-.1-.1-.1.2v-.1h-.1l-.1-.1v.1h-.1v.1l.2.1-.1.2zM54.8 63.2v-.1h-.1V63.4h.1v-.1zM39.7 42.4v.2-.2l.2.1h.1l.1.1-.1-.4v-.1.2h-.2l-.1-.1V41.1h-.1v.1h-.1v.2l.1.4-.1-.1V40l-.1-.1-.1-.1v-.1H40.4V41v-1.2h.4l-.1 1.1v.1l-.7.4v.5l.1-.4h.1l.1-.1.1-.1.1-.1h.6v.1l-.1-.1-.1.1v.1l-.1.1-.1.2.1-.1V41.3l.1-.1.1-.1.1-.1v-.1l.1-.1.1-.1v-.1h1.2l-.2-.2v-.1H42.6l.1.1H43l.1.1v-.1h1.4v-.1l-.2-.1h-.1v-.1l-.1-.1-.1.2-.1-.1-.1-.1h-.1l-.1-.1-.1-.1-.1-.1-.1-.1-.1-.1h-.5l.1-.1.1-.1.1-.1-.1.1-.1.1h-.6l-.1-.1-.1-.1-.1-.1-.1-.1-.1-.1-.2.1-.1-.1h-.7v-.2H41v-.1l.1-.2.4-.5V37.6l-.5.3-.1.1v.1l-.1.1v.5l-.1.1v.1h-.5v.1h.1l.1.1h.5v.1h-.2.1l-.4.1v.1l.1.1H40l.1-.1v-.1l-.1.2v.1h-.6l-.4.4-.1-.1.1.1h-.2l-.1.1-.1.1-.1-.1-.1-.1.1-.1.4-.5v.1-.1l.4-.4.2.7v-.2l-.1-.6.1-.1v-.2l-.2.1v-.1l.1-.1.1-.1.1-.1.1-.1h-.1l-.1.1-.2-.3-.1.1v.7l-.1.1v-.1H38.8l-.1.1v.1l.3.3-.1.1-.1.1-.1.1v.1l-.1.1v.2h-.1v.1l.1.1v.1l.1.1-.1.1-.1.1-.1.1-.1.1-.1-.1-.2-.3-.1-.1-.1-.1-.1-.1-.1-.1-.1-.1h-.2v.1l.1.1.7.7.1.1.1.1.1.1.1.1v.1l.1.1.1.1v.2l.1.1.1.1.1.1-.1.1.1.1.7.2zm2.7-2.7zm-1.5-.3l.1-.2H41.3l.1.1h.1l.1.1.1.1.1.1-.1-.1h-.2v-.1.1h-.2l-.4-.1zm0-.3zm-.1.3zm0-.3zm-.5 1h.1v.1-.4h.1l-.2-.2h.6v.1l.1-.1H41.9v.2-.2h.4v-.1l-.2-.1h.2l.1.1H42.7l.1.1h.1l.1.1.1.1.1.1-.1-.1h-.7l-.1-.1h-.2v.1l-.2.1v.2l.1.1h-.1.1-.1v-.1h-.2l-.1.1-.1.1h-.4l-.1.1H40.7l-.1.1-.1.1-.1.4.2-.5h-.1v-.1l-.1-.1v-.1l-.1-.1zm-1.1 2H39V40.6l-.1-.1-.1-.1v-.1h.1l.1-.1h.1v.1l.1.1.1.1v.6l.1.1v.5l.1.1-.3.3zM57.7 58.6h-.6v-.2H58.2v-.1H57.9l-.1.1-.1.1-.1.1-.1.1-1.5-.1-.1-.1-.1-.1h-.7v.1h.5v.4l-.2-.1v.1h.1v.1l.1.1v.5h.1l.4-.4.1.1V59.6 59.3h-.1v-.1h.1v.2l.1.1v.1l.1-.1h.1l.1-.1.1-.1v.2-.5H58.5l-.8-.4zm-1.9.2l-.1.1.1-.1zM10.7 35.6v.1l.5.5.1.2.1.1v.1h.1l.1.1v.1l.1.1h.1v.1h.2v-.1l-.1-.2h-.1v-.1l-.1-.1v-.1l-.1-.1-.1-.1v-.1l-.1-.1-.7-.6v.1zM11.9 38.5V38.8h.2v-.1l-.1-.1v-.1l-.1-.1zM34.9 41.2h-.1l-.1.2-.1.3v.1l-.1.1v.7h.1v-.7l.1-.1v-.1l.2-.3v-.2zM35.2 41.6V41.9h.1V41.6zM12 39.1l.2.9.1.1.1.7.1-.1-.1-.5V40v.1l.2.3V41.8v-.2l.1-.7.2.2v.1l.1.1.1.1v-.5l-.1-.1v-.2l.1-.1.1-.1v-.1l.1-.1v-.1l.1-.1v-.1l.1-.1v-.1l.1-.1.1-.1.1-.1.1.5V40.2l-.1.1.2-.1V41.1l.1-.1.1-.1.1-.1.1-.1.1-.1.1-.1.1-.1.1-.1.1.1h.1l.1.1h.1l-.1.1-.2.2-.7.2h.1l.4-.4V40.9 40.6h.1l-.1-.1.2-.8v-.1l.4-.4V40.7l.1-.1.1-.1v-.1l.1-.1.1-.1v-.1l.1-.1v-.1l.1-.1v-.1l.1-.1v-.1l.1-.1.1-.1.1-.1v-.1l.1-.1.1-.1.1-.1.1-.1.1-.1.1-.1.1-.1.1-.1H17v.1l-.1.1-.6-.5-.1.1-.1.1-.1.1v.1l-.1.1-.1.1-.1.1h-.1l-.1.1-.1.1-.1.1-.1.1-.1.1-.1-.2-.1.1-.1.1-.1.1-.1.1v.2l-.1.1-.1.1-.1-.3v-.4l.1-.1.1-.1.1-.1.1-.1.1-.1.1-.1h-.1v.1l-.1.1-.1.1-.1.1-.1-1V38.2l-.4.1v.1l-.2.4.1-.1.1-.2.2.6-.2.1-.1.1-.1.1v.1l-.1.1-.1.1V40l-.1-.3-.1-.1v-.1l-.1-.1-.1-.1-.1-.3-.1-.1-.1-.1-.1-.1v-.1l-.1-.4-.2-.3v.1l.2.3-.1-.1-.1-.1-.1-.1h-.1v.1l.1.1.1.1.1.1.1.1.1.1.1.1.1.1.1.1.1.1v.5l-.1-.1-.1-.1-.1-.1h-.1l.1.1v.1l.1.1v.2l-.1-.1-.1-1.4V38.5l-.1.1v.1l-.7.4zm2.5 1l.1-.1v-.1.4l-.1-.2zm-1.5-.9l.1.1.1.1.1.1.1.1v.1l.1.1.1.1v.6-.1l-.1-.1-.4-.3V39.1l-.1.1zM10.1 44.5l-.1.1-.1.1-.2.1-.1.2-.1.1v.1h-.1l-.1.1v.1l-.1.1v.2h-.1v.1l-.1.1v.1l-.1.1V46.4H9l.1-.1v-.1h.1v-.1l.1-.1.1-.1.1-.1v-.1l.1-.1.1-.1v-.1h.1l.1-.1v-.1h.1v-.1h.1l.1-.1h.1v-.1l.1-.1.1-.1.1-.1h.1l.1-.1h.2l.1-.1v-.1l-.1-.1h-.1l-.1-.1h-.1l-.1.1-.2.1-.1.1h-.1zM10.4 39.2h.1v.1l.1.1.1.1.1.1.1.1.1.1.1.1v.1h.1v.1l.1.1.1.1v.1l.1.1.1.1-.1-.3v-.2l-.1-.1-.1-.1-.1-.2-.1-.1v-.1l-.2-.1v-.2h-.2l-.1-.1-.1-.1v-.1l-.2.1.1.1zM10.7 37.3v-.2h-.1l-.1.1.1.1zM13.8 37.7l-.1.1v.2h.1v.1h.1V37.8l-.1-.1zM16 37.9h.1v.1h.1l.2-.1v-.2zM12.5 36.6V37.5h.1l.2.2.2.2.1.2.2-.7h.2l.1-.2.1.1.1-.1h.1V37h-.2V36.7v.1l-.1-.2v.1h.1l-.2.6-.3-.3v-.4l-.1-.1H13v.1h-.5zm.8.4l-.1.2.1-.2zM15.6 38h.1l.1-.3h-.1zM17.9 37.2h.1v.1l.2-.2.1-.1h-.1l-.3.2zM15.3 37.9l-.2.1-.1.1v.1l-.1.1v.1l.1.1v.1h.1l.3-.3V38zM34.4 43l.1.8.1.1V43.6h.1V42.8h-.1l-.1.1zM9.8 37.4v.1l.2.2h.1l-.1-.2h.2v-.2l-.3-.1h-.1v.2h.1zM12.6 34.9l.5.6.1.2v.1h.1v.1h.2v.1l.1.1v.1l.1.1.1-.2-.1-.1-.1-.1v-.2l-.1-.1v-.1l-.1-.1-.1-.1-.7-.6v.1zM5.1 51v.2h.1V51.5l.1-.1v-.5l-.1-.1v-.2h-.1V50.9zM5.5 51.9l.2-.9v-.1l-.1.1-.2.8.1.1zM6 52.4l.1-.3-.1.3zM14.1 37.6l.2-.3v.1l.2.4v1.3V37.4h.1l.5-.1.9-.1H16.3v-.1l-.1-.1.1-.2h.1l.4-.1.2.1.1.1.1.1.1.1.1.1.1.1.1.1.1.1.1.1v.2l.1-.1v.2-.2l-.1-.1H18.9v-.1H18.1l-.1.1-.1.1-.1-.1.2-.3-.1-.1-.1-.1-.2-.1-.2-.1-.1-.1.8-.1.1-.1.2.2h.1l-.1-.3h-.2l-.2-.1-.1.1h-.3v-.2l-.6.1v.1l-.1.1-.1.1h-.1v-.3l-.1.1-.2.5v.1l-.3-.1-.1.2h-.3V37l-.4.2v.1H15v.1l.3-1.2-.1.1-.2 1-.1.1-.1.2-.2-.3.1-.1v-.1l-.1-.1H14.3v.1l-.2.5zm.8-.3zM5.7 53.6h-.1v.5h.1V54l.1-.1.1-.2v-.2l.1-.1.1-.1v-.2l.1-.1v-.1h.1v-.2h.1l.1-.1v-.1h.1v-.1l.1-.1.1-.1h-.2v.1h-.1l-.1.1v.1l-.1.1v.1l-.1.1h-.1l-.1.1v.1h-.1v.1l-.1.1v.2h-.1v.1zM5.2 52.2v.1l.1.1v.4l.1.1V53.2 52.4l-.1-.1V52l-.2-.3-.1.1v.1zM9.2 36.3h.1v.1h.1l.2.1h.2l-.1-.2-.5-.4h-.1l-.1.2.1.1zM4.7 52.7h-.1l.3.6v.1l.1.5-.1.3.1.2.2-.8v-.1l-.1.1v.1l-.1-.2v-.2l-.1-1.1V52.5l-.1.1v.1h-.1zM5 55.7l-.1-.1h-.1V56.5h.1v.1-.2H5h-.1l.1-.6zM4.5 54.9l-.1.1h-.1l.2.5v.1l.1.4h.1l-.1-.3v-1.1h-.1v-.1l-.1-.1-.1-.1v-.2h-.1V54l-.1-.1v-.1l-.1-.1v-.1l-.1-.1-.1-.1-.1-.1h-.1v.1l.1.1v.1h.1v.2h-.2v.2l.3.3H4l.2.3v.1h.1v.1h.2zM8.3 51.9l-.1.1h-.1l-.1.1h-.1v.1l-.1.1h.1l.1-.1.1-.1h.2l.1-.1h.4v-.2h-.2l-.1.1h-.2zM8.3 38.2h.1v-.1l-.1-.1-.3-.1v.2l.2.1zM9 37.7l.1.1.1.1.2.1.1.1h.1v.1l.1.1v.1h.1v.1l.1.1v.1h.1v-.1l-.1-.1-.1-.2-.1-.1-.1-.1-.1-.1-.1-.1-.1-.1h-.1l-.2-.2-.1-.1v.1h-.1l.1.1zM6 51.8v-.1.1zM6.3 51.5l.3-.4V51h-.1v-.1h-.1l-.1.1h-.1v.1l.1.4zM6.6 51.7v.1h.1l.1-.2h.1l.3-.1.7-.1.1-.1-.2-.2-.1.1h-.3l.1-.1-.1-.1-.3.2H7v.1h-.1l-.1.1v-.2l-.1.1-.1.4zM7.3 37h.1l.1.1.1.1h.2l.1.1v-.1l-.1-.2-.4-.4h-.2l-.1.2.1.1zM19.2 36.4h.1V36.1h-.2v.1l.1.2zM23.6 43.3h-.1V43.6h.1v-.2zM23.7 48.9l-.2.4v.5h.1V49.5h.1V49.2h.1v-.3zM24 47.3l-.1-.2-.1-.1v-.2l-.1-.1-.1-.1-.1-.1v.1l.1.2.1.1.1.1v.1l.1.2.1.1.1.1v.2l.1.1v.1l-.1 1h.1v-.2h.1v.2l.1.1v.1l.1-.1-.1-.5h-.1v.1l-.1-.1h.1V48.2l.1.1V48.6l.1.2V48.5l-.1-.2V48h.1l-.1-.5h-.2v.2-.1h-.1l-.1-.2zM24.5 50.1v-.6l-.1.1v.6h.1zM22.7 38v.1l.1-.1.2-.4h-.1l-.2.4zM23.8 43.3v.1l-.1.1V43.8h-.2l.2.6.1.1.1.5.1-.1-.1-.3v-.2l-.1-1.1zM24.6 46.5h-.1v.1-.1zM35 45.8v-.1.1l.1.1v-.1zM24.2 45.5v.1-.1l.2-.8v-.1h-.1l-.1-.1h-.1V45.3l.1.1v.1zM23 50.1h.1V49.8l.1-.1v-.1h.1v-.1.4h.1v-.1l.1-.1v-.6l.1-.1v-.1l.1-.1v-.1h.1l.1-.3V48.1h-.1v.1h-.1v.1h-.1v.1h-.1v.1l-.1.1v.1V48.4l-.1-.2V48l-.1-.1h-.1l-.1.1.2 1.1v.1l-.1.1V49.6H23v.5zM22.3 42.8v-.1l-.1.1h.1zM22.1 42.5h-.2v.1l.2.1h.1zM22.4 43.6l-.1.1v.1h.1v.1h.1v.1l.1.1.1.1h.1v.1h.1v.1l.1.1.1.1v.1l.1.1v.1h.1l-.1-.2v-.2l-.1-.1-.1-.1v-.1l-.1-.1V44h-.1l-.1-.1-.1-.1v-.1h-.1zM22.2 48.3v-.1l.1-.2v-.4l-.1-.1v-.1l-.1.1V47.8l-.1.2v.4l.1.1v.1h.1v-.2zM23.3 45.9h.1V45.6h-.1v-.2h-.1v-.1l-.1-.1v-.1L23 45v-.1l-.1-.1v-.1h-.1v-.1l-.1-.1-.1-.1h-.1v.1l.1.1.1.1v.2h-.2v.1l.7.8zM23 43.2v-.1l-.3-.3v.2l.2.2zM22.6 42.4v.1-.2h-.1v.1h.1zM24.5 42.1l-.2.8v.1l.3-.9zM19.2 38.4l-.1-.1H18.8v.1h.1v.1l.1.1.1.1.1.1v.1l.1.1.1.1.1.1.1.1h.1v.1l.1.1.1.1.1.1v.1l.1.1v.2l.2.1-.1-.3v-.1l-.1-.1-.1-.2-.1-.2v-.1l-.1-.2-.1-.1-.2-.1-.1-.2-.1-.1zM19.3 34.4v.1l.6.6.1.3v.1h.1l.1.1h.1v.1l.1.1.1.1v.2l.1-.3-.1-.1v-.1l-.1-.1v-.1l-.1-.1v-.1l-.1-.2-.1-.1-.8-.7v.1zM18.8 39.9V40.7l.1.1h.1v-.6l-.1-.1v-.2h-.1zM19.9 37.1l-.1-.1-.2.1v.1l-.1-.2h-.1v.3l.4.3v-.1l-.1-.2.2-.1zM3.6 54.2v.1l.2.2v-.1l-.2-.2zM14.5 36.2v.5l.1.1.1-.1v-.5l-.1-.2v-.2l-.1-.1h-.1v.4zM15.3 36l.1.1.1.1h.1l.2.1h.1l-.1.1.2.5.4-.5v-.2l-.1-.1H16v.1l-.1-.1-.5-.5h-.2l-.1.2.1.1zM17.8 38.1l.2-.2v-.1l-.1-.1-.1.1h-.1v.2zM15.2 41.4h.1v-.1l-.1-.1-.2-.1v.1h-.1v.1l.3.1zM23.4 42.7h-.1v-.2l-.1.1-.1-.1v.2l.1.1-.1.2h.1l.1-.2v.1l.1-.1h.1v-.1h-.1zM16.7 38.5l-.1.1-.1.1-.1.1-.1.1-.1.1v.1h-.1v.2l-.1.1-.1.1v.1l-.1.1v.1l-.1.1V40.2l-.1.1v.1l.1-.1.1-.1v-.1l.1-.1.1-.1v-.1l.1-.1.1-.1v-.1l.1-.2.1-.1.1-.1.1-.1.9-.9.1-.1v-.1h-.2l-.1.1h-.2l-.1.1H16.7l-.1.1-.1.1-.2.1h-.1v.2h.1l.1-.1.1-.1h.2v-.1h.2l-.1.1zM21.6 42.9v-.1h-.1l-.1-.1-.1-.1h-.1l.1.1.1.1h.1l.1.1.1.1h.1v.2h.1v.1h.1v.2h.1v-.1l-.1-.1-.1-.1v-.1l-.1-.1h-.1zM16.7 39.8h-.2l-.2.1-.2.2V40.4l.6-.5zM16.7 41l-.1-.3h-.2v.1l.2.2zM17.1 37.2l-.1.1-.1.1-.1.1v.2l.1.1v.1h.1l.3-.3v-.1h-.1v-.2zM17.1 40.5l.1.2h.1v-.1l-.1-.1h-.1zM35.4 41.1V41h-.1v.1l.1.1h.1l.1.1h.1l-.1-.1v-.1l.1-.1h-.1.1v-.2l-.1.2-.1-.1v-.1.2zM4.9 61.4v-.2h-.1l-.1.1.1.1v.1l.1.1v-.2zM4.2 63.3v-.2h-.1v.2l.1.1v-.1zM4.4 62.1h-.1v.5h.1v-.4zM4 65v.2l.1-.1v-.7H4V64h-.1v.2l.1.1v.6zM4.2 64.1v-.6h-.1v.6l.1.1zM34.4 46.5l-.1.2v.4-.2l.1-.1v-.1l.1-.2v.4-.1h-.1v.1l-.1.5h.1v-.1l.1-.1V47l.1.1v.2l.1-.1-.1-1v-.1l.1-.1v-.2l.1-.1.1-.1.1-.1v-.2l.1-.1.1-.1.1-.1v-.2l-.1.1-.1.2-.1.1-.1.1v.1l-.1.2v.1l-.1.2h-.1v.2l-.1-.3h-.1l-.1.5h.1v.2zM22 44.3v-.1l-.1.1h-.1l-.2 2.2h.2V46.2l.1-.1V46.4l.1.1.1.2v.1l.1-.1-.1-.8-.1-.1v.1h-.1v.1l-.1-.1.1-.1v-.1l.1-.2v-.2l.1-.1v-.1l.1-.1-.2-.7zM35 41.7l-.1 1v.2l-.1.3.1.1.1-.5.1-.1.2-.6h-.2V42l-.1-.1v-.1zM3.8 61.8v-.1l.1-.1v-.1l.1-.1v-.2h-.1l-.1.1v.1h-.1v.2h-.1v.2l-.1.1v.2h-.1v.4-.1h.1v-.2h.1V62h.1v-.1zM34.3 48.3v.2h.1v-.6l-.1-.1v.4zM3.9 60.7H4h-.1v.1zM4.5 59.7v-.1l.1-.2h-.1l-.2.3v.4h.1V59.8zM3.5 60.9v-.1.1h-.1v.2zM3.9 61.7l-.1.3-.1.2.1.1v-.2l.1-.1V61.7zM4.4 60.1v.1-.1zM4.2 60.8l-.1.9h.1v-.1h.1v.2h.1l-.1-.3v-.1.1h-.1v-.1h.1V61.1h.1l-.1-.3h.1v.2h.1v.4h-.1l.1.1v.1-.1V62.3h.1v.1h-.1l.1.1V63.6l-.1.1V64.7l-.1.1V65.9h.1l.1-.5h-.1l.1-1.8v-.2.5h.1v-1.2h-.1v-.1l.1-.1-.1-.1v-.3h.1V62l-.1-.3-.1-.2.1-.1v-.2l.1-.1V61h.1v.1l.1-.1H5v.1h.1v.1V60.9l-.1-.1v-.1h-.1l-.1-.1-.1-.1h-.1l-.3.2h-.1.1v.1zM3.8 62.9v.1l.1-.1v.5-.1l.1-.1V63h.1v-.1.1l.1-.1h.1v.2h.1v-.2h-.1v-.2h-.2v-.1h-.2l-.2.1v.1h.1zM54.8 67.5V63.5v.1l-.1 1.6c-.2-.1-.3-.2-.6-.3v-.1V67v-1.3.3-1.3.3-1.3.3V62.8l.1-.5v-.7h-.1V63.1l-.1 2.1V67.3c-.1-.1-.2-.1-.4-.2V64.8v.2-.5.3V62.8v.2V61.6 63.5 61.2 62v-1.2V61.1l.1.1V60.4H54h-.2v-.1h.7v.1-.5V60.5h.1v-.4L54 60v-.1l.1.1v-.2h.1v-.1l-.2-.1v-.4.2l.1.1v-.4V59.4l.1.1.1.2V61.2 58.1l.1-.2v-.1l-.1.1v.4-.7l-.1-.1V57.2l-.1-.1V57l-.1-.1h-.1v.1l.1.2.1.1v.1l.1.1v.1l.1.2v.2l.1.1v.1l.1.1v.5-.2h-.1v-.1l-.2-.4.1.2h-.1l-.1.3-.1-.1h-.2v-.1l.1-.1v-.4.1l.2.1v-.2h.2l.1.1-.1-.3v.1l-.1-.9-.1.5v.4H54l-.3-.1h-.1v.1h.1l-.7-.4.1.1v.2l-.1.2h-.2.4v-.1h-1.3l-.1.1v.1l.2-.1h.4-.1l.1.1h-.1v.1h-.1v.2-.1h.4V59.1H51.5v.1h.4l.4-.1-.1.2V59.6l.3-.3.2-.2.1-.2V59.7h-.5l-.1.1h.1v-.1h.1v.7V60.1H52.7l.1.4v.1L53 62v.1l.1 1.5.1.7h.1V62.8v.2-1.2l.1-.1.3-.2v-.1.8l-.1 2.5V66.5 66 67.4c-.3-.1-.5-.2-.9-.3-.1 0-.2-.2-.2-.5V65.4c0-.1.1-.1.1-.2v-2.9h-.1c0-.1.1-.1.1-.2 0-.3-1.7-.5-4.6-.7.1-.1.1-.1.1-.2v-1.9H48c.1 0 .1-.1.1-.1 0-.1-.6-.3-1.8-.4l-.3-1.4h-.1V58.4c-1.4-.1-3.5-.3-6-.4l-.1-.8h-.1V58.2c-.9 0-1.8-.1-2.8-.1V52.2l.1-1-.1.3v.2l-.2 3.8V57.8h-1.6v-2.5h-.5V53.8v.2V52.9v.1-1.6l-.1-.1-.1.2v.1l-.1 2.4v1.3-.3V55.3h-9.7v-.1h9.6L32.6 54l.9-2.9.1-2-.1-.1.1-.7h-.1v.6l-.4-.8V48l.1-.1v-.1l.1-.1.1-.1.1-.1-.1.1-.1.1v.4l-.2-.4.4-2.4v-1.5l.2.2v-.1l-.2-.2-.1-.1v-.5l.1.1.1.1v.2l.1.1v.4l.1.1.1.1V42.8l-.1-.1v-.6l.1.1v.1l.1.1v.1l.1.1v.1l.1.1v.7l.1.1v.5l.1.1V42.6l-.1-.1-.1-.1-.1-.1-.5-.3-.1-.1-.1-.1-.1-.1-.1-.1h-.1v-.5l1-.4.1.6v-.2l-.1-.5.2-.1v.2h.1v-.4l.6-.2-.1.1.1.1v-.2l1-.4h.2l.1.1.1.1v-.1l-.1-.1h1l.3.3v-.6l-.1-.1-.1.1v.1l-.6-.4v-.2h.5l.4.1h.1l.1.1V39l-.1-.4-.1-.1v.5h.3l-.1-.1v-.1l-.3-.2.1-.8.1-.1.3-1h-.2v-.1l-.1-.1v-.4l-.1 1.7v.2l-.1.6V38.9h-.3V38l-.1-.1H37v.1h-.1v.2l.1.6h-.1l.1.2v.1l-.4-.1h.1V37.4l-.1-.1-.1-.1H36v-.1l-.1-.1-.1-.1-.1-.2-.1-.1-.1-.1-.1-.1-.1-.1-.1-.1-.1-.1V36h-.2l.1.1.1.1.1.1.1.1.1.1.1.1.1.1.1.1.1.1.1.1.1.1.1.1v.1l.1.1v.1l.1.1-.3.4.1.2.1.2.1.1.1.1.1.2.1.2.1.1H36v-.7l-.1-.1-.3-.3-.1-.1v-.1l-.1-.1v-.1l-.1-.1v-.1l-.1-.1-.1-.1-.1-.1V37h-.1l-.1-.1-.1-.1-.1-.1-.1-.1-.1-.1-.1-.1-.1-.1-.2-.1-.1-.1h-.1v.1l.1.2 1 1 .1.1.1.1.1.1.1.2.1.1.1.1.1.1.1.1.1.1.1.1.1.1.1.1h-.4l-.1-.2-.2-.2-.2-.2h-.1v.1l.5.5h-5.3c0-2.8 0-4.4.4-5h1.9v-.5h-5.5v.5H29c.3.6.5 2.7.4 5h-5l.8-.8-.2.1v-.1h-.1l-.1.1h-.1l-.1.1-.1.1-.1.1-.1.1-.1.1-.2.1-.1.1-.1.1v.1H23v-.1l.1-.1.1-.1v-.1l.1-.1.1-.1.1-.1.1-.1.1-.1.1-.1.1-.1.1-.1h-.2v.1l-.1.1-.2.1-.1.1-.1.1-.1.1-.1.1-.1.2-.1.1-.1.1v.2h-.2l-1.2.8v-.2l-.1-1.7v.4l-.1.1v.1H21l.3 1 .1.1.1.8-.3.2v.1l-.1.1h-.2v-.2l-.1.1-.1.4v.1l.1-.1h.1l.4-.1h.5v.6-.2l.1-.1v-.1l-.1.1V41l.1-.2h-.1l.1-.6V40h.4V41l.1-.2.1-.2.1-.2.1-.1.1-.1v-.1l.2-.1v.6l.1-.1.1-.1.1-.1.1-.1.1-.1.4.2-.2.2-.1.2h.1l.4-.4 1.6.6h-1.2l1.4.6v.9-.2l-.1.1-.1.4.1-.1h.1v.7l.1.3-.1.1-.1.1-.3.2-.1.1-.1.1V45.7l.1-.1.1-.1v-.4l.1-.1v-.2l.1-.1.1-.1.1-.1.1-.1.2-.2.3 1.5-.5 2.2v1.8-.6l-.1-.1.1.1.1.1.1.1v.1l.1.1V49.8l.5 1.6-.1 3.3-2 .3.1-.4.2-2.7v-.1l.1-.5V54.7 54 55l-.2.1-.1-1.7V53.1l-.1.1V55.1 55 55.3h-.4v2.5h-1.7v-.6l-.2-3.8v-.2l-.6-.2h-.1v4.5c-.9 0-1.7 0-2.5.1V56.5v.5-1.3.3-3.2l-.1-.2H19V58.1c-.5 0-1 0-1.5.1V57l-.1-2.4v-.1l-.1-.2-.1.1V58.1 58c-1.8.1-3.3.2-4.4.3V56.8v.2V55.9v.1V55.2l.2-3.1v-.2l-.1-.2-.1.1V58.3c-1 .1-1.5.2-1.5.4 0 0 0 .1.1.1h-.3v1.9s.1.1.2.1c-3.1.2-5 .4-5 .7 0 .1 0 .2.1.2v4.1c0 .1 0 .2.1.3 0 .3-.1.5-.2.5l-.9.3v-1.3.4V64.5v.5-.1l-.1-2.5v-.8.1l.3.2.2.1V63.1 63 64.6h.1l.1-.7.1-1.5v-.1L6 60.9v-.5H6.3V60.7 60h.1v.1-.1H6V59.2l.1.2.2.2.9.4v-.2l-.1-.1-.1-.2.4.1h.4v-.1h-.7.2-.2V58.6h.4v.1l-.1-.1v-.1h-.1v-.1h-.2l-.1-.1h-.2.4L7 58v-.1l-.1-.1H5.6v.1H6h-.2l-.1-.2v-.2l.1-.1-.1-.1h.1v-.1h-.1l-.3.1h-.1v-.4l-.1-.5-.1.9v-.1l-.1.5.1-.1h.1v.2l.1-.1v-.1.4h.2v.1h-.1l-.1.1H5V58l.1-.2-.2.4v.1h-.1v.2-.5l.1-.1v-.1l.1-.1v-.2l-.3.5v-.4l.3-.2v-.1h-.1l-.1.1-.1.1v1.2-.4l-.1-.1v.1l.1.2V59.3 59 60.5 60.2L4 60v-.2l.1-.1V58.9l.1-.2.1-.1V58.3v.4l.1-.1v-.2.4l-.2.1v.1h.1v.2l.1-.1v.1l-.2.1v.4h.1v-.6.5-.1h.6v.1H4.6 5V60.4 60v1.2V60.4 63.2 63v.5V61.7 64.1 64v.6h.1v-.3V66.1 66v1.2c0-.2-.1-.1-.2-.1V67H5V61.7 62.5l.1.5v1.1-.1V66.7 66 67.4 67v.1l-.6.3-.1-1.6v-.1V69.9c-.3.2-.4.4-.4.6 0 .2.1.4.3.5 1.8 1.8 12.5 3.1 25.4 3.1h.1c14.2 0 25.7-1.7 25.7-3.7-.3-2.4-.5-2.7-.7-2.9zm-1.2-3.4v-.2.2zm-.1-6.5zM36 39.8h.5-.5zm-14.4.7h-.3V40.2l-.1-.5h.3v.6l.1.2zm1.5-.7h-.5.5zm4.3 14.8l-.3-.1v-3.3h.4l.2 1.2-.3 2.2zm3.3-.1h-1.9V53l.7-1.4.5.5.8.9v1.5zm-1.9-12.1h1.1v1.3h-.8l-.3-1.3zm3.3 11.9l-.3-.1v-3.3h.4l.2 1.2-.3 2.2zM33 42l-.1-.1-.1-.1-.1-.1H32.4v.1l.1.1.4.4-.4 2.8-.4-.3.1-.7c-.1-.4-.2-.6-.3-.7-1.7-.8-.8 2.8-1.4.4l-.2-1.4h.2l1.6-.7.6-.2.2.2v-.1l.1.4zm-9.6-2.2l6-.1h6.3-12.3zm2.8 2.8h.6l.1-.1-.2-.1-.1.1h-.2v-.1h-.1l-.1-.9 1.8.7.6.4-.3 1.5c-1.3-.2-1.1 0-1.4 1.1l-.5-2-.2-.6zm-20.8 15zm-.1 6.3v.2-.2zm.6-2.8v.2-.2zm0-.7v.7-.7zm.4-.6h-.2v-.2l.2.1h.1l-.1.1zm-.4-.2l.1.1-.2-.1h-.2v-.1H6l-.1.1zm.1.2zM6 58h.4v.1h.2l.1.1h.2v.5V58.4h-.1l-.1-.1h-.2L6 58zm0 .5l.1-.1v-.2h.7l.1.1H7v.2h-.1l-.2-.2h.1l.1-.1-.3-.2v.4h.1v.3H5.9v-.1h.2v-.1L6 59v-.5zm-1.1.8zm.4.8h-.1v.2-.6.1l.1.3zm0-1V59v.1l-.1.1v.2l-.1-.1H5v-.2l.1-.1H5v-.5l.1-.1.4-.4v-.2l-.1-.5h.2V58.5l-.2.1-.1.1v.1l-.1.1-.1.1.1-.1.1-.1v.4-.1zm.1.1l.1-.1v.1V58.4l.2-.1V59.3h-.2v-.1h-.1zm0 .9v-.2.2h.1-.1zm.2.4l-.1-.2.1.2zm0-.4V59.8h.5l-.1.1v.5l-.2-.1h-.6l.4-.2zm-.3.7h.1v.2l-.1-.2zm.1.3v-.2.2l.1-.1V61.3l-.1-.2-.2-.2-.2-.1.4.3zm19.2-5.9l-.2.1v-.1h.2zm0 12.9h-1.8v-5.5h-.5v5.5h-1.8v-6.9h4.1v6.9zm3 0l-.1-1.2h-.6l-.1 1.2h-1.9l.9-6.9h2.6l1 6.9h-1.8zm6-4.4c0 .4 0 .8-.1 1-.1.2-.3.4-.5.5-.2.1-.6.2-.9.2h-.5v2.8h-1.8v-6.9h1.8c.5 0 .9 0 1.1.1.3.1.5.2.6.3.1.1.2.3.3.5.1.2.1.5.1 1v.5zm4.6-.3c0 .7-.4 1.1-1.2 1.2.8.1 1.2.5 1.2 1.2v1.1c0 .5.1.9.2 1.1h-1.7c-.2-.2-.3-.5-.3-1v-1.3c0-.2-.1-.3-.2-.4-.1-.1-.2-.2-.4-.2V68H34v-6.9h1.8V64c.3 0 .5-.2.5-.6V62c0-.5.1-.8.3-1h1.7c-.2.2-.2.5-.2 1l.1 1.4zm15.1-2.5l.1-.1h.1-.2v.2-.1zm.2-.6v.1h-.2v-.2l.2.1zm0-.2h-.2.1v-.2l.1.2zm-.6-.4l.1-.1v-.1h.4v.1H53.1l-.2.1zm0 .1zm.9.1v.4-.5.1zm.2-.6zm-.9-.9V57.6h.2v.6l.4.4v.6h-.1l.1.1v.2h-.1l-.1.1v-.4.1h-.1v-.4l.1.1.1.1-.1-.1-.1-.1v-.1l-.1-.1-.2-.3zm-.1.8l.1-.2V58.2l.2.1V59.1 59l.1.1-.1.1v.1h-.1l-.2-.1zm-1-.4l.1-.2V58.3h.2v-.1h.1V58H52.7v.1h-.1v.1h-.1v.1l-.1.1v.1l-.4.3zm-.2.3zm.6-.2h-.2l.1.1h.1l-.2.2H51.9V59h.1v-.1h.7v.2h.1l.1-.1V59.3H53.2v.1H52.9v-.3h.1-.1V58.8l-.5.1zm.3.9l-.1-.1h.1l.2-.1v.2h-.2zm.2.4l-.1.1h-.1l-.2.1v-.5l.5-.1h.5V60.1H53.2l-.3.1zm.1.8v-.7h.2v.6l-.2.1zm.1.3v-.2h.1v.1l-.1.1zm.4 0l-.1.1-.2.2-.1.2V61.5v.2l.4-.4zM25.2 49.9l-.1-.1H25v.1l.1.7.1.1v.4h.1V50.3l-.1-.1V50zM26.6 42.9l.2-.1v-.1l-.2.2zM25.2 45.2l.4-.3v-.1h-.1l-.1.1-.2.2v.1zM26.7 43.2v.2l.1-.1h.1l.1-.1H27.3l.1-.1h.2V43l-.1-.1h-.1v.1H27.1v.1H27l-.1.1h-.1zM27.8 43l.2-.1v-.1h-.2v.2zM3.3 60.8h-.2l-.1.1h-.1l-.1.1-.1.1-.1.1-.1.1v.1h-.1v.2h-.1V61.9l.1-.1v-.1h.1v-.1h.1v-.1l.1-.1v-.1h.1v-.1H3v-.1l.1-.1h.1l.1-.1v-.1zM4.8 54.7v.1l.1.1v.5l.1-.1v-.2h-.1v-.4l-.1-.3-.1-.2h-.1v.2l.2.2zM34.8 49.5l-.1-.1h-.1l-.1.1V49.8h.1l.1-.1v-.1zM26.9 65.6h.6c-.1-.8-.2-1.7-.3-2.9-.2 1.3-.3 2.3-.3 2.9zM27.4 37.2l.3-.1v-.2H27.4v.2h-.1l.1.1zM35.2 48.9h.1v-.2l-.3-.1h-.2l-.1.1h-.1l-.1.1-.1.1v.1l-.1.1V49.4l.1-.1v-.1l.1-.1h.1l.1.1.1-.1v.1l.1.1v.2l.1.1v.2h.1l-.1-.7h.1l.1.1V48.9zM34.6 50.9v.1l.1-.1V50h-.1v.2l-.1.1V50.6l.1.1v.1zM34.9 52.3V51.3h.1v-.5h-.1v.4l-.1.1v1.3l.1-.1v-.1zM31.3 35.3l-.1-.1h-.1v.1l-.1.1.3.2.1-.1v-.2zM36.2 53.7l.2 1.1v.1V54.6l.1-.1v-1.6l-.1-.2V51.1l-.1-.1v-1l-.1-.1v-.8l-.1-.1v-.6h-.2l.1.9v.1l.3 4.1-.1.1zM35.9 46.8l.1.3.1-.1V46.7l.1-.1V46l.1-.1v-.4l.1-.1-.1-.1V44.6l.1-.2V44h-.1l-.1.3-.2.4v.2l-.1.7v.1h.1l.1.1-.1.7zM31.5 62.4v1.8h.1c.2 0 .3 0 .3-.1.1-.1.1-.3.1-.5V63c0-.2 0-.4-.1-.5 0-.1-.1-.1-.4-.1zM4 58.3l-.1-.2V58.4l-.1-.1v.2l.1.3.1.3v-.8zM4.4 57.2l-.2.5.1.1.1-.6zM36.2 40.8v-.1h.1v-.1h-.1v.2zM36.1 41.3v-.1H36l-.2.3h.1zM3.3 54.9v.2h.1v.2h.2-.1l-.1-.1h-.1V55.5h.1-.1v.6l.4.4h-.2l-.1.1-.1.1h-.1l-.2-.2.1.1-.1.1-.1.1.1.2-.1.1v.2l-.1.1v.6h-.1l-.1-.1h-.1.2v.5V57.6l.1-.1.1-.1v-.1l.1.1v-.1l.1-.1h.4-.1.2-.1l-.1.1-.1.1-.1.1-.1.1v.4V57.7l.3.3v-.1l-.1-.1.1-.1.1-.1h.1l-.1.1.1-.1.1.1v.2-.1l.2-.2H4l.1-.1V57v.2l-.1.1h-.1v-.2l-.2.1v-.1h.2L4 57H4.3v-.1l.1.1v.2l.2-.2v-.5l-.5-.5.2-.2.2-.1-.1-.1-.1-.1h-.4v-.1l-.1-.1-.1-.1-.2-.2h-.1l-.1-.1zm.3 2.7zm.3-1.8l.1.1v.2l-.1-.1v-.2zM1.8 57.7v.1l.1.1H2v-.1zM2.1 55.8h.1l.1.1h.1l.1.1h.1l.1.1.1.1.1.1H3v.1l.1.1.1.1v-.2l-.1-.1v-.1H3v-.1l-.1-.1-.1-.1v-.1h-.1l-.1-.1h-.1v-.1h-.2v-.1h-.2l-.1-.1h-.1l-.2-.1h-.6l-.1.1v.1H1.3l.1.1h.4l.1.1h.2zM3.1 57.5h.1v-.1h-.1v-.1.2zM4.6 52.2v.2l.1.1V52.2h-.1zM3.7 50v.1l.4.4.1.2.1.1h.1v.1h.1v.2l.1-.2h-.1v-.2l-.1-.1v-.1l-.1-.1-.1-.1-.5-.4v.1zM4.5 51.6l-.1-.1h.1l-.1-.1v.1h-.1l-.1-.1v.1l.1.1h-.1l.1.1-.1.2h.1l.1-.2.1.1v-.1h.1v-.1zM1.5 57.1h-.1v.2h.1l.1.1h.2l-.1-.1zM4.7 53.8v.1h.1v.1-.7h-.1v.4zM3.5 53.8v.1-.2h-.1v.1h.1zM3.5 52.7v.1l.4.4v.2h.2v.1h.1v.2-.1l.1.1.1.1-.1-.2v-.1l-.1-.2-.1-.1v-.1L4 53v-.1h-.1l-.1-.1-.1-.1v-.1h-.1l-.1-.1h-.1v.2zM3.1 61.3l-.1.1h-.1v.1l-.1.1v.2h-.1.1v-.1h.1v-.1l.1-.1h.1v-.1h.1v-.1h.1v-.1zM3.8 51.7v.2l.2.2h.1V52l-.2-.3h-.1zM3.7 51.3v-.1l-.1-.1v.2zM.6 52.6l.5.1.4.1v-.1h-.2l-.1-.1H1l-.1-.1H.3l-.1.1H.1l-.1.1h.2l.1-.1h.2zM.9 54.9v.1h.4l.4.1V55H1.4v-.1H.5v.1H.4h.2v-.1h.2zM1.9 52v-.2l-.2-.1-.1.1v.1l.2.1zM1.7 58.4v-.1h-.4v-.1H1l-.1.1H.8v.1-.1h.7zM1.1 51.1h.1v.1H1.5l.1.1v-.1l-.1-.1-.3-.3H1v.1l.1.1zM3.3 60.5v.2l.1-.2.1-.1.2-.1v-.1h-.1l-.1-.1h-.1l-.1-.1h-.2v.1H3h.2v.1h-.1v.1H3l.1.1v-.1h.1v.1h.1zM35.8 42.7l-.1.1-.1.1v.1l-.1.2h.1v-.1l.1-.1v-.1l.1-.1.1-.1.1-.1.1-.1v-.1h.1v-.1h.1l.1-.1v-.1l.1-.1h-.2l-.1.1-.1.1-.1.1-.1.1v.1l-.1.1zM2.3 59.1l.1.1h.1v.5-.2l.1.1.1.1h.1l.1.1v-.4.1h-.1V59.8 59.5l.1-.1.4.4h.1v-.5l.1-.3v-.1h.1v-.1l-.2.1v-.4H4v-.1h-.5l-.5.1-.1.1-.1.1-.1-.1-.1-.1-.1-.1-.1-.1h-.5v.1H2.7v.2H1.2 2.6l-.3.5zm.9-.4l.1-.1-.1.1zM2.3 54.8h-.2v.1h-.2v.1H2l.1.1h.1l.1.1h.2l.1.1h.1l.1.1.1.1.1.1h.1v.2h.1v-.1l-.1-.1v-.2H3v-.1h-.1l-.1-.1v-.1l-.1-.1h-.2v-.1h-.2zM1.8 54.2v.1l.2.1v-.1zM2.4 54.1h.1l.1.1.1.1.1.1.1.1v.1H3v.1l.1.1v-.2H3l-.1-.1v-.1h-.1v-.1l-.1-.1h-.1l-.1-.1V54h-.2l.1.1zM1.8 53.8l-.1-.1-.3-.3h-.1v.2l.1.1h.1v.1H1.8zM3.2 51.6v-.2H3l.2.2zM2.4 51.6l.1.1h.1l.1.1.1.1.1.1.1.1v.1h.1v.2h.1v-.1l-.1-.1-.1-.1V52l-.1-.1-.1-.1h-.1l-.1-.1-.1-.1-.1-.1h-.1l.1.1zM3.3 54.3h-.1v-.2h-.1v-.2H3v-.1h-.1v-.1h-.1l-.1-.1h-.1v-.1h-.1v-.1h-.2v-.1h-.2l-.1-.1h-.2v-.1H1.5l-.1-.1H.9l-.1.1H.7v.1l.1.1H1l.1.1h.5v.1H1.9l.1.1h.2v.1l.1.1h.1l.1.1h.1l.1.1.1.1h.1l.1.1v.1l.1.1.1.1h.1v.1l.1-.1v-.1h-.1zM1.8 52.6v.1h.1l.1.1h.1l.1.1h.2l.1.1h.2v.1h.1l.1.1H3v.1l.1.1v.1h.1v.1h.1v-.1l-.1-.1v-.2h-.1v-.1L3 53l-.1-.1-.1-.1-.1-.1h-.1l-.1-.1h-.1v-.1h-.5zM23.7 47.5v.1l.1-.1v-.1zM18 50.9v-.5l-.1-.1-.1-.3v-.2h-.1V50.9h.1v.6l.1.1v.2h.1v-.4l-.1-.4.1-.1zM17.3 54V53.1h-.1V54.1zM18 52.7v-.1h-.1v.4l-.1.1V54l-.1.1v1.3l-.1.1V56.5l.1.1v.2l.1-.8v-.1l.1-2.6v-.1l.1-.5zM17.4 52.3l.1.1v.1h.1v-.2l-.1-.1V52h-.1v-.1h-.1l-.1-.1-.1-.1h-.2l-.4.2v.1h.1l.1.1v.2l.1-.1v.7h.1V52.6l.1-.1v-.2h.1v.1h.1v-.2h.2zM17.3 52.8V52.5h-.2v.2l.1.1v.1h.1v-.1zM36.3 43.3v-.1h-.2V43h.1v-.1l.1-.1-.1-.1-.1.1-.1.1-.1.1v.1l-.1.1v.1l-.1.1v.1l-.1.1v.1l-.1.1v.1l-.1.1v.2h.1l.1-.1.7-.7zM16.3 49.1l-.1-.1v.1h-.1l-.1.1v.2zM17 55.3v.4-.1h.1V54.5H17V54l-.1-.1V54.7l.1.1v.5zM18.2 52.1l.1.4.1-.1v-.5l-.1-.1v-.4l-.1-.1h-.1l.1.7v.1zM21.1 46.5H21l-.3.6V47.9h.1l.1-.2v-.5l.1-.1V47l.1-.1.1-.4h-.1zM20.4 47.4v-.1l.1-.2.1-.1.1-.1v-.2l.1-.1v-.1l.1-.1.1-.1.1-.1v-.1l.1-.4v-.1h.1v-.2l-.1-.1h-.1l-.1.1-.1.1-.1.1v.1l-.1.1-.1.1v.1l-.1.2v.1l-.1.1-.1.2v.1l-.1.1v.2l-.1.1-.1.2v.2l-.1.1v.8l.1-.1v-.2h.1v-.2l.1-.1v-.2l.1-.1zM19.8 50.5h-.1v.5l-.1.1V52.1l-.1.1V53.6l-.1.2v1.1l.1.1v.2-.1l.1-.8v-.1l.2-3h-.1v-.1l.1-.6zM20.1 49.9l.1.5.1-.2v-.6h-.1v-.4l-.1-.1V49H20l.1.8v.1zM21.3 54.3v.5h.1v-.7l.1-.1V53.7l-.1-.1V52.6l-.1-.1V52.2l-.1-.1h-.1l.1.1V53.3l.1.1V54.2zM18.7 53.5v.4h.1V52.5l-.1-.1V52h-.1v.6l.1.1V53.5zM19.2 50.1v.1l.1.1.1.1-.1-.3v-.2l-.1-.1-.1-.1-.1-.1h-.1v-.1l-.3-.1-.4.2v.2h.1l.1.1v.2l.1-.1v.5-.1h-.1v.1l.1.1v.2h.1v-.1.1h.1v.2l.1.1v.1l.1.1v.7l.1.1v.1-.2h.1V51.1L19 51v.1l-.1.1v.1-.1l-.1-.1V51l-.1-.1v-.1l-.1-.1v-.2l.1-.1v-.2h.1v-.1h.1v.1l.1-.1V50h.1v.1zM19.1 50.6v-.1l-.1-.1v-.1h-.1v.4l.1.1h.1v-.2zM16 47.7l.1.6V47.3l.2.2.1.1V46.8l-.1-.1-.1-.1-.1-.1V46l-.1-.1-.1-.1-.1-.4v.2l.1.1.1.1h.1v.2l.1.1v.4l.1.1V46.3l-.1-.1-.1-.1-.1-.1v-.4l-.1-.1-.1-.1-.1-.1-.1-.1-.1-.1-.1-.1-.1-.2-.1-.3h-.1V47l.1.1.1-.2-.1-.3v-.3l.3.3.5 1.1zm-.2-1.4h-.1v-.2h.2l-.1.2zM35.8 46.2h.1l-.1-.1V46h-.1l-.1-.1v.1l.2.3zM8.1 58.6v-.2l-.1-.1v-.1h-.1l-.2-.4-.1-.1h.1l-.3-.2v-.1l-.5-.3v.1l.1.1h-.6l-.1.1h.1l.1.1h.2l.1.1h.4l.1.2.4.4.4.4zM12.5 52.8v.4l.1-.1V51.6h-.1v-.5l-.1-.1v-.1h-.1v.4l.1.1v.7l.1.1v.5zM13 49.3h-.1V49h-.1v-.1h-.1v.4l.1.2h.1l.1-.1zM13 48.6l.1.1v.1l.1.1.1.1-.1-.3V48.4l-.1-.1v-.1H13l-.1-.1-.1-.1h-.1v-.1l-.4-.1-.4.3v.1h.1v.1l.1.1-.1.2h.1v.1l.1-.1h.1l-.1.9.1-.1v-.2l.1-.1v-.2h.1v-.2l.1-.1.1.1v.1l.1-.2.1-.1.1.1zM35.4 48.2h.1v-.4.1h.1v.2l.1.1v.2h.1V48l-.1-.1v-.2l-.1-.1v-.1l.1-1.2v-.1l-.1.1-.1.1v.2l-.1.1V47v-.1l-.1-.1-.1-.1v-.1h-.1v-.1h-.2v.2l.1.3.1.1v.1h.1v.1l.1.1v.6l.1.2zM34.3 44.8h-.1l.1.1v-.1zM35.2 48v.1h.1v-.5l-.2-.3-.1-.1V47.5h.1V47.8h.1v.2zM14.6 50.2l.1.2v-.1l.1-.1V49h-.1l-.1.1V50.1zM14.7 48.7l.1.1v-.5h-.1v-.1h-.2v.2l.1.1v.1zM12.9 51v-1.2l-.1-.1v.1l-.1.1V50.8l.1.2v.1zM14.7 57.7v-.1l.1-.1v-.1l.1-.1v-.4l.1-.1V54.6l-.1-3.2V51.1l-.1-.2h-.1V57.7zM15.7 48.4h-.1v.1l-.1.1V49.4l-.1.1v1.1l-.1.1V51.6l-.1.2V54h.1l.2-1-.1-.1.2-3.6v-.1l.1-.8zM13.8 49.1h-.1v.2l-.1.1V50.4l-.1.1V51.4l-.1.1V53.4l-.1.2v.5l.1.1v.5l.2-1v-.1h-.1l.2-3.6v-.1l.1-.7zM14.4 52V52.3l-.1.1.1.1V52.2l.1-.1v-.7l-.1-.1V50.5l-.1-.1V50.1h-.1v.7l.1.1V51.8l.1.1v.1zM15.1 48.3v-.5l-.1-.1v-.1l-.1-.1-.1-.1-.1-.1h-.1l-.1-.1-.3-.1-.4.2-.1-.5h.1l.1-.1-.1-.2h.1l.1-.1V46l.1-.1v-.2l.1-.3v-.1h-.1l-.3.6v.5-.3l-.1-.1V45.7l.1-.1v-.1l.1-.1v-.1l.1-.1.1-.1V45h.1l.1-.4V44.3h-.2v.1H14l-.1.1v-.1l-.2-.1h-.1v.1l.2.2.1-.1v.1l-.1.1v.1l-.1.1-.1.1V45.3l-.1.1v-.1h-.1v.4l-.1.2v.1l-.1.1v-.6H13v.1l-.1-.1.1-.1v-.2l.1-.1v-.2l.1-.1-.1-.7h-.2l-.1 1.9v.1l.1-.1v-.2l.1-.1v.4l.1.1.1.1-.1.1V47.8h.1l.1-.1v-.8l-.1-.1v.1-.2h.1v-.2l.1-.1v-.1l.1-.1v.2l-.1.1.1.1v.5l.1.1v.5l.1.1v.1l.1.1v-.5l.1.1V47.9h.2v.9l.1-.1v.3h.1v-.9h.1V48l.1-.1v.1h.1l.1-.1v-.1h.1l.1.1.1.1v.1l.1.1zM19.8 48.6l.1-.1-.1-.5v-.1l-.2-.3v-.2h-.1V48.4l.1.1v.7l.1.1v.2l.1.1v-.4l-.1-.6h.1zM34 41.3v-.2h-.1v.2h.1zM34 52.9l.2.7v.1V51.3l-.1-.1V50.3l-.1-.1v-.7h-.1l.1.6h-.1l.2 2.7v.1zM33.8 41.5l.1.3h.1l-.1-.3zM55 60.7l.1.1H55zM33.9 48.5v.2l.1-.1v-.4l.1-.1v-.5h.1l-.1-.1v-.4l.1-.1V46.7h-.1v.2l-.2.3v.1l-.1.4.1.1h.1l-.1.5zM23.1 41.3l.2-.1V41h-.1l-.1.1v.2zM22.5 41.3h-.2v.1h-.1l-.1.1h-.2v.1h-.1v.2-.1h.2l.1-.1.1-.1h.4l.1-.1h.1l.2.2.1.2v.1h.1l.1.1.1.1v.1l.1-.1-.1-.1v-.1l-.1-.1v-.1l-.1-.1v-.1h-.1l-.5-.5V41.3zM21 41.2h-.1v.1h-.1v.4h.1l.2-.2v-.2zM20.4 40.4l-.1-.1h-.2v.1l-.1-.1v-.7l-.1-.1-.1-.1-.1-.1h-.1l.1.1.1.1.1.1.1.1v.1l-.2-.1v.2l.1.1-.1.6.1.2.2-.7.4.4v-.1l.5.5.1.1-.1.1-.1.1-.1-.1-.1-.1h-.2l.1-.2-.1.1-.1-.1H19v-.1l-.1-.3v.1l.1.1H18.7l.1-.1v-.1l-.4-.1h.1-.2v-.1h.5l.1-.1h.1V40h-.5v-.1l-.1-.1v-.5l-.1-.1v-.1l-.1-.1-.6-.5V38.8l.4.5.1.2v.1H18.4v.2h-.7l-.1.1-.1.1-.1.1-.4.7v.1l-.1.1-.1.1h-.6l-.3-.1-.1-.1-.1-.1.1.1.1.1.1.1h-.5l-.1.1-.1.1-.1.1-.1.1-.1.1v.1l-.1.1-.1.1-.1.1h-.1v.1h-.1l-.2.1v.1H15.7v.1l.1-.1h.4l.1-.1H16.6l-.2.2h1.2l.1.1.1.1.1.1v.1l.1.1.1.1.1.1V43.4l.1.1-.1-.2v-.2l-.1-.1-.1-.1v-.1h.6l.1.1.1.1.1.1h.1v.4-.5h-.3v-.1l-.1-1.1h.4v1.3-1.3H20.1v.1l-.1.1-.1.1V43.8l-.1.1.1-.4v-.2h-.1v-.1H19V44.3l-.1.1h-.1v-.2l-.1.1-.1.4.1-.1h.1l.2-.1v.2-.2H19.8l.1-.1-.1-.1.1-.1.1-.1.1-.1v-.1l.1-.1.1-.1.1-.1v-.1l.1-.1.1-.1.1-.1.1-.1.8-.7.1-.1v-.1H21.4l-.1.1-.3-.3h-.1l-.1.1-.1.1-.1.1v-.1l-.1-.1-.1-.1.1-.1v-.1l.1-.1v-.1h-.1V41.3l-.1-.1v-.1l-.1-.1h-.1l-.1-.1.3-.3v-.2zm-2.4.4zm0 .3zm-.1-.3zm-.9.4l.1-.1.1-.1h.1l.1-.1H17.7v.1l.1.1H17.5V41v.1h-.1l-.4.1v.1-.1zm-.6.2zm2.1.4v.2l-.1.1v.1l.2.5-.1-.1-.1-.1-.1-.1H18l-.1-.1h-.4l-.1-.1-.1-.1-.3-.1h-.1v.1H16.6l.1-.1v-.1l-.2-.1v-.1h-.2l-.1.1H15.4l-.3.2.1-.1.1-.1.1-.1h.1l.1-.1H15.9l.1-.1h.2l-.2.1v.1h.4v.2-.2H17.3l.1.1v-.1H18l-.2.2h.1V42.2v-.1l.6-.3zm1.9.6v.1l-.1.1-.1.1V44.2l-.1-.1-.1.1h-.2l.1-.1v-.5l.1-.1V43l.1-.1.1-.1.1-.1v-.1h.1v-.2zM22 37.3l.3-1.4v-.1l-.1.1-.3 1.2v.2zM21.5 35.9v.6l.1.1.1-.1V35.9l-.1-.2v-.2l-.1-.1h-.1v.4zM21.6 37.8v.2l.1.1v.4l.1.1v.6l.1-.1v-.6l-.1-.1v-.5l-.2-.5-.1-.4h-.2V37.3zM54.7 61.7h.1l-.1-.9h-.1l.1-.1-.3-.2h-.2l-.1.1-.1.1-.1.1v.1h-.1V61.2l.1-.1V61h.2v.1l.1-.1v.1h.1v.2l.1.1v.1l-.1.2-.1.3v.1h.1v.7h-.1V63.9h.1v-.5.2l.1 1.8v.5h.1v-1.3h-.1V63.5l-.1-.1v-.6l.1-.1v-1.2l.1.1v-.1h-.1l.1-.1h-.1V61h.2l-.1-.1v-.1h.1v.5l.1.1v.1l-.1-.1v.1l-.1.3h.1v-.1l.1-.1v.1zM22.8 37.2V37h-.1v.2zM54.5 62.4v.1l.1.1v-.5h-.1v.2zM20.6 37.7V38l.1.1h.1v-.4h-.1zM20.5 36.8h-.1V36.5h-.1v.2h-.1l-.1-.2H20v.1l.1.1v.1l.1.1v.1l-.2.3h.1v-.1l.2-.2.1.1.1-.1h.1v-.1h.1v-.1h-.1zM21.8 52.3v-1.5h-.1l-.1.1V52.2l.1.1v.1zM22.9 47.4v-.1l-.1-.7v-.2l-.2-.4-.1-.3h-.1v.1h-.1l.1.1v.2l.1.1V47h-.1l.1.2v.5l.1.1v.4l.1.2V48.7h.1l.1-.2-.1-.3-.1-.8h.1zM23.2 47.7v-.1h-.1v.1H23v.1h-.1v.1h.1zM23.9 53.9V54.2h.1v-1.3h-.1v-.4h-.1v.6l.1.1v.6zM24.3 50.8v.1h.1v.1l.1.1V50.8l-.1-.1v-.1l-.1-.1v-.1h-.2l-.1-.1-.2-.1-.3.2v.1l.1.1V50.9l.1-.1h.1l-.1.6v.1l.1-.1v-.2l.1-.1v-.2h.1v-.1l.1.1.1-.1h.1zM22.8 50.1h-.1V50.7l-.1.1V51.5l-.1.1V52.7l-.1.1v1l-.1.1V56.5h.1l.2-1.1v-.1l-.1-.1.3-4.1V51l-.1-.1.1-.8zM21.9 50.3l-.1-.1V50l-.1-.1v-.1h-.1l-.1.1V50.2l.1.1.1.1.1.1.1-.1zM24.3 51.3l-.1-.1v-.1l-.1-.1v.1l-.1.1.1.1v.1l.1.1.1-.1zM22 49.5v.1l.1.1v.1l.1.1v-.5l-.1-.1v-.2L22 49h-.1l-.1-.1v-.1h-.2l-.1-.2h-.3l-.4.2v-.1h-.1v-.1l-.1-.1v-.1l-.1-.1v-.1l-.1-.1V48h-.1v.1l.1.1.1.1v.1l.1.1v.1l.1.1v.1h-.1v.2h.1l.1.1v.4h.2v.1-.2h.1v.1l-.1.9v.1l.1-.1.1-.2V50l.1-.1v-.1l.1-.1v-.2h.1v.1h.1l.1-.1v-.1h.2zM23.9 42.8v.2l.2.3V43.6h.1v.7l.1-.1v-.5h-.1V43.4l-.1-.3-.1-.2v-.1zM24.8 43.5h.1l.1-.3h-.1l-.1.3zM24 42.4v.1h.1v.1-.1l.1-.1v-.2l-.1-.1v-.2l-.1-.1v.5zM24.8 42.9h.1v-.1h-.1v.1zM24.2 52.6V51.7h-.1V52.6l.1.1zM24.9 49.5V49l-.1-.1-.1-.3v-.2h-.1V49.3h.1v.6l.1.1V50.3h.1V50l-.1-.5h.1zM25.1 42.6l.3-.3v-.2H25.1v.1H25v.1l.1.3zM24.8 44.2h-.1v.1l-.1.1V44.7h-.1v.5l.1-.1V45l.1-.1v-.2l.1-.1v-.1l.1-.1v-.1l.1-.1V44h.1v-.1l.1-.1.1-.1.1-.1.1-.1v-.1l.1-.1h-.1v.1h-.1l-.1.1-.1.1v.1l-.1.1-.1.1-.1.1-.1.1zM8.2 57.4l.1.1h.2v-.1l-.1-.1h-.6L8 57h-.5.1l-.1-.1v-.1l-.1-.1v-.1h.7v.1h.1l-.2.1v-.1l-.1-.1v-.2H7.6v-.1h-.8.1H5.9l-.1.1h-.2l.2.6h1.3H7h.6v.2h.1v.2h.1v-.1l-.1-.1V56.9h.2l.3.5zm-1.7-.6H6.2l.1-.1h.1l.1.1v-.1.1zm.4-.1h-.1v-.1l-.1-.1h.2v.2h.2-.2zm.3-.2h.1-.1zm.1.4zM17 46.8v.2l.1.2v.1-.4l-.1-.1v-.1l-.1-.1v-.2l-.1-.1v-.1l-.1-.1V46l-.1-.1-.1-.2v-.1l-.1-.1v-.1l-.1-.1-.1.1.1.1.1.1.1.2v.1l.1.1.1.1v.1l.1.1v.1l.1.2v.1zM18.5 43.6l-.1-.1h-.1l-.1.1h-.1v.1l.1.4.3-.4zM17 44.3v.2l.1.3.1.1v.2l.1.1v.5l.1-.1V45.3h-.1v-.4l-.1-.4-.1-.2H17zM18 44.9l.1-.2H18l-.1.2v.1zM16.8 48.9l-.1.1h.1v-.1h.1v-.1.1h-.1zM17.2 46.6v.4h.1v.1-.2l.2-.7-.1-.1V46h-.1v-.1h-.1v.7zM16.6 44.8v-.1h-.1v.1l.1.1v.1h.1v-.2zM16.9 44.8h-.1V45.1l-.1.1v.1-.1h-.1l.2.7h.1v.5h.1v-.5l-.1-1.1zM16.4 44.2V44h-.1v.1l-.1-.2-.1.1.1.1v.1h.1v.1l-.2.1.1.1v-.1l.1-.1h.2l.1-.1h-.1zM18.7 45.3l-.1.1v.1h-.1v.1h-.1v.1l-.1.1v.1h-.1v.1l-.1.1v.1l-.1.1v.2l-.1.1v.1l.1-.1.1-.1v-.1l.1-.1v-.1h.1v-.1l.1-.1.1-.1v-.1l.1-.1h.1l.6-.7.1-.1v-.1h-.1l-.1.1-.1.1H19l-.1.1-.1.1zM19.1 44.3l-.2.1v.1l-.1.1v.1l.1.1.3-.2-.1-.1v-.1zM15.2 47.9v.1-.4l-.1-.1v-.2l-.1-.1v-.1l-.1-.1-.1-.2v-.1l-.1-.1v-.1l-.1-.2v-.1l-.1-.1h-.2l.1.1v.1l.1.1.1.1.1.1v.1l.1.1v.1l.1.1.1.2v.2l.1.1v.1l.1.2zM19.3 48.1v-.6h-.2v.1V47.3h.1v-.2l.1-.1v-.1l-.1-.5v-.1h-.1v.1l-.2 1.5.1.1v-.1h.1l-.1-.1h.1v-.1.1l.1.1v.2l.1.1zM17.9 46.6v-.1h-.1l-.1.1-.1.1v.1zM18.6 46.2v.1h-.1l-.2.2v.2l.4-.4-.1-.1zM18.5 44.8l-.1.1v.1h-.1l-.1.1v.1l-.1.1-.1.1-.1.1-.1.1v.1l-.1.1v.2l-.1.1v.5h-.1.1l.1-.1v-.2h.1v-.1l.1-.1v-.2l.1-.1v-.1l.1-.1v-.1l.1-.1v-.1h.1v-.1h.1v-.1l.1-.1.1-.1v-.1h.1-.1zM17.6 50.5l-.1-.5-.1-.1v.1h-.1l.1-.1v-.2l.1-.1v-.2l-.1-.5h-.1l-.1 1.5h.1V50.1l.1.1v.2l.1.1v.1zM17.3 43.4h-.1v-.1l-.1-.1H17v.2l.1.1v.5h.1V43.7l.2.2-.1.4.1.2.1-.5.4.4.2.1V44.2l-.1-.1V44h-.1v-.1l-.1-.1v-.2l-.1-.1-.1-.1v-.1l-.1-.1v-.1h-.1V43l-.1-.1h-.2v.1l.1.1.1.1v.2zM18.5 47.9v.1l-.2.4v.5l.1-.1V48.5l.1-.1v-.2l.1-.2-.1-.1zM20.6 42.9v.1l.2.1h.1V43l-.1-.1zM19.4 45.3v-.1.1zM19.4 49.2v-.5l-.1-.1-.1.1v.7h.1l.1-.1zM21.2 44.2v-.1l-.1.1h-.2v.2l.2-.1v-.1zM19.6 44.3h.1v.1l.2-.1v-.1zM20.1 44.5l-.1.1h-.1l-.1.1-.1.1v.1l.1-.1v.2l.4-.4H20.5l.1-.1h.1v-.1H20.4l-.1.1h-.2zM20.4 43.4l-.2.2-.1.1v.1h.1l.4-.4v-.1h-.1zM16.8 50.4l-.2.4v.4h.1V50.9l.1-.1v-.2l.1-.2-.1-.1zM15.6 43.7v.2h.1v-.2zM16.1 51.5v-.1h.1v-.2h.1V51l.1-.1v-.1h.1v-.1l.1-.1v-.2h.1v-.1l.1-.1v-.1h.1v-.3h.1v-.2h-.2l-.1.1v.1h-.1v.2l-.1.1-.1.1v.2l-.1.1v.2l-.1.1v.1l-.1.1v.5zM15.8 44.3v.2l.2.2v-.1l-.2-.3zM17.6 51.5V51h-.1v.4h-.1v.1l.1.1v.1l.1-.1zM17.6 48v-.1.1zM16.5 43.4l-.1-.1v-.1l-.1-.1V43l-.1-.1-.5-.4v.2l.4.4v.1l.1.1.1.1h.1v.1l.1.1v.1l.1-.2h-.1zM18.1 48.5v-.1l.1-.1v-.1l.1-.1V48l.1-.1.1-.1v-.1h.1l.1-.3V47.1h-.2l-.1.1v.1h-.1v.1l-.1.1v.1l-.1.1v.1l-.1.1v.2l-.1.1v.1l-.1.1v.2l-.1.1v.6-.1h.1V48.9h.1v-.2h.1v-.1zM14.4 42.5h-.1l-.4.2-.1.1.1.2h.1v-.1H14.3l.1-.1h.1v-.2zM5.6 55.5h.1v-.1zM5.8 56.2l.3-.3h-.2l-.1.2-.1.1h.1zM5.5 56.1l.1-.1.1-.1v-.1l.1-.1.1-.1.1-.1v-.1h.1l.5-.6.1-.1-.1-.1-.1.1-.1.1-.1.1h-.1v.1l-.1.1H6v.1l-.1.1-.1.1v.1h-.1v.2h-.1v.1l-.1.1v.2l-.1.1h.1zM6.4 54.2l-.1.1-.1.1v.2l.1.1.2-.2v-.2zM6.5 55.9h-.1v.1h-.1l-.1.1h.1v.1l.5-.2H7l.1.1h.1l.1.1H7.6l.2.1h.1v-.1l-.1-.1h-.1l-.1-.1.6-.1h.5l-.3-.2h-.1l-.1-.1-.1-.1h-.4l-.1-.1h-.5l-.1.1.1.1.1.1h.4v.1h.2-.1l-.1.1h-.2v.1l-.1-.1h-.2v-.1H6.8v-.1h-.2v.1h-.1l.1.1zM9.7 55.7v.1h.1v-.1l-.1-.1v-.1l-.1-.1-.1-.1h-.1v-.1h-.2l-.1-.1h-.2l-.1-.1h-.7l.1-.1v-.1l-.4-.1h-.2l-.1.1h-.4l-.1.1.1-.1.1-.1h.1l.1-.1h.1l.1-.1h.2l.1-.1h.2v-.1h.2l.1-.1h-.1l-.1-.1h-.1l-.1.1h-.4v.1h-.2v.1h-.1l-.1.1H7v.1l-.1.1h-.1v.1h-.1l-.1.1v.1h-.1l-.1.1v.1h.4l.1-.1-.3.3v-.1h-.1v-.1l-.4.2v.2h.1v-.1H6.5l.1-.1-.2.1-.1.1v.1l.2-.1.6-.5h.1l.1-.1h.5v-.1l.1.1h.2l-.2.1H8v.1h.1l.1.1h.5l.1.1H9.1v.1h.2l.1.1h.1v.1h.1zM9 56.5h.5v-.1h.1-.1v-.1H9.2v-.1H8.2v.1H8v.1h.2l.8.1zM6.9 54.2v.1H7l.1-.1v-.1l-.2.1zM7 53.5h.1l.1-.1.8-.6v-.1l-.8.6zM5.4 54.8l.1-.1v-.2zM5.5 53.5h-.1v-.1h-.2v.7h.1v.5h.1V54.3l.1-.1h-.1l.1-.6zM7.8 51.8l.2-.1v-.1l-.3.1.1.1zM5.2 56h.1v-.2l.1-.1v-.1l.1-.1v-.2h.1v-.1l.1-.1.1-.1v-.1h.1v-.1H6v-.1l.1-.1H6l-.1.1-.1.1-.1.1v.1l-.1.1h-.1l-.1.1v.1h-.1v.2l-.1.1V55.9h-.1V56.2h.1v-.1zM8.9 53.6h-.1l-.1.1h-.1l-.1.1h-.2v.1l-.1.1h.1l1-.2.2-.2v-.1H9l-.1.1zM6.8 52.8h-.1l-.1.1v.1l-.1.1-.1.1v.1h-.1v.2h-.1v.2h-.1v.1l-.2.4H6l.1-.1h.1l.2-.1-.1.1.1.1.2-.2.4-.1v.2l.6-.3-.3-.1v.1h-.1l-.1.1v-.1l-.2-.1-.1.1v-.1h-.2.1l-.1-.1-.3.2h-.1v.1l.1-.1v-.1l.1-.1.1-.1v-.1l.1-.1.1-.1.1-.1.6-.6.1-.2H7.2v.1l-.1.1H7v.1l-.1.1zM7.1 51.8H7v.1l-.1.1v.2l.1.1.2-.2V51.8zM12.6 42.2l-.1.1-.1.1h-.1v.1l.1.1.1-.1h.2l.1.1h.1v.4h-.1v.1l.1.1.3-.4.2-.2.2-.1.1-.1v-.1h-.1l-.1-.1v-.1h-.2l-.1-.1h-.1l-.2-.1h-.4l-.1.1v.1H12.7v.1zM13.3 42.8v.1-.2zM12.2 46v.1l-.2.5-.1.6h.1l.1-.1V46.8l.1-.1V46.4h.1V46zM11.2 47.6h.1v-.1h.1V47.2h.1V47l.1-.1.1-.1v-.1l.1-.1.1-.1v-.1l.1-.2v-.1l.1-.1v-.1h.1v-.1l.1-.1.1-.3v-.2h.1l-.1-.1V45h-.1l-.1.1-.1.1-.1.1-.1.1v.1l-.1.1v.2l-.1.1v.1l-.1.1v.1l-.1.1v.2l-.1.1v.2l-.1.1v.1l-.1.2v.4zM13.3 43.8H13.6l-.1-.1-.3-.3h-.1l-.1.1.1.1.1.1h-.1v.1l-.1.1v.1h.1zM5.1 57.3v.1h.1v-.1zM14.1 43.4l-.1.1.1-.1.1-.1h-.1zM15.1 46.2v-.1l-.1.1v.5l-.1.1v.1l.1.1v.1h.1V46.8l.1-.2V46.3zM14.9 44.4l.1-.1v-.2h.1l.1.1v-.1l-.1-.2-.1-.5h-.2l-.1.9h-.1l-.1-.1-.1-.1-.1-.1v.1l.1.1h.1l.1.1h.1v.1l-.1.9h.1v.1-.1h.1V45l.1.1v.2l.1.2v.1h.1v-.1l-.1-.7h-.1l-.1.1v-.2l.1-.1h.1v.2h.1v.1h.1v-.1l-.1-.1-.1-.1h-.1v-.1zM10.8 40.6h-.2v.2l1 1 .1.1.1-.1v-.2l-.1-.1-.1-.1-.1-.1v-.2l-.1-.1-.1-.1v-.1l-.1-.1v-.2h-.1v-.1l-.1-.1v-.1h-.1v-.1l-.2-.1h-.1v.1l.1.1v.1l.1.1v.2zM10.2 54.5h.4l.3-.1v-.1h-.2l-.1-.1h-.2l-.1-.1H9.5l-.1.1H9.1l-.1.1.1.1.2-.1.9.1zM8.6 54.4H8.3l-.1.1H8v.1l.4.1h.2l.1-.2v-.1zM11 45.5l.1-.1.1-.1.1-.1v-.1l.1-.1.1-.1.1-.1v-.1l.1-.1.1-.1.1-.1.1-.1h.1v-.1h.1l.1-.1V44h.1l.1-.1.1-.1h.1l.1-.1h.1l.1-.1h-.1v-.1h-.1l-.1-.1h-.1l-.2.1-.1.1h-.1v.1h-.1l-.1.1-.1.1-.2.1-.1.1-.1.2h-.1l-.1.1-.1.1v.2l-.1.1-.1.1v.1l-.1.1v.2l-.1.1v.1l-.1.1h.1v.1h.1v-.1zM10.9 37.9l-.1.2.4.3v-.1l-.3-.4zM9.1 51.9l.1-.1v-.2h-.1v.1H9v.1zM11.4 38.1h.1l.1-.3.1.2.1-.1v.1h.1V37.7h-.1l-.1-.1v-.2h-.1v.1l-.1-.1-.1-.1-.1-.1-.1-.1-.2-.1-.1-.1-.1-.1h-.1v.1l.1.1h.2l.1.1.1.1.2.1v.1l.1.1.1.1h-.1l-.1-.2h-.1v.1l.1.1v.1l.1.1-.2.3h.1zM11 43.7l-.1.1.1.1.3-.4.2-.2.3-.1V43h-.1l-.1-.1-.1-.1-.2-.1h-.1l-.1-.1h-.5l-.1.1v.1h.3v.1l-.1.1h-.1l-.1.1-.1.2h.1l.1-.1h.2l.1.1h.1l.1.1v.1z"/><g fill-rule="evenodd" clip-rule="evenodd"><path d="M19.7 6.1c-.1-.2-.1-.3-.2-.4h-.4l.4 1.4c.3-.1.4-.1.4-.2v-.4l-.2-.4zM23.1 3.4c-.1-.3-.1-.4-.1-.5 0-.1-.1-.1-.2-.1s-.1 0-.1.1v.5l.3 2.4c0 .3.1.5.1.5 0 .1.1.1.2.1s.1-.1.1-.1c0-.1 0-.3-.1-.6l-.2-2.3zM32.8 2.6c-.1 0-.1 0-.2.1 0 .1-.1.2-.1.5l-.3 2.6v.3c0 .1.1.1.1.1.1 0 .1 0 .2-.1 0-.1.1-.2.1-.4l.4-2.6v-.4c0-.1-.1-.1-.2-.1zM13.1 6.3c-.1-.2-.2-.3-.2-.3-.1 0-.2 0-.3.1l.5 1.2h.1c.1 0 .2-.1.2-.2s0-.2-.1-.4l-.2-.4zM19.3 4.8c0-.1 0-.3-.1-.5 0-.2-.1-.3-.1-.3 0-.1-.1-.1-.1-.1s-.1 0-.3.1l.3 1h.1c.1-.1.2-.1.2-.2zM28.6 0C21 0 13.6 2.1 6.9 6.3l2.7 7.5.2-.1C16 10 22.3 8.1 28.6 8c6.3.1 12.6 2 18.8 5.6l.2.1 2.7-7.5C43.6 2.1 36.1 0 28.6 0zM10.8 11.2l-1-1.4-.6-1.7.7-.3.6 1.6 1.1 1.5-.8.3zm1.1-.5l-1.1-1.5-.6-1.6.7-.3.6 1.6 1.1 1.5-.7.3zm2.4-3.2c-.1.1-.3.3-.6.4l-.3.1.8 1.9-1.2.5-2-4.6 1.2-.5c.3-.2.6-.3.8-.3h.5c.1.1.2.1.3.3.1.2.2.4.3.7l.2.4c.1.3.2.5.2.7 0 .1 0 .3-.2.4zM16 9.2l-1.7-4.8 2.1-.8.3 1-.8.3.3.9.8-.3.3.9-.8.3.4 1 .9-.3.3 1-2.1.8zm5-1.7c-.1.1-.5.2-1 .4l-1.5.4-1.4-4.9 1.3-.4c.4-.1.7-.2.9-.2.2 0 .4.1.6.2.2.2.3.4.5.9.1.3.1.5 0 .6 0 .3-.2.4-.4.5.3 0 .5 0 .7.2.1.1.3.3.3.7l.1.5c.1.3.1.6.1.8 0 .1 0 .2-.2.3zm3.6-1c-.1.2-.2.4-.4.5-.2.1-.4.2-.7.3h-.7l-.6-.3c-.2-.2-.3-.3-.3-.5-.1-.2-.1-.6-.2-1.1l-.1-.9c-.1-.5-.1-.9-.1-1.1 0-.2 0-.4.1-.6.1-.2.2-.4.4-.5.2-.1.4-.2.7-.3h.7l.6.3c.2.2.3.3.3.5.1.2.1.6.2 1.1l.1.9c.1.5.1.9.1 1.1.1.2 0 .4-.1.6zm2.7.2L27 2.6h-.4l.2 2.9c0 .4 0 .7-.1.8-.1.2-.2.3-.4.3-.2.1-.5.1-.9.1h-.2l-.1-.7c.2 0 .3 0 .3-.1.1 0 .1-.2.1-.4l-.3-3.7 3-.2.4 5.1h-1.3zm6.9-2.6l-.1.9c-.1.5-.1.9-.2 1.1-.1.2-.2.4-.3.5-.1.1-.3.2-.5.3h-.7c-.3 0-.5-.1-.7-.2-.2-.1-.3-.2-.5-.3-.1-.1-.2-.3-.2-.4v-.5c0-.2 0-.5.1-.8h-.4l-.2 2.1-1.3-.1.5-5.1H31l-.2 1.8h.4c0-.4.1-.8.2-.9.1-.2.2-.3.3-.5.1 0 .3-.1.5-.2h.7c.3 0 .5.1.7.2.2.1.4.2.5.4.1.2.2.3.2.6 0 .2-.1.5-.1 1.1zm3.2 4.6l-.9-.2.2-.8-2.3-.5 1.1-4.9 1.3.3-.9 4 .4.1.9-4 1.3.3-.9 4 .3.1-.5 1.6zm2.3-.2l.7-2.2-1.4 2-1.1-.4 1.6-4.8 1 .3-.7 2.2 1.4-1.9 1 .3-1.6 4.8-.9-.3zm3.2 1.3l.9-2.1-1.6 1.8-1.1-.5 2.1-4.6 1 .4-.8 2.2L45 5.2l1 .4-2.1 4.6-1-.4zm1.6.4l1.1-1.5.6-1.6.7.3-.6 1.6-1.1 1.5-.7-.3zm2.8-.6l-1.1 1.5-.7-.3 1.1-1.5.6-1.6.6.3-.5 1.6z"/></g></g></svg>