<svg xmlns="http://www.w3.org/2000/svg" viewBox="0 0 83 51.2" enable-background="new 0 0 83 51.2"><g opacity=".5" fill="#fff"><path d="M41.5 51.2C18 51.2 0 39.8 0 25.6 0 11.4 18 0 41.5 0S83 11.4 83 25.6c0 14.2-18 25.6-41.5 25.6zm0-1.5c23.4 0 40-11.3 40-24.1S64.9 1.5 41.5 1.5s-40 11.3-40 24.1 16.6 24.1 40 24.1zM50.5 5.6c-.3.3-.6.7-.9 1.8-.1.3-.1.9 0 1.4l-.3-.5-.3-.4c-1.2-1.4-2.3-2.1-3.5-2.4-1.3-.3-2.5.2-3.2.5-.1.4-.3.7-1.2 1.2l-.9.5c-2.1 1.2-6.6 3.8-8.4 4.1-1 .1-1.7 0-2-.1-.1 0-.9.3-1.1.3-.1.2-.8 1.3-.8 1.3l-.5.5h.1l.1.1v.2l.1.8.5 2.5c.2.7.7 1.5 1.6 2.4.6.6.7 1.2.9 2 .7-.6 1.2-1.2 1.3-1.6.3-.7.3-1.6.3-2v-.7l.4.5c.4.6 1 1 1.6 1.4 2.2 1.3 5 1.3 6 1.3.8 0 1.9-.2 3-.7l.2-.1.1.2c.2.5.6 1.5 1.1 2.1.5.7 1.7 2 2.4 2.5.4.3.8.5 1.3.7-.9-1.1-1.8-2.5-2.3-3.9-.2-.7-.3-1.4-.3-1.9 0-1 .2-1.8.3-2.2.2-.8.7-2.1 1-2.7l.2-.3 1 1.4.1.2c.7 1 .9 1.5.9 1.8v.1c-.1.2-.1.3-.3.3.2.1.4.1.8.1.9-.1 1.6-.5 1.8-1.1.1-.4-.2-.8-.3-1l-.1-.1c-.2-.3.1-.9.2-1.1.2-.4.6-1 .7-1.6l.2-1.9v-.7l.3.1c1.4.5 2.5.5 4 .2 1.1-.2 2-.7 2.9-1.2-1.3.3-2.6.5-3.9.5-1.5-.1-2.9-.9-3.9-1.6-1-.7-1.3-1.5-1.3-2.2v-.4c.1-.5.2-.8.5-1.2 0 .2-.2.4-.4.6zM57.3 5.9c2.4 1 4.4 2.2 5.9 3.6-1.3-1.3-3.1-2.4-5.1-3.3 5.6 2.4 9.2 6 9.2 9.9 0 7.2-11.6 13.7-25.8 13.7-14.3 0-25.8-6.6-25.8-13.7 0-4 3.6-7.6 9.2-9.9-3 1.4-5.3 3.1-6.6 5.1 1.6-2.2 4.3-4.1 7.8-5.5-14 3.6-22.3 12-22.3 19.9 0 10.5 14.4 21.7 37.6 21.7 23.3 0 37.7-11.3 37.7-21.7.1-7.8-8-16.1-21.8-19.8zM8.1 28.2h-1v1.7h-.6v-2.1H8v.4zm2.6 1h-.5v.7h-.5v-2.1h1.1c.5 0 .9.2.9.7-.1.7-.7.7-1 .7zm3.7.3c-.2.4-.4.5-.7.5h-.3v-.4h.2c.2 0 .3-.1.3-.2l-.9-1.6h.7l.5 1 .4-1h.6l-.8 1.7zm45.9-1.7c.7 0 1 .5 1 1.1 0 .6-.3 1.1-1 1.1-.8 0-1-.6-1-1.1 0-.5.2-1.1 1-1.1zm-3.2 0h.5v.9l.7-.9h.6l-.8 1 .9 1.1h-.6l-.7-1v1h-.5v-2.1zm-32.2 0h.6l.9 2.1h-.6l-.2-.4h-.8l-.1.4H24l.9-2.1zm-4.4 0h2v2.1H22v-1.7h-.9v1.7h-.5v-2.1zm-3.2.4v1.7h-.5v-2.1h2v2.1h-.5v-1.7h-1zm19.2 16.2l-.5-1.7c-.1-.2-.2-.4-.4-.5-.2-.1-.5-.1-.8-.1h-1.9c-.7 0-1.2.3-1.3.9l-.3 1.5h-1.8l2.3-9c-.1-.3-.2-.4-.4-.5-.2-.1-.5-.1-.9-.1v-1.3h7.1l3 10.8h-4.1zm15.6-3c0 .5-.1.9-.3 1.2-.2.4-.5.7-.9.9l-1.2.6c-.5.1-.9.2-1.4.2h-6.6v-8.9c-.1-.2-.2-.4-.4-.5-.2-.1-.4-.1-.7-.1v-1.3h6.7c.3 0 .7 0 1.1.1.4 0 .8.1 1.1.2.3.1.6.3.9.5.3.2.6.7.7 1 .2 1-.3 1.8-.8 2.2-.6.4-.7.7 0 1 .4.2 1.7 1 1.8 2.2v.7zm10.8-4.8c-.3.5-.7.9-1.2 1.2-.5.3-1.1.6-1.7.8-.6.2-1.3.4-1.9.6-.6.2-.8.5-.8.9v2.1h-3.7v-8.7c-.1-.2-.2-.4-.4-.5-.2-.1-.5-.2-.8-.2h-23c-.4 0-.7.1-.9.3-.2.2-.3.5-.3.8v8.5h-4.1V33.6c-.1-.2-.2-.4-.4-.6-.2-.1-.5-.2-.8-.2h-4.2v-1.3H59c.3 0 .7 0 1.1.1.4.1.9.2 1.3.4s.8.5 1.2.8c.4.3.6.8.7 1.3.1.2.1.4.1.6-.1.8-.2 1.4-.5 1.9zm1.4-6.7h-.5v-1.5l-.5 1.5H63l-.5-1.5v1.5H62v-2.1h.7l.5 1.4.5-1.4h.7v2.1zm2.5 0h-.5v-1.7h-.8v1.7H65v-2.1h1.7v2.1zm2 0l-.1-.4H68l-.1.4h-.5l.8-2.1h.5l.8 2.1h-.7zm2.7 0H71V29h-.7v.9h-.5v-2.1h.5v.8h.7v-.8h.5v2.1zm2.6 0h-.5v-1.4l-.8 1.4h-.5v-2.1h.5v1.4l.8-1.4h.5v2.1zm1.4-2.6c0 .1.1.2.3.2.2 0 .3-.1.3-.2h.3c0 .4-.5.4-.6.4-.2 0-.6 0-.6-.4h.3zm.6 2.6v-1.4l-.8 1.4h-.5v-2.1h.5v1.4l.8-1.4h.5v2.1h-.5zM41.6 28.8c13.8 0 25-5.8 25-12.9 0-2.3-1.2-4.5-3.2-6.3 1.8 1.7 2.9 3.7 2.9 5.8 0 6.8-11 12.4-24.6 12.4-13.6 0-24.6-5.6-24.6-12.4 0-1.4.5-2.8 1.4-4.1-1.1 1.4-1.7 3-1.7 4.6-.1 7.1 11 12.9 24.8 12.9zM46.4 37.8c.3 0 .5 0 .8-.1.3-.1.5-.2.7-.5.4-.7.2-1.2 0-1.7-.1-.3-.3-.5-.6-.7-.3-.2-.6-.3-.9-.3-.6 0-1 .3-1 .8v2c.2.4.5.5 1 .5zM34.9 38.1c-.1-.3-.2-.6-.2-.8-.1-.2-.1-.4-.2-.6-.1-.4-.2-.6-.4-.7-.1-.1-.3-.1-.5-.1-.1 0-.2 0-.3.1-.1.1-.1.2-.2.3-.1.1-.1.2-.1.3 0 .1-.1.2-.1.3-.2.7-.5 1.4-.6 2-.2.6-.2 1.1-.1 1.5.1.4.5.5 1.1.5h1.1c.7 0 1-.2 1-.6 0-.1 0-.3-.1-.7-.1-.4-.3-.9-.4-1.5zM48 40.2c-.1-.2-.3-.4-.4-.5-.2-.2-.3-.3-.5-.4-.2-.1-.4-.1-.6-.1-.6 0-.9.3-.9.8v2.7c.1.4.4.6 1 .6.3 0 .5-.1.7-.2.2-.1.4-.3.6-.5.2-.2.3-.4.4-.7.1-.2.1-.5.1-.7v-.4c-.2-.2-.3-.4-.4-.6zM10.6 28.2h-.4v.6h.4c.3 0 .4-.1.4-.3 0-.3-.2-.3-.4-.3zM25.2 28.4l-.3.8h.5zM60.3 29.6c.5 0 .5-.5.5-.7 0-.2 0-.7-.5-.7-.3 0-.5.2-.5.7 0 .5.2.7.5.7zM68.1 29.2h.5l-.3-.8zM59.7 33.5c-.1-.2-.2-.4-.4-.6-.1-.2-.3-.3-.5-.4-.2-.1-.4-.2-.7-.2-.3 0-.5.1-.7.1-.2.1-.3.3-.3.5l.1 3.3v.3c.1.4.4.5.9.5.2 0 .5-.1.7-.2l.6-.6c.2-.2.3-.5.4-.8.2-.1.2-.4.2-.6 0-.2 0-.4-.1-.6 0-.2-.1-.5-.2-.7z"/></g></svg>