<svg xmlns="http://www.w3.org/2000/svg" viewBox="0 0 69.7 69.7" enable-background="new 0 0 69.7 69.7"><g opacity=".5" fill="#fff"><path fill-rule="evenodd" clip-rule="evenodd" d="M0 34.8C0 54 15.6 69.7 34.8 69.7 54 69.7 69.7 54 69.7 34.8S54 0 34.8 0 0 15.6 0 34.8zm1 0C1 16.2 16.2 1 34.8 1c18.7 0 33.9 15.2 33.9 33.9S53.5 68.8 34.8 68.8C16.2 68.7 1 53.5 1 34.8zM42.5 62c.2-.1.2-.3.2-.4-.2-.8-.4-1.6-.7-2.3-.1-.4-.3-.5-.6-.4-.5.2-.4.6-.4 1 0 .6.2 1.6.1 2.2 0 .2-.1.4.2.3l1.2-.4zm2.6-.8h.5c.1.1.2.2.3.5.1.3.2.5.2.7.1.4 0 .7-.1.8h-.1c-.1 0-.3 0-.5-.1-.1-.1-.2-.1-.3-.2-.2-.1-.3-.2-.4-.3-.1-.1-.3-.1-.4-.1-.2 0-.3 0-.4.1-.1 0-.3.1-.4.1-.3.2-.5.3-.7.3-.2.1-.3.1-.5.2-.1 0-.5.2-1.1.4-.2.1-.4.2-.5.2-.2.1-.3.2-.5.3 0 0-.1.3-.4.7-.1.1-.1.2-.2.3-.1.1-.2.1-.2.1h-.2c-.1 0-.1-.1-.2-.1 0-.1-.1-.2-.2-.4-.1-.3-.1-.6-.2-.8v-.5c.2-.1.3-.2.5-.3.3-.1.5-.4.6-.6.1-.1.1-.3.1-.5 0-.6-.1-1.8-.3-2.5 0-.2 0-.4-.1-.5-.2-.1-.1 0-.3-.1-.3-.1-.3-.5 0-.6.9-.4 2.7-1 3.4-1.1.4-.1.7-.2 1-.2.5-.1.7 0 .7.3 0 .1 0 .3-.2.4.1.2 0 .3 0 .4-.1.7.6 2.2.8 2.9.1.2.1.3.3.2zM14.1 52.3c-.3.3-.6.5-.7.6-.1.2-.1.3-.1.4 0 .1.1.2.1.2 0 .1 0 .1-.1.2-.2.1-.4.2-.6.2-.3 0-.5-.1-.8-.2-.3-.1-.5-.3-.6-.5-.2-.2-.3-.4-.3-.6v-.8s-.1-.1-.3-.2l-.6-.3c-.2-.1-.3-.3-.5-.5-.2-.3-.3-.5-.4-.8-.1-.3-.1-.6 0-.9.1-.3.3-.5.6-.7.2-.2.5-.3.8-.3.3 0 .7.1 1.1.3.4.2.8.6 1.1 1.1.1.2.2.3.3.3.1 0 .2 0 .3-.1.6-.4.8-.8.6-1.1-.1-.1-.2-.2-.3-.2h-.6c-.3 0-.5 0-.7-.1-.2-.1-.3-.2-.5-.4-.1-.1-.1-.3-.1-.5s.1-.3.2-.4c.2-.2.5-.2.9-.1s.8.3 1.1.6c.4.3.7.6.9.9.2.2.3.5.5.9.1.3.2.7.1 1.1-.1.4-.3.7-.7 1l-.7.9zm-2.8-2.1l-.3.3c0 .1 0 .3.1.4.1.1.2.2.4.2.1 0 .3-.1.5-.3l.3-.3v-.3c-.1-.1-.3-.2-.4-.2-.2.1-.4.1-.6.2zM17.8 54.7s.2.1.4.1h.6c.2 0 .3-.1.4-.1v-.5c0-.1 0-.1.1-.2.2-.2.4-.2.7-.1.3.1.6.3.9.6.3.3.6.5.8.8.2.3.2.5 0 .8l-.2.2c-.1 0-.2-.1-.4-.1-.2-.1-.4-.1-.6-.2-.2 0-.3-.1-.5-.1h-.3s-.1.2-.1.4v2.2c0 .2 0 .5.1.7.1.3.1.4.2.5 0 .1 0 .2-.1.3-.3.3-.7.3-1.3-.2l-1.2-1c-.2-.1-.3-.3-.3-.3 0-.1-.1-.2 0-.4v-2.3c-.1 0-.2 0-.3.2-.2.2-.3.4-.3.5v.4c0 .1 0 .3-.1.4-.1.1-.2.2-.3.2-.1 0-.3 0-.6-.1s-.6-.3-1-.7l-.2-.2c-.3-.2-.5-.4-.6-.6-.2-.2-.3-.3-.3-.5-.1-.2 0-.3.1-.5.1-.1.1-.1.2-.1h.6c.1 0 .2-.1.4-.3.1-.1.3-.4.6-.7.3-.3.5-.7.8-1 .1-.2.2-.3.2-.4v-.6c0-.1 0-.1.1-.2.3-.3.8-.2 1.7.5l.3.2c.8.7 1.1 1.2.8 1.5-.1.1-.2.1-.3.2-.1 0-.2.1-.3.1-.1 0-.2.1-.3.3-.1.1-.1.2-.2.3-.2-.1-.2-.1-.2 0zM26.6 60.4l.4.4.3.6c.1.2 0 .4-.1.7-.1.3-.3.5-.5.7-.2.2-.6.3-1 .3s-.9-.1-1.4-.3c-.1-.1-.3-.1-.4-.2-.2-.1-.3-.1-.4-.2-.1-.1-.2-.1-.3-.1-.1 0-.2-.1-.4-.2s-.3-.1-.4-.2c-.1 0-.2-.1-.3-.1-.1 0-.3-.1-.4-.2-.2-.1-.3-.1-.5-.2-.5-.2-.7-.5-.5-.8l.3-.3c.2-.1.3-.1.3-.2.1-.1.2-.2.3-.5.2-.3.3-.7.4-1l.3-.9c.1-.2.1-.3.1-.4 0-.1 0-.2-.1-.3-.1-.1-.1-.2-.1-.3 0-.1 0-.2.1-.3.1-.2.2-.3.4-.3s.4 0 .6.1c.3.1.6.3.9.4.4.2.6.3.7.3.1 0 .2.1.5.2s.5.2.7.3c.7.3 1.2.6 1.4 1 .2.4.2.7.1 1.1-.1.2-.2.4-.4.5-.2.3-.4.4-.6.4zm-2.1-1c.1.1.3.1.5 0s.3-.2.3-.4c.1-.2.1-.3 0-.5 0-.2-.1-.3-.3-.4h-.2c-.1 0-.1.1-.1.1l-.3.8v.2c0 .1.1.2.1.2zm-.7 2.1c.2.1.3 0 .5 0 .2-.1.3-.2.4-.4.2-.4 0-.8-.4-.9-.2-.1-.3.1-.5.6-.1.2-.1.4-.1.5-.1.1 0 .2.1.2zM33.6 62.1c-.1.4-.1.7 0 .9 0 .2.1.3.2.3s.2.1.2.1c.1 0 .1.1.1.2 0 .2-.1.4-.3.6-.2.2-.4.3-.7.4-.3.1-.5.1-.8.1-.2 0-.4-.1-.5-.2l-.3-.3-.2-.2c-.1 0-.2 0-.4.1s-.4.2-.6.2c-.2.1-.4.1-.7 0-.3 0-.6-.1-.9-.3-.3-.2-.5-.4-.6-.6-.1-.3-.2-.6-.1-.9 0-.3.2-.5.4-.8.2-.2.5-.4 1-.5.4-.1.9-.1 1.5-.1h.4c.1 0 .1-.1.1-.3.1-.7 0-1.1-.4-1.2-.1 0-.3 0-.4.1l-.4.4c-.2.2-.4.3-.5.4-.2.1-.3.1-.6.1-.2 0-.3-.1-.4-.2-.1-.1-.1-.3-.1-.5 0-.3.2-.5.6-.7.4-.2.8-.3 1.2-.4.5-.1.9-.1 1.3 0 .3 0 .6.1.9.3.3.1.6.4.9.7.2.3.3.7.3 1.2l-.2 1.1zm-3.5.5c0 .2 0 .3.1.4.1.1.2.2.3.2.2 0 .3 0 .4-.2.1-.1.1-.3.2-.5v-.4c0-.1-.1-.1-.2-.2-.2 0-.3 0-.5.1-.1.3-.2.4-.3.6zM45.7 59.9c-.3-.6-.4-1.1-.3-1.7.1-.6.3-1.1.7-1.5.4-.5.9-.8 1.4-1.1.4-.2.9-.3 1.3-.3s.8 0 1.2.2c.4.1.7.3.9.6.3.2.5.5.6.8.2.4.3.8.2 1.2 0 .4-.2.8-.4 1.2-.2.4-.5.7-.8 1-.3.3-.7.5-1 .7-.5.2-1 .4-1.5.4s-1-.1-1.4-.4c-.4-.2-.7-.6-.9-1.1zm2-2.9c-.2.1-.2.2-.3.4 0 .2 0 .3.1.5.3.5.6.9.9 1.3.4.4.7.5 1 .4.3-.1.4-.4.2-.8-.1-.2-.3-.5-.5-.8-.2-.3-.5-.6-.7-.8-.3-.3-.5-.3-.7-.2zM51.5 55.1c-.1-.1-.3-.2-.4-.3-.1 0-.2-.1-.3-.1h-.3s-.1-.1-.2-.1c-.2-.2-.2-.4 0-.7.2-.3.4-.6.7-.8.3-.3.7-.6 1.1-.8.4-.2.6-.2.8 0 .1.1.1.1.1.2v.5c0 .1.1.2.2.3.2.2.3.3.4.3.1 0 .2-.1.5-.3l.4-.4c0-.1-.1-.2-.3-.5-.1-.1-.2-.2-.3-.2-.1 0-.2-.1-.2-.1h-.2c-.1 0-.1-.1-.2-.1-.2-.2-.2-.4 0-.7.2-.2.4-.5.7-.7.4-.4.8-.7 1.1-.8.3-.1.5-.2.6-.2.1 0 .2.1.3.2.1.1.1.2.1.4v.4c0 .1.1.2.3.4l1.4 1.5c.2.2.3.3.4.3h.4c.2 0 .3.1.4.2.1.1.1.3 0 .6s-.5.7-1.1 1.3c-.2.2-.3.3-.5.4-.2.1-.3.2-.5.2s-.3 0-.5-.1c-.1-.1-.1-.1-.1-.2v-.5c0-.1-.1-.2-.1-.3l-.2-.3c-.2-.2-.3-.3-.4-.3-.1 0-.2.1-.5.3l-.4.4c0 .1.1.2.3.4-.1.1 0 .1 0 .2.1.1.2.1.2.2h.4c.1 0 .1.1.2.1.2.2.2.5-.1.8-.2.3-.5.7-.9 1-.2.2-.4.3-.5.4l-.6.3c-.2.1-.4 0-.5-.1-.1-.1-.1-.2-.1-.4V57c0-.1-.1-.3-.3-.5-.2-.2-.4-.5-.8-.9-.1-.2-.4-.4-.5-.5z"/><circle fill-rule="evenodd" clip-rule="evenodd" cx="36.7" cy="61.9" r="1.1"/><path d="M27.1 49c-.5-.5-1.1-.8-1.8-.8s-1.3.3-1.8.8c-1 1-1 2.6 0 3.6.5.5 1.1.8 1.8.8s1.3-.3 1.8-.8c.9-1 .9-2.6 0-3.6zm-1.8 3.7c-1.1 0-1.9-.9-1.9-1.9 0-1.1.9-1.9 1.9-1.9 1.1 0 1.9.9 1.9 1.9 0 1-.8 1.9-1.9 1.9zM25.3 51.7c-.5 0-.9-.4-.9-.9s.4-.9.9-.9.9.4.9.9-.4.9-.9.9zM37.4 10.9c-2.2 0-4.2.9-5.8 2.5-1.5 1.6-2.4 3.8-2.4 6.1s.9 4.5 2.4 6.1c1 1 2.2 1.8 3.5 2.2-.7-1.3-1-2.8-1-4.3 0-2.5.9-4.8 2.6-6.6 1.7-1.8 3.9-2.7 6.3-2.7h.9c-.2-.3-.5-.6-.7-.9-1.6-1.5-3.6-2.4-5.8-2.4zM30.8 30.9c1.5 0 3-.4 4.3-1.1-1.8-.4-3.5-1.4-4.8-2.8-3.9-4.1-3.9-10.7 0-14.8l.4-.4c-2.4 0-4.6 1-6.2 2.8-1.7 1.8-2.7 4.2-2.7 6.8s.9 5 2.7 6.8c1.6 1.7 3.9 2.7 6.3 2.7zM32.9 52.5c-.7.8-2 .8-2.7 0-.4-.4-.6-.9-.6-1.5s.2-1.1.6-1.5c.4-.4.8-.6 1.3-.6s1 .2 1.3.6c.9.9.9 2.2.1 3zM38.1 18.2c-2.8 3-2.8 7.6 0 10.5.2-1.8 1-3.5 2.2-4.7 1.5-1.6 3.5-2.5 5.7-2.5 1.4 0 2.8.4 4.1 1.2-.2-1.7-.9-3.2-2-4.5-1.3-1.4-3.1-2.2-4.9-2.2-2 .1-3.8.8-5.1 2.2zM27 37.4c2.7 0 5.2-1.1 7.1-3.1.8-.8 1.5-1.8 1.9-2.9-1.6.9-3.4 1.4-5.3 1.4-3 0-5.8-1.2-7.9-3.4-2.6-2.7-3.7-6.5-3-10.3l-.1.1c-1.9 2-3 4.7-3 7.5 0 2.9 1.1 5.5 3 7.5 2.1 2.1 4.7 3.2 7.3 3.2zM52.5 24.2c.3-2.9-.7-5.7-2.7-7.8-.9-.9-1.9-1.7-3.1-2.2-.5-1-1.1-1.9-1.9-2.7-2-2-4.6-3.2-7.3-3.2-1.5 0-3 .3-4.3 1-.8-.2-1.6-.3-2.4-.3-3.1 0-5.9 1.2-8.1 3.5-.8.8-1.4 1.7-1.9 2.7-1 .6-1.9 1.3-2.7 2.2-3.3 3.4-4.4 8.4-3 13.1-.8 4.8.7 9.7 3.9 13.1 2.6 2.8 6.1 4.3 9.8 4.4v.1c-1.6 1.6-1.6 4.3 0 5.9.8.8 1.8 1.2 2.9 1.2 1.1 0 2.1-.4 2.9-1.2.3-.3.6-.7.8-1.1.1.1.1.2.2.2 1 1 2.2 1.6 3.6 1.6s2.6-.6 3.6-1.6c.8-.8 1.2-1.8 1.4-2.9 1.6 0 3.1-.7 4.2-1.9 1.2-1.2 1.8-3 1.8-4.7.6-.3 1.1-.8 1.6-1.2 2-2.1 2.6-5.1 1.7-7.9 1.7-3.2 1.4-7.4-1-10.3zm-1.6 17.5c-.5.5-1 .9-1.6 1.2l-.2.4v.1c.1 1.6-.5 3.1-1.5 4.2-1 1-2.3 1.6-3.7 1.6h-.6v.4c-.1 1-.5 2-1.2 2.8-.8.8-1.8 1.3-3 1.3-1.1 0-2.2-.5-3-1.3-.2-.2-.4-.5-.6-.8l-.6-1-.3 1.1c-.1.6-.4 1.1-.8 1.6-.6.6-1.4 1-2.2 1-.8 0-1.6-.3-2.2-1-1.2-1.3-1.2-3.4 0-4.6.3-.3.7-.6 1.1-.8l1.3-.2c.8.1 1.5.4 2 1l.3.3.7.9.1-1.1c.1-1 .5-1.8 1.2-2.5.1-.1.3-.3.5-.4l-.5-.7c-1.3.8-2.8 1.4-4.3 1.8H31l-.8.1c-.4 0-.8.1-1.2.1-3.6 0-6.9-1.5-9.5-4.1-3.1-3.2-4.5-7.9-3.7-12.4v-.2c-1.3-4.4-.3-9.1 2.8-12.3.8-.8 1.7-1.5 2.6-2.1l.1-.1.1-.1c.5-1 1.1-1.8 1.8-2.6 2-2.1 4.6-3.2 7.4-3.2.8 0 1.6.1 2.4.3h.2l.1-.1c1.3-.7 2.7-1 4.1-1 2.5 0 4.9 1 6.7 2.9.6.6 1 1.2 1.4 2 0 0 0 .1 0 0v.1l.3.6.1.2.2.1c1.1.4 2.1 1.1 3 2 1.8 1.9 2.7 4.6 2.4 7.3v.2l.1.1c2.3 2.7 2.6 6.6.6 9.5l-.1.2.1.2c1.1 2.3.5 5.1-1.3 7zm-17.5 5.6c.4-.1.7-.3 1.1-.4-.1.3-.3.6-.4.9-.2-.2-.5-.4-.7-.5zM46.1 31.6c-1.3 0-2.6.5-3.5 1.5-1.1 1.1-1.6 2.7-1.4 4.2v.4c.7-.3 1.6-.5 2.4-.5 1.6 0 3.1.7 4.2 1.8.6.6 1 1.3 1.3 2 .2-.1.4-.3.5-.5 2-2.1 2-5.4 0-7.5-.9-.8-2.2-1.4-3.5-1.4zM50.2 25.4c-1.1-1.2-2.6-1.8-4.2-1.8s-3.1.7-4.2 1.8c-1.1 1.2-1.8 2.8-1.8 4.5 0 .9.2 1.8.6 2.7.2-.3.4-.6.7-.8 1.3-1.4 3.1-2.1 4.9-2.1 1.9 0 3.6.8 4.9 2.1.2.2.3.3.4.5.9-2.4.4-5.1-1.3-6.9zM37.7 41.6l.2-.3c.3-.8.8-1.6 1.4-2.2 0 0 .1 0 .1-.1-.2-.7-.3-1.4-.3-2.1 0-.7.1-1.4.3-2.2-.6-.9-1.1-1.9-1.3-3-.6 1.5-1.5 2.8-2.6 4-2.3 2.4-5.3 3.7-8.6 3.7-3.2 0-6.3-1.3-8.6-3.7-.4-.4-.8-.9-1.1-1.4.3 2.9 1.5 5.5 3.4 7.6 2.2 2.3 5.2 3.6 8.4 3.6s6.1-1.3 8.4-3.6c.2-.1.3-.2.3-.3zM43.6 39.2c-1 0-2 .4-2.8 1.2-.8.9-1.3 2.6-1.2 3.8 1 .2 1.8.4 2.6 1.1.6.7 1.2 1.3 1.4 2.2 1 0 2-.4 2.7-1.2 1.6-1.6 1.6-4.3 0-6-.7-.6-1.7-1.1-2.7-1.1zM41.1 51.4c-.6.6-1.3.9-2.1.9s-1.5-.3-2.1-.9c-.6-.6-.9-1.4-.9-2.2 0-.8.3-1.6.9-2.2.6-.6 1.3-.9 2.1-.9s1.5.3 2.1.9c1.2 1.2 1.2 3.2 0 4.4zM35.8 45.1s.9-.6 1.4-1.1l1.3-1.3s-.2.4-.2 1v1.1s-.7.2-1.2.5c-.4.2-1.1.8-1.1.8l-.2-1z"/></g></svg>