<svg xmlns="http://www.w3.org/2000/svg" viewBox="0 0 81.3 55.1" enable-background="new 0 0 81.3 55.1"><g opacity=".5"><path fill="#fff" d="M81.3 41.4h-16L42.6 15l8.9-10.4 29.8 36.8zm-15.7-.6H80L51.4 5.5 43.3 15l22.3 25.8z"/><path fill-rule="evenodd" clip-rule="evenodd" fill="#fff" d="M72.3 41.3L57.1 23l-3.3 4.5L30.3 0 .7 41.3h18.9l13.2-18.1 15 18.1H55l4.8-6.6 5.5 6.6h.4zM9 48.8v6.4H6.7v-4.6l-1.5 4.6H3.5l-1.6-4.6v4.6H0v-6.4h3.3l1.2 3.4 1.2-3.4H9zm4.8 5.7v.7h-2.5v-6.4h2.5v2.6c0 .3 0 .7-.1 1.2.3-.5.6-1 .9-1.4l1.3-1.7v-.7h2.5v6.4h-2.5v-2.5c0-.4 0-.8.1-1.2-.2.4-.5.9-.9 1.4l-1.3 1.6zm7.9.6h-2l2.6-6.4H25l2.6 6.4h-2.5l-1.7-4.5-1.7 4.5zm8.2 0h-2l2.6-6.4h2.7l2.6 6.4h-2.5l-1.7-4.5-1.7 4.5zm13.5-1.5v1.5h-6.2v-6.4h6.2v1.5h-3.7v.9h3v1.4h-3v1h3.7zm8.9-4.8v6.4h-2.5v-2.5h-1.9v2.5h-2.5v-6.4h2.5v2.3h1.9v-2.3h2.5zm4.7 5.7v.7h-2.5v-6.4H57v2.6c0 .3 0 .7-.1 1.2.3-.5.6-1 .9-1.4l1.3-1.7v-.7h2.5v6.4h-2.5v-2.5c0-.4 0-.8.1-1.2-.2.4-.5.9-.9 1.4L57 54.5zm9-1.3l-3.2-4.4h2.8l1.5 2.5 1.2-2.5h2.2l-2.4 4.7c-.2.4-.5.8-.8 1-.3.3-.6.4-.9.6-.3.1-.8.2-1.3.2h-1.3v-1.4h.9c.7-.2 1.2-.4 1.3-.7zm14.8-4.4v6.4h-2.4v-4.6l-1.5 4.6h-1.6l-1.6-4.6v4.6h-1.9v-6.4h3.3l1.2 3.4 1.2-3.4h3.3zM0 46.8v-3.4h3.1v.7H1.4v2.7H0zm4.3 1.1v-4.6h1.3v.5c.2-.4.6-.6 1.2-.6.5 0 .9.2 1.2.5.3.3.5.7.5 1.3 0 .6-.2 1.1-.5 1.4-.3.3-.7.5-1.3.5-.5 0-.9-.2-1.1-.5v1.5H4.3zm1.3-2.6c0 .2 0 .4.1.5 0 .1.1.2.3.2.1.1.3.1.4.1.2 0 .4-.1.5-.2.1-.1.2-.4.2-.9 0-.7-.2-1-.7-1-.2 0-.4 0-.5.1-.2.1-.2.3-.2.6v.6zm7.9-2L12 46.6l-.4.8c-.1.2-.3.3-.5.4-.1.1-.4.2-.8.2h-.7v-.8h.7c.3 0 .5 0 .5-.1.1-.1.2-.2.2-.3l-1.7-3.4h1.4l.9 2 .9-2h1zm1.3 3.5v-3.4h4v3.4h-1.4V44h-1.2v2.7h-1.4zm5.7 0v-3.4h4v3.4h-1.4V44h-1.2v2.7h-1.4zm9.8 0H29c0-.1-.1-.3-.1-.5-.2.2-.5.4-.7.5-.2.1-.5.1-.8.1-.4 0-.8-.1-1.1-.3-.3-.2-.4-.4-.4-.7 0-.2.1-.4.2-.6.2-.2.4-.3.8-.4.3-.1 1-.2 1.9-.2v-.2c0-.3-.2-.5-.7-.5-.5 0-.7.2-.8.5l-1.3-.1c.1-.4.3-.7.7-.8.4-.2.9-.2 1.4-.2.3 0 .6 0 .9.1.3.1.5.1.7.2.2.1.3.2.3.3.1.1.1.3.1.6v1.6c.1.2.2.4.2.6zm-1.4-1.7c-1 .1-1.4.3-1.4.6 0 .1 0 .2.1.3.1.1.2.1.4.1s.4-.1.6-.2c.2-.1.2-.3.2-.6v-.2zm8.4-.6l1.6 2.3h-1.4l-1.1-1.5-.7.5v1h-1.4v-3.4h1.4v1.5l.4-.4 1.4-1.1h1.3l-1.5 1.1zm4.6-1.2c.7 0 1.3.2 1.7.5.4.3.6.8.6 1.3s-.2.9-.6 1.3c-.4.3-1 .5-1.6.5-.7 0-1.2-.2-1.6-.5-.4-.3-.6-.8-.6-1.3 0-.4.1-.7.3-.9.2-.3.4-.5.7-.6.2-.3.6-.3 1.1-.3zm0 .6c-.3 0-.5.1-.6.2-.1.1-.2.4-.2.9 0 .4.1.7.2.9.1.2.3.3.6.3.2 0 .4-.1.6-.2.1-.1.2-.4.2-.9 0-.4-.1-.8-.2-.9-.2-.2-.3-.3-.6-.3zm3.7 2.9v-3.4h2l1 2.7 1-2.7h1.9v3.4h-1.2V44h-.1l-1.1 2.7h-1.4l-1-2.7h-.1v2.7h-1zm7.7 0v-3.4h4v3.4h-1.4V44h-1.2v2.7h-1.4zm9.8 0h-1.3c0-.1-.1-.3-.1-.5-.2.2-.5.4-.7.5-.2.1-.5.1-.8.1-.4 0-.8-.1-1.1-.3-.3-.2-.4-.4-.4-.7 0-.2.1-.4.2-.6.2-.2.4-.3.8-.4.3-.1 1-.2 1.9-.2v-.2c0-.3-.2-.5-.7-.5-.5 0-.7.2-.8.5l-1.3-.1c.1-.4.3-.7.7-.8.4-.2.9-.2 1.4-.2.3 0 .6 0 .9.1.3.1.5.1.6.2.2.1.3.2.3.3.3 0 .3.3.3.6v1.6c0 .2 0 .4.1.6zm-1.5-1.7c-1 .1-1.4.3-1.4.6 0 .1.1.2.2.3.1.1.2.1.4.1s.4-.1.6-.2c.2-.1.2-.3.2-.6v-.2zm3.2 1.7v-3.4h1.4v1.2h1.4v-1.2H69v3.4h-1.4v-1.5h-1.4v1.5h-1.4zm7.3-.4v.4h-1.4v-3.4h1.4v2.1c.2-.3.4-.5.6-.7l.9-.9v-.4H75v3.4h-1.4v-2.1c-.2.3-.4.5-.6.8l-.9.8zm5.9 0v.4h-1.4v-3.4H78v2.1c.2-.3.4-.5.6-.7l.9-.9v-.4h1.4v3.4h-1.4v-2.1c-.2.3-.4.5-.6.8l-.9.8zm-.7-4.6h.7c.1.3.3.4.7.4.5 0 .7-.1.7-.4h.7c-.1.3-.2.5-.5.7-.3.2-.6.3-1 .3s-.7-.1-1-.2c-.1-.2-.2-.5-.3-.8z"/></g></svg>