<svg xmlns="http://www.w3.org/2000/svg" viewBox="0 0 79.3 44.8" enable-background="new 0 0 79.3 44.8"><g fill-rule="evenodd" clip-rule="evenodd" fill="#fff" opacity=".5"><path d="M7.6 26.6v4.5c0 .5 0 .9-.1 1.3 0 .4-.2.8-.3 1.1-.2.3-.4.5-.7.7-.3.2-.7.3-1.2.3.5 0 .8.1 1.1.3.4.2.6.4.8.7.2.3.3.7.3 1.1.1.4.1.8.1 1.3v6.8H5.4v-6.8c0-.6-.1-1.2-.3-1.6-.2-.4-.5-.6-.8-.6H3.1v9H.9V26.6h2.3v6.8h1.1c.3 0 .5-.2.8-.7.2-.4.4-1 .4-1.6v-4.5h2.1zm1.8 3.2c0-.5.1-.9.3-1.3.2-.4.4-.8.7-1.1.3-.3.7-.5 1.1-.7.4-.2.8-.3 1.3-.3s.9.1 1.3.3c.4.2.8.4 1.1.7.3.3.5.7.7 1.1.2.4.3.9.3 1.3v14.9h-2.3v-4.9h-2.2v4.9H9.4V29.8zm2.3 7.7h2.2v-8.7h-2.2v8.7zm6.2-7.7c0-.5.1-.9.3-1.3.2-.4.4-.8.7-1.1.3-.3.7-.5 1.1-.7.4-.2.9-.3 1.3-.3.5 0 .9.1 1.3.3.4.2.8.4 1.1.7.3.3.6.7.7 1.1.2.4.3.9.3 1.3v1.5c0 .5-.1.9-.3 1.3-.2.4-.4.8-.7 1.1-.3.3-.7.5-1.1.7-.4.2-.8.2-1.3.2.5 0 .9.1 1.3.3.4.2.8.4 1.1.7.3.3.6.7.7 1.1.2.4.3.8.3 1.3v3.4c0 .5-.1.9-.3 1.3-.2.4-.4.8-.7 1.1-.3.3-.7.5-1.1.7-.4.2-.9.3-1.3.3-.5 0-.9-.1-1.3-.3-.4-.2-.8-.4-1.1-.7-.3-.3-.6-.7-.7-1.1-.2-.4-.3-.8-.3-1.3v-3.9h2.3v4.9h2.3v-4.3c0-.6-.1-1.2-.3-1.6-.2-.4-.5-.7-.8-.7H19v-2.3h2.3c.3 0 .6-.2.8-.7.2-.4.3-1 .3-1.6v-2.4h-2.3v2.3h-2.3v-1.3zm8.6 0c0-.5.1-.9.3-1.3.2-.4.4-.8.7-1.1.3-.3.7-.5 1.1-.7.4-.2.9-.3 1.3-.3.5 0 .9.1 1.3.3.4.2.8.4 1.1.7.3.3.5.7.7 1.1.2.4.3.9.3 1.3v14.9H31v-4.9h-2.2v4.9h-2.3V29.8zm2.2 7.7H31v-8.7h-2.2v8.7zm10.8 4.9v-2.2h-1.1c-.5 0-.9-.1-1.3-.3-.4-.2-.8-.4-1.1-.7-.3-.3-.6-.6-.7-1.1-.2-.4-.3-.8-.3-1.3V26.6h2.3v11.3h2.3V26.6h2.3v18.1h-2.3v-2.3zm10.7-15.8v4.5c0 .5 0 .9-.1 1.3s-.2.8-.3 1.1c-.2.3-.4.5-.7.7-.3.2-.7.3-1.2.3.5 0 .8.1 1.1.3.3.2.5.4.7.7.2.3.3.7.3 1.1.1.4.1.8.1 1.3v6.8h-2.2v-6.8c0-.6-.1-1.2-.3-1.6-.2-.4-.5-.6-.8-.6h-1.1v9h-2.3V26.6h2.3v6.8h1.1c.3 0 .5-.2.8-.7.2-.4.4-1 .4-1.6v-4.5h2.2zm1.8 3.2c0-.5.1-.9.3-1.3.2-.4.4-.8.7-1.1.3-.3.7-.5 1.1-.7.4-.2.9-.3 1.3-.3.5 0 .9.1 1.3.3.4.2.8.4 1.1.7.3.3.6.7.7 1.1.2.4.3.9.3 1.3v14.9h-2.3v-4.9h-2.2v4.9H52V29.8zm2.2 7.7h2.2v-8.7h-2.2v8.7zM70.7 22.4c5.1 5 8.4 11.5 8 18.9-3.3-6.1-9.6-11-17.3-13.9 1-1.5 1.9-3 2.5-4.5C60 15 50.5 8.2 38.5 5.8c-10.2-2.1-20.1-.6-26.8 3.5.8.6 1.6 1.3 2.4 2.1 4.5 4.7 6.2 10.8 4.1 13.9.9-3.3-.9-8.4-4.8-12.4-1-1.1-2.1-2-3.1-2.7-3.8 2.7-6.4 6.2-7.3 10.4-.1.5-.2.9-.2 1.4-.4-2.1-.5-4.2 0-6.2.6-2.8 1.9-5.3 3.9-7.4-2.7-.9-5-.6-6.4 1-.1.1-.2.3-.3.4.2-.7.5-1.3 1-1.9C2.4 6.2 5 6 7.8 7.1 14.3 1.1 26-1.5 38.2 1c11.2 2.3 20.3 8.4 24.5 15.6 7.4-3 13.5-7.7 16.6-13.6.4 7.6-3.2 14.3-8.6 19.4z"/></g></svg>