<svg xmlns="http://www.w3.org/2000/svg" viewBox="0 0 88 52" enable-background="new 0 0 88 52"><g opacity=".5" fill-rule="evenodd" clip-rule="evenodd" fill="#fff"><path d="M32.6 34.7h9.2c-1.2 0-2.6-.7-3.5-2.5l-1.2-2.5c-.8-1.8-2.3-2.5-3.4-2.5h-1.2c-1.2 0-2.3 0-2.7-2.1L28 9.9v19c0 5.8 3.9 5.8 4.6 5.8zm0-34.7c1.1 0 2.7.8 3.5 2.5L50.7 34c-1.1 0-2.3 0-3.1-1.8L33.7 2.5C32.9.7 31.4 0 30.3 0h-6.9c1.2 0 2.7.8 3.5 2.5l13.8 29.7c.8 1.8 2.3 2.5 3.5 2.5H58L43.4 3.4c-.9-2 .7-3.4 2.3 0l14.5 31.2h6.9L51 0H32.6zM62.6 1.5c1.3 0 2.4 1.1 2.4 2.4 0 1.3-1.1 2.4-2.4 2.4-1.3 0-2.4-1.1-2.4-2.4 0-1.3 1.1-2.4 2.4-2.4zm0 .3c1.1 0 2.1.9 2.1 2.1 0 1.1-.9 2-2.1 2-1.1 0-2-.9-2-2-.1-1.2.9-2.1 2-2.1zM61.4 5.3V2.4h1.3c.3 0 .5 0 .6.1.1.1.2.1.3.3.1.1.1.3.1.4 0 .2-.1.4-.2.5-.1.2-.3.3-.6.3.1 0 .2.1.2.1.1.1.2.2.3.4l.5.8h-.5l-.4-.6c-.1-.2-.2-.3-.3-.4-.1-.1-.1-.2-.2-.2s-.1-.1-.2-.1H61.7v1.3h-.3zm.4-1.6h.8c.2 0 .3 0 .4-.1.1 0 .2-.1.2-.2.1-.1.1-.2.1-.3 0-.1 0-.2-.1-.3-.1-.1-.3-.1-.5-.1h-.9v1zM4.5 49H2.1l-.1.3c-.3.9-.5 1.5-.5 1.8 0 .1 0 .2.1.3 0 .1.1.1.2.1h.5v.5H0v-.5h.3c.1 0 .3-.2.5-.5s.5-1 .9-2l2.1-5.3h.5l2.2 7c.1.2.2.4.2.5.1.1.2.2.3.2h.4v.6h-3v-.5h.4c.2 0 .3-.1.3-.2s0-.1-.1-.2L4.5 49zm-2.2-.5h2l-.9-2.8-1.1 2.8zm5.4-4.6h6.4v2h-.5v-.2c0-.2-.1-.5-.3-.7-.2-.2-.5-.4-.7-.5-.3-.1-.5-.2-.6-.2-.1 0-.1 0-.2.1 0 0-.1.1-.1.2V51c0 .2 0 .3.1.4.1 0 .2.1.3.1h.5v.5H9.2v-.5h.5c.1 0 .2 0 .3-.1.1 0 .1-.2.1-.4v-6.4c0-.1 0-.1-.1-.2 0-.1-.1-.1-.2-.1-.2 0-.4.1-.6.2-.3.1-.5.3-.7.5-.2.2-.3.4-.3.7v.3h-.5v-2.1zm8.2 0h5.8v.5h-.5c-.1 0-.2 0-.3.1-.1 0-.1.2-.1.4V51c0 .2 0 .3.1.4.1 0 .2.1.3.1h.5v.5h-3.3v-.5h.5c.1 0 .2 0 .3-.1.1 0 .1-.2.1-.4v-6.2c0-.3-.1-.4-.3-.4h-.5c-.1 0-.3 0-.4.1-.1 0-.2.2-.2.4-.1.2-.1.5-.1.9-.1 1.7-.3 3-.5 3.9-.2.9-.4 1.6-.7 1.9-.3.4-.7.5-1.1.5-.3 0-.6-.1-.8-.3-.2-.2-.3-.5-.3-.8 0-.3.1-.6.2-.7.2-.2.4-.3.6-.3.2 0 .4.1.5.2.1.1.2.3.2.5v.3c0 .1.1.1.1.1.1 0 .3-.2.4-.5.2-.3.3-.8.4-1.4.1-.6.2-1.2.3-1.9.1-.7.1-1.4.1-2 0-.3 0-.5-.1-.7-.1-.2-.3-.3-.7-.3h-.6v-.4zM26.5 49h-2.4l-.1.3c-.3.9-.5 1.5-.5 1.8 0 .1 0 .2.1.3 0 .1.1.1.2.1h.5v.5H22v-.5h.3c.1 0 .3-.2.5-.5s.5-1 .9-2l2.1-5.3h.5l2.2 7c.1.2.2.4.2.5.1.1.2.2.3.2h.4v.6h-3v-.5h.4c.2 0 .3-.1.3-.2s0-.1-.1-.2l-.5-2.1zm-2.1-.5h2l-.9-2.8-1.1 2.8zm8-1h2.9v-2.6c0-.2 0-.3-.1-.4-.1 0-.2-.1-.3-.1h-.5v-.5h3.3v.5h-.5c-.1 0-.2 0-.3.1-.1 0-.1.2-.1.4V51c0 .2 0 .3.1.4.1 0 .2.1.3.1h.5v.5h-3.3v-.5h.5c.1 0 .2 0 .3-.1.1 0 .1-.2.1-.4v-3h-2.9v3c0 .2 0 .3.1.4.1 0 .2.1.3.1h.5v.5H30v-.5h.5c.1 0 .2 0 .3-.1.1 0 .1-.2.1-.4v-6.2c0-.2 0-.3-.1-.4-.1 0-.2-.1-.3-.1H30v-.5h3.3v.5h-.5c-.1 0-.2 0-.3.1-.1 0-.1.2-.1.4v2.7zm5.9-3.6h6.4v2h-.5v-.2c0-.2-.1-.5-.3-.7-.2-.2-.5-.4-.7-.5-.3-.1-.5-.2-.6-.2-.1 0-.1 0-.2.1 0 0-.1.1-.1.2V51c0 .2 0 .3.1.4.1 0 .2.1.3.1h.5v.5h-3.3v-.5h.5c.1 0 .2 0 .3-.1.1 0 .1-.2.1-.4v-6.4c0-.1 0-.1-.1-.2 0-.1-.1-.1-.2-.1-.2 0-.4.1-.6.2-.3.1-.5.3-.7.5-.2.2-.3.4-.3.7v.3h-.5v-2.1zm6.8 0h3.3v.5h-.5c-.1 0-.2 0-.3.1-.1 0-.1.2-.1.4V50l3-4.6v-.5c0-.2 0-.3-.1-.4-.1-.1-.2-.1-.3-.1h-.5v-.5H53v.5h-.5c-.1 0-.2 0-.3.1-.1 0-.1.2-.1.4V51c0 .2 0 .3.1.4.1 0 .2.1.3.1h.5v.5h-3.3v-.5h.5c.1 0 .2 0 .3-.1.1 0 .1-.2.1-.4v-4.9l-3 4.6v.3c0 .2 0 .3.1.4.1 0 .2.1.3.1h.5v.5h-3.3v-.5h.5c.1 0 .2 0 .3-.1.1 0 .1-.2.1-.4v-6.2c0-.2 0-.3-.1-.4-.1 0-.2-.1-.3-.1h-.5v-.4zm14.3 0h.5l.1 2.4h-.5V46c0-.3-.1-.6-.2-.9-.2-.3-.4-.5-.6-.7-.3-.2-.6-.3-.9-.3-.3 0-.6.1-.8.2-.3.1-.5.4-.7.7-.2.3-.4.7-.5 1.2-.1.5-.2 1-.2 1.7s.1 1.3.3 1.8c.2.5.5.9.8 1.1.3.3.7.4 1.1.4.4 0 .7-.1 1-.3.3-.2.5-.5.7-.8.2-.3.3-.6.4-1l.5.2c-.2.6-.4 1.1-.6 1.5-.3.4-.5.7-.8.8-.3.2-.6.3-.8.3-.2.1-.5.1-.7.1-.7 0-1.4-.2-2-.5-.6-.4-1-.8-1.3-1.5-.3-.6-.4-1.3-.4-2.1 0-.6.1-1.1.2-1.6.2-.5.4-1 .7-1.4.3-.4.7-.7 1.2-.9.5-.2 1-.3 1.6-.3.7 0 1.3.2 1.9.5v-.3zm1.8 4.4h2.9v1.2h-2.9v-1.2zm3.8-4.4h7.5v.5H72c-.1 0-.2 0-.3.1-.1 0-.1.2-.1.4V51c0 .2 0 .3.1.4.1 0 .2.1.3.1h.5v.5h-3.3v-.5h.5c.1 0 .2 0 .3-.1.1 0 .1-.2.1-.4v-6.2c0-.2 0-.3-.1-.4-.1 0-.2-.1-.3-.1h-1.8c-.1 0-.2 0-.3.1-.1 0-.1.2-.1.4V51c0 .2 0 .3.1.4.1 0 .2.1.3.1h.5v.5H65v-.5h.5c.1 0 .2 0 .3-.1.1 0 .1-.2.1-.4v-6.2c0-.2 0-.3-.1-.4-.1 0-.2-.1-.3-.1H65v-.4zM77.3 49H75l-.1.3c-.3.9-.5 1.5-.5 1.8 0 .1 0 .2.1.3 0 .1.1.1.2.1h.5v.5h-2.3v-.5h.3c.1 0 .3-.2.5-.5s.5-1 .9-2l2.1-5.3h.5l2.2 7c.1.2.2.4.2.5.1.1.2.2.3.2h.4v.6h-3v-.5h.4c.2 0 .3-.1.3-.2s0-.1-.1-.2l-.6-2.1zm-2.1-.5h2l-.9-2.8-1.1 2.8zm8-1.1h.8c.2 0 .3 0 .4-.1.1-.1.2-.2.3-.4.1-.2.2-.5.3-.8.2-.6.4-1.1.6-1.5.2-.3.4-.6.6-.7.2-.1.4-.2.7-.2.2 0 .4.1.7.2.2.1.3.4.3.8 0 .3-.1.5-.2.6-.1.2-.3.2-.5.2-.1 0-.3 0-.5-.2-.2-.1-.2-.3-.3-.6 0-.2 0-.3-.1-.3s-.2.1-.2.2-.1.3-.2.7c-.1.4-.2.7-.3 1.1-.1.3-.3.6-.5.9-.2.3-.5.4-.8.5v.1c.6 0 1.1.2 1.4.5.4.3.6.7.8 1 .2.4.3.8.4 1.2.1.2.1.4.2.6.1.1.1.2.3.2.1 0 .2-.2.3-.5l.4.1c-.2.8-.6 1.2-1.2 1.2-.4 0-.7-.1-.9-.4-.3-.2-.5-.6-.6-.9-.2-.4-.3-.8-.4-1.3-.1-.5-.2-.8-.3-1-.1-.2-.2-.4-.3-.5-.1-.1-.3-.2-.4-.2h-.7V51c0 .2 0 .3.1.4.1 0 .2.1.3.1h.3v.5h-3.3v-.5h.5c.1 0 .2 0 .3-.1.1 0 .1-.2.1-.4v-6.2c0-.2 0-.3-.1-.4-.1 0-.2-.1-.3-.1h-.5v-.5H84v.5h-.5c-.1 0-.2 0-.3.1-.1 0-.1.2-.1.4v2.6z"/></g></svg>