<svg xmlns="http://www.w3.org/2000/svg" viewBox="0 0 80.1 75.9" enable-background="new 0 0 80.1 75.9"><g opacity=".5" fill-rule="evenodd" clip-rule="evenodd" fill="#fff"><path d="M29.3 75.6c-.1 0-.2-.1-.2-.2v-1.1c0-.1.1-.2.2-.2l1.4-.4v-9.6h-2.2l-.3 1.2c0 .1-.1.2-.2.2h-1.1c-.1 0-.2-.1-.2-.2v-3.1c0-.1.1-.2.2-.2h10.2c.1 0 .2.1.2.2v3.1c0 .1-.1.2-.2.2H36c-.1 0-.2-.1-.2-.2l-.3-1.2h-2.2v9.6l1.4.4c.1 0 .2.1.2.2v1.1c0 .1-.1.2-.2.2h-5.4zm43.6-6.2h.6s.4 0 .8-.8c.5-.8 1.1-2.1 1.8-2.7.8-.5 1.6-.5 1.9-.5h.8c.1 0 .2.1.2.2v1.7c0 .1-.1.2-.2.2H78c-.7 0-1.3 1.2-1.5 1.5-.2.3-1.1 1.2-1.1 1.2v.1s.9.5 1.3 1.3.8 1.5 1.2 1.9c.2.2.4.2.6.3h.3c.1 0 .2.1.2.2v1.7c0 .1-.1.2-.2.2H78s-1.3 0-2.1-.9-1.2-2.6-1.9-3.1c-.4-.3-.9-.3-1.3-.4v3.9c0 .2-.1.3-.3.3h-1.9c-.2 0-.3-.1-.3-.3v-8.2l-1-.2c-.2 0-.3-.1-.3-.3v-.9c0-.2.1-.3.3-.3l3.2-.2c.2 0 .3.1.3.3v3.8zm-29.6 2c-1.1-.1-3.3-.1-3.3 1.4 0 1.6 2.5 1.6 3.3.2v-1.6zm-5-5c0-.2 0-.3.2-.4 3-1.3 7.2-1.3 7.2 3v5.2c.3.1.6.1.9.2.2 0 .3.1.3.3v.6c0 .2-.2.3-.4.3-.8 0-1.6.1-2.4.1-.4 0-.5-.5-.5-1.4-.8 1-1.8 1.6-3.1 1.5-2-.1-2.7-1.3-2.8-2.9-.1-2.5 1.8-3.6 5.6-3.3 0-3-1.7-2.8-3.9-2.2-.3.1-.7.3-.8 0-.1-.2-.2-.6-.3-1zm26.3 5c-1.1-.1-3.3-.1-3.3 1.4 0 1.6 2.5 1.6 3.3.2v-1.6zm-4.9-5c0-.2 0-.3.2-.4 3-1.3 7.2-1.3 7.2 3v5.2c.3.1.6.1.9.2.2 0 .3.1.3.3v.6c0 .2-.2.3-.4.3-.8 0-1.6.1-2.4.1-.4 0-.5-.5-.5-1.4-.8 1-1.8 1.6-3.1 1.5-2-.1-2.7-1.3-2.8-2.9-.1-2.5 1.8-3.6 5.7-3.3 0-3-1.7-2.8-3.9-2.2-.3.1-.7.3-.8 0-.3-.2-.4-.6-.4-1zm-6.8 1.1c1.7 0 2.3 1.4 2.3 3.2 0 1.8-.6 3.2-2.3 3.2-1.7 0-2.3-1.4-2.3-3.2 0-1.7.6-3.2 2.3-3.2zm-2.9-.3s1.3-1.7 3.4-1.7c2.1 0 4.3 1.6 4.3 5.3 0 3.7-2.4 5.1-4.9 5.1-2.6 0-4.7-1.8-4.7-5.9 0-4.1 1.3-6.1 2.5-7.1 1.3-.9 2.9-1.3 3.6-1.7.8-.4.9-.9 1-1.1 0-.1.2-.3.4-.2.3.1 1.6.6 1.7.6 0 0 .3.1.1.5-.2.4-.8 1.7-2 2.2-1.3.6-2.7.5-3.8 1.4-1 .9-1.6 2.6-1.6 2.6zM49.8 49.8h.6s.4 0 .8-.8c.5-.8 1.1-2.1 1.8-2.7.8-.5 1.6-.5 1.9-.5h.8c.1 0 .2.1.2.2v1.7c0 .1-.1.2-.2.2h-.8c-.7 0-1.3 1.2-1.5 1.5-.2.3-1.1 1.2-1.1 1.2v.1s.9.5 1.3 1.3.8 1.5 1.2 1.9c.2.2.4.2.6.3h.3c.1 0 .2.1.2.2V56c0 .1-.1.2-.2.2h-.8s-1.3 0-2.1-.9-1.2-2.6-1.9-3.1c-.4-.3-.9-.3-1.3-.4v3.9c0 .2-.1.3-.3.3h-1.9c-.2 0-.3-.1-.3-.3v-8.2l-1-.2c-.2 0-.3-.1-.3-.3v-.9c0-.2.1-.3.3-.3l3.2-.2c.2 0 .3.1.3.3V49.8zM71.3 56c.2 0 1.2.1 2.3-1.8 1.1-1.9 2.9-5.4 2.9-5.4h.1c-.1.5-.2.9-.2 1.3v5.8c0 .2.1.3.3.3l3.1-.1c.2 0 .3-.1.3-.3v-.6c0-.2-.1-.2-.3-.3l-.8-.3v-8.4c0-.2-.1-.3-.3-.3h-2.3c-.1 0-.5.1-.7.5-.2.4-3.3 6.5-3.3 6.5h-.1c.1-.6.2-1.3.2-1.8V46c0-.2-.1-.3-.3-.3l-3.4.3c-.2 0-.3.1-.3.3v.9c0 .2.1.3.3.3l1.2.1v8.1c0 .2.1.3.3.3h1zm.3-13.7c-.1-.2.1-.3.2-.4l1.1-.3c.1 0 .3-.1.3.1.4 1.3 2.2 1.3 2.6 0 .1-.2.2-.2.3-.1l1.1.3c.1 0 .3.1.2.4-.9 2.9-5 2.9-5.8 0zm-29 5.3c.3 0 .5.1.5.3l.2.9c0 .1.1.2.2.2h.8c.1 0 .2-.2.2-.4l.1-2.1c0-.2-.1-.4-.3-.5-4.1-1.2-7.7.2-7.7 5 0 2.9 1.6 5.2 5 5.2.9 0 2-.2 3-.5.2-.1.3-.2.2-.5l-.2-1.1c-.1-.3-.3-.3-.6-.2-2.8 1.1-5 .1-4.9-3.3.2-2.1 1.4-3.4 3.5-3zM8.9 44.7c0-.2-.2-.4-.3-.4H6.7c-.8 0-1.3.5-1.5 1.5-.3 2.4.1 6-1.5 8.2h5.1v-9.3zM.2 54.5c2.9-2 2.4-5.7 2.8-8.9.3-2.3 1.4-3.3 3.6-3.3h4.5c.2 0 .3.1.3.3V54h1c.1 0 .3.1.3.3v4.5c0 .1-.1.3-.3.3h-1.7c-.2 0-.3-.1-.3-.3V56H2.3v2.8c0 .1-.1.3-.3.3H.3c-.1 0-.3-.1-.3-.3v-4.1c0-.1.1-.2.2-.2zm62.2-.1c-1.9 0-2.3-1.4-2.3-3.4s.5-3.4 2.3-3.4c1.9 0 2.3 1.4 2.3 3.4s-.5 3.4-2.3 3.4zm4.8-3.5c0-3.4-1.4-5.3-4.8-5.3s-4.8 1.9-4.8 5.3 1.4 5.3 4.8 5.3c3.4.1 4.8-1.8 4.8-5.3zm-48.6 3.5c-1.9 0-2.3-1.4-2.3-3.4s.5-3.4 2.3-3.4c1.9 0 2.3 1.4 2.3 3.4s-.4 3.4-2.3 3.4zm4.8-3.5c0-3.4-1.4-5.3-4.8-5.3s-4.8 1.9-4.8 5.3 1.4 5.3 4.8 5.3c3.4.1 4.8-1.8 4.8-5.3zm9-5h1.9c.2 0 .3.1.3.3v9.5c0 .2-.1.3-.3.3h-1.9c-.2 0-.3-.1-.3-.3V52h-3.6v3.8c0 .2-.1.3-.3.3h-1.9c-.2 0-.3-.1-.3-.3v-8.2l-1-.2c-.2 0-.3-.1-.3-.3v-.9c0-.2.1-.3.3-.3l3.2-.2c.2 0 .3.1.3.3v4h3.6v-3.8c0-.2.1-.3.3-.3zM36.6 21l.4-1.3h-1l-.6 2 1.2-.7zM37.3 19.8l-.3 1 1.5-.9c-.4 0-.8-.1-1.2-.1zM32.7 20.6c.2.7.4 1.3.7 2l.7-2.4c-.5 0-1 .2-1.4.4zM35.6 19.8c-.4 0-.8.1-1.1.2l-.8 2.8L35 22l.6-2.2zM51.4 29.5c-.9.9-2.3 1.7-3.5 2.2-1.5.6-.3.6.5.5 1.7-.2 2.7-.9 3.3-2.3.3-.5.2-.9-.3-.4zM42.1 17.4l5.2-9h-.9l-5.2 9zM43.7 7.1C43.3 7 43 7 42.6 7c-5.9 0-10.7 4.6-11 10.4.4 0 .8.1 1.2.1 5.8 0 10.6-4.6 10.9-10.4zm-1.1.4h.6c-.6 5.3-5.1 9.4-10.5 9.4h-.6c.6-5.3 5.1-9.4 10.5-9.4zM36 21.8l1.9.2c.1-.3.3-.5.4-.8l-1.1-.1-1.2.7zM37.7 20.8l.8.1c.1-.2.2-.5.2-.7l-1 .6zM34.4 22.8l2.9.3c.2-.3.4-.5.5-.8l-2.2-.3-1.2.8zM33.4 13.5c-.4.9-.8 1.9-.9 2.9l.9-.7v-2.2zM35.3 25.2c.3-.2.6-.5.8-.7l-1.6-.2c.2.3.5.6.8.9zM33.7 23.1c.2.3.3.5.5.8l2.1.3c.2-.2.5-.5.7-.8l-3.1-.4-.2.1zM39 8.5c-.4.1-.7.3-1 .5l-.1 2.9L39 11V8.5zM40.2 10.3l1.9.1.3-.9-1.3-.1-.9.9zM42.5 9.2c.1-.4.2-.7.3-1.1l-1.3 1.1h1zM32.7 16.6c.8 0 1.6-.1 2.3-.3l-1.9-.1-.4.4zM42.6 7.8c-.6 0-1.3.1-1.9.2v1.5l1.9-1.7zM36.2 13.7l3.4.2c.3-.3.6-.5.8-.8l-3.3-.2-.9.8zM37.5 12.5l3.2.2.6-.9-2.8-.2-1 .9zM40.3 8.1c-.4.1-.7.2-1 .3l-.1 2.3 1.1-.9V8.1zM37.7 15.3l-3.2-.2-1 .8 2.4.2c.7-.2 1.2-.5 1.8-.8zM34.8 11.4c-.4.5-.8 1-1.1 1.5l-.1 2.5 1.1-.9.1-3.1zM36.2 10c-.4.3-.7.6-1.1 1l-.1 3.2 1.1-.9.1-3.3zM39.3 14.2l-3.5-.2-1 .8 3.3.2c.5-.2.8-.5 1.2-.8zM37.6 9.1c-.4.2-.7.4-1.1.7V13l1.1-.9v-3zM36.7 18.9c-1.8 0-3.5.4-4.9 1.2.5 2.4 1.7 4.6 3.5 6.2 2.3-1.6 4-4 4.6-6.9-1.1-.3-2.2-.5-3.2-.5zm-1.5 6.7c-1.5-1.4-2.5-3.2-2.9-5.2 1.4-.6 2.8-.9 4.4-.9.8 0 1.7.1 2.5.3-.6 2.3-2 4.4-4 5.8zM38.8 11.4l2.6.2c.2-.3.3-.6.5-.9l-2.1-.1-1 .8zM46.9 15c-.1.3-.2.5-.2.8l1.3-.7-1.1-.1zM50.3 16.4c.3 0 .6-.1.9-.1l.7-2.2c-.1-.2-.1-.3-.2-.5l-.6.3-.8 2.5zM49.6 14.6l-.5 1.8h.9l.7-2.3-1.1.5zM43 19.3l-5 8.8c.2.1.5.2.8.3l5.2-9.1h-1zM48.1 12.7l3.5.4c-.1-.3-.3-.5-.5-.8l-2.6-.3c-.1.2-.3.5-.4.7zM47.6 16.2l.2-.6-.9.5c.2 0 .5.1.7.1zM52.6 16c-.1-.5-.2-1-.4-1.5l-.5 1.7c.2-.1.6-.1.9-.2zM41.2 3.2c.5-.1 3.6-.9 5.9 0 1.8.7 1.5.4.7-.2-1.9-1.3-4.5-1.5-6.5-1.2-1.9.4-1.5 1.7-.1 1.4zM42.6 5.1c-7.1 0-12.9 5.8-12.9 12.9 0 7.1 5.8 12.9 12.9 12.9 7.1 0 12.9-5.8 12.9-12.9 0-7.1-5.8-12.9-12.9-12.9zm0 25.3c-6.8 0-12.4-5.5-12.4-12.4 0-6.8 5.5-12.4 12.4-12.4C49.4 5.6 55 11.1 55 18c-.1 6.9-5.6 12.4-12.4 12.4zM59.7 13.8c-.7-2.8-3.2-5.2-5-7.2-2.1-2.3-3.8-4.4-6.5-5.6-4.1-1.9-9.3-.8-12.4 1-3.8 2.2-4 3.8-7 6-4.6 3.6-1.6 8.5-3.2 15.2-1.4 5.7 4.6 6.2 4.4 10.9-.2 4.9 4 7.1 7.7 4 1.2-1.1 1.7-.8 4.7-.8 1.7-.1 2.2-1.1 3.7-1.3 1.3-.2 2.8.1 4.5-.4 3.4-.9 4.7-5.8 5.7-7.4 3.7-6 4.6-9.8 3.4-14.4zm-4.1 13.6c-.9 1.6-2.2 6.1-5.4 7-1.7.5-3 .1-4.3.4-1.4.2-1.9 1.2-3.5 1.3-3.2.2-2.3-1.6-5.2.8-3.5 2.9-6.7.8-6.6-3.8.1-4.4-5.5-4.9-4.2-10.3 1.5-6.3-1.3-11 3-14.4 2.8-2.2 3-3.6 6.6-5.7 2.9-1.7 7.8-2.7 11.7-1 2.6 1.1 4.2 3.1 6.1 5.3 1.7 1.9 4.1 4.2 4.8 6.8 1.3 4.2.4 7.8-3 13.6zM28.2 22.8c-.6 0-.6 1-.6 1.4.2 4.2 4.7 2 4.8 8.4 0 2.3.6 3 1 3 .5 0 1-.9 1-1.9-.1-4.1-4.5-6-5.4-8.6-.3-.6-.1-2.2-.8-2.3zM48.8 11.7l2 .3c-.3-.4-.7-.8-1.1-1.2l-.9.9zM49.7 9.6c-2.1 1.7-3.6 4.2-4 7 1.2.4 2.5.7 3.8.7 1.4 0 2.8-.3 4-.7-.4-2.8-1.8-5.3-3.8-7zm-.2 7.1c-1.1 0-2.2-.2-3.2-.5.5-2.3 1.7-4.4 3.4-5.9 1.7 1.6 2.8 3.6 3.2 5.9-1.1.4-2.2.5-3.4.5zM48.2 15.4l-.3.9c.3 0 .6.1.9.1l.5-1.6-1.1.6zM50.1 24.9l-1-2.4-.5.8.9 2.2.6-.6zM50.9 24l-1.1-2.6-.5.8 1 2.5c.2-.3.4-.5.6-.7zM52.2 21.5l-.5-1.3h-.8l.9 2.3c.1-.4.3-.7.4-1zM51.6 22.8l-1.1-2.7-.5.9 1.1 2.7c.2-.3.3-.6.5-.9zM49.6 14.3l-2.3-.3c-.1.2-.2.5-.3.7l1.4.2 1.2-.6zM52.6 20.1H52l.3.9.3-.9zM46.5 19.3L40.9 29h1l5.5-9.7zM44.5 28.9c4.8-.8 8.5-4.8 9.1-9.6H50l-5.5 9.6zm8.4-9.1c-.7 4-3.6 7.2-7.4 8.3l4.8-8.3h2.6zM49.3 25.8l-.8-2-.5.8.7 1.7c.1-.2.4-.4.6-.5zM42.8 32.8c-.6-.1-1.1 0-1.9 0-2.1.1.7 1.2 2.2.7 1.5-.5.8-.6-.3-.7zM51.2 13.4l-3.3-.4c-.1.2-.3.5-.4.7l2.6.3 1.1-.6zM48.4 26.4l-.6-1.5-.5.8.4 1.1c.2-.1.5-.2.7-.4zM47.4 27l-.4-.9-.8 1.5 1.2-.6z"/></g></svg>