<?xml version="1.0" encoding="utf-8"?>
<!-- Generator: Adobe Illustrator 18.1.0, SVG Export Plug-In . SVG Version: 6.00 Build 0)  -->
<!DOCTYPE svg PUBLIC "-//W3C//DTD SVG 1.1//EN" "http://www.w3.org/Graphics/SVG/1.1/DTD/svg11.dtd">
<svg version="1.1" id="Слой_1" xmlns="http://www.w3.org/2000/svg" xmlns:xlink="http://www.w3.org/1999/xlink" x="0px" y="0px"
	 viewBox="0 0 115.8 46.4" enable-background="new 0 0 115.8 46.4" xml:space="preserve">
<g>
	<g>
		<path fill="#1EB3C2" d="M31.2,36.1v10.2h-1.3V34.8h5.1v1.3H31.2z"/>
		<path fill="#1EB3C2" d="M41.8,34.8c0.6,0,1.1,0.2,1.5,0.6c0.4,0.4,0.6,0.8,0.6,1.4v2.5c0,0.6-0.2,1.1-0.6,1.5
			c-0.4,0.4-0.9,0.6-1.5,0.6h-2.6v4.9h-1.3V34.8H41.8z M41.8,40.1c0.5,0,0.8-0.3,0.8-0.8v-2.5c0-0.4-0.3-0.7-0.8-0.7h-2.6v4H41.8z"
			/>
		<path fill="#1EB3C2" d="M50.6,46.4h-1.3l0.8-3.2h-1.4c-0.3,0-0.6-0.2-0.6-0.5l-1.9-7.9h1.3l1.7,6.9c0,0.1,0.1,0.2,0.1,0.2h1
			c0,0,0.1,0,0.1-0.1l1.7-7h1.3L50.6,46.4z"/>
		<path fill="#1EB3C2" d="M61,46.4V36.1h-3.3v10.3h-1.3V34.8h5.9v11.5H61z"/>
		<path fill="#1EB3C2" d="M70.8,46.4V36.1h-3.3v10.3h-1.3V34.8h5.9v11.5H70.8z"/>
		<path fill="#1EB3C2" d="M76.3,46.4H75l1.9-11c0-0.2,0.3-0.5,0.6-0.5h2.3c0.3,0,0.6,0.2,0.6,0.5l1.9,11H81l-0.5-2.8h-3.8L76.3,46.4
			z M79.4,36.3c0-0.1-0.1-0.2-0.1-0.2h-1.1c-0.1,0-0.1,0.1-0.1,0.2l-1,6h3.3L79.4,36.3z"/>
	</g>
	<g>
		<path fill="#FFFFFF" d="M66.8,0.2v9.7h3.8l5.2-9.7h2.9l-5.8,11v0.3L78.7,25h-2.9l-5.2-12.3h-3.8V25H64V0.2H66.8z"/>
		<path fill="#FFFFFF" d="M2.8,25.1H0L4.1,1.2c0.1-0.5,0.7-1.1,1.3-1.1h5c0.6,0,1.2,0.5,1.3,1.1l4.1,23.9h-2.8l-1-6.1H3.8L2.8,25.1z
			 M9.3,3.4C9.3,3.1,9.2,3,9,3H6.7C6.6,3,6.5,3.1,6.4,3.4L4.3,16.3h7.2L9.3,3.4z"/>
		<path fill="#FFFFFF" d="M21.2,3v22.2h-2.8v-25h11.1V3H21.2z"/>
		<path fill="#FFFFFF" d="M40.2,0.2c1.3,0,2.3,0.4,3.2,1.2c0.9,0.8,1.3,1.8,1.3,3.1V10c0,1.2-0.4,2.3-1.3,3.2
			c-0.9,0.9-1.9,1.3-3.2,1.3h-5.6v10.7h-2.8v-25H40.2z M40.2,11.7c1,0,1.7-0.7,1.7-1.7V4.5c0-1-0.7-1.5-1.7-1.5h-5.6v8.7H40.2z"/>
		<path fill="#FFFFFF" d="M47.1,4.5c0-1.2,0.4-2.3,1.3-3.2C49.3,0.4,50.4,0,51.6,0h4c1.2,0,2.3,0.4,3.2,1.3c0.9,0.9,1.3,1.9,1.3,3.2
			V21c0,1.2-0.4,2.3-1.3,3.2c-0.9,0.9-1.9,1.3-3.2,1.3h-4c-1.2,0-2.3-0.4-3.2-1.3c-0.9-0.9-1.3-1.9-1.3-3.2V4.5z M49.9,21
			c0,1,0.7,1.7,1.7,1.7h4c1,0,1.7-0.7,1.7-1.7V4.5c0-1-0.7-1.7-1.7-1.7h-4c-1,0-1.7,0.7-1.7,1.7V21z"/>
		<path fill="#FFFFFF" d="M80.3,4.5c0-1.2,0.4-2.3,1.3-3.2C82.5,0.4,83.5,0,84.8,0h4C90,0,91.1,0.4,92,1.3c0.9,0.9,1.3,1.9,1.3,3.2
			V21c0,1.2-0.4,2.3-1.3,3.2c-0.9,0.9-1.9,1.3-3.2,1.3h-4c-1.2,0-2.3-0.4-3.2-1.3c-0.9-0.9-1.3-1.9-1.3-3.2V4.5z M83.1,21
			c0,1,0.7,1.7,1.7,1.7h4c1,0,1.7-0.7,1.7-1.7V4.5c0-1-0.7-1.7-1.7-1.7h-4c-1,0-1.7,0.7-1.7,1.7V21z"/>
		<path fill="#FFFFFF" d="M109.3,0.2h5.6l0.9,25H113L112.1,3h-0.3l-4.4,21.8h-2.6L100.4,3h-0.3l-0.9,22.2h-2.8l1-25h5.5l3.3,18.1
			L109.3,0.2z"/>
	</g>
</g>
</svg>
