<?xml version="1.0" standalone="no"?>
<!DOCTYPE svg PUBLIC "-//W3C//DTD SVG 1.1//EN" "http://www.w3.org/Graphics/SVG/1.1/DTD/svg11.dtd" >
<svg xmlns="http://www.w3.org/2000/svg" xmlns:xlink="http://www.w3.org/1999/xlink" version="1.1">
<metadata>
Created by FontForge 20141024 at Tue Apr  7 13:49:38 2015
 By System Administrator
Foros(tm) is a modern humanist sanserif font family of 8 styles. Each style contains beside many other alternatives of upper and lowercase letters a 'unicase' character set. Foros is a development of a modern pattern of rough geometric shapes in combination with open humanistic forms that produces a mixture of obstinacy and delicacy. Quadratic shapes of ovals bring stability and firmness, but angular terminals of diagonals in several letters together with curved junctions of bowls with verticals stems add emotions and elegance. Such variety in image make it possible to use the fonts in different kinds of display typography. Foros type family was designed by Oleg Karpinsky. Released by ParaType in 2013.
</metadata>
<defs>
<font id="Foros-Regular" horiz-adv-x="596" >
  <font-face 
    font-family="Foros Regular"
    font-weight="400"
    font-stretch="normal"
    units-per-em="1000"
    panose-1="2 11 5 3 2 2 3 2 2 4"
    ascent="779"
    descent="-221"
    x-height="498"
    cap-height="700"
    bbox="-454 -236 1288 941"
    underline-thickness="50"
    underline-position="-50"
    unicode-range="U+0020-FEFF"
  />
<missing-glyph horiz-adv-x="210" 
 />
    <glyph glyph-name="afii10017.var.accented" unicode="&#x410;`" horiz-adv-x="676" 
d="M665 0h-94l-90 232h-286l-90 -232h-94l274 700h106zM338 607l-116 -304h232zM286 740l99 174h89l-121 -174h-67z" />
    <glyph glyph-name="afii10022.var.accented" unicode="&#x415;`" 
d="M175 73h366v-73h-453v700h442v-73h-355v-236h310v-73h-310v-245zM243 740l99 174h89l-121 -174h-67z" />
    <glyph glyph-name="afii10026.var.accented" unicode="&#x418;`" horiz-adv-x="714" 
d="M626 700v-700h-87v570l-361 -570h-90v700h87v-570l361 570h90zM273 740l99 174h89l-121 -174h-67z" />
    <glyph glyph-name="afii10032.var.accented" unicode="&#x41e;`" horiz-adv-x="736" 
d="M656 530c17 -49 25 -109 25 -180s-8 -131 -25 -180c-33 -99 -100 -147 -169 -168c-35 -11 -74 -16 -119 -16s-84 5 -119 16c-69 21 -136 69 -169 168c-17 49 -25 109 -25 180s8 131 25 180c33 99 100 147 169 168c35 11 74 16 119 16s84 -5 119 -16
c69 -21 136 -69 169 -168zM534 126c38 45 57 119 57 224s-19 179 -57 224c-37 45 -93 67 -166 67s-129 -22 -167 -67c-37 -45 -56 -119 -56 -224s19 -179 56 -224c38 -45 94 -67 167 -67s129 22 166 67zM311 740l99 174h89l-121 -174h-67z" />
    <glyph glyph-name="afii10037.var.accented" unicode="&#x423;`" horiz-adv-x="629" 
d="M534 700h94l-244 -536c-32 -71 -63 -118 -92 -142s-67 -36 -112 -36c-24 0 -45 2 -63 5l4 75c14 -3 28 -5 43 -5c30 0 54 8 73 25s40 51 63 100h-57l-242 514h99l222 -479zM238 740l99 174h89l-121 -174h-67z" />
    <glyph glyph-name="afii10045.var.accented" unicode="&#x42b;`" horiz-adv-x="870" 
d="M782 0h-87v700h87v-700zM175 338v-263c47 -11 90 -16 129 -16c126 0 189 49 189 147s-63 147 -189 147c-37 0 -80 -5 -129 -15zM88 17v683h87v-286c53 8 97 12 132 12c184 0 276 -73 276 -220s-92 -220 -276 -220c-71 0 -144 10 -219 31zM343 740l99 174h89l-121 -174
h-67z" />
    <glyph glyph-name="afii10047.var.accented" unicode="&#x42d;`" horiz-adv-x="624" 
d="M256 -14c-54 0 -121 9 -201 26l13 80c78 -22 140 -33 186 -33c149 0 217 82 224 255h-326v73h326c-8 172 -75 254 -224 254c-46 0 -108 -11 -186 -33l-13 83c85 15 152 23 201 23c201 0 313 -108 313 -364s-112 -364 -313 -364zM221 740l99 174h89l-121 -174h-67z" />
    <glyph glyph-name="afii10048.var.accented" unicode="&#x42e;`" horiz-adv-x="1036" 
d="M674 641c-143 0 -217 -82 -217 -291s74 -291 217 -291c144 0 217 82 217 291s-73 291 -217 291zM175 700v-312h193c5 127 42 215 101 262s122 64 205 64c87 0 153 -19 213 -71s94 -152 94 -293s-34 -241 -94 -293s-126 -71 -213 -71c-84 0 -147 19 -206 64
c-59 47 -95 137 -100 265h-193v-315h-87v700h87zM383 740l99 174h89l-121 -174h-67z" />
    <glyph glyph-name="afii10049.var.accented" unicode="&#x42f;`" horiz-adv-x="639" 
d="M330 364h134v263c-57 9 -102 14 -134 14c-129 0 -177 -51 -177 -139c0 -92 59 -138 177 -138zM298 291l-165 -297l-93 18l169 294c-97 26 -145 92 -145 197c0 141 88 211 265 211c63 0 137 -10 222 -30v-684h-87v291h-166zM276 740l99 174h89l-121 -174h-67z" />
    <glyph glyph-name="afii10023.var.accented" unicode="&#x401;`" 
d="M192 891v-128h-78v128h78zM507 891v-128h-78v128h78zM175 73h366v-73h-453v700h442v-73h-355v-236h310v-73h-310v-245zM222 740l99 174h89l-121 -174h-67z" />
    <glyph glyph-name="afii10065.var.accented" unicode="&#x430;`" horiz-adv-x="522" 
d="M44 138c0 96 58 161 202 161c29 0 69 -3 121 -10v43c0 75 -22 116 -113 116c-39 0 -92 -11 -159 -33l-13 71c80 17 138 26 174 26c71 0 121 -16 148 -49c27 -32 41 -75 41 -129v-334h-76v28c-55 -28 -108 -42 -158 -42c-116 0 -167 60 -167 152zM252 235
c-97 0 -128 -36 -128 -97c0 -59 33 -88 99 -88c43 0 91 13 144 39v137c-50 6 -88 9 -115 9zM189 588l99 174h83l-121 -174h-61z" />
    <glyph glyph-name="afii10070.var.accented" unicode="&#x435;`" horiz-adv-x="560" 
d="M304 50c58 0 119 9 184 28l15 -64c-70 -19 -138 -28 -203 -28c-172 0 -250 87 -250 263s84 263 236 263c83 0 141 -23 174 -69c33 -45 50 -110 50 -194v-17h-380c7 -128 53 -182 174 -182zM286 448c-92 0 -143 -51 -154 -153h299c-7 100 -44 153 -145 153zM224 588
l99 174h83l-121 -174h-61z" />
    <glyph glyph-name="afii10074.var.accented" unicode="&#x438;`" horiz-adv-x="580" 
d="M503 498v-498h-78v388l-270 -388h-78v498h78v-388l270 388h78zM216 588l99 174h83l-121 -174h-61z" />
    <glyph glyph-name="afii10080.var.accented" unicode="&#x43e;`" horiz-adv-x="588" 
d="M169 398c-26 -33 -39 -83 -39 -149s13 -116 39 -149s68 -50 125 -50s99 17 125 50s39 83 39 149s-13 116 -39 149s-68 50 -125 50s-99 -17 -125 -50zM294 512c163 0 244 -88 244 -263s-81 -263 -244 -263s-244 88 -244 263s81 263 244 263zM234 588l99 174h83l-121 -174
h-61z" />
    <glyph glyph-name="afii10085.var.accented" unicode="&#x443;`" horiz-adv-x="528" 
d="M104 -150c30 0 55 8 74 23c20 15 40 50 59 103l10 27h-49l-187 495h87l169 -460l163 460h87l-207 -545c-45 -121 -100 -167 -199 -167c-19 0 -37 1 -52 4l6 64c13 -3 26 -4 39 -4zM214 588l99 174h83l-121 -174h-61z" />
    <glyph glyph-name="afii10093.var.accented" unicode="&#x44b;`" horiz-adv-x="716" 
d="M639 498v-498h-78v498h78zM270 270c-37 0 -75 -5 -115 -14v-192c40 -9 78 -14 115 -14c86 0 129 37 129 110s-43 110 -129 110zM77 498h78v-176c46 8 85 12 117 12c148 0 207 -70 207 -174s-59 -174 -207 -174c-57 0 -122 10 -195 29v483zM292 588l99 174h83l-121 -174
h-61z" />
    <glyph glyph-name="afii10095.var.accented" unicode="&#x44d;`" horiz-adv-x="497" 
d="M203 -14c-37 0 -88 7 -153 21l13 71c53 -19 99 -28 137 -28c108 0 159 51 166 168h-256v63h256c-7 116 -58 167 -166 167c-38 0 -84 -9 -137 -28l-13 71c65 14 116 21 153 21c165 0 244 -82 244 -263s-79 -263 -244 -263zM179 588l99 174h83l-121 -174h-61z" />
    <glyph glyph-name="afii10096.var.accented" unicode="&#x44e;`" horiz-adv-x="803" 
d="M514 448c-111 0 -159 -67 -159 -199s48 -199 159 -199c106 0 159 66 159 199s-53 199 -159 199zM514 -14c-150 0 -229 77 -238 232h-121v-218h-78v498h78v-217h121c9 154 88 231 238 231c159 0 239 -88 239 -263s-80 -263 -239 -263zM331 588l99 174h83l-121 -174h-61z
" />
    <glyph glyph-name="afii10097.var.accented" unicode="&#x44f;`" horiz-adv-x="520" 
d="M443 0h-78v196h-123l-128 -203l-81 18l127 195c-73 22 -110 72 -110 149c0 97 65 157 194 157c55 0 121 -8 199 -23v-489zM247 260h118v175c-47 9 -86 13 -118 13c-78 0 -117 -31 -117 -93c0 -63 39 -95 117 -95zM220 588l99 174h83l-121 -174h-61z" />
    <glyph glyph-name="afii10071.var.accented" unicode="&#x451;`" horiz-adv-x="560" 
d="M166 740v-128h-78v128h78zM475 740v-128h-78v128h78zM304 50c58 0 119 9 184 28l15 -64c-70 -19 -138 -28 -203 -28c-172 0 -250 87 -250 263s84 263 236 263c83 0 141 -23 174 -69c33 -45 50 -110 50 -194v-17h-380c7 -128 53 -182 174 -182zM286 448
c-92 0 -143 -51 -154 -153h299c-7 100 -44 153 -145 153zM190 588l99 174h83l-121 -174h-61z" />
    <glyph glyph-name="fi" unicode="fi" horiz-adv-x="506" 
d="M432 741v-129h-84v74c-19 3 -34 4 -46 4c-47 0 -78 -12 -93 -36c-15 -23 -22 -61 -22 -114v-42h242v-498h-78v434h-164v-434h-78v434h-77v64h77v45c0 147 56 211 187 211c33 0 78 -4 136 -13z" />
    <glyph glyph-name="fl" unicode="fl" horiz-adv-x="506" 
d="M295 498v-64h-108v-434h-78v434h-77v64h77v45c0 147 56 211 187 211c35 0 79 -4 133 -13v-741h-78v685c-19 3 -36 5 -49 5c-47 0 -78 -12 -93 -36c-15 -23 -22 -61 -22 -114v-42h108z" />
    <glyph glyph-name=".notdef" horiz-adv-x="210" 
 />
    <glyph glyph-name="NULL" horiz-adv-x="0" 
 />
    <glyph glyph-name="CR" horiz-adv-x="333" 
 />
    <glyph glyph-name="space" unicode=" " horiz-adv-x="210" 
 />
    <glyph glyph-name="exclam" unicode="!" horiz-adv-x="250" 
d="M80 700h90l-11 -492h-68zM167 107v-107h-84v107h84z" />
    <glyph glyph-name="quotedbl" unicode="&#x22;" horiz-adv-x="308" 
d="M116 700l-5 -244h-76l-5 244h86zM278 700l-5 -244h-76l-5 244h86z" />
    <glyph glyph-name="numbersign" unicode="#" horiz-adv-x="683" 
d="M386 232l35 196h-124l-35 -196h124zM449 167l-29 -167h-74l29 167h-124l-29 -167h-74l29 167h-116l12 65h115l35 196h-116l11 65h116l29 167h74l-29 -167h124l29 167h74l-29 -167h116l-11 -65h-116l-35 -196h117l-12 -65h-116z" />
    <glyph glyph-name="dollar" unicode="$" horiz-adv-x="576" 
d="M261 790h66v-118c49 -3 105 -12 168 -25l-11 -79c-61 19 -113 30 -157 35v-237c158 -25 194 -103 194 -192c0 -113 -65 -175 -194 -186v-118h-66v117c-58 2 -127 13 -208 32l13 82c63 -26 128 -41 195 -45v245c-135 21 -193 77 -193 190s64 174 193 182v117zM436 173
c0 48 -10 95 -109 118v-234c73 10 109 49 109 116zM153 491c0 -68 31 -100 108 -115v227c-72 -7 -108 -45 -108 -112z" />
    <glyph glyph-name="percent" unicode="%" horiz-adv-x="935" 
d="M613 660h70l-361 -660h-70zM232 674c114 0 171 -63 171 -189s-57 -189 -171 -189s-171 63 -171 189s57 189 171 189zM232 353c69 0 104 44 104 132s-35 132 -104 132s-104 -44 -104 -132s35 -132 104 -132zM703 -14c-114 0 -171 63 -171 189s57 189 171 189
s171 -63 171 -189s-57 -189 -171 -189zM703 307c-69 0 -104 -44 -104 -132s35 -132 104 -132s104 44 104 132s-35 132 -104 132z" />
    <glyph glyph-name="ampersand" unicode="&#x26;" horiz-adv-x="687" 
d="M97 497c0 118 79 177 236 177c46 0 100 -6 162 -18l-11 -75c-61 17 -111 25 -150 25c-116 0 -152 -45 -152 -114c0 -76 38 -116 154 -116c183 0 293 1 329 3v-75h-45c-29 1 -54 1 -75 1v-289c-92 -20 -169 -30 -231 -30c-96 0 -163 17 -202 51c-38 35 -57 82 -57 142
c0 91 36 144 123 172c-53 25 -81 82 -81 146zM316 308c-131 0 -175 -44 -175 -127s45 -127 174 -127c44 0 91 6 141 18v235c-65 1 -112 1 -140 1z" />
    <glyph glyph-name="quotesingle" unicode="'" horiz-adv-x="146" 
d="M116 700l-5 -244h-76l-5 244h86z" />
    <glyph glyph-name="parenleft" unicode="(" horiz-adv-x="355" 
d="M315 -146l-10 -64c-172 11 -241 126 -244 480c3 353 72 468 244 480l10 -64c-109 -9 -174 -75 -174 -416s65 -407 174 -416z" />
    <glyph glyph-name="parenright" unicode=")" horiz-adv-x="355" 
d="M40 686l10 64c172 -12 241 -127 244 -480c-3 -354 -72 -469 -244 -480l-10 64c109 9 174 75 174 416s-65 407 -174 416z" />
    <glyph glyph-name="asterisk" unicode="*" horiz-adv-x="578" 
d="M251 700h76l-18 -172l140 101l38 -65l-157 -71l157 -71l-38 -65l-140 100l18 -171h-76l17 171l-139 -100l-38 65l156 71l-156 71l38 65l139 -101z" />
    <glyph glyph-name="plus" unicode="+" horiz-adv-x="578" 
d="M507 366v-64h-185v-186h-66v186h-185v64h185v186h66v-186h185z" />
    <glyph glyph-name="comma" unicode="," horiz-adv-x="264" 
d="M81 -140l9 247h93l-41 -247h-61z" />
    <glyph glyph-name="hyphen" unicode="-" horiz-adv-x="478" 
d="M390 297v-70h-302v70h302z" />
    <glyph glyph-name="period" unicode="." horiz-adv-x="264" 
d="M174 107v-107h-84v107h84z" />
    <glyph glyph-name="slash" unicode="/" horiz-adv-x="399" 
d="M296 700h81l-341 -870h-81z" />
    <glyph glyph-name="zero" unicode="0" horiz-adv-x="708" 
d="M566 591c49 -55 73 -142 73 -261s-24 -207 -73 -262c-48 -55 -119 -82 -212 -82s-164 27 -213 82c-48 55 -72 143 -72 262s24 206 72 261c49 55 120 83 213 83s164 -28 212 -83zM504 119c33 43 49 114 49 211s-16 168 -49 211s-83 65 -150 65s-117 -22 -150 -65
s-49 -114 -49 -211s16 -168 49 -211s83 -65 150 -65s117 22 150 65z" />
    <glyph glyph-name="one" unicode="1" horiz-adv-x="416" 
d="M276 660v-660h-84v592h-153v68h237z" />
    <glyph glyph-name="two" unicode="2" horiz-adv-x="599" 
d="M530 473c0 -59 -16 -104 -48 -136c-31 -31 -85 -56 -160 -73l-16 -4c-64 -15 -106 -35 -127 -62s-31 -70 -31 -130h380v-68h-459v68c0 73 15 129 44 168s85 69 167 88l16 4c53 13 91 29 114 48c23 20 34 52 34 96c0 89 -52 134 -157 134c-59 0 -120 -11 -184 -32l-11 76
c80 16 145 24 195 24c167 0 243 -80 243 -201z" />
    <glyph glyph-name="three" unicode="3" horiz-adv-x="574" 
d="M505 179c0 -60 -19 -107 -58 -142c-39 -34 -105 -51 -200 -51c-62 0 -131 8 -207 25l12 76c69 -22 134 -33 195 -33c129 0 172 47 172 127c0 39 -12 69 -36 92s-71 35 -140 35c-35 0 -68 -1 -101 -3v73c43 -3 76 -4 101 -4c112 0 155 41 155 117c0 69 -36 115 -152 115
c-49 0 -106 -10 -170 -29l-11 75c70 15 130 22 181 22c158 0 237 -59 237 -177c0 -75 -30 -125 -91 -150c75 -25 113 -81 113 -168z" />
    <glyph glyph-name="four" unicode="4" horiz-adv-x="641" 
d="M590 235v-68h-106v-167h-84v167h-360v92l337 401h107v-425h106zM106 235h294v357z" />
    <glyph glyph-name="five" unicode="5" horiz-adv-x="614" 
d="M287 54c123 0 172 43 172 142c0 91 -41 142 -172 142c-41 0 -104 -7 -189 -20v342h401v-68h-317v-195c41 6 78 9 111 9c201 0 252 -98 252 -210c0 -140 -83 -210 -250 -210c-63 0 -138 10 -226 29l12 77c75 -25 143 -38 206 -38z" />
    <glyph glyph-name="six" unicode="6" horiz-adv-x="655" 
d="M595 200c0 -143 -81 -214 -242 -214c-185 0 -284 104 -284 344c0 124 25 212 75 265s123 79 220 79c50 0 114 -7 193 -20l-11 -76c-70 19 -131 28 -182 28c-144 0 -198 -75 -207 -214c70 14 134 21 192 21c86 0 148 -20 187 -59s59 -91 59 -154zM509 199
c0 93 -46 146 -170 146c-55 0 -116 -7 -183 -22c0 -79 10 -136 37 -188c28 -52 81 -81 157 -81c106 0 159 48 159 145z" />
    <glyph glyph-name="seven" unicode="7" horiz-adv-x="522" 
d="M30 660h462v-68c-129 -234 -213 -431 -252 -592h-89c23 89 54 180 95 273s92 199 154 319h-370v68z" />
    <glyph glyph-name="eight" unicode="8" horiz-adv-x="668" 
d="M194 85c26 -21 73 -31 140 -31s114 10 140 31s39 53 39 94s-13 72 -39 93s-73 32 -140 32s-114 -11 -140 -32s-39 -52 -39 -93s13 -73 39 -94zM207 399c23 -19 66 -29 127 -29s104 10 127 29c23 20 35 50 35 89s-12 69 -35 88c-23 20 -66 30 -127 30s-104 -10 -127 -30
c-23 -19 -35 -49 -35 -88s12 -69 35 -89zM69 175c0 85 38 140 114 166c-64 26 -96 77 -96 154c0 120 79 179 247 179s247 -59 247 -179c0 -77 -32 -128 -96 -154c76 -26 114 -81 114 -166c0 -128 -85 -189 -265 -189s-265 61 -265 189z" />
    <glyph glyph-name="nine" unicode="9" horiz-adv-x="655" 
d="M60 460c0 143 81 214 242 214c185 0 284 -104 284 -344c0 -124 -25 -212 -75 -265s-123 -79 -220 -79c-50 0 -114 7 -193 20l11 76c70 -19 131 -28 182 -28c144 0 198 75 207 214c-70 -14 -134 -21 -192 -21c-86 0 -149 20 -188 59s-58 91 -58 154zM146 461
c0 -93 46 -146 170 -146c55 0 116 7 183 22c0 79 -10 136 -38 188c-27 52 -80 81 -156 81c-106 0 -159 -48 -159 -145z" />
    <glyph glyph-name="colon" unicode=":" horiz-adv-x="264" 
d="M174 107v-107h-84v107h84zM174 498v-107h-84v107h84z" />
    <glyph glyph-name="semicolon" unicode=";" horiz-adv-x="264" 
d="M174 498v-107h-84v107h84zM81 -140l9 247h93l-41 -247h-61z" />
    <glyph glyph-name="less" unicode="&#x3c;" horiz-adv-x="578" 
d="M507 427l-356 -94l356 -94v-68l-436 123v78l436 123v-68z" />
    <glyph glyph-name="equal" unicode="=" horiz-adv-x="578" 
d="M71 407v64h436v-64h-436zM71 197v64h436v-64h-436z" />
    <glyph glyph-name="greater" unicode="&#x3e;" horiz-adv-x="578" 
d="M71 171v68l356 94l-356 94v68l436 -123v-78z" />
    <glyph glyph-name="question" unicode="?" horiz-adv-x="574" 
d="M249 107v-107h-84v107h84zM165 208v146h41c148 0 196 53 196 146c0 76 -29 146 -196 146c-29 0 -65 -5 -108 -15l-12 74c43 6 83 9 121 9c187 0 281 -71 281 -214c0 -130 -80 -201 -239 -213v-79h-84z" />
    <glyph glyph-name="at" unicode="@" horiz-adv-x="1028" 
d="M668 0h-40v28c-55 -28 -108 -42 -158 -42c-116 0 -167 60 -167 152c0 96 58 161 202 161c29 0 69 -3 121 -10v43c0 75 -22 116 -113 116c-39 0 -92 -11 -159 -33l-13 71c80 17 138 26 174 26c71 0 121 -16 148 -49c27 -32 41 -75 41 -129v-270c116 13 174 88 174 225
c0 240 -104 362 -363 362c-123 0 -203 -22 -268 -82c-64 -59 -94 -164 -94 -320c0 -147 28 -250 84 -311s149 -91 278 -91c98 0 192 11 283 34l12 -62c-115 -23 -213 -35 -295 -35c-144 0 -244 29 -320 101c-75 71 -112 191 -112 364c0 177 39 299 116 368
c79 69 176 97 316 97c300 0 430 -145 430 -425c0 -152 -73 -289 -277 -289zM511 235c-97 0 -128 -36 -128 -97c0 -59 33 -88 99 -88c43 0 91 13 144 39v137c-50 6 -88 9 -115 9z" />
    <glyph glyph-name="A" unicode="A" horiz-adv-x="676" 
d="M665 0h-94l-90 232h-286l-90 -232h-94l274 700h106zM338 607l-116 -304h232z" />
    <glyph glyph-name="B" unicode="B" horiz-adv-x="671" 
d="M616 191c0 -56 -13 -99 -50 -140s-115 -65 -224 -65c-81 0 -165 10 -254 30v668c89 20 166 30 233 30c96 0 162 -16 199 -48s55 -78 55 -137c0 -77 -29 -128 -88 -155c92 -29 129 -91 129 -183zM175 626v-227h144c125 0 170 42 170 121c0 76 -43 121 -170 121
c-38 0 -86 -5 -144 -15zM526 193c0 42 -14 75 -41 98c-27 24 -75 36 -146 36h-164v-253c59 -10 114 -15 164 -15c139 0 187 49 187 134z" />
    <glyph glyph-name="C" unicode="C" horiz-adv-x="624" 
d="M368 714c49 0 116 -8 201 -23l-13 -83c-78 22 -140 33 -186 33c-159 0 -225 -92 -225 -291s66 -291 225 -291c46 0 108 11 186 33l13 -80c-80 -17 -147 -26 -201 -26c-201 0 -313 108 -313 364s112 364 313 364z" />
    <glyph glyph-name="D" unicode="D" horiz-adv-x="723" 
d="M88 16v668c76 20 151 30 225 30c127 0 218 -31 273 -94c55 -62 82 -152 82 -270s-27 -208 -82 -271c-55 -62 -146 -93 -273 -93c-74 0 -149 10 -225 30zM175 626v-552c43 -10 88 -15 137 -15c191 0 266 94 266 291s-75 291 -266 291c-49 0 -94 -5 -137 -15z" />
    <glyph glyph-name="E" unicode="E" 
d="M175 73h366v-73h-453v700h442v-73h-355v-236h310v-73h-310v-245z" />
    <glyph glyph-name="F" unicode="F" horiz-adv-x="556" 
d="M175 299v-299h-87v700h424v-73h-337v-255h308v-73h-308z" />
    <glyph glyph-name="G" unicode="G" horiz-adv-x="702" 
d="M368 -14c-220 0 -313 131 -313 364c0 131 27 224 82 280s132 84 231 84c63 0 140 -9 230 -27l-13 -82c-79 24 -152 36 -217 36c-151 0 -223 -88 -223 -291c0 -200 68 -291 223 -291c55 0 111 7 167 21v264h87v-324c-88 -23 -173 -34 -254 -34z" />
    <glyph glyph-name="H" unicode="H" horiz-adv-x="710" 
d="M622 700v-700h-87v318h-360v-318h-87v700h87v-309h360v309h87z" />
    <glyph glyph-name="I" unicode="I" horiz-adv-x="263" 
d="M175 0h-87v700h87v-700z" />
    <glyph glyph-name="J" unicode="J" horiz-adv-x="466" 
d="M136 -14c-41 0 -79 3 -114 8l12 78c35 -9 69 -14 101 -14c61 0 103 14 127 41c25 27 37 79 37 156v445h87v-448c0 -91 -19 -158 -56 -201s-101 -65 -194 -65z" />
    <glyph glyph-name="K" unicode="K" horiz-adv-x="657" 
d="M537 -10l-327 365l285 345h108l-287 -339l319 -349zM88 700h87v-700h-87v700z" />
    <glyph glyph-name="L" unicode="L" horiz-adv-x="527" 
d="M175 73h330v-73h-417v700h87v-627z" />
    <glyph glyph-name="M" unicode="M" horiz-adv-x="902" 
d="M451 129c17 46 29 80 38 101l187 470h108l48 -700h-86l-27 448c-2 35 -3 84 -3 145c-21 -61 -38 -109 -53 -146l-178 -447h-68l-178 447c-15 37 -32 85 -53 146c0 -62 -1 -110 -3 -145l-27 -448h-86l48 700h108l187 -470c9 -21 21 -55 38 -101z" />
    <glyph glyph-name="N" unicode="N" horiz-adv-x="716" 
d="M542 700h86v-700h-108l-301 498c-24 40 -41 71 -50 92c3 -38 5 -72 5 -102v-488h-86v700h108l301 -498c24 -40 41 -71 50 -92c-3 38 -5 72 -5 102v488z" />
    <glyph glyph-name="O" unicode="O" horiz-adv-x="736" 
d="M656 530c17 -49 25 -109 25 -180s-8 -131 -25 -180c-33 -99 -100 -147 -169 -168c-35 -11 -74 -16 -119 -16s-84 5 -119 16c-69 21 -136 69 -169 168c-17 49 -25 109 -25 180s8 131 25 180c33 99 100 147 169 168c35 11 74 16 119 16s84 -5 119 -16
c69 -21 136 -69 169 -168zM534 126c38 45 57 119 57 224s-19 179 -57 224c-37 45 -93 67 -166 67s-129 -22 -167 -67c-37 -45 -56 -119 -56 -224s19 -179 56 -224c38 -45 94 -67 167 -67s129 22 166 67z" />
    <glyph glyph-name="P" unicode="P" horiz-adv-x="615" 
d="M175 626v-273c55 -9 99 -14 133 -14c118 0 177 50 177 151s-59 151 -177 151c-36 0 -80 -5 -133 -15zM175 0h-87v683c91 21 165 31 222 31c177 0 265 -75 265 -224s-88 -224 -265 -224c-37 0 -82 5 -135 14v-280z" />
    <glyph glyph-name="Q" unicode="Q" horiz-adv-x="736" 
d="M681 350c0 -227 -91 -347 -272 -362c5 -55 15 -109 30 -161l-90 -9c-13 57 -20 113 -22 170c-181 15 -272 135 -272 362c0 141 35 241 96 293s128 71 217 71s156 -19 217 -71s96 -152 96 -293zM534 126c38 45 57 119 57 224s-19 179 -57 224c-37 45 -93 67 -166 67
s-129 -22 -167 -67c-37 -45 -56 -119 -56 -224s19 -179 56 -224c38 -45 94 -67 167 -67s129 22 166 67z" />
    <glyph glyph-name="R" unicode="R" horiz-adv-x="639" 
d="M336 301h-161v-301h-87v684c84 20 158 30 222 30c177 0 265 -69 265 -206c0 -105 -50 -169 -150 -192l174 -304l-93 -18zM175 627v-253h134c118 0 177 44 177 133s-59 134 -177 134c-33 0 -78 -5 -134 -14z" />
    <glyph glyph-name="S" unicode="S" horiz-adv-x="601" 
d="M297 59c106 0 159 42 159 125c0 32 -3 52 -22 77c-17 25 -57 44 -117 52l-35 5c-151 21 -216 81 -216 202c0 129 82 194 234 194c55 0 127 -10 218 -29l-12 -83c-83 26 -152 39 -205 39c-97 0 -145 -40 -145 -121c0 -77 39 -110 139 -125l35 -5c81 -11 138 -35 169 -71
c31 -35 47 -80 47 -134c0 -133 -83 -199 -249 -199c-67 0 -150 12 -247 35l14 87c41 -16 83 -28 127 -37c44 -8 79 -12 106 -12z" />
    <glyph glyph-name="T" unicode="T" horiz-adv-x="621" 
d="M599 700v-73h-245v-627h-87v627h-245v73h577z" />
    <glyph glyph-name="U" unicode="U" horiz-adv-x="726" 
d="M559 248v452h87v-454c0 -187 -91 -260 -283 -260s-283 73 -283 260v454h87v-452c0 -72 15 -122 45 -149c31 -27 81 -40 151 -40s120 13 150 40c31 27 46 77 46 149z" />
    <glyph glyph-name="V" unicode="V" horiz-adv-x="680" 
d="M669 700l-280 -700h-100l-278 700h95l233 -599l235 599h95z" />
    <glyph glyph-name="W" unicode="W" horiz-adv-x="1022" 
d="M541 477l-30 108l-30 -108l-142 -477h-100l-209 700h90l140 -498c8 -27 18 -63 30 -109c10 38 20 74 31 109l148 498h84l148 -498c11 -35 21 -71 31 -109c12 46 22 82 30 109l140 498h90l-209 -700h-100z" />
    <glyph glyph-name="X" unicode="X" horiz-adv-x="680" 
d="M42 700h108l190 -286l190 286h108l-239 -345l248 -355h-108l-199 296l-199 -296h-108l248 355z" />
    <glyph glyph-name="Y" unicode="Y" horiz-adv-x="651" 
d="M325 351h1l220 349h104l-281 -436v-264h-87v264l-281 436h104z" />
    <glyph glyph-name="Z" unicode="Z" horiz-adv-x="608" 
d="M154 73h404v-73h-508v73l391 554h-378v73h482v-73z" />
    <glyph glyph-name="bracketleft" unicode="[" horiz-adv-x="340" 
d="M270 -136v-64h-182v940h182v-64h-104v-812h104z" />
    <glyph glyph-name="backslash" unicode="\" horiz-adv-x="399" 
d="M377 0h-81l-274 700h81z" />
    <glyph glyph-name="bracketright" unicode="]" horiz-adv-x="340" 
d="M252 740v-940h-182v64h104v812h-104v64h182z" />
    <glyph glyph-name="asciicircum" unicode="^" horiz-adv-x="494" 
d="M22 244l187 456h76l187 -456h-76l-149 370l-149 -370h-76z" />
    <glyph glyph-name="underscore" unicode="_" horiz-adv-x="430" 
d="M430 -138v-64h-430v64h430z" />
    <glyph glyph-name="grave" unicode="`" horiz-adv-x="500" 
d="M280 588l-121 174h83l99 -174h-61z" />
    <glyph glyph-name="a" unicode="a" horiz-adv-x="522" 
d="M44 138c0 96 58 161 202 161c29 0 69 -3 121 -10v43c0 75 -22 116 -113 116c-39 0 -92 -11 -159 -33l-13 71c80 17 138 26 174 26c71 0 121 -16 148 -49c27 -32 41 -75 41 -129v-334h-76v28c-55 -28 -108 -42 -158 -42c-116 0 -167 60 -167 152zM252 235
c-97 0 -128 -36 -128 -97c0 -59 33 -88 99 -88c43 0 91 13 144 39v137c-50 6 -88 9 -115 9z" />
    <glyph glyph-name="b" unicode="b" horiz-adv-x="580" 
d="M450 249c0 148 -43 199 -142 199c-36 0 -87 -15 -153 -44v-336c48 -12 94 -18 137 -18c112 0 158 68 158 199zM77 740h78v-273c65 30 121 45 168 45c136 0 207 -75 207 -263c0 -76 -13 -131 -46 -183c-33 -51 -99 -80 -192 -80c-58 0 -130 11 -215 34v720z" />
    <glyph glyph-name="c" unicode="c" horiz-adv-x="497" 
d="M294 512c37 0 88 -7 153 -21l-13 -71c-53 19 -99 28 -137 28c-117 0 -167 -59 -167 -199s50 -199 167 -199c38 0 84 9 137 28l13 -71c-65 -14 -116 -21 -153 -21c-165 0 -244 82 -244 263s79 263 244 263z" />
    <glyph glyph-name="d" unicode="d" horiz-adv-x="580" 
d="M425 94v310c-66 29 -117 44 -153 44c-99 0 -142 -51 -142 -199s43 -199 142 -199c36 0 87 15 153 44zM257 -14c-136 0 -207 75 -207 263s71 263 207 263c47 0 103 -15 168 -45v273h78v-740h-76v32c-67 -31 -124 -46 -170 -46z" />
    <glyph glyph-name="e" unicode="e" horiz-adv-x="560" 
d="M304 50c58 0 119 9 184 28l15 -64c-70 -19 -138 -28 -203 -28c-172 0 -250 87 -250 263s84 263 236 263c83 0 141 -23 174 -69c33 -45 50 -110 50 -194v-17h-380c7 -128 53 -182 174 -182zM286 448c-92 0 -143 -51 -154 -153h299c-7 100 -44 153 -145 153z" />
    <glyph glyph-name="f" unicode="f" horiz-adv-x="367" 
d="M335 498v-64h-148v-434h-78v434h-77v64h77v45c0 147 56 211 187 211c25 0 52 -2 82 -6l-8 -68c-27 7 -50 10 -68 10c-47 0 -78 -12 -93 -36c-15 -23 -22 -61 -22 -114v-42h148z" />
    <glyph glyph-name="g" unicode="g" horiz-adv-x="580" 
d="M425 94v310c-66 29 -117 44 -153 44c-99 0 -142 -51 -142 -199s43 -199 142 -199c36 0 87 15 153 44zM257 -14c-136 0 -207 75 -207 263s71 263 207 263c45 0 102 -15 170 -46v32h76v-469c0 -83 -10 -133 -43 -177c-33 -45 -98 -66 -198 -66c-58 0 -123 9 -196 26l14 72
c65 -23 126 -34 181 -34c68 0 112 13 133 40c21 26 31 71 31 135v6c-66 -30 -122 -45 -168 -45z" />
    <glyph glyph-name="h" unicode="h" horiz-adv-x="575" 
d="M77 740h78v-273c75 30 133 45 175 45c113 0 168 -64 168 -173v-339h-78v336c0 76 -27 112 -108 112c-36 0 -88 -15 -157 -44v-404h-78v740z" />
    <glyph glyph-name="i" unicode="i" horiz-adv-x="232" 
d="M155 498v-498h-78v498h78zM158 740v-128h-84v128h84z" />
    <glyph glyph-name="j" unicode="j" horiz-adv-x="235" 
d="M80 498h78v-491c0 -144 -64 -218 -191 -221l-9 64c97 5 122 62 122 159v489zM161 740v-128h-84v128h84z" />
    <glyph glyph-name="k" unicode="k" horiz-adv-x="526" 
d="M77 740h78v-740h-78v740zM283 266l223 -258l-89 -16l-229 270l200 236h98z" />
    <glyph glyph-name="l" unicode="l" horiz-adv-x="232" 
d="M77 740h78v-740h-78v740z" />
    <glyph glyph-name="m" unicode="m" horiz-adv-x="870" 
d="M474 0h-78v336c0 76 -23 112 -98 112c-33 0 -80 -15 -143 -44v-404h-78v498h76v-32c65 31 120 46 163 46c57 0 99 -19 127 -56c78 37 139 56 182 56c112 0 168 -58 168 -173v-339h-78v336c0 76 -25 112 -104 112c-34 0 -82 -15 -144 -46c5 -21 7 -42 7 -63v-339z" />
    <glyph glyph-name="n" unicode="n" horiz-adv-x="575" 
d="M498 339v-339h-78v336c0 76 -27 112 -108 112c-36 0 -88 -15 -157 -44v-404h-78v498h76v-32c76 31 135 46 177 46c113 0 168 -64 168 -173z" />
    <glyph glyph-name="o" unicode="o" horiz-adv-x="588" 
d="M169 398c-26 -33 -39 -83 -39 -149s13 -116 39 -149s68 -50 125 -50s99 17 125 50s39 83 39 149s-13 116 -39 149s-68 50 -125 50s-99 -17 -125 -50zM294 512c163 0 244 -88 244 -263s-81 -263 -244 -263s-244 88 -244 263s81 263 244 263z" />
    <glyph glyph-name="p" unicode="p" horiz-adv-x="580" 
d="M155 31v-231h-78v698h76v-32c67 31 124 46 170 46c136 0 207 -75 207 -263s-71 -263 -207 -263c-47 0 -103 15 -168 45zM155 404v-310c66 -29 117 -44 153 -44c99 0 142 51 142 199s-43 199 -142 199c-36 0 -87 -15 -153 -44z" />
    <glyph glyph-name="q" unicode="q" horiz-adv-x="580" 
d="M503 -200h-78v231c-65 -30 -121 -45 -168 -45c-136 0 -207 75 -207 263s71 263 207 263c46 0 103 -15 170 -46v32h76v-698zM425 94v310c-66 29 -117 44 -153 44c-99 0 -142 -51 -142 -199s43 -199 142 -199c36 0 87 15 153 44z" />
    <glyph glyph-name="r" unicode="r" horiz-adv-x="341" 
d="M324 512l6 -71c-61 -3 -119 -18 -175 -43v-398h-78v498h76v-36c59 31 116 47 171 50z" />
    <glyph glyph-name="s" unicode="s" horiz-adv-x="485" 
d="M240 -14c-58 0 -121 9 -190 27l15 77c64 -27 123 -40 178 -40c71 0 107 30 107 78c0 45 -19 76 -98 87l-28 4c-109 16 -156 65 -156 152c0 83 61 141 170 141c41 0 97 -8 168 -23l-14 -74c-61 22 -114 33 -157 33c-64 0 -88 -36 -88 -75c0 -49 26 -76 98 -87l28 -4
c119 -17 157 -71 157 -152c0 -87 -57 -144 -190 -144z" />
    <glyph glyph-name="t" unicode="t" horiz-adv-x="454" 
d="M107 498v142h78v-142h200v-64h-200v-254c0 -92 23 -130 119 -130c27 0 58 4 93 12l7 -63c-43 -9 -80 -13 -111 -13c-137 0 -186 59 -186 192v256h-77v64h77z" />
    <glyph glyph-name="u" unicode="u" horiz-adv-x="575" 
d="M77 159v339h78v-336c0 -76 27 -112 108 -112c36 0 88 15 157 44v404h78v-498h-76v32c-76 -31 -135 -46 -177 -46c-113 0 -168 64 -168 173z" />
    <glyph glyph-name="v" unicode="v" horiz-adv-x="528" 
d="M11 498h87l166 -405l166 405h87l-210 -498h-86z" />
    <glyph glyph-name="w" unicode="w" horiz-adv-x="828" 
d="M549 0l-104 299l-31 96l-31 -96l-104 -299h-84l-173 498h80l103 -306c11 -29 22 -65 34 -107c10 33 21 68 34 105l104 308h74l104 -308c13 -37 24 -72 34 -105c12 42 23 78 34 107l103 306h80l-173 -498h-84z" />
    <glyph glyph-name="x" unicode="x" horiz-adv-x="520" 
d="M126 498l134 -188l134 188h99l-184 -245l191 -253h-99l-141 197l-141 -197h-99l190 253l-183 245h99z" />
    <glyph glyph-name="y" unicode="y" horiz-adv-x="528" 
d="M104 -150c30 0 55 8 74 23c20 15 40 50 59 103l10 27h-49l-187 495h87l169 -460l163 460h87l-207 -545c-45 -121 -100 -167 -199 -167c-19 0 -37 1 -52 4l6 64c13 -3 26 -4 39 -4z" />
    <glyph glyph-name="z" unicode="z" horiz-adv-x="488" 
d="M142 64h302v-64h-400v64l293 370h-284v64h382v-64z" />
    <glyph glyph-name="braceleft" unicode="{" horiz-adv-x="411" 
d="M139 271v-2c59 -33 89 -101 89 -203c0 -136 32 -203 117 -212l-10 -64c-65 7 -113 31 -142 72s-43 107 -43 200c0 31 -2 57 -6 77c-8 41 -37 84 -92 99v64c27 7 48 20 63 39c31 39 35 74 35 137c0 93 14 159 43 200s77 65 142 72l10 -64c-85 -9 -117 -76 -117 -212
c0 -102 -30 -170 -89 -203z" />
    <glyph glyph-name="bar" unicode="|" horiz-adv-x="214" 
d="M149 740v-940h-84v940h84z" />
    <glyph glyph-name="braceright" unicode="}" horiz-adv-x="411" 
d="M272 269v2c-59 33 -89 101 -89 203c0 136 -32 203 -117 212l10 64c65 -7 112 -31 141 -72s44 -107 44 -200c0 -31 2 -57 6 -78c8 -40 37 -83 92 -98v-64c-27 -7 -49 -21 -64 -40c-29 -37 -34 -73 -34 -136c0 -93 -15 -159 -44 -200s-76 -65 -141 -72l-10 64
c85 9 117 76 117 212c0 102 30 170 89 203z" />
    <glyph glyph-name="asciitilde" unicode="~" horiz-adv-x="865" 
d="M456 222l-66 19c-75 21 -122 32 -141 32c-48 0 -75 -19 -107 -75l-41 42c36 62 85 93 148 93c31 0 85 -11 160 -32l66 -19c75 -21 122 -32 141 -32c48 0 75 19 107 75l41 -42c-36 -62 -85 -93 -148 -93c-31 0 -85 11 -160 32z" />
    <glyph glyph-name="uni00A0" unicode="&#xa0;" horiz-adv-x="210" 
 />
    <glyph glyph-name="exclamdown" unicode="&#xa1;" horiz-adv-x="250" 
d="M91 292h68l11 -492h-90zM83 393v107h84v-107h-84z" />
    <glyph glyph-name="cent" unicode="&#xa2;" horiz-adv-x="497" 
d="M266 511v151h61v-152c32 -2 72 -8 120 -19l-13 -71c-39 13 -74 21 -107 26v-394c32 3 68 12 107 26l13 -71c-48 -11 -88 -17 -120 -19v-152h-61v151c-147 9 -216 91 -216 262s69 253 216 262zM130 249c0 -128 41 -189 136 -198v395c-95 -9 -136 -70 -136 -197z" />
    <glyph glyph-name="sterling" unicode="&#xa3;" horiz-adv-x="637" 
d="M593 68v-68h-454v301h-78v65h78v41c0 173 71 267 250 267c47 0 108 -6 183 -18l-11 -76c-69 17 -125 26 -167 26c-65 0 -109 -15 -134 -44s-37 -78 -37 -147v-49h219v-65h-219v-233h370z" />
    <glyph glyph-name="currency" unicode="&#xa4;" horiz-adv-x="674" 
d="M460 465c-25 30 -66 45 -123 45s-98 -15 -123 -45s-37 -75 -37 -135s12 -105 37 -135s66 -45 123 -45s98 15 123 45s37 75 37 135s-12 105 -37 135zM550 589l47 -47l-66 -66c23 -37 34 -86 34 -146c0 -59 -12 -108 -35 -147l67 -67l-47 -47l-65 64
c-37 -27 -86 -40 -148 -40c-61 0 -111 13 -149 40l-64 -64l-47 47l67 67c-23 37 -35 86 -35 147c0 60 11 109 34 146l-66 66l47 47l63 -64c39 28 89 42 150 42c62 0 112 -14 149 -42z" />
    <glyph glyph-name="yen" unicode="&#xa5;" horiz-adv-x="649" 
d="M325 331l205 329h100l-183 -286h135v-61h-176l-40 -64v-14h216v-61h-216v-174h-83v174h-216v61h216v14l-42 64h-174v61h135l-183 286h100z" />
    <glyph glyph-name="brokenbar" unicode="&#xa6;" horiz-adv-x="214" 
d="M149 740v-406h-84v406h84zM149 206v-406h-84v406h84z" />
    <glyph glyph-name="section" unicode="&#xa7;" horiz-adv-x="638" 
d="M442 95v-1c50 -25 75 -64 75 -119c0 -95 -73 -142 -218 -142c-54 0 -117 8 -190 23l12 76c70 -21 129 -31 177 -31c54 0 90 7 107 20c18 13 27 31 27 56c0 52 -31 73 -126 85l-32 4c-136 17 -204 80 -204 188c0 87 42 139 126 158v1c-50 25 -75 64 -75 119
c0 95 73 142 218 142c54 0 117 -8 190 -23l-12 -76c-70 21 -129 31 -177 31c-54 0 -90 -7 -108 -20c-17 -13 -26 -31 -26 -56c0 -52 31 -73 126 -85l32 -4c136 -17 204 -80 204 -188c0 -87 -42 -139 -126 -158zM306 133h28c99 3 148 43 148 121c0 67 -35 107 -151 120h-28
c-99 -3 -148 -43 -148 -121c0 -67 35 -107 151 -120z" />
    <glyph glyph-name="dieresis" unicode="&#xa8;" horiz-adv-x="500" 
d="M165 740v-128h-78v128h78zM413 740v-128h-78v128h78z" />
    <glyph glyph-name="copyright" unicode="&#xa9;" horiz-adv-x="864" 
d="M770 528c16 -48 24 -107 24 -178s-8 -130 -24 -179c-32 -96 -101 -146 -186 -169c-42 -11 -93 -16 -152 -16s-110 5 -153 16c-84 23 -153 73 -185 169c-16 49 -24 108 -24 179s8 130 24 178c32 97 101 148 185 169c43 11 94 17 153 17s110 -6 152 -17
c85 -21 154 -72 186 -169zM661 108c48 45 72 125 72 242s-24 197 -72 242s-124 67 -229 67s-181 -22 -229 -67s-72 -125 -72 -242s24 -197 72 -242s124 -67 229 -67s181 22 229 67zM226 350c0 179 79 248 216 248c32 0 78 -6 138 -17l-11 -68c-51 15 -92 23 -123 23
c-100 0 -144 -58 -144 -186c0 -129 44 -187 144 -187c32 0 73 8 123 24l11 -67c-57 -12 -103 -18 -138 -18c-137 0 -216 68 -216 248z" />
    <glyph glyph-name="ordfeminine" unicode="&#xaa;" horiz-adv-x="482" 
d="M44 338c0 87 53 145 182 145c21 0 58 -3 109 -9v38c0 67 -21 105 -102 105c-34 0 -82 -10 -143 -30l-12 64c72 15 124 23 157 23c128 0 170 -63 170 -160v-300h-69v25c-49 -25 -96 -38 -142 -38c-104 0 -150 54 -150 137zM231 425c-87 0 -115 -32 -115 -87
c0 -53 30 -79 89 -79c40 0 83 12 130 35v123c-48 5 -83 8 -104 8z" />
    <glyph glyph-name="guillemotleft" unicode="&#xab;" horiz-adv-x="423" 
d="M152 450h74l-128 -188l128 -188h-74l-130 188zM327 450h74l-128 -188l128 -188h-74l-130 188z" />
    <glyph glyph-name="logicalnot" unicode="&#xac;" horiz-adv-x="578" 
d="M71 282v64h436v-252h-66v188h-370z" />
    <glyph glyph-name="uni00AD" unicode="&#xad;" horiz-adv-x="478" 
d="M390 297v-70h-302v70h302z" />
    <glyph glyph-name="registered" unicode="&#xae;" horiz-adv-x="768" 
d="M620 641c52 -48 78 -133 78 -254s-26 -206 -78 -255c-52 -48 -131 -72 -236 -72s-184 24 -236 72c-52 49 -78 134 -78 255s26 206 78 254c52 49 131 73 236 73s184 -24 236 -73zM580 173c38 41 57 112 57 214s-19 173 -57 214s-103 61 -196 61s-158 -20 -196 -61
s-57 -112 -57 -214s19 -173 57 -214s103 -61 196 -61s158 20 196 61zM390 352h-80v-166h-62v390c52 11 95 17 130 17c103 0 154 -40 154 -120c0 -59 -27 -95 -80 -109l94 -170l-66 -10zM310 536v-133h68c61 0 91 23 91 70c0 46 -30 69 -91 69c-19 0 -41 -2 -68 -6z" />
    <glyph glyph-name="overscore" unicode="&#xaf;" horiz-adv-x="500" 
d="M421 708v-64h-342v64h342z" />
    <glyph glyph-name="degree" unicode="&#xb0;" horiz-adv-x="432" 
d="M216 674c107 0 160 -53 160 -159s-53 -159 -160 -159s-160 53 -160 159s53 159 160 159zM145 593c-15 -16 -23 -42 -23 -78s8 -62 23 -79c15 -16 39 -24 71 -24s56 8 71 24c15 17 23 43 23 79s-8 62 -23 78c-15 17 -39 25 -71 25s-56 -8 -71 -25z" />
    <glyph glyph-name="plusminus" unicode="&#xb1;" horiz-adv-x="578" 
d="M507 482v-64h-185v-186h-66v186h-185v64h185v186h66v-186h185zM71 78v64h436v-64h-436z" />
    <glyph glyph-name="twosuperior" unicode="&#xb2;" horiz-adv-x="395" 
d="M326 557c0 -64 -30 -96 -115 -116l-9 -3c-63 -15 -79 -35 -79 -95h202v-46h-256v46c0 77 26 117 114 138l9 2c56 13 76 28 76 72s-27 66 -80 66c-33 0 -67 -6 -100 -18l-8 51c48 9 84 14 109 14c95 0 137 -44 137 -111z" />
    <glyph glyph-name="threesuperior" unicode="&#xb3;" horiz-adv-x="369" 
d="M300 395c0 -71 -48 -106 -144 -106c-35 0 -73 5 -116 14l8 50c39 -13 74 -19 105 -19c67 0 88 24 88 64c0 39 -20 63 -89 63c-21 0 -40 -1 -56 -2v49c31 -1 49 -2 56 -2c59 0 78 21 78 58c0 38 -26 57 -77 57c-29 0 -59 -5 -92 -16l-8 50c39 8 74 12 103 12
c88 0 132 -33 132 -98c0 -41 -16 -68 -49 -82c41 -14 61 -45 61 -92z" />
    <glyph glyph-name="acute" unicode="&#xb4;" horiz-adv-x="500" 
d="M159 588l99 174h83l-121 -174h-61z" />
    <glyph glyph-name="mu" unicode="&#xb5;" horiz-adv-x="575" 
d="M420 94v404h78v-498h-76v32c-62 -31 -113 -46 -154 -46c-51 0 -90 11 -117 32l2 -218h-76v698h78v-336c0 -38 8 -66 23 -85c32 -36 114 -42 242 17z" />
    <glyph glyph-name="mu" unicode="&#x3bc;" horiz-adv-x="575" 
d="M420 94v404h78v-498h-76v32c-62 -31 -113 -46 -154 -46c-51 0 -90 11 -117 32l2 -218h-76v698h78v-336c0 -38 8 -66 23 -85c32 -36 114 -42 242 17z" />
    <glyph glyph-name="paragraph" unicode="&#xb6;" horiz-adv-x="606" 
d="M263 -150v417c-155 0 -212 60 -212 196c0 65 15 114 46 147s86 50 166 50h243v-810h-78v746h-87v-746h-78z" />
    <glyph glyph-name="middot" unicode="&#xb7;" horiz-adv-x="265" 
d="M175 315v-106h-85v106h85z" />
    <glyph glyph-name="cedilla" unicode="&#xb8;" horiz-adv-x="500" 
d="M230 -88c-21 0 -42 -1 -64 -3l13 101h56l-6 -50h10c73 0 112 -37 112 -98c0 -67 -44 -98 -112 -98c-26 0 -56 3 -89 10l7 52c26 -9 50 -14 73 -14c78 -8 78 108 0 100z" />
    <glyph glyph-name="onesuperior" unicode="&#xb9;" horiz-adv-x="325" 
d="M175 660v-363h-58v317h-79v46h137z" />
    <glyph glyph-name="ordmasculine" unicode="&#xba;" horiz-adv-x="560" 
d="M167 571c-23 -30 -35 -75 -35 -134s12 -104 35 -134c24 -30 62 -45 113 -45s89 15 112 45c24 30 36 75 36 134s-12 104 -36 134c-23 30 -61 45 -112 45s-89 -15 -113 -45zM280 674c147 0 220 -79 220 -237s-73 -237 -220 -237s-220 79 -220 237s73 237 220 237z" />
    <glyph glyph-name="guillemotright" unicode="&#xbb;" horiz-adv-x="423" 
d="M197 74l128 188l-128 188h74l130 -188l-130 -188h-74zM22 74l128 188l-128 188h74l130 -188l-130 -188h-74z" />
    <glyph glyph-name="onequarter" unicode="&#xbc;" horiz-adv-x="646" 
d="M437 660h55l-374 -660h-55zM175 660v-363h-58v317h-79v46h137zM595 134v-46h-56v-88h-57v88h-192v59l179 216h70v-229h56zM337 134h145v177z" />
    <glyph glyph-name="onehalf" unicode="&#xbd;" horiz-adv-x="687" 
d="M437 660h55l-374 -660h-55zM175 660v-363h-58v317h-79v46h137zM618 260c0 -64 -30 -96 -115 -116l-9 -3c-63 -15 -79 -35 -79 -95h202v-46h-256v46c0 77 26 117 114 138l9 2c56 13 76 28 76 72s-27 66 -80 66c-33 0 -67 -6 -100 -18l-8 51c48 9 84 14 109 14
c95 0 137 -44 137 -111z" />
    <glyph glyph-name="threequarters" unicode="&#xbe;" horiz-adv-x="751" 
d="M542 660h55l-374 -660h-55zM300 395c0 -71 -48 -106 -144 -106c-35 0 -73 5 -116 14l8 50c39 -13 74 -19 105 -19c67 0 88 24 88 64c0 39 -20 63 -89 63c-21 0 -40 -1 -56 -2v49c31 -1 49 -2 56 -2c59 0 78 21 78 58c0 38 -26 57 -77 57c-29 0 -59 -5 -92 -16l-8 50
c39 8 74 12 103 12c88 0 132 -33 132 -98c0 -41 -16 -68 -49 -82c41 -14 61 -45 61 -92zM700 134v-46h-56v-88h-57v88h-192v59l179 216h70v-229h56zM442 134h145v177z" />
    <glyph glyph-name="questiondown" unicode="&#xbf;" horiz-adv-x="574" 
d="M325 393v107h84v-107h-84zM368 146c-148 0 -196 -53 -196 -146c0 -76 29 -146 196 -146c29 0 65 5 108 15l12 -74c-43 -6 -84 -9 -121 -9c-187 0 -281 71 -281 214c0 130 80 201 239 213v79h84v-146h-41z" />
    <glyph glyph-name="Agrave" unicode="&#xc0;" horiz-adv-x="676" 
d="M665 0h-94l-90 232h-286l-90 -232h-94l274 700h106zM338 607l-116 -304h232zM334 740l-121 174h89l99 -174h-67z" />
    <glyph glyph-name="Aacute" unicode="&#xc1;" horiz-adv-x="676" 
d="M665 0h-94l-90 232h-286l-90 -232h-94l274 700h106zM338 607l-116 -304h232zM288 740l99 174h89l-121 -174h-67z" />
    <glyph glyph-name="Acircumflex" unicode="&#xc2;" horiz-adv-x="676" 
d="M665 0h-94l-90 232h-286l-90 -232h-94l274 700h106zM338 607l-116 -304h232zM286 914h104l105 -174h-65l-92 125l-92 -125h-65z" />
    <glyph glyph-name="Atilde" unicode="&#xc3;" horiz-adv-x="676" 
d="M665 0h-94l-90 232h-286l-90 -232h-94l274 700h106zM338 607l-116 -304h232zM505 889l35 -51c-40 -49 -67 -67 -119 -67c-30 0 -63 10 -99 29c-31 16 -54 24 -69 24c-35 0 -54 -14 -82 -54l-35 51c40 49 67 67 119 67c30 0 63 -10 99 -29c31 -16 54 -24 69 -24
c36 0 54 13 82 54z" />
    <glyph glyph-name="Adieresis" unicode="&#xc4;" horiz-adv-x="676" 
d="M665 0h-94l-90 232h-286l-90 -232h-94l274 700h106zM338 607l-116 -304h232zM245 891v-128h-78v128h78zM509 891v-128h-78v128h78z" />
    <glyph glyph-name="Aring" unicode="&#xc5;" horiz-adv-x="676" 
d="M665 0h-94l-90 232h-286l-90 -232h-94l274 700h106zM338 607l-116 -304h232zM338 941c75 0 113 -37 113 -112s-38 -112 -113 -112s-113 37 -113 112s38 112 113 112zM291 881c-10 -11 -15 -28 -15 -52s5 -41 15 -52s26 -16 47 -16s37 5 47 16s15 28 15 52s-5 41 -15 52
s-26 16 -47 16s-37 -5 -47 -16z" />
    <glyph glyph-name="AE" unicode="&#xc6;" horiz-adv-x="1009" 
d="M245 364h256v263h-155zM954 73v-73h-453v290h-284l-111 -290h-95l274 700h658v-73h-355v-236h310v-73h-310v-245h366z" />
    <glyph glyph-name="Ccedilla" unicode="&#xc7;" horiz-adv-x="624" 
d="M396 -13l-3 -27h10c73 0 112 -37 112 -98c0 -67 -44 -98 -112 -98c-26 0 -56 3 -89 10l7 52c26 -9 50 -14 73 -14c78 -8 78 108 0 100c-21 0 -42 -1 -64 -3l10 78c-184 9 -285 119 -285 363c0 256 112 364 313 364c49 0 116 -8 201 -23l-13 -83c-78 22 -140 33 -186 33
c-159 0 -225 -92 -225 -291s66 -291 225 -291c46 0 108 11 186 33l13 -80c-66 -15 -124 -23 -173 -25z" />
    <glyph glyph-name="Egrave" unicode="&#xc8;" 
d="M175 73h366v-73h-453v700h442v-73h-355v-236h310v-73h-310v-245zM306 740l-121 174h89l99 -174h-67z" />
    <glyph glyph-name="Eacute" unicode="&#xc9;" 
d="M175 73h366v-73h-453v700h442v-73h-355v-236h310v-73h-310v-245zM245 740l99 174h89l-121 -174h-67z" />
    <glyph glyph-name="Ecircumflex" unicode="&#xca;" 
d="M175 73h366v-73h-453v700h442v-73h-355v-236h310v-73h-310v-245zM257 914h104l105 -174h-65l-92 125l-92 -125h-65z" />
    <glyph glyph-name="Edieresis" unicode="&#xcb;" 
d="M175 73h366v-73h-453v700h442v-73h-355v-236h310v-73h-310v-245zM216 891v-128h-78v128h78zM480 891v-128h-78v128h78z" />
    <glyph glyph-name="Igrave" unicode="&#xcc;" horiz-adv-x="263" 
d="M175 0h-87v700h87v-700zM119 740l-121 174h89l99 -174h-67z" />
    <glyph glyph-name="Iacute" unicode="&#xcd;" horiz-adv-x="263" 
d="M175 0h-87v700h87v-700zM77 740l99 174h89l-121 -174h-67z" />
    <glyph glyph-name="Icircumflex" unicode="&#xce;" horiz-adv-x="263" 
d="M175 0h-87v700h87v-700zM80 914h104l105 -174h-65l-92 125l-92 -125h-65z" />
    <glyph glyph-name="Idieresis" unicode="&#xcf;" horiz-adv-x="263" 
d="M84 891v-128h-76v128h76zM255 891v-128h-76v128h76zM175 0h-87v700h87v-700z" />
    <glyph glyph-name="Eth" unicode="&#xd0;" horiz-adv-x="735" 
d="M21 386h79v298c76 20 151 30 225 30c127 0 218 -31 273 -94c55 -62 82 -152 82 -270s-27 -208 -82 -271c-55 -62 -146 -93 -273 -93c-74 0 -149 10 -225 30v299h-79v71zM318 315h-131v-241c43 -10 88 -15 137 -15c191 0 266 94 266 291s-75 291 -266 291
c-49 0 -94 -5 -137 -15v-240h131v-71z" />
    <glyph glyph-name="Ntilde" unicode="&#xd1;" horiz-adv-x="716" 
d="M542 700h86v-700h-108l-301 498c-24 40 -41 71 -50 92c3 -38 5 -72 5 -102v-488h-86v700h108l301 -498c24 -40 41 -71 50 -92c-3 38 -5 72 -5 102v488zM525 889l35 -51c-40 -49 -67 -67 -119 -67c-30 0 -63 10 -99 29c-31 16 -54 24 -69 24c-35 0 -54 -14 -82 -54l-35 51
c40 49 67 67 119 67c30 0 63 -10 99 -29c31 -16 54 -24 69 -24c36 0 54 13 82 54z" />
    <glyph glyph-name="Ograve" unicode="&#xd2;" horiz-adv-x="736" 
d="M656 530c17 -49 25 -109 25 -180s-8 -131 -25 -180c-33 -99 -100 -147 -169 -168c-35 -11 -74 -16 -119 -16s-84 5 -119 16c-69 21 -136 69 -169 168c-17 49 -25 109 -25 180s8 131 25 180c33 99 100 147 169 168c35 11 74 16 119 16s84 -5 119 -16
c69 -21 136 -69 169 -168zM534 126c38 45 57 119 57 224s-19 179 -57 224c-37 45 -93 67 -166 67s-129 -22 -167 -67c-37 -45 -56 -119 -56 -224s19 -179 56 -224c38 -45 94 -67 167 -67s129 22 166 67zM384 740l-121 174h89l99 -174h-67z" />
    <glyph glyph-name="Oacute" unicode="&#xd3;" horiz-adv-x="736" 
d="M656 530c17 -49 25 -109 25 -180s-8 -131 -25 -180c-33 -99 -100 -147 -169 -168c-35 -11 -74 -16 -119 -16s-84 5 -119 16c-69 21 -136 69 -169 168c-17 49 -25 109 -25 180s8 131 25 180c33 99 100 147 169 168c35 11 74 16 119 16s84 -5 119 -16
c69 -21 136 -69 169 -168zM534 126c38 45 57 119 57 224s-19 179 -57 224c-37 45 -93 67 -166 67s-129 -22 -167 -67c-37 -45 -56 -119 -56 -224s19 -179 56 -224c38 -45 94 -67 167 -67s129 22 166 67zM336 740l99 174h89l-121 -174h-67z" />
    <glyph glyph-name="Ocircumflex" unicode="&#xd4;" horiz-adv-x="736" 
d="M656 530c17 -49 25 -109 25 -180s-8 -131 -25 -180c-33 -99 -100 -147 -169 -168c-35 -11 -74 -16 -119 -16s-84 5 -119 16c-69 21 -136 69 -169 168c-17 49 -25 109 -25 180s8 131 25 180c33 99 100 147 169 168c35 11 74 16 119 16s84 -5 119 -16
c69 -21 136 -69 169 -168zM534 126c38 45 57 119 57 224s-19 179 -57 224c-37 45 -93 67 -166 67s-129 -22 -167 -67c-37 -45 -56 -119 -56 -224s19 -179 56 -224c38 -45 94 -67 167 -67s129 22 166 67zM316 914h104l105 -174h-65l-92 125l-92 -125h-65z" />
    <glyph glyph-name="Otilde" unicode="&#xd5;" horiz-adv-x="736" 
d="M656 530c17 -49 25 -109 25 -180s-8 -131 -25 -180c-33 -99 -100 -147 -169 -168c-35 -11 -74 -16 -119 -16s-84 5 -119 16c-69 21 -136 69 -169 168c-17 49 -25 109 -25 180s8 131 25 180c33 99 100 147 169 168c35 11 74 16 119 16s84 -5 119 -16
c69 -21 136 -69 169 -168zM534 126c38 45 57 119 57 224s-19 179 -57 224c-37 45 -93 67 -166 67s-129 -22 -167 -67c-37 -45 -56 -119 -56 -224s19 -179 56 -224c38 -45 94 -67 167 -67s129 22 166 67zM535 889l35 -51c-40 -49 -67 -67 -119 -67c-30 0 -63 10 -99 29
c-31 16 -54 24 -69 24c-35 0 -54 -14 -82 -54l-35 51c40 49 67 67 119 67c30 0 63 -10 99 -29c31 -16 54 -24 69 -24c36 0 54 13 82 54z" />
    <glyph glyph-name="Odieresis" unicode="&#xd6;" horiz-adv-x="736" 
d="M656 530c17 -49 25 -109 25 -180s-8 -131 -25 -180c-33 -99 -100 -147 -169 -168c-35 -11 -74 -16 -119 -16s-84 5 -119 16c-69 21 -136 69 -169 168c-17 49 -25 109 -25 180s8 131 25 180c33 99 100 147 169 168c35 11 74 16 119 16s84 -5 119 -16
c69 -21 136 -69 169 -168zM534 126c38 45 57 119 57 224s-19 179 -57 224c-37 45 -93 67 -166 67s-129 -22 -167 -67c-37 -45 -56 -119 -56 -224s19 -179 56 -224c38 -45 94 -67 167 -67s129 22 166 67zM275 891v-128h-78v128h78zM539 891v-128h-78v128h78z" />
    <glyph glyph-name="multiply" unicode="&#xd7;" horiz-adv-x="578" 
d="M112 465l46 46l131 -130l131 130l46 -46l-130 -131l130 -131l-46 -46l-131 130l-131 -130l-46 46l130 131z" />
    <glyph glyph-name="Oslash" unicode="&#xd8;" horiz-adv-x="736" 
d="M591 350c0 109 -22 187 -65 234l-256 -509c28 -11 61 -16 98 -16c147 0 223 82 223 291zM145 350c0 -109 22 -187 65 -234l255 508c-29 11 -61 17 -97 17c-147 0 -223 -82 -223 -291zM536 765h81l-53 -105c78 -57 117 -160 117 -310c0 -141 -35 -241 -96 -293
s-128 -71 -217 -71c-49 0 -94 7 -133 20l-35 -71h-81l53 105c-78 57 -117 160 -117 310c0 141 35 241 96 293s128 71 217 71c49 0 93 -7 132 -20z" />
    <glyph glyph-name="Ugrave" unicode="&#xd9;" horiz-adv-x="726" 
d="M559 248v452h87v-454c0 -187 -91 -260 -283 -260s-283 73 -283 260v454h87v-452c0 -72 15 -122 45 -149c31 -27 81 -40 151 -40s120 13 150 40c31 27 46 77 46 149zM363 740l-121 174h89l99 -174h-67z" />
    <glyph glyph-name="Uacute" unicode="&#xda;" horiz-adv-x="726" 
d="M559 248v452h87v-454c0 -187 -91 -260 -283 -260s-283 73 -283 260v454h87v-452c0 -72 15 -122 45 -149c31 -27 81 -40 151 -40s120 13 150 40c31 27 46 77 46 149zM309 740l99 174h89l-121 -174h-67z" />
    <glyph glyph-name="Ucircumflex" unicode="&#xdb;" horiz-adv-x="726" 
d="M559 248v452h87v-454c0 -187 -91 -260 -283 -260s-283 73 -283 260v454h87v-452c0 -72 15 -122 45 -149c31 -27 81 -40 151 -40s120 13 150 40c31 27 46 77 46 149zM311 914h104l105 -174h-65l-92 125l-92 -125h-65z" />
    <glyph glyph-name="Udieresis" unicode="&#xdc;" horiz-adv-x="726" 
d="M559 248v452h87v-454c0 -187 -91 -260 -283 -260s-283 73 -283 260v454h87v-452c0 -72 15 -122 45 -149c31 -27 81 -40 151 -40s120 13 150 40c31 27 46 77 46 149zM270 891v-128h-78v128h78zM534 891v-128h-78v128h78z" />
    <glyph glyph-name="Yacute" unicode="&#xdd;" horiz-adv-x="651" 
d="M325 351h1l220 349h104l-281 -436v-264h-87v264l-281 436h104zM268 740l99 174h89l-121 -174h-67z" />
    <glyph glyph-name="Thorn" unicode="&#xde;" horiz-adv-x="615" 
d="M175 493v-273c55 -9 99 -14 133 -14c118 0 177 50 177 151s-59 151 -177 151c-36 0 -80 -5 -133 -15zM88 700h87v-133c59 9 104 14 135 14c177 0 265 -75 265 -224s-88 -224 -265 -224c-37 0 -82 5 -135 14v-147h-87v700z" />
    <glyph glyph-name="germandbls" unicode="&#xdf;" horiz-adv-x="631" 
d="M338 355h-80v64h66c93 0 140 45 140 136c0 84 -44 135 -139 135c-81 0 -139 -46 -139 -159v-531h-78v355h-69v64h69v113c0 144 74 222 217 222c173 0 217 -100 217 -196c0 -73 -27 -127 -80 -161c79 -31 119 -97 119 -197c0 -143 -79 -214 -237 -214c-31 0 -59 2 -86 5
v65c29 -4 56 -6 80 -6c115 0 163 53 163 152c0 97 -46 153 -163 153z" />
    <glyph glyph-name="agrave" unicode="&#xe0;" horiz-adv-x="522" 
d="M44 138c0 96 58 161 202 161c29 0 69 -3 121 -10v43c0 75 -22 116 -113 116c-39 0 -92 -11 -159 -33l-13 71c80 17 138 26 174 26c71 0 121 -16 148 -49c27 -32 41 -75 41 -129v-334h-76v28c-55 -28 -108 -42 -158 -42c-116 0 -167 60 -167 152zM252 235
c-97 0 -128 -36 -128 -97c0 -59 33 -88 99 -88c43 0 91 13 144 39v137c-50 6 -88 9 -115 9zM269 588l-121 174h83l99 -174h-61z" />
    <glyph glyph-name="aacute" unicode="&#xe1;" horiz-adv-x="522" 
d="M44 138c0 96 58 161 202 161c29 0 69 -3 121 -10v43c0 75 -22 116 -113 116c-39 0 -92 -11 -159 -33l-13 71c80 17 138 26 174 26c71 0 121 -16 148 -49c27 -32 41 -75 41 -129v-334h-76v28c-55 -28 -108 -42 -158 -42c-116 0 -167 60 -167 152zM252 235
c-97 0 -128 -36 -128 -97c0 -59 33 -88 99 -88c43 0 91 13 144 39v137c-50 6 -88 9 -115 9zM196 588l99 174h83l-121 -174h-61z" />
    <glyph glyph-name="acircumflex" unicode="&#xe2;" horiz-adv-x="522" 
d="M44 138c0 96 58 161 202 161c29 0 69 -3 121 -10v43c0 75 -22 116 -113 116c-39 0 -92 -11 -159 -33l-13 71c80 17 138 26 174 26c71 0 121 -16 148 -49c27 -32 41 -75 41 -129v-334h-76v28c-55 -28 -108 -42 -158 -42c-116 0 -167 60 -167 152zM252 235
c-97 0 -128 -36 -128 -97c0 -59 33 -88 99 -88c43 0 91 13 144 39v137c-50 6 -88 9 -115 9zM210 762h98l99 -174h-61l-87 125l-87 -125h-61z" />
    <glyph glyph-name="atilde" unicode="&#xe3;" horiz-adv-x="522" 
d="M44 138c0 96 58 161 202 161c29 0 69 -3 121 -10v43c0 75 -22 116 -113 116c-39 0 -92 -11 -159 -33l-13 71c80 17 138 26 174 26c71 0 121 -16 148 -49c27 -32 41 -75 41 -129v-334h-76v28c-55 -28 -108 -42 -158 -42c-116 0 -167 60 -167 152zM252 235
c-97 0 -128 -36 -128 -97c0 -59 33 -88 99 -88c43 0 91 13 144 39v137c-50 6 -88 9 -115 9zM399 732l32 -48c-36 -45 -62 -62 -110 -62c-28 0 -59 9 -92 27c-28 15 -49 22 -64 22c-32 0 -51 -13 -76 -50l-32 48c36 45 62 62 110 62c28 0 59 -9 92 -27c28 -15 49 -22 64 -22
c32 0 51 13 76 50z" />
    <glyph glyph-name="adieresis" unicode="&#xe4;" horiz-adv-x="522" 
d="M44 138c0 96 58 161 202 161c29 0 69 -3 121 -10v43c0 75 -22 116 -113 116c-39 0 -92 -11 -159 -33l-13 71c80 17 138 26 174 26c71 0 121 -16 148 -49c27 -32 41 -75 41 -129v-334h-76v28c-55 -28 -108 -42 -158 -42c-116 0 -167 60 -167 152zM252 235
c-97 0 -128 -36 -128 -97c0 -59 33 -88 99 -88c43 0 91 13 144 39v137c-50 6 -88 9 -115 9zM159 740v-128h-78v128h78zM407 740v-128h-78v128h78z" />
    <glyph glyph-name="aring" unicode="&#xe5;" horiz-adv-x="522" 
d="M44 138c0 96 58 161 202 161c29 0 69 -3 121 -10v43c0 75 -22 116 -113 116c-39 0 -92 -11 -159 -33l-13 71c80 17 138 26 174 26c71 0 121 -16 148 -49c27 -32 41 -75 41 -129v-334h-76v28c-55 -28 -108 -42 -158 -42c-116 0 -167 60 -167 152zM252 235
c-97 0 -128 -36 -128 -97c0 -59 33 -88 99 -88c43 0 91 13 144 39v137c-50 6 -88 9 -115 9zM246 786c75 0 113 -37 113 -112s-38 -112 -113 -112s-113 37 -113 112s38 112 113 112zM199 726c-10 -11 -15 -28 -15 -52s5 -41 15 -52s26 -16 47 -16s37 5 47 16s15 28 15 52
s-5 41 -15 52s-26 16 -47 16s-37 -5 -47 -16z" />
    <glyph glyph-name="ae" unicode="&#xe6;" horiz-adv-x="875" 
d="M252 235c-97 0 -128 -36 -128 -97c0 -59 33 -88 99 -88c43 0 91 13 144 39v137c-50 6 -88 9 -115 9zM601 448c-92 0 -143 -51 -154 -153h299c-7 100 -44 153 -145 153zM619 50c58 0 119 9 184 28l15 -64c-70 -19 -138 -28 -203 -28c-79 0 -138 18 -178 54v-40h-68v28
c-55 -28 -108 -42 -158 -42c-116 0 -167 60 -167 152c0 96 58 161 202 161c29 0 69 -3 121 -10v43c0 75 -22 116 -113 116c-39 0 -92 -11 -159 -33l-13 71c80 17 138 26 174 26c81 0 136 -24 164 -71c41 47 102 71 181 71c83 0 141 -23 174 -69c33 -45 50 -110 50 -194v-17
h-380c7 -128 53 -182 174 -182z" />
    <glyph glyph-name="ccedilla" unicode="&#xe7;" horiz-adv-x="497" 
d="M320 -88c-21 0 -42 -1 -64 -3l10 78c-147 9 -216 91 -216 262c0 181 79 263 244 263c37 0 88 -7 153 -21l-13 -71c-53 19 -99 28 -137 28c-117 0 -167 -59 -167 -199s50 -199 167 -199c38 0 84 9 137 28l13 -71c-49 -10 -90 -17 -125 -20l-3 -27h10c73 0 112 -37 112 -98
c0 -67 -44 -98 -112 -98c-26 0 -56 3 -89 10l7 52c26 -9 50 -14 73 -14c78 -8 78 108 0 100z" />
    <glyph glyph-name="egrave" unicode="&#xe8;" horiz-adv-x="560" 
d="M304 50c58 0 119 9 184 28l15 -64c-70 -19 -138 -28 -203 -28c-172 0 -250 87 -250 263s84 263 236 263c83 0 141 -23 174 -69c33 -45 50 -110 50 -194v-17h-380c7 -128 53 -182 174 -182zM286 448c-92 0 -143 -51 -154 -153h299c-7 100 -44 153 -145 153zM283 588
l-121 174h83l99 -174h-61z" />
    <glyph glyph-name="eacute" unicode="&#xe9;" horiz-adv-x="560" 
d="M304 50c58 0 119 9 184 28l15 -64c-70 -19 -138 -28 -203 -28c-172 0 -250 87 -250 263s84 263 236 263c83 0 141 -23 174 -69c33 -45 50 -110 50 -194v-17h-380c7 -128 53 -182 174 -182zM286 448c-92 0 -143 -51 -154 -153h299c-7 100 -44 153 -145 153zM235 588
l99 174h83l-121 -174h-61z" />
    <glyph glyph-name="ecircumflex" unicode="&#xea;" horiz-adv-x="560" 
d="M304 50c58 0 119 9 184 28l15 -64c-70 -19 -138 -28 -203 -28c-172 0 -250 87 -250 263s84 263 236 263c83 0 141 -23 174 -69c33 -45 50 -110 50 -194v-17h-380c7 -128 53 -182 174 -182zM286 448c-92 0 -143 -51 -154 -153h299c-7 100 -44 153 -145 153zM238 762h98
l99 -174h-61l-87 125l-87 -125h-61z" />
    <glyph glyph-name="edieresis" unicode="&#xeb;" horiz-adv-x="560" 
d="M304 50c58 0 119 9 184 28l15 -64c-70 -19 -138 -28 -203 -28c-172 0 -250 87 -250 263s84 263 236 263c83 0 141 -23 174 -69c33 -45 50 -110 50 -194v-17h-380c7 -128 53 -182 174 -182zM286 448c-92 0 -143 -51 -154 -153h299c-7 100 -44 153 -145 153zM194 740v-128
h-78v128h78zM442 740v-128h-78v128h78z" />
    <glyph glyph-name="igrave" unicode="&#xec;" horiz-adv-x="232" 
d="M123 588l-121 174h83l99 -174h-61zM155 498v-498h-78v498h78z" />
    <glyph glyph-name="iacute" unicode="&#xed;" horiz-adv-x="232" 
d="M155 498v-498h-78v498h78zM53 588l99 174h83l-121 -174h-61z" />
    <glyph glyph-name="icircumflex" unicode="&#xee;" horiz-adv-x="232" 
d="M67 762h98l99 -174h-61l-87 125l-87 -125h-61zM155 498v-498h-78v498h78z" />
    <glyph glyph-name="idieresis" unicode="&#xef;" horiz-adv-x="232" 
d="M155 498v-498h-78v498h78zM85 740v-128h-72v128h72zM219 740v-128h-72v128h72z" />
    <glyph glyph-name="eth" unicode="&#xf0;" horiz-adv-x="604" 
d="M449 465c-13 53 -33 104 -60 153l-73 -47l-31 44l76 50c-21 30 -38 53 -53 70l68 43c17 -21 34 -44 51 -70l88 58l31 -45l-90 -59c62 -111 93 -238 93 -382c0 -191 -84 -294 -255 -294c-163 0 -244 87 -244 260c0 169 66 260 230 260c49 0 105 -14 169 -41zM130 246
c0 -131 51 -196 164 -196c116 0 174 75 174 225c0 46 -3 87 -8 122c-59 30 -117 45 -174 45c-119 0 -156 -64 -156 -196z" />
    <glyph glyph-name="ntilde" unicode="&#xf1;" horiz-adv-x="575" 
d="M498 339v-339h-78v336c0 76 -27 112 -108 112c-36 0 -88 -15 -157 -44v-404h-78v498h76v-32c76 31 135 46 177 46c113 0 168 -64 168 -173zM443 732l32 -48c-36 -45 -62 -62 -110 -62c-28 0 -59 9 -92 27c-28 15 -49 22 -64 22c-32 0 -51 -13 -76 -50l-32 48
c36 45 62 62 110 62c28 0 59 -9 92 -27c28 -15 49 -22 64 -22c32 0 51 13 76 50z" />
    <glyph glyph-name="ograve" unicode="&#xf2;" horiz-adv-x="588" 
d="M169 398c-26 -33 -39 -83 -39 -149s13 -116 39 -149s68 -50 125 -50s99 17 125 50s39 83 39 149s-13 116 -39 149s-68 50 -125 50s-99 -17 -125 -50zM294 512c163 0 244 -88 244 -263s-81 -263 -244 -263s-244 88 -244 263s81 263 244 263zM305 588l-121 174h83l99 -174
h-61z" />
    <glyph glyph-name="oacute" unicode="&#xf3;" horiz-adv-x="588" 
d="M169 398c-26 -33 -39 -83 -39 -149s13 -116 39 -149s68 -50 125 -50s99 17 125 50s39 83 39 149s-13 116 -39 149s-68 50 -125 50s-99 -17 -125 -50zM294 512c163 0 244 -88 244 -263s-81 -263 -244 -263s-244 88 -244 263s81 263 244 263zM251 588l99 174h83l-121 -174
h-61z" />
    <glyph glyph-name="ocircumflex" unicode="&#xf4;" horiz-adv-x="588" 
d="M169 398c-26 -33 -39 -83 -39 -149s13 -116 39 -149s68 -50 125 -50s99 17 125 50s39 83 39 149s-13 116 -39 149s-68 50 -125 50s-99 -17 -125 -50zM294 512c163 0 244 -88 244 -263s-81 -263 -244 -263s-244 88 -244 263s81 263 244 263zM245 762h98l99 -174h-61
l-87 125l-87 -125h-61z" />
    <glyph glyph-name="otilde" unicode="&#xf5;" horiz-adv-x="588" 
d="M449 732l32 -48c-36 -45 -62 -62 -110 -62c-28 0 -59 9 -92 27c-28 15 -49 22 -64 22c-32 0 -51 -13 -76 -50l-32 48c36 45 62 62 110 62c28 0 59 -9 92 -27c28 -15 49 -22 64 -22c32 0 51 13 76 50zM169 398c-26 -33 -39 -83 -39 -149s13 -116 39 -149s68 -50 125 -50
s99 17 125 50s39 83 39 149s-13 116 -39 149s-68 50 -125 50s-99 -17 -125 -50zM294 512c163 0 244 -88 244 -263s-81 -263 -244 -263s-244 88 -244 263s81 263 244 263z" />
    <glyph glyph-name="odieresis" unicode="&#xf6;" horiz-adv-x="588" 
d="M169 398c-26 -33 -39 -83 -39 -149s13 -116 39 -149s68 -50 125 -50s99 17 125 50s39 83 39 149s-13 116 -39 149s-68 50 -125 50s-99 -17 -125 -50zM294 512c163 0 244 -88 244 -263s-81 -263 -244 -263s-244 88 -244 263s81 263 244 263zM209 740v-128h-78v128h78z
M457 740v-128h-78v128h78z" />
    <glyph glyph-name="divide" unicode="&#xf7;" horiz-adv-x="578" 
d="M331 574v-107h-84v107h84zM331 201v-107h-84v107h84zM71 302v64h436v-64h-436z" />
    <glyph glyph-name="oslash" unicode="&#xf8;" horiz-adv-x="588" 
d="M458 249c0 79 -18 134 -55 166l-163 -359c16 -4 34 -6 54 -6c115 0 164 67 164 199zM130 249c0 -79 18 -135 55 -166l162 359c-16 4 -34 6 -53 6c-115 0 -164 -67 -164 -199zM402 563h68l-37 -82c70 -39 105 -117 105 -232c0 -175 -81 -263 -244 -263c-31 0 -58 3 -82 9
l-27 -60h-67l37 82c-70 39 -105 117 -105 232c0 175 81 263 244 263c29 0 56 -3 81 -9z" />
    <glyph glyph-name="ugrave" unicode="&#xf9;" horiz-adv-x="575" 
d="M77 159v339h78v-336c0 -76 27 -112 108 -112c36 0 88 15 157 44v404h78v-498h-76v32c-76 -31 -135 -46 -177 -46c-113 0 -168 64 -168 173zM293 588l-121 174h83l99 -174h-61z" />
    <glyph glyph-name="uacute" unicode="&#xfa;" horiz-adv-x="575" 
d="M77 159v339h78v-336c0 -76 27 -112 108 -112c36 0 88 15 157 44v404h78v-498h-76v32c-76 -31 -135 -46 -177 -46c-113 0 -168 64 -168 173zM219 588l99 174h83l-121 -174h-61z" />
    <glyph glyph-name="ucircumflex" unicode="&#xfb;" horiz-adv-x="575" 
d="M77 159v339h78v-336c0 -76 27 -112 108 -112c36 0 88 15 157 44v404h78v-498h-76v32c-76 -31 -135 -46 -177 -46c-113 0 -168 64 -168 173zM239 762h98l99 -174h-61l-87 125l-87 -125h-61z" />
    <glyph glyph-name="udieresis" unicode="&#xfc;" horiz-adv-x="575" 
d="M77 159v339h78v-336c0 -76 27 -112 108 -112c36 0 88 15 157 44v404h78v-498h-76v32c-76 -31 -135 -46 -177 -46c-113 0 -168 64 -168 173zM203 740v-128h-78v128h78zM451 740v-128h-78v128h78z" />
    <glyph glyph-name="yacute" unicode="&#xfd;" horiz-adv-x="528" 
d="M104 -150c30 0 55 8 74 23c20 15 40 50 59 103l10 27h-49l-187 495h87l169 -460l163 460h87l-207 -545c-45 -121 -100 -167 -199 -167c-19 0 -37 1 -52 4l6 64c13 -3 26 -4 39 -4zM219 588l99 174h83l-121 -174h-61z" />
    <glyph glyph-name="thorn" unicode="&#xfe;" horiz-adv-x="580" 
d="M155 404v-310c66 -29 117 -44 153 -44c99 0 142 51 142 199s-43 199 -142 199c-36 0 -87 -15 -153 -44zM323 512c136 0 207 -75 207 -263s-71 -263 -207 -263c-47 0 -103 15 -168 45v-231h-78v940h78v-273c67 30 123 45 168 45z" />
    <glyph glyph-name="ydieresis" unicode="&#xff;" horiz-adv-x="528" 
d="M104 -150c30 0 55 8 74 23c20 15 40 50 59 103l10 27h-49l-187 495h87l169 -460l163 460h87l-207 -545c-45 -121 -100 -167 -199 -167c-19 0 -37 1 -52 4l6 64c13 -3 26 -4 39 -4zM179 740v-128h-78v128h78zM427 740v-128h-78v128h78z" />
    <glyph glyph-name="dotlessi" unicode="&#x131;" horiz-adv-x="232" 
d="M155 498v-498h-78v498h78z" />
    <glyph glyph-name="Lslash" unicode="&#x141;" horiz-adv-x="539" 
d="M187 73h330v-73h-417v349l-79 -24v73l79 24v278h87v-251l160 49v-73l-160 -49v-303z" />
    <glyph glyph-name="lslash" unicode="&#x142;" horiz-adv-x="284" 
d="M253 444l-72 -22v-422h-78v398l-72 -22v68l72 22v274h78v-250l72 22v-68z" />
    <glyph glyph-name="OE" unicode="&#x152;" horiz-adv-x="1073" 
d="M652 73h366v-73h-453v40c-49 -36 -115 -54 -197 -54c-89 0 -156 19 -217 71s-96 152 -96 293s35 241 96 293s128 71 217 71c82 0 148 -18 197 -55v41h442v-73h-355v-236h310v-73h-310v-245zM565 150v400c-47 61 -113 91 -197 91c-147 0 -223 -82 -223 -291
s76 -291 223 -291c84 0 150 30 197 91z" />
    <glyph glyph-name="oe" unicode="&#x153;" horiz-adv-x="968" 
d="M169 398c-26 -33 -39 -83 -39 -149s13 -116 39 -149s68 -50 125 -50s99 17 125 50s39 83 39 149s-13 116 -39 149s-68 50 -125 50s-99 -17 -125 -50zM694 448c-92 0 -143 -51 -154 -153h299c-7 100 -44 153 -145 153zM712 50c58 0 119 9 184 28l15 -64
c-70 -19 -138 -28 -203 -28c-101 0 -171 31 -210 92c-39 -61 -107 -92 -204 -92c-163 0 -244 88 -244 263s81 263 244 263c96 0 164 -31 204 -94c39 63 104 94 196 94c83 0 141 -23 174 -69c33 -45 50 -110 50 -194v-17h-380c7 -128 53 -182 174 -182z" />
    <glyph glyph-name="Scaron" unicode="&#x160;" horiz-adv-x="601" 
d="M297 59c106 0 159 42 159 125c0 32 -3 52 -22 77c-17 25 -57 44 -117 52l-35 5c-151 21 -216 81 -216 202c0 129 82 194 234 194c55 0 127 -10 218 -29l-12 -83c-83 26 -152 39 -205 39c-97 0 -145 -40 -145 -121c0 -77 39 -110 139 -125l35 -5c81 -11 138 -35 169 -71
c31 -35 47 -80 47 -134c0 -133 -83 -199 -249 -199c-67 0 -150 12 -247 35l14 87c41 -16 83 -28 127 -37c44 -8 79 -12 106 -12zM393 914h65l-105 -174h-104l-105 174h65l92 -125z" />
    <glyph glyph-name="scaron" unicode="&#x161;" horiz-adv-x="485" 
d="M240 -14c-58 0 -121 9 -190 27l15 77c64 -27 123 -40 178 -40c71 0 107 30 107 78c0 45 -19 76 -98 87l-28 4c-109 16 -156 65 -156 152c0 83 61 141 170 141c41 0 97 -8 168 -23l-14 -74c-61 22 -114 33 -157 33c-64 0 -88 -36 -88 -75c0 -49 26 -76 98 -87l28 -4
c119 -17 157 -71 157 -152c0 -87 -57 -144 -190 -144zM341 762h61l-99 -174h-98l-99 174h61l87 -125z" />
    <glyph glyph-name="Ydieresis" unicode="&#x178;" horiz-adv-x="651" 
d="M325 351h1l220 349h104l-281 -436v-264h-87v264l-281 436h104zM233 891v-128h-78v128h78zM497 891v-128h-78v128h78z" />
    <glyph glyph-name="Zcaron" unicode="&#x17d;" horiz-adv-x="608" 
d="M154 73h404v-73h-508v73l391 554h-378v73h482v-73zM396 914h65l-105 -174h-104l-105 174h65l92 -125z" />
    <glyph glyph-name="zcaron" unicode="&#x17e;" horiz-adv-x="488" 
d="M142 64h302v-64h-400v64l293 370h-284v64h382v-64zM331 762h61l-99 -174h-98l-99 174h61l87 -125z" />
    <glyph glyph-name="florin" unicode="&#x192;" horiz-adv-x="502" 
d="M405 391v-68h-178l-65 -383h-84l65 383h-102v68h114l9 54c25 153 102 229 232 229c19 0 45 -1 78 -4l-10 -75c-27 7 -50 11 -68 11c-50 0 -85 -13 -105 -40c-20 -26 -35 -68 -44 -126l-8 -49h166z" />
    <glyph glyph-name="circumflex" unicode="&#x2c6;" horiz-adv-x="500" 
d="M201 762h98l99 -174h-61l-87 125l-87 -125h-61z" />
    <glyph glyph-name="caron" unicode="&#x2c7;" horiz-adv-x="500" 
d="M337 762h61l-99 -174h-98l-99 174h61l87 -125z" />
    <glyph glyph-name="breve" unicode="&#x2d8;" horiz-adv-x="500" 
d="M83 701l52 36c24 -40 62 -60 115 -60s91 20 115 60l52 -36c-36 -57 -92 -86 -167 -86s-131 29 -167 86z" />
    <glyph glyph-name="dotaccent" unicode="&#x2d9;" horiz-adv-x="500" 
d="M292 740v-128h-84v128h84z" />
    <glyph glyph-name="ring" unicode="&#x2da;" horiz-adv-x="500" 
d="M250 786c75 0 113 -37 113 -112s-38 -112 -113 -112s-113 37 -113 112s38 112 113 112zM203 726c-10 -11 -15 -28 -15 -52s5 -41 15 -52s26 -16 47 -16s37 5 47 16s15 28 15 52s-5 41 -15 52s-26 16 -47 16s-37 -5 -47 -16z" />
    <glyph glyph-name="ogonek" unicode="&#x2db;" horiz-adv-x="500" 
d="M150 -138c0 29 13 58 38 89l49 59h64l-65 -86c-16 -21 -24 -42 -24 -61c0 -33 22 -51 57 -51c25 0 50 5 75 14l7 -52c-34 -7 -64 -10 -89 -10c-72 0 -112 35 -112 98z" />
    <glyph glyph-name="tilde" unicode="&#x2dc;" horiz-adv-x="500" 
d="M405 732l32 -48c-36 -45 -62 -62 -110 -62c-28 0 -59 9 -92 27c-28 15 -49 22 -64 22c-32 0 -51 -13 -76 -50l-32 48c36 45 62 62 110 62c28 0 59 -9 92 -27c28 -15 49 -22 64 -22c32 0 51 13 76 50z" />
    <glyph glyph-name="hungarumlaut" unicode="&#x2dd;" horiz-adv-x="500" 
d="M74 588l99 174h83l-121 -174h-61zM244 588l99 174h83l-121 -174h-61z" />
    <glyph glyph-name="acutecomb" unicode="&#x301;" horiz-adv-x="0" 
d="M-361 588l99 174h83l-121 -174h-61z" />
    <glyph glyph-name="uni0394" unicode="&#x394;" horiz-adv-x="690" 
d="M345 615l-210 -542h420zM651 0h-612v73l249 627h114l249 -627v-73z" />
    <glyph glyph-name="uni0394" unicode="&#x2206;" horiz-adv-x="690" 
d="M345 615l-210 -542h420zM651 0h-612v73l249 627h114l249 -627v-73z" />
    <glyph glyph-name="uni03A9" unicode="&#x3a9;" horiz-adv-x="752" 
d="M156 416c0 -55 10 -108 31 -159s59 -112 116 -184v-73h-217v73h126c-97 112 -146 229 -146 350c0 188 118 291 310 291s310 -103 310 -291c0 -121 -49 -238 -146 -350h126v-73h-217v73c57 72 95 133 116 184s31 104 31 159c0 144 -73 225 -220 225s-220 -81 -220 -225z
" />
    <glyph glyph-name="uni03A9" unicode="&#x2126;" horiz-adv-x="752" 
d="M156 416c0 -55 10 -108 31 -159s59 -112 116 -184v-73h-217v73h126c-97 112 -146 229 -146 350c0 188 118 291 310 291s310 -103 310 -291c0 -121 -49 -238 -146 -350h126v-73h-217v73c57 72 95 133 116 184s31 104 31 159c0 144 -73 225 -220 225s-220 -81 -220 -225z
" />
    <glyph glyph-name="pi" unicode="&#x3c0;" horiz-adv-x="605" 
d="M564 434h-56v-434h-78v434h-255v-434h-78v434h-56v64h523v-64z" />
    <glyph glyph-name="afii10023" unicode="&#x401;" 
d="M175 73h366v-73h-453v700h442v-73h-355v-236h310v-73h-310v-245zM216 891v-128h-78v128h78zM480 891v-128h-78v128h78z" />
    <glyph glyph-name="afii10051" unicode="&#x402;" horiz-adv-x="811" 
d="M599 627h-271v-235c63 11 111 17 146 17c195 0 282 -90 282 -282c0 -152 -64 -260 -203 -287l-8 73c99 27 122 103 121 213c0 73 -13 127 -40 160s-80 50 -160 50c-36 0 -82 -5 -138 -15v-321h-87v627h-219v73h577v-73z" />
    <glyph glyph-name="afii10052" unicode="&#x403;" horiz-adv-x="534" 
d="M512 700v-73h-337v-627h-87v700h424zM235 740l99 174h89l-121 -174h-67z" />
    <glyph glyph-name="afii10053" unicode="&#x404;" horiz-adv-x="624" 
d="M368 -14c-201 0 -313 108 -313 364s112 364 313 364c49 0 116 -8 201 -23l-13 -83c-78 22 -140 33 -186 33c-149 0 -216 -82 -224 -254h326v-73h-326c7 -173 75 -255 224 -255c46 0 108 11 186 33l13 -80c-80 -17 -147 -26 -201 -26z" />
    <glyph glyph-name="afii10054" unicode="&#x405;" horiz-adv-x="601" 
d="M297 59c106 0 159 42 159 125c0 32 -3 52 -22 77c-17 25 -57 44 -117 52l-35 5c-151 21 -216 81 -216 202c0 129 82 194 234 194c55 0 127 -10 218 -29l-12 -83c-83 26 -152 39 -205 39c-97 0 -145 -40 -145 -121c0 -77 39 -110 139 -125l35 -5c81 -11 138 -35 169 -71
c31 -35 47 -80 47 -134c0 -133 -83 -199 -249 -199c-67 0 -150 12 -247 35l14 87c41 -16 83 -28 127 -37c44 -8 79 -12 106 -12z" />
    <glyph glyph-name="afii10055" unicode="&#x406;" horiz-adv-x="263" 
d="M175 0h-87v700h87v-700z" />
    <glyph glyph-name="afii10056" unicode="&#x407;" horiz-adv-x="263" 
d="M84 891v-128h-76v128h76zM255 891v-128h-76v128h76zM175 0h-87v700h87v-700z" />
    <glyph glyph-name="afii10057" unicode="&#x408;" horiz-adv-x="466" 
d="M136 -14c-41 0 -79 3 -114 8l12 78c35 -9 69 -14 101 -14c61 0 103 14 127 41c25 27 37 79 37 156v445h87v-448c0 -91 -19 -158 -56 -201s-101 -65 -194 -65z" />
    <glyph glyph-name="afii10058" unicode="&#x409;" horiz-adv-x="1061" 
d="M613 338v-263c47 -11 90 -16 129 -16c126 0 189 49 189 147s-63 147 -189 147c-37 0 -80 -5 -129 -15zM526 17v610h-295v-95c0 -177 -13 -306 -38 -386s-69 -135 -130 -164l-46 64c45 24 70 49 95 117c27 69 38 189 38 370v167h463v-286c53 8 97 12 132 12
c184 0 276 -73 276 -220s-92 -220 -276 -220c-71 0 -144 10 -219 31z" />
    <glyph glyph-name="afii10059" unicode="&#x40a;" horiz-adv-x="1070" 
d="M622 338v-263c47 -11 90 -16 129 -16c126 0 189 49 189 147s-63 147 -189 147c-38 0 -81 -5 -129 -15zM535 17v301h-360v-318h-87v700h87v-309h360v309h87v-286c53 8 97 12 132 12c184 0 276 -73 276 -220s-92 -220 -276 -220c-71 0 -144 10 -219 31z" />
    <glyph glyph-name="afii10060" unicode="&#x40b;" horiz-adv-x="801" 
d="M599 627h-271v-234c59 11 108 16 146 16c181 0 272 -72 272 -247v-162h-87v159c0 64 -14 109 -42 136s-78 41 -151 41c-36 0 -82 -5 -138 -15v-321h-87v627h-219v73h577v-73z" />
    <glyph glyph-name="afii10061" unicode="&#x40c;" horiz-adv-x="657" 
d="M537 -10l-327 365l285 345h108l-287 -339l319 -349zM88 700h87v-700h-87v700zM263 740l99 174h89l-121 -174h-67z" />
    <glyph glyph-name="afii10062" unicode="&#x40e;" horiz-adv-x="629" 
d="M534 700h94l-244 -536c-32 -71 -63 -118 -92 -142s-67 -36 -112 -36c-24 0 -45 2 -63 5l4 75c14 -3 28 -5 43 -5c30 0 54 8 73 25s40 51 63 100h-57l-242 514h99l222 -479zM135 847l56 39c26 -43 67 -65 124 -65s98 22 124 65l56 -39c-39 -62 -99 -93 -180 -93
s-141 31 -180 93z" />
    <glyph glyph-name="afii10145" unicode="&#x40f;" horiz-adv-x="710" 
d="M395 0l5 -150h-88l3 150h-227v700h87v-627h360v627h87v-700h-227z" />
    <glyph glyph-name="afii10017" unicode="&#x410;" horiz-adv-x="676" 
d="M665 0h-94l-90 232h-286l-90 -232h-94l274 700h106zM338 607l-116 -304h232z" />
    <glyph glyph-name="afii10018" unicode="&#x411;" horiz-adv-x="671" 
d="M175 327v-253c59 -10 111 -15 156 -15c143 0 195 53 195 142s-52 142 -195 142c-47 0 -99 -5 -156 -16zM533 627h-358v-225c62 9 115 14 158 14c189 0 283 -72 283 -215s-94 -215 -283 -215c-75 0 -157 10 -245 30v684h445v-73z" />
    <glyph glyph-name="afii10019" unicode="&#x412;" horiz-adv-x="671" 
d="M616 191c0 -56 -13 -99 -50 -140s-115 -65 -224 -65c-81 0 -165 10 -254 30v668c89 20 166 30 233 30c96 0 162 -16 199 -48s55 -78 55 -137c0 -77 -29 -128 -88 -155c92 -29 129 -91 129 -183zM175 626v-227h144c125 0 170 42 170 121c0 76 -43 121 -170 121
c-38 0 -86 -5 -144 -15zM526 193c0 42 -14 75 -41 98c-27 24 -75 36 -146 36h-164v-253c59 -10 114 -15 164 -15c139 0 187 49 187 134z" />
    <glyph glyph-name="afii10020" unicode="&#x413;" horiz-adv-x="534" 
d="M512 700v-73h-337v-627h-87v700h424z" />
    <glyph glyph-name="afii10021" unicode="&#x414;" horiz-adv-x="731" 
d="M22 -130v203h49c57 69 103 225 103 474v153h447v-627h77v-203h-76l-9 130h-506l-9 -130h-76zM534 627h-280v-82c0 -215 -30 -372 -89 -472h369v554z" />
    <glyph glyph-name="afii10022" unicode="&#x415;" 
d="M175 73h366v-73h-453v700h442v-73h-355v-236h310v-73h-310v-245z" />
    <glyph glyph-name="afii10024" unicode="&#x416;" horiz-adv-x="961" 
d="M524 0h-87v700h87v-700zM846 -10l-287 365l239 345h102l-240 -339l279 -346zM61 700h102l239 -345l-287 -365l-93 25l279 346z" />
    <glyph glyph-name="afii10025" unicode="&#x417;" 
d="M509 526c0 -77 -30 -129 -89 -157c85 -31 121 -88 121 -180c0 -115 -51 -203 -276 -203c-70 0 -145 9 -226 26l12 81c75 -23 146 -34 214 -34c129 0 186 44 186 133c0 39 -13 71 -40 96c-26 25 -75 37 -148 37c-40 0 -77 -1 -111 -3v78c34 -1 70 -2 107 -2
c121 0 163 41 163 121c0 36 -11 65 -34 88s-66 34 -129 34c-51 0 -112 -10 -183 -29l-13 81c79 14 145 21 197 21c181 0 249 -67 249 -188z" />
    <glyph glyph-name="afii10026" unicode="&#x418;" horiz-adv-x="714" 
d="M626 700v-700h-87v570l-361 -570h-90v700h87v-570l361 570h90z" />
    <glyph glyph-name="afii10027" unicode="&#x419;" horiz-adv-x="714" 
d="M626 700v-700h-87v570l-361 -570h-90v700h87v-570l361 570h90zM177 847l56 39c26 -43 67 -65 124 -65s98 22 124 65l56 -39c-39 -62 -99 -93 -180 -93s-141 31 -180 93z" />
    <glyph glyph-name="afii10028" unicode="&#x41a;" horiz-adv-x="657" 
d="M537 -10l-327 365l285 345h108l-287 -339l319 -349zM88 700h87v-700h-87v700z" />
    <glyph glyph-name="afii10029" unicode="&#x41b;" horiz-adv-x="701" 
d="M613 700v-700h-87v627h-295v-95c0 -177 -13 -306 -38 -386s-69 -135 -130 -164l-46 64c45 24 70 49 95 117c27 69 38 189 38 370v167h463z" />
    <glyph glyph-name="afii10030" unicode="&#x41c;" horiz-adv-x="902" 
d="M451 129c17 46 29 80 38 101l187 470h108l48 -700h-86l-27 448c-2 35 -3 84 -3 145c-21 -61 -38 -109 -53 -146l-178 -447h-68l-178 447c-15 37 -32 85 -53 146c0 -62 -1 -110 -3 -145l-27 -448h-86l48 700h108l187 -470c9 -21 21 -55 38 -101z" />
    <glyph glyph-name="afii10031" unicode="&#x41d;" horiz-adv-x="710" 
d="M622 700v-700h-87v318h-360v-318h-87v700h87v-309h360v309h87z" />
    <glyph glyph-name="afii10032" unicode="&#x41e;" horiz-adv-x="736" 
d="M656 530c17 -49 25 -109 25 -180s-8 -131 -25 -180c-33 -99 -100 -147 -169 -168c-35 -11 -74 -16 -119 -16s-84 5 -119 16c-69 21 -136 69 -169 168c-17 49 -25 109 -25 180s8 131 25 180c33 99 100 147 169 168c35 11 74 16 119 16s84 -5 119 -16
c69 -21 136 -69 169 -168zM534 126c38 45 57 119 57 224s-19 179 -57 224c-37 45 -93 67 -166 67s-129 -22 -167 -67c-37 -45 -56 -119 -56 -224s19 -179 56 -224c38 -45 94 -67 167 -67s129 22 166 67z" />
    <glyph glyph-name="afii10033" unicode="&#x41f;" horiz-adv-x="710" 
d="M622 700v-700h-87v627h-360v-627h-87v700h534z" />
    <glyph glyph-name="afii10034" unicode="&#x420;" horiz-adv-x="615" 
d="M175 626v-273c55 -9 99 -14 133 -14c118 0 177 50 177 151s-59 151 -177 151c-36 0 -80 -5 -133 -15zM175 0h-87v683c91 21 165 31 222 31c177 0 265 -75 265 -224s-88 -224 -265 -224c-37 0 -82 5 -135 14v-280z" />
    <glyph glyph-name="afii10035" unicode="&#x421;" horiz-adv-x="624" 
d="M368 714c49 0 116 -8 201 -23l-13 -83c-78 22 -140 33 -186 33c-159 0 -225 -92 -225 -291s66 -291 225 -291c46 0 108 11 186 33l13 -80c-80 -17 -147 -26 -201 -26c-201 0 -313 108 -313 364s112 364 313 364z" />
    <glyph glyph-name="afii10036" unicode="&#x422;" horiz-adv-x="621" 
d="M599 700v-73h-245v-627h-87v627h-245v73h577z" />
    <glyph glyph-name="afii10037" unicode="&#x423;" horiz-adv-x="629" 
d="M534 700h94l-244 -536c-32 -71 -63 -118 -92 -142s-67 -36 -112 -36c-24 0 -45 2 -63 5l4 75c14 -3 28 -5 43 -5c30 0 54 8 73 25s40 51 63 100h-57l-242 514h99l222 -479z" />
    <glyph glyph-name="afii10038" unicode="&#x424;" horiz-adv-x="879" 
d="M398 101v498c-179 0 -253 -82 -253 -249s74 -249 253 -249zM483 28v-88h-87v88c-227 0 -341 107 -341 322s114 322 341 322v88h87v-88c227 0 341 -107 341 -322s-114 -322 -341 -322zM481 599v-498c179 0 253 82 253 249s-74 249 -253 249z" />
    <glyph glyph-name="afii10039" unicode="&#x425;" horiz-adv-x="680" 
d="M42 700h108l190 -286l190 286h108l-239 -345l248 -355h-108l-199 296l-199 -296h-108l248 355z" />
    <glyph glyph-name="afii10040" unicode="&#x426;" horiz-adv-x="729" 
d="M699 73v-203h-76l-9 130h-526v700h87v-627h360v627h87v-627h77z" />
    <glyph glyph-name="afii10041" unicode="&#x427;" horiz-adv-x="648" 
d="M560 0h-87v282c-59 -11 -108 -16 -146 -16c-181 0 -272 72 -272 247v187h87v-184c0 -64 14 -110 42 -137s78 -40 151 -40c36 0 82 5 138 15v346h87v-700z" />
    <glyph glyph-name="afii10042" unicode="&#x428;" horiz-adv-x="965" 
d="M175 73h264v627h87v-627h264v627h87v-700h-789v700h87v-627z" />
    <glyph glyph-name="afii10043" unicode="&#x429;" horiz-adv-x="984" 
d="M869 0h-781v700h87v-627h264v627h87v-627h264v627h87v-627h77v-203h-76z" />
    <glyph glyph-name="afii10044" unicode="&#x42a;" horiz-adv-x="733" 
d="M285 338v-263c47 -11 90 -16 129 -16c126 0 189 49 189 147s-63 147 -189 147c-38 0 -81 -5 -129 -15zM198 17v610h-176v73h263v-286c53 8 97 12 132 12c184 0 276 -73 276 -220s-92 -220 -276 -220c-71 0 -144 10 -219 31z" />
    <glyph glyph-name="afii10045" unicode="&#x42b;" horiz-adv-x="870" 
d="M782 0h-87v700h87v-700zM175 338v-263c47 -11 90 -16 129 -16c126 0 189 49 189 147s-63 147 -189 147c-37 0 -80 -5 -129 -15zM88 17v683h87v-286c53 8 97 12 132 12c184 0 276 -73 276 -220s-92 -220 -276 -220c-71 0 -144 10 -219 31z" />
    <glyph glyph-name="afii10046" unicode="&#x42c;" horiz-adv-x="623" 
d="M175 338v-263c47 -11 90 -16 129 -16c126 0 189 49 189 147s-63 147 -189 147c-37 0 -80 -5 -129 -15zM88 17v683h87v-286c53 8 97 12 132 12c184 0 276 -73 276 -220s-92 -220 -276 -220c-71 0 -144 10 -219 31z" />
    <glyph glyph-name="afii10047" unicode="&#x42d;" horiz-adv-x="624" 
d="M256 -14c-54 0 -121 9 -201 26l13 80c78 -22 140 -33 186 -33c149 0 217 82 224 255h-326v73h326c-8 172 -75 254 -224 254c-46 0 -108 -11 -186 -33l-13 83c85 15 152 23 201 23c201 0 313 -108 313 -364s-112 -364 -313 -364z" />
    <glyph glyph-name="afii10048" unicode="&#x42e;" horiz-adv-x="1036" 
d="M674 641c-143 0 -217 -82 -217 -291s74 -291 217 -291c144 0 217 82 217 291s-73 291 -217 291zM175 700v-312h193c5 127 42 215 101 262s122 64 205 64c87 0 153 -19 213 -71s94 -152 94 -293s-34 -241 -94 -293s-126 -71 -213 -71c-84 0 -147 19 -206 64
c-59 47 -95 137 -100 265h-193v-315h-87v700h87z" />
    <glyph glyph-name="afii10049" unicode="&#x42f;" horiz-adv-x="639" 
d="M330 364h134v263c-57 9 -102 14 -134 14c-129 0 -177 -51 -177 -139c0 -92 59 -138 177 -138zM298 291l-165 -297l-93 18l169 294c-97 26 -145 92 -145 197c0 141 88 211 265 211c63 0 137 -10 222 -30v-684h-87v291h-166z" />
    <glyph glyph-name="afii10065" unicode="&#x430;" horiz-adv-x="522" 
d="M44 138c0 96 58 161 202 161c29 0 69 -3 121 -10v43c0 75 -22 116 -113 116c-39 0 -92 -11 -159 -33l-13 71c80 17 138 26 174 26c71 0 121 -16 148 -49c27 -32 41 -75 41 -129v-334h-76v28c-55 -28 -108 -42 -158 -42c-116 0 -167 60 -167 152zM252 235
c-97 0 -128 -36 -128 -97c0 -59 33 -88 99 -88c43 0 91 13 144 39v137c-50 6 -88 9 -115 9z" />
    <glyph glyph-name="afii10066" unicode="&#x431;" horiz-adv-x="604" 
d="M138 457c71 33 131 49 182 49c164 0 234 -92 234 -260c0 -173 -81 -260 -244 -260c-181 0 -255 102 -255 334c0 288 89 376 261 404c95 15 158 26 188 34l11 -69c-17 -5 -36 -10 -56 -13l-70 -11l-60 -9c-67 -12 -115 -34 -143 -65s-44 -75 -48 -134zM474 246
c0 137 -44 196 -156 196c-45 0 -105 -15 -181 -46c-1 -28 -1 -63 -1 -106c0 -159 50 -240 174 -240c105 0 164 56 164 196z" />
    <glyph glyph-name="afii10067" unicode="&#x432;" horiz-adv-x="549" 
d="M501 134c0 -92 -56 -148 -212 -148c-56 0 -127 10 -212 31v469c80 17 146 26 199 26c129 0 194 -44 194 -133c0 -53 -22 -90 -67 -112c65 -19 98 -64 98 -133zM421 139c0 59 -45 89 -134 89h-132v-159c51 -13 96 -19 134 -19c96 0 132 30 132 89zM275 448
c-35 0 -75 -4 -120 -13v-145h119c79 0 118 26 118 79s-39 79 -117 79z" />
    <glyph glyph-name="afii10068" unicode="&#x433;" horiz-adv-x="403" 
d="M77 498h315v-64h-237v-434h-78v498z" />
    <glyph glyph-name="afii10069" unicode="&#x434;" horiz-adv-x="600" 
d="M496 -140l-8 140h-404l-8 -140h-65v204h45c30 33 53 79 68 140s23 126 23 195v99h350v-434h64v-204h-65zM419 434h-202v-37c0 -151 -26 -262 -78 -333h280v370z" />
    <glyph glyph-name="afii10070" unicode="&#x435;" horiz-adv-x="560" 
d="M304 50c58 0 119 9 184 28l15 -64c-70 -19 -138 -28 -203 -28c-172 0 -250 87 -250 263s84 263 236 263c83 0 141 -23 174 -69c33 -45 50 -110 50 -194v-17h-380c7 -128 53 -182 174 -182zM286 448c-92 0 -143 -51 -154 -153h299c-7 100 -44 153 -145 153z" />
    <glyph glyph-name="afii10072" unicode="&#x436;" horiz-adv-x="794" 
d="M436 0h-78v498h78v-498zM691 -8l-222 270l187 236h95l-188 -231l211 -255zM43 498h95l187 -236l-222 -270l-83 20l211 255z" />
    <glyph glyph-name="afii10073" unicode="&#x437;" horiz-adv-x="470" 
d="M422 133c0 -98 -76 -147 -228 -147c-55 0 -113 7 -172 20l15 73c51 -19 104 -29 157 -29c108 0 148 30 148 89c0 57 -40 88 -152 88c-21 0 -47 -1 -78 -3v68c31 -1 57 -2 78 -2c87 0 130 26 130 79s-40 79 -121 79c-42 0 -88 -8 -137 -24l-15 71c59 11 108 17 147 17
c136 0 204 -45 204 -136c0 -55 -24 -92 -72 -112c75 -31 96 -74 96 -131z" />
    <glyph glyph-name="afii10074" unicode="&#x438;" horiz-adv-x="580" 
d="M503 498v-498h-78v388l-270 -388h-78v498h78v-388l270 388h78z" />
    <glyph glyph-name="afii10075" unicode="&#x439;" horiz-adv-x="580" 
d="M503 498v-498h-78v388l-270 -388h-78v498h78v-388l270 388h78zM119 701l52 36c24 -40 62 -60 115 -60s91 20 115 60l52 -36c-36 -57 -92 -86 -167 -86s-131 29 -167 86z" />
    <glyph glyph-name="afii10076" unicode="&#x43a;" horiz-adv-x="526" 
d="M77 498h78v-498h-78v498zM283 266l223 -258l-89 -16l-229 270l200 236h98z" />
    <glyph glyph-name="afii10077" unicode="&#x43b;" horiz-adv-x="551" 
d="M474 498v-498h-78v434h-200v-46c0 -111 -10 -198 -29 -261c-19 -62 -54 -109 -103 -142l-49 54c43 30 72 70 87 121s22 127 22 230v108h350z" />
    <glyph glyph-name="afii10078" unicode="&#x43c;" horiz-adv-x="724" 
d="M343 143l19 -47c3 7 9 22 18 47c10 25 17 42 22 52l132 303h95l31 -498h-76l-14 288c-1 37 -2 79 -2 124c-14 -40 -29 -79 -45 -116l-129 -296h-64l-129 296c-16 37 -31 76 -45 116c0 -45 -1 -87 -2 -124l-14 -288h-76l31 498h95l132 -303c5 -10 12 -27 21 -52z" />
    <glyph glyph-name="afii10079" unicode="&#x43d;" horiz-adv-x="570" 
d="M493 498v-498h-78v225h-260v-225h-78v498h78v-209h260v209h78z" />
    <glyph glyph-name="afii10080" unicode="&#x43e;" horiz-adv-x="588" 
d="M169 398c-26 -33 -39 -83 -39 -149s13 -116 39 -149s68 -50 125 -50s99 17 125 50s39 83 39 149s-13 116 -39 149s-68 50 -125 50s-99 -17 -125 -50zM294 512c163 0 244 -88 244 -263s-81 -263 -244 -263s-244 88 -244 263s81 263 244 263z" />
    <glyph glyph-name="afii10081" unicode="&#x43f;" horiz-adv-x="570" 
d="M493 498v-498h-78v434h-260v-434h-78v498h416z" />
    <glyph glyph-name="afii10082" unicode="&#x440;" horiz-adv-x="580" 
d="M155 31v-231h-78v698h76v-32c67 31 124 46 170 46c136 0 207 -75 207 -263s-71 -263 -207 -263c-47 0 -103 15 -168 45zM155 404v-310c66 -29 117 -44 153 -44c99 0 142 51 142 199s-43 199 -142 199c-36 0 -87 -15 -153 -44z" />
    <glyph glyph-name="afii10083" unicode="&#x441;" horiz-adv-x="497" 
d="M294 512c37 0 88 -7 153 -21l-13 -71c-53 19 -99 28 -137 28c-117 0 -167 -59 -167 -199s50 -199 167 -199c38 0 84 9 137 28l13 -71c-65 -14 -116 -21 -153 -21c-165 0 -244 82 -244 263s79 263 244 263z" />
    <glyph glyph-name="afii10084" unicode="&#x442;" horiz-adv-x="456" 
d="M11 434v64h434v-64h-178v-434h-78v434h-178z" />
    <glyph glyph-name="afii10085" unicode="&#x443;" horiz-adv-x="528" 
d="M104 -150c30 0 55 8 74 23c20 15 40 50 59 103l10 27h-49l-187 495h87l169 -460l163 460h87l-207 -545c-45 -121 -100 -167 -199 -167c-19 0 -37 1 -52 4l6 64c13 -3 26 -4 39 -4z" />
    <glyph glyph-name="afii10086" unicode="&#x444;" horiz-adv-x="758" 
d="M341 50v398c-79 0 -134 -15 -165 -44s-46 -80 -46 -155s15 -127 46 -156s86 -43 165 -43zM418 -14v-186h-78v186c-201 0 -290 74 -290 263s89 263 290 263v228h78v-228c201 0 290 -74 290 -263s-89 -263 -290 -263zM417 448v-398c79 0 133 14 164 43s47 81 47 156
s-16 126 -47 155s-85 44 -164 44z" />
    <glyph glyph-name="afii10087" unicode="&#x445;" horiz-adv-x="520" 
d="M126 498l134 -188l134 188h99l-184 -245l191 -253h-99l-141 197l-141 -197h-99l190 253l-183 245h99z" />
    <glyph glyph-name="afii10088" unicode="&#x446;" horiz-adv-x="587" 
d="M554 -140h-65l-8 140h-404v498h78v-434h257v434h78v-434h64v-204z" />
    <glyph glyph-name="afii10089" unicode="&#x447;" horiz-adv-x="520" 
d="M365 254v244h78v-498h-78v190c-43 -7 -81 -11 -114 -11c-131 0 -196 61 -196 183v136h78v-134c0 -81 35 -121 130 -121c30 0 64 4 102 11z" />
    <glyph glyph-name="afii10090" unicode="&#x448;" horiz-adv-x="818" 
d="M653 498h78v-498h-654v498h78v-434h210v434h78v-434h210v434z" />
    <glyph glyph-name="afii10091" unicode="&#x449;" horiz-adv-x="828" 
d="M795 -140h-65l-8 140h-645v498h78v-434h210v434h78v-434h210v434h78v-434h64v-204z" />
    <glyph glyph-name="afii10092" unicode="&#x44a;" horiz-adv-x="611" 
d="M364 270c-37 0 -75 -5 -115 -14v-192c40 -9 78 -14 115 -14c86 0 129 37 129 110s-43 110 -129 110zM171 15v419h-149v64h227v-176c46 8 85 12 117 12c148 0 207 -70 207 -174s-59 -174 -207 -174c-57 0 -122 10 -195 29z" />
    <glyph glyph-name="afii10093" unicode="&#x44b;" horiz-adv-x="716" 
d="M270 270c-37 0 -75 -5 -115 -14v-192c40 -9 78 -14 115 -14c86 0 129 37 129 110s-43 110 -129 110zM77 498h78v-176c46 8 85 12 117 12c148 0 207 -70 207 -174s-59 -174 -207 -174c-57 0 -122 10 -195 29v483zM639 498v-498h-78v498h78z" />
    <glyph glyph-name="afii10094" unicode="&#x44c;" horiz-adv-x="517" 
d="M270 270c-37 0 -75 -5 -115 -14v-192c40 -9 78 -14 115 -14c86 0 129 37 129 110s-43 110 -129 110zM77 498h78v-176c46 8 85 12 117 12c148 0 207 -70 207 -174s-59 -174 -207 -174c-57 0 -122 10 -195 29v483z" />
    <glyph glyph-name="afii10095" unicode="&#x44d;" horiz-adv-x="497" 
d="M203 -14c-37 0 -88 7 -153 21l13 71c53 -19 99 -28 137 -28c108 0 159 51 166 168h-256v63h256c-7 116 -58 167 -166 167c-38 0 -84 -9 -137 -28l-13 71c65 14 116 21 153 21c165 0 244 -82 244 -263s-79 -263 -244 -263z" />
    <glyph glyph-name="afii10096" unicode="&#x44e;" horiz-adv-x="803" 
d="M514 448c-111 0 -159 -67 -159 -199s48 -199 159 -199c106 0 159 66 159 199s-53 199 -159 199zM514 -14c-150 0 -229 77 -238 232h-121v-218h-78v498h78v-217h121c9 154 88 231 238 231c159 0 239 -88 239 -263s-80 -263 -239 -263z" />
    <glyph glyph-name="afii10097" unicode="&#x44f;" horiz-adv-x="520" 
d="M443 0h-78v196h-123l-128 -203l-81 18l127 195c-73 22 -110 72 -110 149c0 97 65 157 194 157c55 0 121 -8 199 -23v-489zM247 260h118v175c-47 9 -86 13 -118 13c-78 0 -117 -31 -117 -93c0 -63 39 -95 117 -95z" />
    <glyph glyph-name="afii10071" unicode="&#x451;" horiz-adv-x="560" 
d="M304 50c58 0 119 9 184 28l15 -64c-70 -19 -138 -28 -203 -28c-172 0 -250 87 -250 263s84 263 236 263c83 0 141 -23 174 -69c33 -45 50 -110 50 -194v-17h-380c7 -128 53 -182 174 -182zM286 448c-92 0 -143 -51 -154 -153h299c-7 100 -44 153 -145 153zM196 740v-128
h-78v128h78zM444 740v-128h-78v128h78z" />
    <glyph glyph-name="afii10099" unicode="&#x452;" horiz-adv-x="613" 
d="M458 94v219c0 76 -27 112 -108 112c-36 0 -88 -15 -157 -44v-381h-78v582h-70v59h70v99h78v-99h186v-59h-186v-138c75 30 133 45 175 45c113 0 168 -64 168 -173v-224c0 -111 -16 -188 -49 -231c-32 -44 -86 -69 -162 -75l-7 64c54 5 91 24 110 57c20 33 30 95 30 187z
" />
    <glyph glyph-name="afii10100" unicode="&#x453;" horiz-adv-x="403" 
d="M77 498h315v-64h-237v-434h-78v498zM172 588l99 174h83l-121 -174h-61z" />
    <glyph glyph-name="afii10101" unicode="&#x454;" horiz-adv-x="497" 
d="M294 512c37 0 88 -7 153 -21l-13 -71c-53 19 -99 28 -137 28c-108 0 -159 -51 -166 -167h256v-63h-256c7 -117 58 -168 166 -168c38 0 84 9 137 28l13 -71c-65 -14 -116 -21 -153 -21c-165 0 -244 82 -244 263s79 263 244 263z" />
    <glyph glyph-name="afii10102" unicode="&#x455;" horiz-adv-x="485" 
d="M240 -14c-58 0 -121 9 -190 27l15 77c64 -27 123 -40 178 -40c71 0 107 30 107 78c0 45 -19 76 -98 87l-28 4c-109 16 -156 65 -156 152c0 83 61 141 170 141c41 0 97 -8 168 -23l-14 -74c-61 22 -114 33 -157 33c-64 0 -88 -36 -88 -75c0 -49 26 -76 98 -87l28 -4
c119 -17 157 -71 157 -152c0 -87 -57 -144 -190 -144z" />
    <glyph glyph-name="afii10103" unicode="&#x456;" horiz-adv-x="232" 
d="M155 498v-498h-78v498h78zM158 740v-128h-84v128h84z" />
    <glyph glyph-name="afii10104" unicode="&#x457;" horiz-adv-x="232" 
d="M155 498v-498h-78v498h78zM85 740v-128h-72v128h72zM219 740v-128h-72v128h72z" />
    <glyph glyph-name="afii10105" unicode="&#x458;" horiz-adv-x="235" 
d="M80 498h78v-491c0 -144 -64 -218 -191 -221l-9 64c97 5 122 62 122 159v489zM161 740v-128h-84v128h84z" />
    <glyph glyph-name="afii10106" unicode="&#x459;" horiz-adv-x="836" 
d="M589 270c-37 0 -75 -5 -115 -14v-192c40 -9 78 -14 115 -14c86 0 129 37 129 110s-43 110 -129 110zM396 434h-200v-46c0 -111 -10 -198 -29 -261c-19 -62 -54 -109 -103 -142l-49 54c43 30 72 70 87 121s22 127 22 230v108h350v-176c46 8 85 12 117 12
c148 0 207 -70 207 -174s-59 -174 -207 -174c-57 0 -122 10 -195 29v419z" />
    <glyph glyph-name="afii10107" unicode="&#x45a;" horiz-adv-x="855" 
d="M608 270c-37 0 -75 -5 -115 -14v-192c40 -9 78 -14 115 -14c86 0 129 37 129 110s-43 110 -129 110zM415 15v210h-260v-225h-78v498h78v-209h260v209h78v-176c46 8 85 12 117 12c148 0 207 -70 207 -174s-59 -174 -207 -174c-57 0 -122 10 -195 29z" />
    <glyph glyph-name="afii10108" unicode="&#x45b;" horiz-adv-x="613" 
d="M115 740h78v-99h186v-59h-186v-138c75 30 133 45 175 45c113 0 168 -64 168 -173v-316h-78v313c0 76 -27 112 -108 112c-36 0 -88 -15 -157 -44v-381h-78v582h-70v59h70v99z" />
    <glyph glyph-name="afii10109" unicode="&#x45c;" horiz-adv-x="526" 
d="M77 498h78v-498h-78v498zM283 266l223 -258l-89 -16l-229 270l200 236h98zM212 588l99 174h83l-121 -174h-61z" />
    <glyph glyph-name="afii10110" unicode="&#x45e;" horiz-adv-x="528" 
d="M104 -150c30 0 55 8 74 23c20 15 40 50 59 103l10 27h-49l-187 495h87l169 -460l163 460h87l-207 -545c-45 -121 -100 -167 -199 -167c-19 0 -37 1 -52 4l6 64c13 -3 26 -4 39 -4zM97 701l52 36c24 -40 62 -60 115 -60s91 20 115 60l52 -36c-36 -57 -92 -86 -167 -86
s-131 29 -167 86z" />
    <glyph glyph-name="afii10193" unicode="&#x45f;" horiz-adv-x="570" 
d="M415 498h78v-498h-169v-180h-78v180h-169v498h78v-434h260v434z" />
    <glyph glyph-name="afii10050" unicode="&#x490;" horiz-adv-x="534" 
d="M512 810v-183h-337v-627h-87v700h349l7 110h68z" />
    <glyph glyph-name="afii10098" unicode="&#x491;" horiz-adv-x="403" 
d="M331 615h61v-181h-237v-434h-78v498h247z" />
    <glyph glyph-name="uni1E9E" unicode="&#x1e9e;" horiz-adv-x="639" 
d="M544 543l-171 -149c145 -9 211 -74 211 -201c0 -65 -19 -115 -57 -150s-106 -53 -204 -53c-6 0 -30 1 -71 2v73c21 -1 44 -2 67 -2c133 0 175 42 175 131c0 95 -53 131 -176 131h-66v60l200 175c-19 52 -51 81 -138 81c-103 0 -147 -45 -147 -156v-485h-87v483
c0 164 84 231 235 231c145 0 216 -51 229 -171z" />
    <glyph glyph-name="uni2010" unicode="&#x2010;" horiz-adv-x="478" 
d="M390 297v-70h-302v70h302z" />
    <glyph glyph-name="uni2011" unicode="&#x2011;" horiz-adv-x="478" 
d="M390 297v-70h-302v70h302z" />
    <glyph glyph-name="figuredash" unicode="&#x2012;" horiz-adv-x="671" 
d="M583 367v-60h-495v60h495z" />
    <glyph glyph-name="endash" unicode="&#x2013;" horiz-adv-x="671" 
d="M583 292v-60h-495v60h495z" />
    <glyph glyph-name="emdash" unicode="&#x2014;" horiz-adv-x="851" 
d="M763 292v-60h-675v60h675z" />
    <glyph glyph-name="quoteleft" unicode="&#x2018;" horiz-adv-x="142" 
d="M121 700l-9 -241h-91l40 241h60z" />
    <glyph glyph-name="quoteright" unicode="&#x2019;" horiz-adv-x="142" 
d="M21 459l9 241h91l-40 -241h-60z" />
    <glyph glyph-name="quotesinglbase" unicode="&#x201a;" horiz-adv-x="142" 
d="M21 -137l9 241h91l-40 -241h-60z" />
    <glyph glyph-name="quotedblleft" unicode="&#x201c;" horiz-adv-x="291" 
d="M270 700l-9 -241h-91l40 241h60zM121 700l-9 -241h-91l40 241h60z" />
    <glyph glyph-name="quotedblright" unicode="&#x201d;" horiz-adv-x="291" 
d="M21 459l9 241h91l-40 -241h-60zM170 459l9 241h91l-40 -241h-60z" />
    <glyph glyph-name="quotedblbase" unicode="&#x201e;" horiz-adv-x="291" 
d="M21 -137l9 241h91l-40 -241h-60zM170 -137l9 241h91l-40 -241h-60z" />
    <glyph glyph-name="dagger" unicode="&#x2020;" horiz-adv-x="532" 
d="M471 455v-64h-166v-541h-78v541h-166v64h166v245h78v-245h166z" />
    <glyph glyph-name="daggerdbl" unicode="&#x2021;" horiz-adv-x="532" 
d="M305 391v-232h166v-64h-166v-245h-78v245h-166v64h166v232h-166v64h166v245h78v-245h166v-64h-166z" />
    <glyph glyph-name="bullet" unicode="&#x2022;" horiz-adv-x="538" 
d="M269 156c-77 0 -116 31 -116 106s39 106 116 106s116 -35 116 -106s-39 -106 -116 -106z" />
    <glyph glyph-name="ellipsis" unicode="&#x2026;" horiz-adv-x="792" 
d="M174 107v-107h-84v107h84zM438 107v-107h-84v107h84zM702 107v-107h-84v107h84z" />
    <glyph glyph-name="perthousand" unicode="&#x2030;" horiz-adv-x="1349" 
d="M613 660h70l-361 -660h-70zM232 674c114 0 171 -63 171 -189s-57 -189 -171 -189s-171 63 -171 189s57 189 171 189zM232 353c69 0 104 44 104 132s-35 132 -104 132s-104 -44 -104 -132s35 -132 104 -132zM703 -14c-114 0 -171 63 -171 189s57 189 171 189
s171 -63 171 -189s-57 -189 -171 -189zM703 307c-69 0 -104 -44 -104 -132s35 -132 104 -132s104 44 104 132s-35 132 -104 132zM1117 -14c-114 0 -171 63 -171 189s57 189 171 189s171 -63 171 -189s-57 -189 -171 -189zM1117 307c-69 0 -104 -44 -104 -132
s35 -132 104 -132s104 44 104 132s-35 132 -104 132z" />
    <glyph glyph-name="guilsinglleft" unicode="&#x2039;" horiz-adv-x="248" 
d="M152 450h74l-128 -188l128 -188h-74l-130 188z" />
    <glyph glyph-name="guilsinglright" unicode="&#x203a;" horiz-adv-x="248" 
d="M22 74l128 188l-128 188h74l130 -188l-130 -188h-74z" />
    <glyph glyph-name="fraction" unicode="&#x2044;" horiz-adv-x="363" 
d="M29 -40l230 740h75l-230 -740h-75z" />
    <glyph glyph-name="Euro" unicode="&#x20ac;" horiz-adv-x="711" 
d="M165 330c0 6 1 20 2 41h-111l9 61h107c25 161 122 242 289 242c44 0 107 -7 190 -22l-13 -78c-74 21 -132 31 -175 31c-120 0 -185 -57 -206 -173h295l-9 -61h-292c-1 -11 -1 -24 -1 -41c0 -15 0 -28 1 -37h281l-11 -61h-264c19 -119 83 -177 206 -177
c43 0 102 10 176 31l12 -75c-73 -17 -137 -25 -190 -25c-168 0 -265 82 -290 246h-114l9 61h100c-1 9 -1 22 -1 37z" />
    <glyph glyph-name="uni20B4" unicode="&#x20b4;" horiz-adv-x="724" 
d="M654 431v-61h-584v61h421c9 17 13 37 13 60c0 76 -46 114 -137 114c-48 0 -112 -12 -192 -36l-12 77c83 19 151 28 205 28c151 0 221 -67 221 -183c0 -21 -4 -41 -11 -60h76zM70 231v61h584v-61h-421c-8 -19 -12 -39 -12 -58c0 -79 50 -118 150 -118c69 0 142 15 220 46
l13 -80c-91 -23 -168 -35 -233 -35c-157 0 -235 63 -235 188c0 17 3 36 9 57h-75z" />
    <glyph glyph-name="uni20B6" unicode="&#x20b6;" horiz-adv-x="649" 
d="M231 130v-130h-82v130h-99v61h99v69h-99v69h99v316c85 19 155 29 210 29c167 0 250 -69 250 -207s-83 -207 -250 -207h-128v-69h195v-61h-195zM231 592v-263h126c111 0 167 46 167 138s-56 138 -167 138c-29 0 -71 -4 -126 -13z" />
    <glyph glyph-name="uni20B6" unicode="&#x20cf;" horiz-adv-x="649" 
d="M231 130v-130h-82v130h-99v61h99v69h-99v69h99v316c85 19 155 29 210 29c167 0 250 -69 250 -207s-83 -207 -250 -207h-128v-69h195v-61h-195zM231 592v-263h126c111 0 167 46 167 138s-56 138 -167 138c-29 0 -71 -4 -126 -13z" />
    <glyph glyph-name="uni20B6" unicode="&#x20ce;" horiz-adv-x="649" 
d="M231 130v-130h-82v130h-99v61h99v69h-99v69h99v316c85 19 155 29 210 29c167 0 250 -69 250 -207s-83 -207 -250 -207h-128v-69h195v-61h-195zM231 592v-263h126c111 0 167 46 167 138s-56 138 -167 138c-29 0 -71 -4 -126 -13z" />
    <glyph glyph-name="uni20B6" unicode="&#x20cd;" horiz-adv-x="649" 
d="M231 130v-130h-82v130h-99v61h99v69h-99v69h99v316c85 19 155 29 210 29c167 0 250 -69 250 -207s-83 -207 -250 -207h-128v-69h195v-61h-195zM231 592v-263h126c111 0 167 46 167 138s-56 138 -167 138c-29 0 -71 -4 -126 -13z" />
    <glyph glyph-name="uni20B6" unicode="&#x20cc;" horiz-adv-x="649" 
d="M231 130v-130h-82v130h-99v61h99v69h-99v69h99v316c85 19 155 29 210 29c167 0 250 -69 250 -207s-83 -207 -250 -207h-128v-69h195v-61h-195zM231 592v-263h126c111 0 167 46 167 138s-56 138 -167 138c-29 0 -71 -4 -126 -13z" />
    <glyph glyph-name="uni20B6" unicode="&#x20cb;" horiz-adv-x="649" 
d="M231 130v-130h-82v130h-99v61h99v69h-99v69h99v316c85 19 155 29 210 29c167 0 250 -69 250 -207s-83 -207 -250 -207h-128v-69h195v-61h-195zM231 592v-263h126c111 0 167 46 167 138s-56 138 -167 138c-29 0 -71 -4 -126 -13z" />
    <glyph glyph-name="uni20B6" unicode="&#x20ca;" horiz-adv-x="649" 
d="M231 130v-130h-82v130h-99v61h99v69h-99v69h99v316c85 19 155 29 210 29c167 0 250 -69 250 -207s-83 -207 -250 -207h-128v-69h195v-61h-195zM231 592v-263h126c111 0 167 46 167 138s-56 138 -167 138c-29 0 -71 -4 -126 -13z" />
    <glyph glyph-name="uni20B6" unicode="&#x20c9;" horiz-adv-x="649" 
d="M231 130v-130h-82v130h-99v61h99v69h-99v69h99v316c85 19 155 29 210 29c167 0 250 -69 250 -207s-83 -207 -250 -207h-128v-69h195v-61h-195zM231 592v-263h126c111 0 167 46 167 138s-56 138 -167 138c-29 0 -71 -4 -126 -13z" />
    <glyph glyph-name="uni20B6" unicode="&#x20c8;" horiz-adv-x="649" 
d="M231 130v-130h-82v130h-99v61h99v69h-99v69h99v316c85 19 155 29 210 29c167 0 250 -69 250 -207s-83 -207 -250 -207h-128v-69h195v-61h-195zM231 592v-263h126c111 0 167 46 167 138s-56 138 -167 138c-29 0 -71 -4 -126 -13z" />
    <glyph glyph-name="uni20B6" unicode="&#x20c7;" horiz-adv-x="649" 
d="M231 130v-130h-82v130h-99v61h99v69h-99v69h99v316c85 19 155 29 210 29c167 0 250 -69 250 -207s-83 -207 -250 -207h-128v-69h195v-61h-195zM231 592v-263h126c111 0 167 46 167 138s-56 138 -167 138c-29 0 -71 -4 -126 -13z" />
    <glyph glyph-name="uni20B6" unicode="&#x20c6;" horiz-adv-x="649" 
d="M231 130v-130h-82v130h-99v61h99v69h-99v69h99v316c85 19 155 29 210 29c167 0 250 -69 250 -207s-83 -207 -250 -207h-128v-69h195v-61h-195zM231 592v-263h126c111 0 167 46 167 138s-56 138 -167 138c-29 0 -71 -4 -126 -13z" />
    <glyph glyph-name="uni20B6" unicode="&#x20c5;" horiz-adv-x="649" 
d="M231 130v-130h-82v130h-99v61h99v69h-99v69h99v316c85 19 155 29 210 29c167 0 250 -69 250 -207s-83 -207 -250 -207h-128v-69h195v-61h-195zM231 592v-263h126c111 0 167 46 167 138s-56 138 -167 138c-29 0 -71 -4 -126 -13z" />
    <glyph glyph-name="uni20B6" unicode="&#x20c4;" horiz-adv-x="649" 
d="M231 130v-130h-82v130h-99v61h99v69h-99v69h99v316c85 19 155 29 210 29c167 0 250 -69 250 -207s-83 -207 -250 -207h-128v-69h195v-61h-195zM231 592v-263h126c111 0 167 46 167 138s-56 138 -167 138c-29 0 -71 -4 -126 -13z" />
    <glyph glyph-name="uni20B6" unicode="&#x20c3;" horiz-adv-x="649" 
d="M231 130v-130h-82v130h-99v61h99v69h-99v69h99v316c85 19 155 29 210 29c167 0 250 -69 250 -207s-83 -207 -250 -207h-128v-69h195v-61h-195zM231 592v-263h126c111 0 167 46 167 138s-56 138 -167 138c-29 0 -71 -4 -126 -13z" />
    <glyph glyph-name="uni20B6" unicode="&#x20c2;" horiz-adv-x="649" 
d="M231 130v-130h-82v130h-99v61h99v69h-99v69h99v316c85 19 155 29 210 29c167 0 250 -69 250 -207s-83 -207 -250 -207h-128v-69h195v-61h-195zM231 592v-263h126c111 0 167 46 167 138s-56 138 -167 138c-29 0 -71 -4 -126 -13z" />
    <glyph glyph-name="uni20B6" unicode="&#x20c1;" horiz-adv-x="649" 
d="M231 130v-130h-82v130h-99v61h99v69h-99v69h99v316c85 19 155 29 210 29c167 0 250 -69 250 -207s-83 -207 -250 -207h-128v-69h195v-61h-195zM231 592v-263h126c111 0 167 46 167 138s-56 138 -167 138c-29 0 -71 -4 -126 -13z" />
    <glyph glyph-name="uni20B6" unicode="&#x20c0;" horiz-adv-x="649" 
d="M231 130v-130h-82v130h-99v61h99v69h-99v69h99v316c85 19 155 29 210 29c167 0 250 -69 250 -207s-83 -207 -250 -207h-128v-69h195v-61h-195zM231 592v-263h126c111 0 167 46 167 138s-56 138 -167 138c-29 0 -71 -4 -126 -13z" />
    <glyph glyph-name="uni20B6" unicode="&#x20bf;" horiz-adv-x="649" 
d="M231 130v-130h-82v130h-99v61h99v69h-99v69h99v316c85 19 155 29 210 29c167 0 250 -69 250 -207s-83 -207 -250 -207h-128v-69h195v-61h-195zM231 592v-263h126c111 0 167 46 167 138s-56 138 -167 138c-29 0 -71 -4 -126 -13z" />
    <glyph glyph-name="uni20B6" unicode="&#x20be;" horiz-adv-x="649" 
d="M231 130v-130h-82v130h-99v61h99v69h-99v69h99v316c85 19 155 29 210 29c167 0 250 -69 250 -207s-83 -207 -250 -207h-128v-69h195v-61h-195zM231 592v-263h126c111 0 167 46 167 138s-56 138 -167 138c-29 0 -71 -4 -126 -13z" />
    <glyph glyph-name="uni20B6" unicode="&#x20bd;" horiz-adv-x="649" 
d="M231 130v-130h-82v130h-99v61h99v69h-99v69h99v316c85 19 155 29 210 29c167 0 250 -69 250 -207s-83 -207 -250 -207h-128v-69h195v-61h-195zM231 592v-263h126c111 0 167 46 167 138s-56 138 -167 138c-29 0 -71 -4 -126 -13z" />
    <glyph glyph-name="uni20B6" unicode="&#x20bc;" horiz-adv-x="649" 
d="M231 130v-130h-82v130h-99v61h99v69h-99v69h99v316c85 19 155 29 210 29c167 0 250 -69 250 -207s-83 -207 -250 -207h-128v-69h195v-61h-195zM231 592v-263h126c111 0 167 46 167 138s-56 138 -167 138c-29 0 -71 -4 -126 -13z" />
    <glyph glyph-name="uni20B6" unicode="&#x20bb;" horiz-adv-x="649" 
d="M231 130v-130h-82v130h-99v61h99v69h-99v69h99v316c85 19 155 29 210 29c167 0 250 -69 250 -207s-83 -207 -250 -207h-128v-69h195v-61h-195zM231 592v-263h126c111 0 167 46 167 138s-56 138 -167 138c-29 0 -71 -4 -126 -13z" />
    <glyph glyph-name="uni20B6" unicode="&#x20ba;" horiz-adv-x="649" 
d="M231 130v-130h-82v130h-99v61h99v69h-99v69h99v316c85 19 155 29 210 29c167 0 250 -69 250 -207s-83 -207 -250 -207h-128v-69h195v-61h-195zM231 592v-263h126c111 0 167 46 167 138s-56 138 -167 138c-29 0 -71 -4 -126 -13z" />
    <glyph glyph-name="uni20B6" unicode="&#x20b9;" horiz-adv-x="649" 
d="M231 130v-130h-82v130h-99v61h99v69h-99v69h99v316c85 19 155 29 210 29c167 0 250 -69 250 -207s-83 -207 -250 -207h-128v-69h195v-61h-195zM231 592v-263h126c111 0 167 46 167 138s-56 138 -167 138c-29 0 -71 -4 -126 -13z" />
    <glyph glyph-name="uni20B6" unicode="&#x20b7;" horiz-adv-x="649" 
d="M231 130v-130h-82v130h-99v61h99v69h-99v69h99v316c85 19 155 29 210 29c167 0 250 -69 250 -207s-83 -207 -250 -207h-128v-69h195v-61h-195zM231 592v-263h126c111 0 167 46 167 138s-56 138 -167 138c-29 0 -71 -4 -126 -13z" />
    <glyph glyph-name="afii61352" unicode="&#x2116;" horiz-adv-x="1148" 
d="M1076 199v-57h-336v57h336zM908 674c123 0 185 -63 185 -188s-62 -188 -185 -188s-185 63 -185 188s62 188 185 188zM820 585c-19 -21 -28 -54 -28 -99s9 -78 28 -99s49 -32 88 -32s68 11 87 32s29 54 29 99s-10 78 -29 99s-48 32 -87 32s-69 -11 -88 -32zM542 700h86
v-700h-108l-301 498c-24 40 -41 71 -50 92c3 -38 5 -72 5 -102v-488h-86v700h108l301 -498c24 -40 41 -71 50 -92c-3 38 -5 72 -5 102v488z" />
    <glyph glyph-name="trademark" unicode="&#x2122;" horiz-adv-x="1014" 
d="M421 700v-50h-130v-335h-60v335h-130v50h320zM697 401c6 15 17 51 20 56l94 243h75l27 -385h-59l-13 231c-1 25 -2 52 -2 80l-27 -79l-90 -232h-50l-89 232l-16 42c-7 20 -11 32 -12 37c0 -41 0 -67 -1 -80l-14 -231h-58l26 385h76l94 -243c3 -7 10 -25 19 -56z" />
    <glyph glyph-name="partialdiff" unicode="&#x2202;" horiz-adv-x="604" 
d="M449 465c-25 101 -72 191 -141 270l68 43c115 -139 173 -305 173 -498c0 -191 -84 -294 -255 -294c-163 0 -244 87 -244 260c0 169 66 260 230 260c49 0 105 -14 169 -41zM130 246c0 -131 51 -196 164 -196c116 0 174 75 174 225c0 46 -3 87 -8 122
c-59 30 -117 45 -174 45c-119 0 -156 -64 -156 -196z" />
    <glyph glyph-name="product" unicode="&#x220f;" horiz-adv-x="800" 
d="M722 700v-73h-60v-777h-87v777h-350v-777h-87v777h-60v73h644z" />
    <glyph glyph-name="summation" unicode="&#x2211;" horiz-adv-x="608" 
d="M168 627l242 -343l-255 -361h403v-73h-508v73l254 361l-242 343v73h480v-73h-374z" />
    <glyph glyph-name="minus" unicode="&#x2212;" horiz-adv-x="578" 
d="M71 302v64h436v-64h-436z" />
    <glyph glyph-name="uni2215" unicode="&#x2215;" horiz-adv-x="399" 
d="M296 700h81l-341 -870h-81z" />
    <glyph glyph-name="radical" unicode="&#x221a;" horiz-adv-x="612" 
d="M573 660v-68h-74l-191 -608h-92l-124 392h-53v68h122l70 -230c9 -29 19 -69 31 -121c12 53 24 98 35 135l130 432h146z" />
    <glyph glyph-name="infinity" unicode="&#x221e;" horiz-adv-x="976" 
d="M406 272l32 61l-32 61c-22 42 -43 70 -63 84c-19 15 -45 22 -76 22c-83 0 -120 -54 -120 -167s37 -167 120 -167c31 0 57 7 76 21c20 15 41 43 63 85zM570 394l-32 -61l32 -61c22 -42 43 -70 62 -85c20 -14 46 -21 77 -21c83 0 120 54 120 167s-37 167 -120 167
c-31 0 -57 -7 -77 -22c-19 -14 -40 -42 -62 -84zM510 229l-22 42l-22 -42c-43 -81 -96 -127 -199 -127c-131 0 -197 77 -197 231s66 231 197 231c103 0 156 -46 199 -127l22 -42l22 42c43 81 96 127 199 127c131 0 197 -77 197 -231s-66 -231 -197 -231
c-103 0 -156 46 -199 127z" />
    <glyph glyph-name="integral" unicode="&#x222b;" horiz-adv-x="357" 
d="M154 184l-35 81c-35 81 -52 148 -52 200c0 139 70 209 211 209v-68c-96 0 -125 -45 -125 -142c0 -43 17 -102 50 -178l35 -81c35 -81 52 -148 52 -200c0 -139 -70 -209 -211 -209v68c96 0 125 45 125 142c0 43 -17 102 -50 178z" />
    <glyph glyph-name="approxequal" unicode="&#x2248;" horiz-adv-x="578" 
d="M304 469c35 -17 66 -26 94 -26c41 0 65 15 92 54l28 -56c-35 -41 -75 -62 -120 -62c-31 0 -72 10 -124 31c-35 17 -66 26 -94 26c-41 0 -65 -15 -92 -54l-28 56c35 41 75 62 120 62c31 0 72 -10 124 -31zM304 259c35 -17 66 -26 94 -26c41 0 65 15 92 54l28 -56
c-35 -41 -75 -62 -120 -62c-31 0 -72 10 -124 31c-35 17 -66 26 -94 26c-41 0 -65 -15 -92 -54l-28 56c35 41 75 62 120 62c31 0 72 -10 124 -31z" />
    <glyph glyph-name="notequal" unicode="&#x2260;" horiz-adv-x="578" 
d="M71 407v64h233l59 176h64l-59 -176h139v-64h-161l-49 -146h210v-64h-232l-60 -176h-64l60 176h-140v64h161l50 146h-211z" />
    <glyph glyph-name="lessequal" unicode="&#x2264;" horiz-adv-x="578" 
d="M71 253l436 -123v-66l-436 123v66zM507 530l-356 -94l356 -94v-68l-436 123v78l436 123v-68z" />
    <glyph glyph-name="greaterequal" unicode="&#x2265;" horiz-adv-x="578" 
d="M507 187l-436 -123v66l436 123v-66zM71 274v68l356 94l-356 94v68l436 -123v-78z" />
    <glyph glyph-name="lozenge" unicode="&#x25ca;" horiz-adv-x="632" 
d="M326 724l262 -396l-262 -396h-20l-262 396l262 396h20zM125 328l191 -289l191 289l-191 289z" />
    <glyph glyph-name="uniF400" unicode="&#xf400;" horiz-adv-x="0" 
d="M-361 588l99 174h83l-121 -174h-61z" />
    <glyph glyph-name="uniF401" unicode="&#xf401;" horiz-adv-x="0" 
d="M-454 740l99 174h89l-121 -174h-67z" />
    <glyph glyph-name="uniF408" unicode="&#xf408;" horiz-adv-x="500" 
d="M198 914h104l105 -174h-65l-92 125l-92 -125h-65z" />
    <glyph glyph-name="uniF40C" unicode="&#xf40c;" horiz-adv-x="500" 
d="M250 941c75 0 113 -37 113 -112s-38 -112 -113 -112s-113 37 -113 112s38 112 113 112zM203 881c-10 -11 -15 -28 -15 -52s5 -41 15 -52s26 -16 47 -16s37 5 47 16s15 28 15 52s-5 41 -15 52s-26 16 -47 16s-37 -5 -47 -16z" />
    <glyph glyph-name="uniF40D" unicode="&#xf40d;" horiz-adv-x="500" 
d="M417 889l35 -51c-40 -49 -67 -67 -119 -67c-30 0 -63 10 -99 29c-31 16 -54 24 -69 24c-35 0 -54 -14 -82 -54l-35 51c40 49 67 67 119 67c30 0 63 -10 99 -29c31 -16 54 -24 69 -24c36 0 54 13 82 54z" />
    <glyph glyph-name="uniF6BA" unicode="&#xf6ba;" horiz-adv-x="478" 
d="M390 372v-70h-302v70h302z" />
    <glyph glyph-name="uniF6BB" unicode="&#xf6bb;" horiz-adv-x="671" 
d="M583 367v-60h-495v60h495z" />
    <glyph glyph-name="uniF6BC" unicode="&#xf6bc;" horiz-adv-x="851" 
d="M763 367v-60h-675v60h675z" />
    <glyph glyph-name="uniF6C9" unicode="&#xf6c9;" horiz-adv-x="500" 
d="M156 740l99 174h89l-121 -174h-67z" />
    <glyph glyph-name="uniF6CA" unicode="&#xf6ca;" horiz-adv-x="500" 
d="M342 914h65l-105 -174h-104l-105 174h65l92 -125z" />
    <glyph glyph-name="uniF6CB" unicode="&#xf6cb;" horiz-adv-x="500" 
d="M157 891v-128h-78v128h78zM421 891v-128h-78v128h78z" />
    <glyph glyph-name="uniF6CE" unicode="&#xf6ce;" horiz-adv-x="500" 
d="M277 740l-121 174h89l99 -174h-67z" />
    <glyph glyph-name="uniF6D1" unicode="&#xf6d1;" horiz-adv-x="500" 
d="M70 847l56 39c26 -43 67 -65 124 -65s98 22 124 65l56 -39c-39 -62 -99 -93 -180 -93s-141 31 -180 93z" />
    <glyph glyph-name="uniF6D4" unicode="&#xf6d4;" horiz-adv-x="500" 
d="M83 701l52 36c24 -40 62 -60 115 -60s91 20 115 60l52 -36c-36 -57 -92 -86 -167 -86s-131 29 -167 86z" />
    <glyph glyph-name="uniF8FF" unicode="&#xf8ff;" horiz-adv-x="790" 
d="M569 788c1 -5 1 -13 1 -23c0 -47 -17 -88 -51 -122c-35 -34 -68 -51 -97 -51c-3 0 -7 1 -14 2c-1 4 -1 10 -1 19c0 39 16 76 47 111c32 35 70 56 115 64zM735 197c-36 -78 -69 -134 -100 -167c-29 -31 -63 -47 -100 -47c-17 0 -39 5 -64 16c-26 11 -46 16 -60 16
c-15 0 -37 -5 -64 -16s-48 -16 -62 -16c-43 0 -85 29 -126 86c-69 95 -104 192 -104 291c0 68 20 125 59 172s93 70 160 70c19 0 43 -6 73 -17c31 -11 52 -17 63 -17c10 0 30 6 60 17c31 11 55 17 74 17c70 0 128 -27 175 -80c-65 -42 -98 -95 -98 -160
c0 -76 38 -131 114 -165z" />
    <glyph glyph-name="uniFEFF" unicode="&#xfeff;" horiz-adv-x="0" 
 />
    <glyph glyph-name="afii10065.ss04" horiz-adv-x="580" 
d="M425 94v310c-66 29 -117 44 -153 44c-99 0 -142 -51 -142 -199s43 -199 142 -199c36 0 87 15 153 44zM427 498h76v-498h-76v32c-67 -31 -124 -46 -170 -46c-136 0 -207 75 -207 263s71 263 207 263c46 0 103 -15 170 -46v32z" />
    <glyph glyph-name="afii10043.ss04" horiz-adv-x="948" 
d="M781 311v389h87v-390c0 -109 -28 -189 -84 -240s-145 -78 -268 -83c5 -60 14 -113 29 -160l-91 -9c-11 45 -18 101 -21 169c-247 9 -353 104 -353 323v390h87v-389c0 -89 20 -152 61 -190s108 -58 202 -61v640h87v-640c105 1 177 26 214 73c37 48 50 102 50 178z" />
    <glyph glyph-name="afii10042.ss04" horiz-adv-x="948" 
d="M430 700h87v-640c105 1 177 26 214 73c37 48 50 102 50 178v389h87v-390c0 -115 -31 -198 -94 -249c-62 -50 -162 -75 -300 -75s-238 25 -301 75c-62 51 -93 134 -93 249v390h87v-389c0 -89 20 -152 61 -190s108 -58 202 -61v640z" />
    <glyph glyph-name="t.ss04" horiz-adv-x="368" 
d="M20 434v64h125v193h78v-193h125v-64h-125v-434h-78v434h-125z" />
    <glyph glyph-name="afii10067.ss04" horiz-adv-x="600" 
d="M550 200c0 -141 -73 -214 -241 -214c-71 0 -148 11 -232 34v512c0 144 74 222 217 222c151 0 217 -76 217 -196c0 -75 -27 -128 -80 -161c79 -30 119 -96 119 -197zM433 555c0 83 -44 135 -139 135c-89 0 -139 -53 -139 -160v-111h138c93 0 140 45 140 136zM470 203
c0 101 -54 152 -163 152h-152v-287c44 -12 95 -18 152 -18c108 0 163 48 163 153z" />
    <glyph glyph-name="afii10059.ss04" horiz-adv-x="1089" 
d="M641 338v-263c47 -11 90 -16 129 -16c126 0 189 49 189 147s-63 147 -189 147c-37 0 -80 -5 -129 -15zM515 28l-283 470c-24 40 -41 71 -50 92c3 -38 5 -72 5 -102v-488h-86v700h108l301 -498c24 -40 41 -71 50 -92c-3 38 -5 72 -5 102v488h86v-286c53 8 97 12 132 12
c184 0 276 -73 276 -220s-92 -220 -276 -220c-32 0 -73 4 -122 11s-95 17 -136 31z" />
    <glyph glyph-name="a.ss04" horiz-adv-x="580" 
d="M425 94v310c-66 29 -117 44 -153 44c-99 0 -142 -51 -142 -199s43 -199 142 -199c36 0 87 15 153 44zM427 498h76v-498h-76v32c-67 -31 -124 -46 -170 -46c-136 0 -207 75 -207 263s71 263 207 263c46 0 103 -15 170 -46v32z" />
    <glyph glyph-name="afii10084.ss04" horiz-adv-x="372" 
d="M22 434v64h125v193h78v-193h125v-64h-125v-434h-78v434h-125z" />
    <glyph glyph-name="afii10021.ss04" horiz-adv-x="723" 
d="M88 16v668c76 20 151 30 225 30c127 0 218 -31 273 -94c55 -62 82 -152 82 -270s-27 -208 -82 -271c-55 -62 -146 -93 -273 -93c-74 0 -149 10 -225 30zM175 626v-552c43 -10 88 -15 137 -15c191 0 266 94 266 291s-75 291 -266 291c-49 0 -94 -5 -137 -15z" />
    <glyph glyph-name="afii10145.ss04" horiz-adv-x="726" 
d="M559 248v452h87v-454c0 -172 -78 -248 -241 -259l2 -137h-88l2 137c-163 11 -241 87 -241 259v454h87v-452c0 -72 15 -122 45 -149c31 -27 81 -40 151 -40s120 13 150 40c31 27 46 77 46 149z" />
    <glyph glyph-name="afii10040.ss04" horiz-adv-x="726" 
d="M559 248v452h87v-454c0 -55 -8 -100 -24 -136l115 -77l-45 -68l-118 79c-44 -39 -114 -58 -211 -58c-192 0 -283 73 -283 260v454h87v-452c0 -72 15 -122 45 -149c31 -27 81 -40 151 -40s120 13 150 40c31 27 46 77 46 149z" />
    <glyph glyph-name="cyracute" horiz-adv-x="500" 
d="M159 588l99 174h83l-121 -174h-61z" />
    <glyph glyph-name="afii10098.ss04" horiz-adv-x="238" 
d="M80 203v273c0 183 67 268 208 275h9l8 120h57v-187c-21 1 -42 1 -63 1c-92 0 -141 -57 -141 -210v-273c0 -189 -26 -319 -103 -416l-67 32c64 75 92 188 92 385z" />
    <glyph glyph-name="afii10076.ss04" horiz-adv-x="526" 
d="M77 740h78v-740h-78v740zM283 266l223 -258l-89 -16l-229 270l200 236h98z" />
    <glyph glyph-name="afii10037.ss04" horiz-adv-x="651" 
d="M325 351h1l220 349h104l-281 -436v-264h-87v264l-281 436h104z" />
    <glyph glyph-name="afii10041.ss04" horiz-adv-x="649" 
d="M324 358h1c67 0 114 14 141 42s41 78 41 149v151h87v-154c0 -167 -86 -251 -226 -259v-287h-87v287c-140 8 -226 92 -226 259v154h87v-151c0 -71 14 -121 41 -149s74 -42 141 -42z" />
    <glyph glyph-name="afii10068.ss04" horiz-adv-x="238" 
d="M158 475v-273c0 -189 -26 -319 -103 -416l-67 32c64 75 92 188 92 385v273c0 183 67 268 208 275l74 3v-70c-20 1 -41 1 -63 1c-92 0 -141 -57 -141 -210z" />
    <glyph glyph-name="afii10069.ss04" horiz-adv-x="580" 
d="M425 94v310c-66 29 -117 44 -153 44c-99 0 -142 -51 -142 -199s43 -199 142 -199c36 0 87 15 153 44zM257 -14c-136 0 -207 75 -207 263s71 263 207 263c47 0 103 -15 168 -45v273h78v-740h-76v32c-67 -31 -124 -46 -170 -46z" />
    <glyph glyph-name="afii10073.ss04" horiz-adv-x="505" 
d="M461 -11c0 -135 -86 -203 -258 -203c-56 0 -121 9 -196 27l13 73c63 -24 124 -36 182 -36c131 0 179 48 179 140c0 93 -50 140 -182 140c-37 0 -71 -1 -102 -3v68c31 -1 65 -2 102 -2c107 0 160 42 160 127s-50 128 -151 128c-46 0 -101 -9 -164 -28l-12 71
c74 14 131 21 171 21c171 0 234 -70 234 -187c0 -80 -28 -133 -85 -158c73 -29 109 -89 109 -178z" />
    <glyph glyph-name="afii10068.ss04.alt" horiz-adv-x="384" 
d="M373 509l-2 -70c-29 2 -53 3 -74 3c-49 0 -96 -6 -142 -18v-424h-78v478c66 23 134 34 205 34c35 0 65 -1 91 -3z" />
    <glyph glyph-name="afii10069.ss04.alt" horiz-adv-x="604" 
d="M449 465c-25 101 -72 191 -141 270l68 43c115 -139 173 -305 173 -498c0 -191 -84 -294 -255 -294c-163 0 -244 87 -244 260c0 169 66 260 230 260c49 0 105 -14 169 -41zM130 246c0 -131 51 -196 164 -196c116 0 174 75 174 225c0 46 -3 87 -8 122
c-59 30 -117 45 -174 45c-119 0 -156 -64 -156 -196z" />
    <glyph glyph-name="afii10074.ss04" horiz-adv-x="575" 
d="M77 159v339h78v-336c0 -76 27 -112 108 -112c36 0 88 15 157 44v404h78v-498h-76v32c-76 -31 -135 -46 -177 -46c-113 0 -168 64 -168 173z" />
    <glyph glyph-name="afii10075.ss04" horiz-adv-x="575" 
d="M77 159v339h78v-336c0 -76 27 -112 108 -112c36 0 88 15 157 44v404h78v-498h-76v32c-76 -31 -135 -46 -177 -46c-113 0 -168 64 -168 173zM121 701l52 36c24 -40 62 -60 115 -60s91 20 115 60l52 -36c-36 -57 -92 -86 -167 -86s-131 29 -167 86z" />
    <glyph glyph-name="afii10077.ss04" horiz-adv-x="528" 
d="M430 0l-166 405l-166 -405h-87l210 498h86l210 -498h-87z" />
    <glyph glyph-name="afii10081.ss04" horiz-adv-x="575" 
d="M498 339v-339h-78v336c0 76 -27 112 -108 112c-36 0 -88 -15 -157 -44v-404h-78v498h76v-32c76 31 135 46 177 46c113 0 168 -64 168 -173z" />
    <glyph glyph-name="afii10088.ss04" horiz-adv-x="595" 
d="M497 -140l-8 140l-67 32c-76 -31 -135 -46 -177 -46c-113 0 -168 64 -168 173v339h78v-336c0 -76 27 -112 108 -112c36 0 88 15 157 44v404h78v-425l64 -30v-183h-65z" />
    <glyph glyph-name="afii10090.ss04" horiz-adv-x="870" 
d="M396 498h78v-336c0 -76 23 -112 98 -112c33 0 80 15 143 44v404h78v-498h-76v32c-65 -31 -120 -46 -163 -46c-57 0 -99 19 -127 56c-78 -37 -139 -56 -182 -56c-112 0 -168 58 -168 173v339h78v-336c0 -76 25 -112 104 -112c34 0 82 15 144 46c-5 21 -7 42 -7 63v339z
" />
    <glyph glyph-name="afii10091.ss04" horiz-adv-x="890" 
d="M792 -140l-8 140l-67 32c-65 -31 -120 -46 -163 -46c-57 0 -99 19 -127 56c-78 -37 -139 -56 -182 -56c-112 0 -168 58 -168 173v339h78v-336c0 -76 25 -112 104 -112c34 0 82 15 144 46c-5 21 -7 42 -7 63v339h78v-336c0 -76 23 -112 98 -112c33 0 80 15 143 44v404h78
v-425l64 -30v-183h-65z" />
    <glyph glyph-name="afii10100.ss04" horiz-adv-x="384" 
d="M373 509l-2 -70c-29 2 -53 3 -74 3c-49 0 -96 -6 -142 -18v-424h-78v478c66 23 134 34 205 34c35 0 65 -1 91 -3zM156 588l99 174h83l-121 -174h-61z" />
    <glyph glyph-name="afii10098.ss04.alt" horiz-adv-x="384" 
d="M77 0v478c66 23 134 34 205 34h24l6 103h61v-176c-29 2 -55 3 -76 3c-49 0 -96 -6 -142 -18v-424h-78z" />
    <glyph glyph-name="afii10106.ss04" horiz-adv-x="809" 
d="M430 0l-166 405l-166 -405h-87l210 498h86l79 -187c82 15 141 23 178 23c148 0 207 -70 207 -174s-59 -174 -207 -174c-40 0 -85 5 -134 14zM562 270c-35 0 -85 -7 -150 -22l82 -194c17 -3 39 -4 68 -4c86 0 129 37 129 110s-43 110 -129 110z" />
    <glyph glyph-name="cyrAcute" horiz-adv-x="500" 
d="M156 740l99 174h89l-121 -174h-67z" />
    <glyph glyph-name="afii10109.ss04" horiz-adv-x="526" 
d="M77 740h78v-740h-78v740zM283 266l223 -258l-89 -16l-229 270l200 236h98zM230 588l99 174h83l-121 -174h-61z" />
    <glyph glyph-name="afii10044.ss04" horiz-adv-x="623" 
d="M84 0v66h480v-66h-480zM364 472c-37 0 -75 -5 -115 -14v-192c40 -9 78 -14 115 -14c86 0 129 37 129 110s-43 110 -129 110zM171 217v419h-149v64h227v-176c46 8 85 12 117 12c148 0 207 -70 207 -174s-59 -174 -207 -174c-57 0 -122 10 -195 29z" />
    <glyph glyph-name="afii10068_afii10103.ss04_" horiz-adv-x="464" 
d="M390 498v-498h-78v498h78zM158 468v-266c0 -189 -26 -319 -103 -416l-67 32c64 75 92 188 92 385v266c0 189 67 277 223 282l66 2v-70c-19 1 -38 1 -58 1c-109 0 -153 -59 -153 -216z" />
    <glyph glyph-name="afii10046.ss04" horiz-adv-x="540" 
d="M88 0v66h393v-66h-393zM281 472c-37 0 -75 -5 -115 -14v-192c40 -9 78 -14 115 -14c86 0 129 37 129 110s-43 110 -129 110zM88 700h78v-176c46 8 85 12 117 12c148 0 207 -70 207 -174s-59 -174 -207 -174c-57 0 -122 10 -195 29v483z" />
    <glyph glyph-name="nbspace" horiz-adv-x="230" 
 />
    <glyph glyph-name="afii10031.ss04" horiz-adv-x="716" 
d="M542 700h86v-700h-108l-301 498c-24 40 -41 71 -50 92c3 -38 5 -72 5 -102v-488h-86v700h108l301 -498c24 -40 41 -71 50 -92c-3 38 -5 72 -5 102v488z" />
    <glyph glyph-name="at.ss01" horiz-adv-x="1028" 
d="M505 -14c-76 0 -129 14 -158 42c-29 29 -44 67 -44 114s15 85 44 113c29 29 82 43 158 43c32 0 72 -5 121 -14v48c0 75 -22 116 -113 116c-39 0 -92 -11 -159 -33l-13 71c80 17 138 26 174 26c71 0 121 -16 148 -49c27 -32 41 -75 41 -129v-261c116 27 174 106 174 236
c0 228 -121 342 -363 342c-123 0 -203 -22 -268 -82c-64 -59 -94 -164 -94 -320c0 -147 28 -250 84 -311s149 -91 278 -91c98 0 192 11 283 34l12 -62c-115 -23 -213 -35 -295 -35c-144 0 -244 29 -320 101c-75 71 -112 191 -112 364c0 177 39 299 116 368
c79 69 176 97 316 97c292 0 430 -145 430 -405c0 -232 -148 -323 -440 -323zM506 234c-99 0 -123 -33 -123 -92s24 -92 123 -92c39 0 79 3 120 8v160c-47 11 -87 16 -120 16z" />
    <glyph glyph-name="b.ss02" horiz-adv-x="671" 
d="M616 191c0 -56 -13 -99 -50 -140s-115 -65 -224 -65c-81 0 -165 10 -254 30v668c89 20 166 30 233 30c96 0 162 -16 199 -48s55 -78 55 -137c0 -77 -29 -128 -88 -155c92 -29 129 -91 129 -183zM175 626v-227h144c125 0 170 42 170 121c0 76 -43 121 -170 121
c-38 0 -86 -5 -144 -15zM526 193c0 42 -14 75 -41 98c-27 24 -75 36 -146 36h-164v-253c59 -10 114 -15 164 -15c139 0 187 49 187 134z" />
    <glyph glyph-name="c.ss02" horiz-adv-x="624" 
d="M368 714c49 0 116 -8 201 -23l-13 -83c-78 22 -140 33 -186 33c-159 0 -225 -92 -225 -291s66 -291 225 -291c46 0 108 11 186 33l13 -80c-80 -17 -147 -26 -201 -26c-201 0 -313 108 -313 364s112 364 313 364z" />
    <glyph glyph-name="d.ss02" horiz-adv-x="723" 
d="M88 16v668c76 20 151 30 225 30c127 0 218 -31 273 -94c55 -62 82 -152 82 -270s-27 -208 -82 -271c-55 -62 -146 -93 -273 -93c-74 0 -149 10 -225 30zM175 626v-552c43 -10 88 -15 137 -15c191 0 266 94 266 291s-75 291 -266 291c-49 0 -94 -5 -137 -15z" />
    <glyph glyph-name="f.ss02" horiz-adv-x="556" 
d="M175 299v-299h-87v700h424v-73h-337v-255h308v-73h-308z" />
    <glyph glyph-name="g.ss02" horiz-adv-x="702" 
d="M368 -14c-220 0 -313 131 -313 364c0 131 27 224 82 280s132 84 231 84c63 0 140 -9 230 -27l-13 -82c-79 24 -152 36 -217 36c-151 0 -223 -88 -223 -291c0 -200 68 -291 223 -291c55 0 111 7 167 21v264h87v-324c-88 -23 -173 -34 -254 -34z" />
    <glyph glyph-name="h.ss02" horiz-adv-x="710" 
d="M622 700v-700h-87v318h-360v-318h-87v700h87v-309h360v309h87z" />
    <glyph glyph-name="i.ss02" horiz-adv-x="263" 
d="M175 0h-87v700h87v-700z" />
    <glyph glyph-name="j.ss02" horiz-adv-x="466" 
d="M136 -14c-41 0 -79 3 -114 8l12 78c35 -9 69 -14 101 -14c61 0 103 14 127 41c25 27 37 79 37 156v445h87v-448c0 -91 -19 -158 -56 -201s-101 -65 -194 -65z" />
    <glyph glyph-name="k.ss02" horiz-adv-x="657" 
d="M537 -10l-327 365l285 345h108l-287 -339l319 -349zM88 700h87v-700h-87v700z" />
    <glyph glyph-name="l.ss02" horiz-adv-x="527" 
d="M175 73h330v-73h-417v700h87v-627z" />
    <glyph glyph-name="o.ss02" horiz-adv-x="736" 
d="M656 530c17 -49 25 -109 25 -180s-8 -131 -25 -180c-33 -99 -100 -147 -169 -168c-35 -11 -74 -16 -119 -16s-84 5 -119 16c-69 21 -136 69 -169 168c-17 49 -25 109 -25 180s8 131 25 180c33 99 100 147 169 168c35 11 74 16 119 16s84 -5 119 -16
c69 -21 136 -69 169 -168zM534 126c38 45 57 119 57 224s-19 179 -57 224c-37 45 -93 67 -166 67s-129 -22 -167 -67c-37 -45 -56 -119 -56 -224s19 -179 56 -224c38 -45 94 -67 167 -67s129 22 166 67z" />
    <glyph glyph-name="p.ss02" horiz-adv-x="615" 
d="M175 626v-273c55 -9 99 -14 133 -14c118 0 177 50 177 151s-59 151 -177 151c-36 0 -80 -5 -133 -15zM175 0h-87v683c91 21 165 31 222 31c177 0 265 -75 265 -224s-88 -224 -265 -224c-37 0 -82 5 -135 14v-280z" />
    <glyph glyph-name="q.ss02" horiz-adv-x="736" 
d="M681 350c0 -227 -91 -347 -272 -362c5 -55 15 -109 30 -161l-90 -9c-13 57 -20 113 -22 170c-181 15 -272 135 -272 362c0 141 35 241 96 293s128 71 217 71s156 -19 217 -71s96 -152 96 -293zM534 126c38 45 57 119 57 224s-19 179 -57 224c-37 45 -93 67 -166 67
s-129 -22 -167 -67c-37 -45 -56 -119 -56 -224s19 -179 56 -224c38 -45 94 -67 167 -67s129 22 166 67z" />
    <glyph glyph-name="r.ss02" horiz-adv-x="639" 
d="M336 301h-161v-301h-87v684c84 20 158 30 222 30c177 0 265 -69 265 -206c0 -105 -50 -169 -150 -192l174 -304l-93 -18zM175 627v-253h134c118 0 177 44 177 133s-59 134 -177 134c-33 0 -78 -5 -134 -14z" />
    <glyph glyph-name="s.ss02" horiz-adv-x="601" 
d="M297 59c106 0 159 42 159 125c0 32 -3 52 -22 77c-17 25 -57 44 -117 52l-35 5c-151 21 -216 81 -216 202c0 129 82 194 234 194c55 0 127 -10 218 -29l-12 -83c-83 26 -152 39 -205 39c-97 0 -145 -40 -145 -121c0 -77 39 -110 139 -125l35 -5c81 -11 138 -35 169 -71
c31 -35 47 -80 47 -134c0 -133 -83 -199 -249 -199c-67 0 -150 12 -247 35l14 87c41 -16 83 -28 127 -37c44 -8 79 -12 106 -12z" />
    <glyph glyph-name="t.ss02" horiz-adv-x="621" 
d="M599 700v-73h-245v-627h-87v627h-245v73h577z" />
    <glyph glyph-name="afii10193.ss04" horiz-adv-x="575" 
d="M249 -180v130h78v-130h-78zM77 159v339h78v-336c0 -76 27 -112 108 -112c36 0 88 15 157 44v404h78v-498h-76v32c-76 -31 -135 -46 -177 -46c-113 0 -168 64 -168 173z" />
    <glyph glyph-name="w.ss02" horiz-adv-x="1022" 
d="M541 477l-30 108l-30 -108l-142 -477h-100l-209 700h90l140 -498c8 -27 18 -63 30 -109c10 38 20 74 31 109l148 498h84l148 -498c11 -35 21 -71 31 -109c12 46 22 82 30 109l140 498h90l-209 -700h-100z" />
    <glyph glyph-name="x.ss02" horiz-adv-x="680" 
d="M42 700h108l190 -286l190 286h108l-239 -345l248 -355h-108l-199 296l-199 -296h-108l248 355z" />
    <glyph glyph-name="y.ss02" horiz-adv-x="651" 
d="M325 351h1l220 349h104l-281 -436v-264h-87v264l-281 436h104z" />
    <glyph glyph-name="z.ss02" horiz-adv-x="608" 
d="M154 73h404v-73h-508v73l391 554h-378v73h482v-73z" />
    <glyph glyph-name="a.ss01" horiz-adv-x="522" 
d="M247 234c-99 0 -123 -33 -123 -92s24 -92 123 -92c37 0 77 5 120 16v152c-47 11 -87 16 -120 16zM367 284v48c0 75 -22 116 -113 116c-39 0 -92 -11 -159 -33l-13 71c80 17 138 26 174 26c71 0 121 -16 148 -49c27 -32 41 -75 41 -129v-316c-77 -21 -144 -32 -199 -32
c-76 0 -129 14 -158 42c-29 29 -44 67 -44 114s15 85 44 113c29 29 82 43 158 43c32 0 72 -5 121 -14z" />
    <glyph glyph-name="b.ss01" horiz-adv-x="580" 
d="M155 431v-364c47 -11 92 -17 137 -17c112 0 158 68 158 199s-46 199 -158 199c-45 0 -90 -6 -137 -17zM77 740h78v-243c50 10 96 15 137 15c93 0 159 -29 192 -81c33 -51 46 -106 46 -182s-13 -131 -46 -183c-33 -51 -99 -80 -192 -80c-74 0 -146 11 -215 34v720z" />
    <glyph glyph-name="d.ss01" horiz-adv-x="580" 
d="M425 67v364c-47 11 -92 17 -137 17c-112 0 -158 -68 -158 -199s46 -199 158 -199c45 0 90 6 137 17zM425 497v243h78v-720c-69 -23 -141 -34 -215 -34c-93 0 -159 29 -192 80c-33 52 -46 107 -46 183s13 131 46 182c33 52 99 81 192 81c41 0 87 -5 137 -15z" />
    <glyph glyph-name="g.ss01" horiz-adv-x="580" 
d="M425 69v362c-49 11 -95 17 -137 17c-104 0 -158 -58 -158 -198s54 -198 158 -198c42 0 88 6 137 17zM288 -12c-153 0 -238 77 -238 262s85 262 238 262c62 0 134 -11 215 -34v-449c0 -63 -4 -101 -23 -145c-27 -65 -90 -95 -218 -98c-58 0 -123 9 -196 26l14 72
c65 -23 126 -34 181 -34c68 0 111 13 134 42s29 59 30 110c-47 -9 -93 -14 -137 -14z" />
    <glyph glyph-name="h.ss01" horiz-adv-x="575" 
d="M77 740h78v-241c43 9 86 13 127 13c144 0 216 -72 216 -203v-309h-78v306c0 95 -37 142 -140 142c-43 0 -85 -5 -125 -15v-433h-78v740z" />
    <glyph glyph-name="m.ss01" horiz-adv-x="870" 
d="M474 0h-78v306c0 95 -34 142 -127 142c-39 0 -77 -5 -114 -15v-433h-78v478c65 23 129 34 194 34c58 0 105 -14 140 -41c63 27 122 41 176 41c143 0 206 -75 206 -203v-309h-78v306c0 95 -36 142 -133 142c-41 0 -84 -10 -130 -30c15 -29 22 -65 22 -109v-309z" />
    <glyph glyph-name="n.ss01" horiz-adv-x="575" 
d="M498 309v-309h-78v306c0 95 -37 142 -140 142c-43 0 -85 -5 -125 -15v-433h-78v478c66 23 134 34 205 34c144 0 216 -72 216 -203z" />
    <glyph glyph-name="thorn.ss01" horiz-adv-x="580" 
d="M155 431v-364c47 -11 92 -17 137 -17c112 0 158 68 158 199s-46 199 -158 199c-45 0 -90 -6 -137 -17zM77 740h78v-242c89 19 191 21 255 -7c65 -28 96 -83 109 -142c7 -29 11 -62 11 -100s-4 -72 -11 -101c-18 -87 -84 -166 -227 -162c-41 0 -87 5 -137 15v-201h-78v940
z" />
    <glyph glyph-name="afii10074.ss04.accented" horiz-adv-x="575" 
d="M77 159v339h78v-336c0 -76 27 -112 108 -112c36 0 88 15 157 44v404h78v-498h-76v32c-76 -31 -135 -46 -177 -46c-113 0 -168 64 -168 173zM219 588l99 174h83l-121 -174h-61z" />
    <glyph glyph-name="afii10065.ss04.accented" horiz-adv-x="580" 
d="M425 94v310c-66 29 -117 44 -153 44c-99 0 -142 -51 -142 -199s43 -199 142 -199c36 0 87 15 153 44zM427 498h76v-498h-76v32c-67 -31 -124 -46 -170 -46c-136 0 -207 75 -207 263s71 263 207 263c46 0 103 -15 170 -46v32zM229 588l99 174h83l-121 -174h-61z" />
    <glyph glyph-name="afii10058.ss04" horiz-adv-x="1039" 
d="M580 0l-238 599l-236 -599h-95l281 700h100l121 -298c94 16 164 24 210 24c184 0 276 -73 276 -220s-92 -220 -276 -220c-45 0 -92 5 -143 14zM540 335l108 -271c24 -3 48 -5 72 -5c126 0 189 49 189 147s-63 147 -189 147c-50 0 -110 -6 -180 -18z" />
    <glyph glyph-name="afii10029.ss04" horiz-adv-x="686" 
d="M11 0l281 700h100l283 -700h-95l-238 599l-236 -599h-95z" />
    <glyph glyph-name="afii10021.ss04.alt" horiz-adv-x="724" 
d="M362 607l-204 -534h408zM12 -130v203h52l245 627h106l245 -627h52v-203h-77l-8 130h-530l-8 -130h-77z" />
    <glyph glyph-name="afii10068_afii10076.ss04_ss04" horiz-adv-x="767" 
d="M158 495v-293c0 -189 -26 -319 -103 -416l-67 32c64 75 92 188 92 385v293c0 175 81 258 214 258c25 0 59 -2 102 -5v-749h-78v689c-9 1 -17 1 -26 1c-88 0 -134 -52 -134 -195zM524 266l223 -258l-89 -16l-229 270l200 236h98z" />
    <glyph glyph-name="adieresis.ss01" horiz-adv-x="522" 
d="M247 234c-99 0 -123 -33 -123 -92s24 -92 123 -92c37 0 77 5 120 16v152c-47 11 -87 16 -120 16zM367 284v48c0 75 -22 116 -113 116c-39 0 -92 -11 -159 -33l-13 71c80 17 138 26 174 26c71 0 121 -16 148 -49c27 -32 41 -75 41 -129v-316c-77 -21 -144 -32 -199 -32
c-76 0 -129 14 -158 42c-29 29 -44 67 -44 114s15 85 44 113c29 29 82 43 158 43c32 0 72 -5 121 -14zM159 740v-128h-78v128h78zM407 740v-128h-78v128h78z" />
    <glyph glyph-name="atilde.ss01" horiz-adv-x="522" 
d="M247 234c-99 0 -123 -33 -123 -92s24 -92 123 -92c37 0 77 5 120 16v152c-47 11 -87 16 -120 16zM367 284v48c0 75 -22 116 -113 116c-39 0 -92 -11 -159 -33l-13 71c80 17 138 26 174 26c71 0 121 -16 148 -49c27 -32 41 -75 41 -129v-316c-77 -21 -144 -32 -199 -32
c-76 0 -129 14 -158 42c-29 29 -44 67 -44 114s15 85 44 113c29 29 82 43 158 43c32 0 72 -5 121 -14zM399 732l32 -48c-36 -45 -62 -62 -110 -62c-28 0 -59 9 -92 27c-28 15 -49 22 -64 22c-32 0 -51 -13 -76 -50l-32 48c36 45 62 62 110 62c28 0 59 -9 92 -27
c28 -15 49 -22 64 -22c32 0 51 13 76 50z" />
    <glyph glyph-name="aring.ss01" horiz-adv-x="522" 
d="M247 234c-99 0 -123 -33 -123 -92s24 -92 123 -92c37 0 77 5 120 16v152c-47 11 -87 16 -120 16zM367 284v48c0 75 -22 116 -113 116c-39 0 -92 -11 -159 -33l-13 71c80 17 138 26 174 26c71 0 121 -16 148 -49c27 -32 41 -75 41 -129v-316c-77 -21 -144 -32 -199 -32
c-76 0 -129 14 -158 42c-29 29 -44 67 -44 114s15 85 44 113c29 29 82 43 158 43c32 0 72 -5 121 -14zM251 786c75 0 113 -37 113 -112s-38 -112 -113 -112s-113 37 -113 112s38 112 113 112zM204 726c-10 -11 -15 -28 -15 -52s5 -41 15 -52s26 -16 47 -16s37 5 47 16
s15 28 15 52s-5 41 -15 52s-26 16 -47 16s-37 -5 -47 -16z" />
    <glyph glyph-name="ntilde.ss01" horiz-adv-x="575" 
d="M447 732l32 -48c-36 -45 -62 -62 -110 -62c-28 0 -59 9 -92 27c-28 15 -49 22 -64 22c-32 0 -51 -13 -76 -50l-32 48c36 45 62 62 110 62c28 0 59 -9 92 -27c28 -15 49 -22 64 -22c32 0 51 13 76 50zM498 309v-309h-78v306c0 95 -37 142 -140 142c-43 0 -85 -5 -125 -15
v-433h-78v478c66 23 134 34 205 34c144 0 216 -72 216 -203z" />
    <glyph glyph-name="uacute.ss01" horiz-adv-x="575" 
d="M77 189v309h78v-306c0 -95 37 -142 140 -142c43 0 85 5 125 15v433h78v-478c-66 -23 -134 -34 -205 -34c-144 0 -216 72 -216 203zM219 588l99 174h83l-121 -174h-61z" />
    <glyph glyph-name="ugrave.ss01" horiz-adv-x="575" 
d="M77 189v309h78v-306c0 -95 37 -142 140 -142c43 0 85 5 125 15v433h78v-478c-66 -23 -134 -34 -205 -34c-144 0 -216 72 -216 203zM293 588l-121 174h83l99 -174h-61z" />
    <glyph glyph-name="ucircumflex.ss01" horiz-adv-x="575" 
d="M77 189v309h78v-306c0 -95 37 -142 140 -142c43 0 85 5 125 15v433h78v-478c-66 -23 -134 -34 -205 -34c-144 0 -216 72 -216 203zM239 762h98l99 -174h-61l-87 125l-87 -125h-61z" />
    <glyph glyph-name="udieresis.ss01" horiz-adv-x="575" 
d="M77 189v309h78v-306c0 -95 37 -142 140 -142c43 0 85 5 125 15v433h78v-478c-66 -23 -134 -34 -205 -34c-144 0 -216 72 -216 203zM203 740v-128h-78v128h78zM451 740v-128h-78v128h78z" />
    <glyph glyph-name="mu.ss01" horiz-adv-x="575" 
d="M420 65v433h78v-478c-69 -23 -137 -34 -205 -34c-61 0 -109 13 -142 38l2 -224h-76v698h78v-306c0 -95 37 -142 140 -142c43 0 85 5 125 15z" />
    <glyph glyph-name="ordfeminine.ss01" horiz-adv-x="482" 
d="M227 424c-89 0 -111 -30 -111 -83c0 -52 22 -82 111 -82c35 0 71 5 108 14v137c-41 9 -77 14 -108 14zM335 469v43c0 67 -21 105 -102 105c-34 0 -82 -10 -143 -30l-12 64c72 15 124 23 157 23c128 0 170 -63 170 -160v-284c-70 -19 -130 -29 -179 -29
c-69 0 -116 13 -143 38c-26 25 -39 59 -39 102s13 77 39 102c27 26 74 39 143 39c26 0 62 -4 109 -13z" />
    <glyph glyph-name="ae.ss01" horiz-adv-x="875" 
d="M247 234c-99 0 -123 -33 -123 -92s24 -92 123 -92c37 0 77 5 120 16v152c-47 11 -87 16 -120 16zM601 448c-92 0 -143 -51 -154 -153h299c-7 100 -44 153 -145 153zM619 50c58 0 119 9 184 28l15 -64c-70 -19 -138 -28 -203 -28c-79 0 -139 19 -180 56v-27
c-75 -19 -138 -29 -189 -29c-76 0 -129 14 -158 42c-29 29 -44 67 -44 114s15 85 44 113c29 29 82 43 158 43c32 0 72 -5 121 -14v48c0 75 -22 116 -113 116c-39 0 -92 -11 -159 -33l-13 71c80 17 138 26 174 26c82 0 137 -24 165 -72c40 48 100 72 180 72
c83 0 141 -23 174 -69c33 -45 50 -110 50 -194v-17h-380c7 -128 53 -182 174 -182z" />
    <glyph glyph-name="afii10066.ss02" horiz-adv-x="671" 
d="M175 327v-253c59 -10 111 -15 156 -15c143 0 195 53 195 142s-52 142 -195 142c-47 0 -99 -5 -156 -16zM533 627h-358v-225c62 9 115 14 158 14c189 0 283 -72 283 -215s-94 -215 -283 -215c-75 0 -157 10 -245 30v684h445v-73z" />
    <glyph glyph-name="afii10068.ss02" horiz-adv-x="534" 
d="M512 700v-73h-337v-627h-87v700h424z" />
    <glyph glyph-name="afii10072.ss02" horiz-adv-x="961" 
d="M524 0h-87v700h87v-700zM846 -10l-287 365l239 345h102l-240 -339l279 -346zM61 700h102l239 -345l-287 -365l-93 25l279 346z" />
    <glyph glyph-name="afii10073.ss02" 
d="M509 526c0 -77 -30 -129 -89 -157c85 -31 121 -88 121 -180c0 -115 -51 -203 -276 -203c-70 0 -145 9 -226 26l12 81c75 -23 146 -34 214 -34c129 0 186 44 186 133c0 39 -13 71 -40 96c-26 25 -75 37 -148 37c-40 0 -77 -1 -111 -3v78c34 -1 70 -2 107 -2
c121 0 163 41 163 121c0 36 -11 65 -34 88s-66 34 -129 34c-51 0 -112 -10 -183 -29l-13 81c79 14 145 21 197 21c181 0 249 -67 249 -188z" />
    <glyph glyph-name="afii10077.ss02" horiz-adv-x="701" 
d="M613 700v-700h-87v627h-295v-95c0 -177 -13 -306 -38 -386s-69 -135 -130 -164l-46 64c45 24 70 49 95 117c27 69 38 189 38 370v167h463z" />
    <glyph glyph-name="afii10085.ss02" horiz-adv-x="629" 
d="M532 700h96l-244 -536c-32 -71 -63 -119 -94 -143c-30 -23 -70 -35 -120 -35c-17 0 -35 1 -53 4l4 75c15 -3 30 -4 43 -4c30 0 54 8 71 25c18 17 39 50 63 100h-55l-242 514h99l221 -477z" />
    <glyph glyph-name="afii10086.ss02" horiz-adv-x="879" 
d="M398 101v498c-179 0 -253 -82 -253 -249s74 -249 253 -249zM483 28v-88h-87v88c-227 0 -341 107 -341 322s114 322 341 322v88h87v-88c227 0 341 -107 341 -322s-114 -322 -341 -322zM481 599v-498c179 0 253 82 253 249s-74 249 -253 249z" />
    <glyph glyph-name="afii10089.ss02" horiz-adv-x="648" 
d="M560 0h-87v282c-59 -11 -108 -16 -146 -16c-181 0 -272 72 -272 247v187h87v-184c0 -64 14 -110 42 -137s78 -40 151 -40c36 0 82 5 138 15v346h87v-700z" />
    <glyph glyph-name="afii10092.ss02" horiz-adv-x="733" 
d="M285 338v-263c47 -11 90 -16 129 -16c126 0 189 49 189 147s-63 147 -189 147c-38 0 -81 -5 -129 -15zM198 17v610h-176v73h263v-286c53 8 97 12 132 12c184 0 276 -73 276 -220s-92 -220 -276 -220c-71 0 -144 10 -219 31z" />
    <glyph glyph-name="afii10093.ss02" horiz-adv-x="870" 
d="M782 0h-87v700h87v-700zM175 338v-263c47 -11 90 -16 129 -16c126 0 189 49 189 147s-63 147 -189 147c-37 0 -80 -5 -129 -15zM88 17v683h87v-286c53 8 97 12 132 12c184 0 276 -73 276 -220s-92 -220 -276 -220c-71 0 -144 10 -219 31z" />
    <glyph glyph-name="afii10094.ss02" horiz-adv-x="623" 
d="M175 338v-263c47 -11 90 -16 129 -16c126 0 189 49 189 147s-63 147 -189 147c-37 0 -80 -5 -129 -15zM88 17v683h87v-286c53 8 97 12 132 12c184 0 276 -73 276 -220s-92 -220 -276 -220c-71 0 -144 10 -219 31z" />
    <glyph glyph-name="afii10095.ss02" horiz-adv-x="624" 
d="M256 -14c-54 0 -121 9 -201 26l13 80c78 -22 140 -33 186 -33c149 0 217 82 224 255h-326v73h326c-8 172 -75 254 -224 254c-46 0 -108 -11 -186 -33l-13 83c85 15 152 23 201 23c201 0 313 -108 313 -364s-112 -364 -313 -364z" />
    <glyph glyph-name="afii10096.ss02" horiz-adv-x="1036" 
d="M674 641c-143 0 -217 -82 -217 -291s74 -291 217 -291c144 0 217 82 217 291s-73 291 -217 291zM175 700v-312h193c5 127 42 215 101 262s122 64 205 64c87 0 153 -19 213 -71s94 -152 94 -293s-34 -241 -94 -293s-126 -71 -213 -71c-84 0 -147 19 -206 64
c-59 47 -95 137 -100 265h-193v-315h-87v700h87z" />
    <glyph glyph-name="afii10097.ss02" horiz-adv-x="639" 
d="M330 364h134v263c-57 9 -102 14 -134 14c-129 0 -177 -51 -177 -139c0 -92 59 -138 177 -138zM298 291l-165 -297l-93 18l169 294c-97 26 -145 92 -145 197c0 141 88 211 265 211c63 0 137 -10 222 -30v-684h-87v291h-166z" />
    <glyph glyph-name="afii10099.ss02" horiz-adv-x="811" 
d="M599 627h-271v-235c63 11 111 17 146 17c195 0 282 -90 282 -282c0 -152 -64 -260 -203 -287l-8 73c99 27 122 103 121 213c0 73 -13 127 -40 160s-80 50 -160 50c-36 0 -82 -5 -138 -15v-321h-87v627h-219v73h577v-73z" />
    <glyph glyph-name="afii10101.ss02" horiz-adv-x="624" 
d="M368 -14c-201 0 -313 108 -313 364s112 364 313 364c49 0 116 -8 201 -23l-13 -83c-78 22 -140 33 -186 33c-149 0 -216 -82 -224 -254h326v-73h-326c7 -173 75 -255 224 -255c46 0 108 11 186 33l13 -80c-80 -17 -147 -26 -201 -26z" />
    <glyph glyph-name="afii10106.ss02" horiz-adv-x="1061" 
d="M613 338v-263c47 -11 90 -16 129 -16c126 0 189 49 189 147s-63 147 -189 147c-37 0 -80 -5 -129 -15zM526 17v610h-295v-95c0 -177 -13 -306 -38 -386s-69 -135 -130 -164l-46 64c45 24 70 49 95 117c27 69 38 189 38 370v167h463v-286c53 8 97 12 132 12
c184 0 276 -73 276 -220s-92 -220 -276 -220c-71 0 -144 10 -219 31z" />
    <glyph glyph-name="afii10107.ss02" horiz-adv-x="1070" 
d="M622 338v-263c47 -11 90 -16 129 -16c126 0 189 49 189 147s-63 147 -189 147c-38 0 -81 -5 -129 -15zM535 17v301h-360v-318h-87v700h87v-309h360v309h87v-286c53 8 97 12 132 12c184 0 276 -73 276 -220s-92 -220 -276 -220c-71 0 -144 10 -219 31z" />
    <glyph glyph-name="afii10108.ss02" horiz-adv-x="801" 
d="M599 627h-271v-234c59 11 108 16 146 16c181 0 272 -72 272 -247v-162h-87v159c0 64 -14 109 -42 136s-78 41 -151 41c-36 0 -82 -5 -138 -15v-321h-87v627h-219v73h577v-73z" />
    <glyph glyph-name="afii10110.ss02" horiz-adv-x="629" 
d="M532 700h96l-244 -536c-32 -71 -63 -119 -94 -143c-30 -23 -70 -35 -120 -35c-17 0 -35 1 -53 4l4 75c15 -3 30 -4 43 -4c30 0 54 8 71 25c18 17 39 50 63 100h-55l-242 514h99l221 -477zM135 847l56 39c26 -43 67 -65 124 -65s98 22 124 65l56 -39
c-39 -62 -99 -93 -180 -93s-141 31 -180 93z" />
    <glyph glyph-name="afii10068.ss01" horiz-adv-x="384" 
d="M373 509l-2 -70c-29 2 -53 3 -74 3c-49 0 -96 -6 -142 -18v-424h-78v478c66 23 134 34 205 34c35 0 65 -1 91 -3z" />
    <glyph glyph-name="afii10074.ss01" horiz-adv-x="575" 
d="M77 189v309h78v-306c0 -95 37 -142 140 -142c43 0 85 5 125 15v433h78v-478c-66 -23 -134 -34 -205 -34c-144 0 -216 72 -216 203z" />
    <glyph glyph-name="afii10075.ss01" horiz-adv-x="575" 
d="M77 189v309h78v-306c0 -95 37 -142 140 -142c43 0 85 5 125 15v433h78v-478c-66 -23 -134 -34 -205 -34c-144 0 -216 72 -216 203zM121 701l52 36c24 -40 62 -60 115 -60s91 20 115 60l52 -36c-36 -57 -92 -86 -167 -86s-131 29 -167 86z" />
    <glyph glyph-name="afii10088.ss01" horiz-adv-x="595" 
d="M293 -14c-144 0 -216 72 -216 203v309h78v-306c0 -95 37 -142 140 -142c43 0 85 5 125 15v433h78v-418h64v-220h-65l-9 156c-63 -20 -128 -30 -195 -30z" />
    <glyph glyph-name="afii10090.ss01" horiz-adv-x="818" 
d="M155 498v-231c0 -76 15 -131 44 -164s86 -50 171 -53v448h78v-448c71 1 142 9 215 22v426h78v-478c-131 -23 -243 -34 -334 -34c-127 0 -209 21 -256 59c-32 27 -50 53 -61 94s-13 74 -13 125v234h78z" />
    <glyph glyph-name="afii10091.ss01" horiz-adv-x="838" 
d="M407 -14c-127 0 -209 21 -256 59c-32 27 -50 53 -61 94s-13 74 -13 125v234h78v-231c0 -76 15 -131 44 -164s86 -50 171 -53v448h78v-448c71 1 142 9 215 22v426h78v-418h64v-220h-65l-9 158c-130 -21 -238 -32 -324 -32z" />
    <glyph glyph-name="afii10067.ss02" horiz-adv-x="671" 
d="M616 191c0 -56 -13 -99 -50 -140s-115 -65 -224 -65c-81 0 -165 10 -254 30v668c89 20 166 30 233 30c96 0 162 -16 199 -48s55 -78 55 -137c0 -77 -29 -128 -88 -155c92 -29 129 -91 129 -183zM175 626v-227h144c125 0 170 42 170 121c0 76 -43 121 -170 121
c-38 0 -86 -5 -144 -15zM526 193c0 42 -14 75 -41 98c-27 24 -75 36 -146 36h-164v-253c59 -10 114 -15 164 -15c139 0 187 49 187 134z" />
    <glyph glyph-name="afii10069.ss02" horiz-adv-x="731" 
d="M22 -130v203h49c57 69 103 225 103 474v153h447v-627h77v-203h-76l-9 130h-506l-9 -130h-76zM534 627h-280v-82c0 -215 -30 -372 -89 -472h369v554z" />
    <glyph glyph-name="afii10076.ss02" horiz-adv-x="657" 
d="M537 -10l-327 365l285 345h108l-287 -339l319 -349zM88 700h87v-700h-87v700z" />
    <glyph glyph-name="afii10078.ss02" horiz-adv-x="902" 
d="M451 129c17 46 29 80 38 101l187 470h108l48 -700h-86l-27 448c-2 35 -3 84 -3 145c-21 -61 -38 -109 -53 -146l-178 -447h-68l-178 447c-15 37 -32 85 -53 146c0 -62 -1 -110 -3 -145l-27 -448h-86l48 700h108l187 -470c9 -21 21 -55 38 -101z" />
    <glyph glyph-name="afii10079.ss02" horiz-adv-x="710" 
d="M622 700v-700h-87v318h-360v-318h-87v700h87v-309h360v309h87z" />
    <glyph glyph-name="afii10080.ss02" horiz-adv-x="736" 
d="M656 530c17 -49 25 -109 25 -180s-8 -131 -25 -180c-33 -99 -100 -147 -169 -168c-35 -11 -74 -16 -119 -16s-84 5 -119 16c-69 21 -136 69 -169 168c-17 49 -25 109 -25 180s8 131 25 180c33 99 100 147 169 168c35 11 74 16 119 16s84 -5 119 -16
c69 -21 136 -69 169 -168zM534 126c38 45 57 119 57 224s-19 179 -57 224c-37 45 -93 67 -166 67s-129 -22 -167 -67c-37 -45 -56 -119 -56 -224s19 -179 56 -224c38 -45 94 -67 167 -67s129 22 166 67z" />
    <glyph glyph-name="afii10082.ss02" horiz-adv-x="615" 
d="M175 626v-273c55 -9 99 -14 133 -14c118 0 177 50 177 151s-59 151 -177 151c-36 0 -80 -5 -133 -15zM175 0h-87v683c91 21 165 31 222 31c177 0 265 -75 265 -224s-88 -224 -265 -224c-37 0 -82 5 -135 14v-280z" />
    <glyph glyph-name="afii10083.ss02" horiz-adv-x="624" 
d="M368 714c49 0 116 -8 201 -23l-13 -83c-78 22 -140 33 -186 33c-159 0 -225 -92 -225 -291s66 -291 225 -291c46 0 108 11 186 33l13 -80c-80 -17 -147 -26 -201 -26c-201 0 -313 108 -313 364s112 364 313 364z" />
    <glyph glyph-name="afii10084.ss02" horiz-adv-x="621" 
d="M599 700v-73h-245v-627h-87v627h-245v73h577z" />
    <glyph glyph-name="afii10087.ss02" horiz-adv-x="680" 
d="M42 700h108l190 -286l190 286h108l-239 -345l248 -355h-108l-199 296l-199 -296h-108l248 355z" />
    <glyph glyph-name="afii10103.ss02" horiz-adv-x="263" 
d="M175 0h-87v700h87v-700z" />
    <glyph glyph-name="afii10100.ss02" horiz-adv-x="534" 
d="M512 700v-73h-337v-627h-87v700h424zM235 740l99 174h89l-121 -174h-67z" />
    <glyph glyph-name="afii10100.ss01" horiz-adv-x="384" 
d="M373 509l-2 -70c-29 2 -53 3 -74 3c-49 0 -96 -6 -142 -18v-424h-78v478c66 23 134 34 205 34c35 0 65 -1 91 -3zM169 588l99 174h83l-121 -174h-61z" />
    <glyph glyph-name="afii10105.ss02" horiz-adv-x="466" 
d="M136 -14c-41 0 -79 3 -114 8l12 78c35 -9 69 -14 101 -14c61 0 103 14 127 41c25 27 37 79 37 156v445h87v-448c0 -91 -19 -158 -56 -201s-101 -65 -194 -65z" />
    <glyph glyph-name="afii10102.ss02" horiz-adv-x="601" 
d="M297 59c106 0 159 42 159 125c0 32 -3 52 -22 77c-17 25 -57 44 -117 52l-35 5c-151 21 -216 81 -216 202c0 129 82 194 234 194c55 0 127 -10 218 -29l-12 -83c-83 26 -152 39 -205 39c-97 0 -145 -40 -145 -121c0 -77 39 -110 139 -125l35 -5c81 -11 138 -35 169 -71
c31 -35 47 -80 47 -134c0 -133 -83 -199 -249 -199c-67 0 -150 12 -247 35l14 87c41 -16 83 -28 127 -37c44 -8 79 -12 106 -12z" />
    <glyph glyph-name="afii10109.ss02" horiz-adv-x="657" 
d="M537 -10l-327 365l285 345h108l-287 -339l319 -349zM88 700h87v-700h-87v700zM263 740l99 174h89l-121 -174h-67z" />
    <glyph glyph-name="afii10065.ss01" horiz-adv-x="522" 
d="M247 234c-99 0 -123 -33 -123 -92s24 -92 123 -92c37 0 77 5 120 16v152c-47 11 -87 16 -120 16zM367 284v48c0 75 -22 116 -113 116c-39 0 -92 -11 -159 -33l-13 71c80 17 138 26 174 26c71 0 121 -16 148 -49c27 -32 41 -75 41 -129v-316c-77 -21 -144 -32 -199 -32
c-76 0 -129 14 -158 42c-29 29 -44 67 -44 114s15 85 44 113c29 29 82 43 158 43c32 0 72 -5 121 -14z" />
    <glyph glyph-name="afii10081.ss01" horiz-adv-x="575" 
d="M498 309v-309h-78v306c0 95 -37 142 -140 142c-43 0 -85 -5 -125 -15v-433h-78v478c66 23 134 34 205 34c144 0 216 -72 216 -203z" />
    <glyph glyph-name="afii10082.ss01" horiz-adv-x="580" 
d="M155 1v-201h-78v678c69 23 141 34 215 34c93 0 159 -29 192 -81c33 -51 46 -106 46 -182s-13 -131 -46 -183c-33 -51 -99 -80 -192 -80c-41 0 -87 5 -137 15zM155 431v-364c47 -11 92 -17 137 -17c112 0 158 68 158 199s-46 199 -158 199c-45 0 -90 -6 -137 -17z" />
    <glyph glyph-name="afii10104.ss02" horiz-adv-x="263" 
d="M84 891v-128h-76v128h76zM255 891v-128h-76v128h76zM175 0h-87v700h87v-700z" />
    <glyph glyph-name="afii10098.ss01" horiz-adv-x="384" 
d="M77 0v478c66 23 134 34 205 34h24l6 103h61v-176c-29 2 -55 3 -76 3c-49 0 -96 -6 -142 -18v-424h-78z" />
    <glyph glyph-name="afii10098.ss02" horiz-adv-x="534" 
d="M512 810v-183h-337v-627h-87v700h349l7 110h68z" />
    <glyph glyph-name="afii10080.ss02.accented" horiz-adv-x="736" 
d="M656 530c17 -49 25 -109 25 -180s-8 -131 -25 -180c-33 -99 -100 -147 -169 -168c-35 -11 -74 -16 -119 -16s-84 5 -119 16c-69 21 -136 69 -169 168c-17 49 -25 109 -25 180s8 131 25 180c33 99 100 147 169 168c35 11 74 16 119 16s84 -5 119 -16
c69 -21 136 -69 169 -168zM534 126c38 45 57 119 57 224s-19 179 -57 224c-37 45 -93 67 -166 67s-129 -22 -167 -67c-37 -45 -56 -119 -56 -224s19 -179 56 -224c38 -45 94 -67 167 -67s129 22 166 67zM311 740l99 174h89l-121 -174h-67z" />
    <glyph glyph-name="afii10085.ss02.accented" horiz-adv-x="629" 
d="M532 700h96l-244 -536c-32 -71 -63 -119 -94 -143c-30 -23 -70 -35 -120 -35c-17 0 -35 1 -53 4l4 75c15 -3 30 -4 43 -4c30 0 54 8 71 25c18 17 39 50 63 100h-55l-242 514h99l221 -477zM240 740l99 174h89l-121 -174h-67z" />
    <glyph glyph-name="afii10093.ss02.accented" horiz-adv-x="870" 
d="M782 0h-87v700h87v-700zM175 338v-263c47 -11 90 -16 129 -16c126 0 189 49 189 147s-63 147 -189 147c-37 0 -80 -5 -129 -15zM88 17v683h87v-286c53 8 97 12 132 12c184 0 276 -73 276 -220s-92 -220 -276 -220c-71 0 -144 10 -219 31zM343 740l99 174h89l-121 -174
h-67z" />
    <glyph glyph-name="afii10095.ss02.accented" horiz-adv-x="624" 
d="M256 -14c-54 0 -121 9 -201 26l13 80c78 -22 140 -33 186 -33c149 0 217 82 224 255h-326v73h326c-8 172 -75 254 -224 254c-46 0 -108 -11 -186 -33l-13 83c85 15 152 23 201 23c201 0 313 -108 313 -364s-112 -364 -313 -364zM221 740l99 174h89l-121 -174h-67z" />
    <glyph glyph-name="afii10096.ss02.accented" horiz-adv-x="1036" 
d="M674 641c-143 0 -217 -82 -217 -291s74 -291 217 -291c144 0 217 82 217 291s-73 291 -217 291zM175 700v-312h193c5 127 42 215 101 262s122 64 205 64c87 0 153 -19 213 -71s94 -152 94 -293s-34 -241 -94 -293s-126 -71 -213 -71c-84 0 -147 19 -206 64
c-59 47 -95 137 -100 265h-193v-315h-87v700h87zM383 740l99 174h89l-121 -174h-67z" />
    <glyph glyph-name="afii10097.ss02.accented" horiz-adv-x="639" 
d="M330 364h134v263c-57 9 -102 14 -134 14c-129 0 -177 -51 -177 -139c0 -92 59 -138 177 -138zM298 291l-165 -297l-93 18l169 294c-97 26 -145 92 -145 197c0 141 88 211 265 211c63 0 137 -10 222 -30v-684h-87v291h-166zM268 740l99 174h89l-121 -174h-67z" />
    <glyph glyph-name="afii10065.ss01.accented" horiz-adv-x="522" 
d="M247 234c-99 0 -123 -33 -123 -92s24 -92 123 -92c37 0 77 5 120 16v152c-47 11 -87 16 -120 16zM367 284v48c0 75 -22 116 -113 116c-39 0 -92 -11 -159 -33l-13 71c80 17 138 26 174 26c71 0 121 -16 148 -49c27 -32 41 -75 41 -129v-316c-77 -21 -144 -32 -199 -32
c-76 0 -129 14 -158 42c-29 29 -44 67 -44 114s15 85 44 113c29 29 82 43 158 43c32 0 72 -5 121 -14zM194 588l99 174h83l-121 -174h-61z" />
    <glyph glyph-name="afii10074.ss01.accented" horiz-adv-x="575" 
d="M77 189v309h78v-306c0 -95 37 -142 140 -142c43 0 85 5 125 15v433h78v-478c-66 -23 -134 -34 -205 -34c-144 0 -216 72 -216 203zM216 588l99 174h83l-121 -174h-61z" />
    <glyph glyph-name="a.ss02" horiz-adv-x="658" 
d="M491 82v240c-63 15 -121 23 -172 23c-76 0 -126 -15 -150 -44c-23 -28 -29 -56 -29 -99s6 -71 29 -100c24 -28 74 -43 150 -43c51 0 109 8 172 23zM313 418c49 0 108 -7 178 -21v66c0 132 -47 179 -163 179c-67 0 -138 -16 -213 -47l-15 83c91 24 168 36 231 36
c206 0 247 -122 247 -248v-439c-109 -27 -198 -41 -265 -41c-97 0 -166 19 -205 58s-58 92 -58 158s19 118 58 157s108 59 205 59z" />
    <glyph glyph-name="e.ss02" horiz-adv-x="708" 
d="M380 59c81 0 163 14 248 41l16 -73c-90 -27 -178 -41 -264 -41c-123 0 -209 34 -258 101c-48 67 -67 150 -67 263c0 243 102 364 307 364c192 0 291 -108 291 -353v-23h-509c3 -101 23 -173 59 -216c37 -42 96 -63 177 -63zM362 641c-133 0 -200 -77 -215 -230h417
c-9 147 -65 230 -202 230z" />
    <glyph glyph-name="m.ss02" horiz-adv-x="1161" 
d="M624 0h-87v429c0 147 -63 211 -202 211c-54 0 -107 -5 -160 -14v-626h-87v683c83 21 167 31 252 31c81 0 147 -20 197 -60c95 40 178 60 250 60c155 0 286 -67 286 -282v-432h-87v429c0 156 -63 211 -203 211c-55 0 -121 -16 -196 -47c25 -41 37 -95 37 -161v-432z" />
    <glyph glyph-name="n.ss02" horiz-adv-x="734" 
d="M646 432v-432h-87v429c0 147 -67 211 -214 211c-57 0 -114 -5 -170 -14v-626h-87v683c87 21 175 31 262 31c185 0 296 -95 296 -282z" />
    <glyph glyph-name="aacute.ss02" horiz-adv-x="658" 
d="M491 82v240c-63 15 -121 23 -172 23c-76 0 -126 -15 -150 -44c-23 -28 -29 -56 -29 -99s6 -71 29 -100c24 -28 74 -43 150 -43c51 0 109 8 172 23zM313 418c49 0 108 -7 178 -21v66c0 132 -47 179 -163 179c-67 0 -138 -16 -213 -47l-15 83c91 24 168 36 231 36
c206 0 247 -122 247 -248v-439c-109 -27 -198 -41 -265 -41c-97 0 -166 19 -205 58s-58 92 -58 158s19 118 58 157s108 59 205 59zM277 740l99 174h89l-121 -174h-67z" />
    <glyph glyph-name="agrave.ss02" horiz-adv-x="658" 
d="M491 82v240c-63 15 -121 23 -172 23c-76 0 -126 -15 -150 -44c-23 -28 -29 -56 -29 -99s6 -71 29 -100c24 -28 74 -43 150 -43c51 0 109 8 172 23zM313 418c49 0 108 -7 178 -21v66c0 132 -47 179 -163 179c-67 0 -138 -16 -213 -47l-15 83c91 24 168 36 231 36
c206 0 247 -122 247 -248v-439c-109 -27 -198 -41 -265 -41c-97 0 -166 19 -205 58s-58 92 -58 158s19 118 58 157s108 59 205 59zM319 740l-121 174h89l99 -174h-67z" />
    <glyph glyph-name="acircumflex.ss02" horiz-adv-x="658" 
d="M491 82v240c-63 15 -121 23 -172 23c-76 0 -126 -15 -150 -44c-23 -28 -29 -56 -29 -99s6 -71 29 -100c24 -28 74 -43 150 -43c51 0 109 8 172 23zM313 418c49 0 108 -7 178 -21v66c0 132 -47 179 -163 179c-67 0 -138 -16 -213 -47l-15 83c91 24 168 36 231 36
c206 0 247 -122 247 -248v-439c-109 -27 -198 -41 -265 -41c-97 0 -166 19 -205 58s-58 92 -58 158s19 118 58 157s108 59 205 59zM259 914h104l105 -174h-65l-92 125l-92 -125h-65z" />
    <glyph glyph-name="adieresis.ss02" horiz-adv-x="658" 
d="M491 82v240c-63 15 -121 23 -172 23c-76 0 -126 -15 -150 -44c-23 -28 -29 -56 -29 -99s6 -71 29 -100c24 -28 74 -43 150 -43c51 0 109 8 172 23zM313 418c49 0 108 -7 178 -21v66c0 132 -47 179 -163 179c-67 0 -138 -16 -213 -47l-15 83c91 24 168 36 231 36
c206 0 247 -122 247 -248v-439c-109 -27 -198 -41 -265 -41c-97 0 -166 19 -205 58s-58 92 -58 158s19 118 58 157s108 59 205 59zM218 891v-128h-78v128h78zM482 891v-128h-78v128h78z" />
    <glyph glyph-name="atilde.ss02" horiz-adv-x="658" 
d="M491 82v240c-63 15 -121 23 -172 23c-76 0 -126 -15 -150 -44c-23 -28 -29 -56 -29 -99s6 -71 29 -100c24 -28 74 -43 150 -43c51 0 109 8 172 23zM313 418c49 0 108 -7 178 -21v66c0 132 -47 179 -163 179c-67 0 -138 -16 -213 -47l-15 83c91 24 168 36 231 36
c206 0 247 -122 247 -248v-439c-109 -27 -198 -41 -265 -41c-97 0 -166 19 -205 58s-58 92 -58 158s19 118 58 157s108 59 205 59zM488 889l35 -51c-40 -49 -67 -67 -119 -67c-30 0 -63 10 -99 29c-31 16 -54 24 -69 24c-35 0 -54 -14 -82 -54l-35 51c40 49 67 67 119 67
c30 0 63 -10 99 -29c31 -16 54 -24 69 -24c36 0 54 13 82 54z" />
    <glyph glyph-name="aring.ss02" horiz-adv-x="658" 
d="M491 82v240c-63 15 -121 23 -172 23c-76 0 -126 -15 -150 -44c-23 -28 -29 -56 -29 -99s6 -71 29 -100c24 -28 74 -43 150 -43c51 0 109 8 172 23zM313 418c49 0 108 -7 178 -21v66c0 132 -47 179 -163 179c-67 0 -138 -16 -213 -47l-15 83c91 24 168 36 231 36
c206 0 247 -122 247 -248v-439c-109 -27 -198 -41 -265 -41c-97 0 -166 19 -205 58s-58 92 -58 158s19 118 58 157s108 59 205 59zM321 941c75 0 113 -37 113 -112s-38 -112 -113 -112s-113 37 -113 112s38 112 113 112zM274 881c-10 -11 -15 -28 -15 -52s5 -41 15 -52
s26 -16 47 -16s37 5 47 16s15 28 15 52s-5 41 -15 52s-26 16 -47 16s-37 -5 -47 -16z" />
    <glyph glyph-name="eacute.ss02" horiz-adv-x="708" 
d="M380 59c81 0 163 14 248 41l16 -73c-90 -27 -178 -41 -264 -41c-123 0 -209 34 -258 101c-48 67 -67 150 -67 263c0 243 102 364 307 364c192 0 291 -108 291 -353v-23h-509c3 -101 23 -173 59 -216c37 -42 96 -63 177 -63zM362 641c-133 0 -200 -77 -215 -230h417
c-9 147 -65 230 -202 230zM301 740l99 174h89l-121 -174h-67z" />
    <glyph glyph-name="egrave.ss02" horiz-adv-x="708" 
d="M380 59c81 0 163 14 248 41l16 -73c-90 -27 -178 -41 -264 -41c-123 0 -209 34 -258 101c-48 67 -67 150 -67 263c0 243 102 364 307 364c192 0 291 -108 291 -353v-23h-509c3 -101 23 -173 59 -216c37 -42 96 -63 177 -63zM362 641c-133 0 -200 -77 -215 -230h417
c-9 147 -65 230 -202 230zM343 740l-121 174h89l99 -174h-67z" />
    <glyph glyph-name="ecircumflex.ss02" horiz-adv-x="708" 
d="M380 59c81 0 163 14 248 41l16 -73c-90 -27 -178 -41 -264 -41c-123 0 -209 34 -258 101c-48 67 -67 150 -67 263c0 243 102 364 307 364c192 0 291 -108 291 -353v-23h-509c3 -101 23 -173 59 -216c37 -42 96 -63 177 -63zM362 641c-133 0 -200 -77 -215 -230h417
c-9 147 -65 230 -202 230zM302 914h104l105 -174h-65l-92 125l-92 -125h-65z" />
    <glyph glyph-name="edieresis.ss02" horiz-adv-x="708" 
d="M380 59c81 0 163 14 248 41l16 -73c-90 -27 -178 -41 -264 -41c-123 0 -209 34 -258 101c-48 67 -67 150 -67 263c0 243 102 364 307 364c192 0 291 -108 291 -353v-23h-509c3 -101 23 -173 59 -216c37 -42 96 -63 177 -63zM362 641c-133 0 -200 -77 -215 -230h417
c-9 147 -65 230 -202 230zM261 891v-128h-78v128h78zM525 891v-128h-78v128h78z" />
    <glyph glyph-name="ntilde.ss02" horiz-adv-x="734" 
d="M646 432v-432h-87v429c0 147 -67 211 -214 211c-57 0 -114 -5 -170 -14v-626h-87v683c87 21 175 31 262 31c185 0 296 -95 296 -282zM534 889l35 -51c-40 -49 -67 -67 -119 -67c-30 0 -63 10 -99 29c-31 16 -54 24 -69 24c-35 0 -54 -14 -82 -54l-35 51
c40 49 67 67 119 67c30 0 63 -10 99 -29c31 -16 54 -24 69 -24c36 0 54 13 82 54z" />
    <glyph glyph-name="uacute.ss02" horiz-adv-x="734" 
d="M88 268v432h87v-429c0 -147 67 -211 214 -211c57 0 114 5 170 14v626h87v-683c-87 -21 -175 -31 -262 -31c-185 0 -296 95 -296 282zM283 740l99 174h89l-121 -174h-67z" />
    <glyph glyph-name="ugrave.ss02" horiz-adv-x="734" 
d="M88 268v432h87v-429c0 -147 67 -211 214 -211c57 0 114 5 170 14v626h87v-683c-87 -21 -175 -31 -262 -31c-185 0 -296 95 -296 282zM374 740l-121 174h89l99 -174h-67z" />
    <glyph glyph-name="ucircumflex.ss02" horiz-adv-x="734" 
d="M88 268v432h87v-429c0 -147 67 -211 214 -211c57 0 114 5 170 14v626h87v-683c-87 -21 -175 -31 -262 -31c-185 0 -296 95 -296 282zM315 914h104l105 -174h-65l-92 125l-92 -125h-65z" />
    <glyph glyph-name="udieresis.ss02" horiz-adv-x="734" 
d="M88 268v432h87v-429c0 -147 67 -211 214 -211c57 0 114 5 170 14v626h87v-683c-87 -21 -175 -31 -262 -31c-185 0 -296 95 -296 282zM274 891v-128h-78v128h78zM538 891v-128h-78v128h78z" />
    <glyph glyph-name="ae.ss02" horiz-adv-x="1142" 
d="M491 82v240c-63 15 -121 23 -172 23c-76 0 -126 -15 -150 -44c-23 -28 -29 -56 -29 -99s6 -71 29 -100c24 -28 74 -43 150 -43c51 0 109 8 172 23zM796 641c-133 0 -200 -77 -215 -230h417c-9 147 -65 230 -202 230zM814 59c81 0 163 14 248 41l16 -73
c-90 -27 -178 -41 -264 -41c-110 0 -191 28 -244 85v-46c-104 -26 -190 -39 -257 -39c-97 0 -166 19 -205 58s-58 92 -58 158s19 118 58 157s108 59 205 59c49 0 108 -7 178 -21v66c0 132 -47 179 -163 179c-67 0 -138 -16 -213 -47l-15 83c91 24 168 36 231 36
c112 0 186 -36 221 -109c51 73 132 109 244 109c192 0 291 -108 291 -353v-23h-509c3 -101 23 -173 59 -216c37 -42 96 -63 177 -63z" />
    <glyph glyph-name="oe.ss02" horiz-adv-x="1244" 
d="M534 126c38 45 57 119 57 224s-19 179 -57 224c-37 45 -93 67 -166 67s-129 -22 -167 -67c-37 -45 -56 -119 -56 -224s19 -179 56 -224c38 -45 94 -67 167 -67s129 22 166 67zM898 641c-133 0 -200 -77 -215 -230h417c-9 147 -65 230 -202 230zM916 59
c81 0 163 14 248 41l16 -73c-90 -27 -178 -41 -264 -41c-139 0 -232 46 -281 137c-48 -91 -137 -137 -267 -137c-89 0 -156 19 -217 71s-96 152 -96 293s35 241 96 293s128 71 217 71c131 0 220 -46 268 -138c49 92 136 138 262 138c192 0 291 -108 291 -353v-23h-509
c3 -101 23 -173 59 -216c37 -42 96 -63 177 -63z" />
    <glyph glyph-name="e.ss02.alt" 
d="M87 526c0 121 68 188 249 188c52 0 118 -7 197 -21l-13 -81c-71 19 -132 29 -183 29c-63 0 -106 -11 -129 -34s-34 -52 -34 -88c0 -80 42 -121 163 -121c37 0 73 1 107 2v-78c-34 2 -71 3 -111 3c-73 0 -122 -12 -149 -37c-26 -25 -39 -57 -39 -96
c0 -89 57 -133 186 -133c68 0 139 11 214 34l12 -81c-81 -17 -156 -26 -226 -26c-225 0 -276 88 -276 203c0 92 36 149 121 180c-59 28 -89 80 -89 157z" />
    <glyph glyph-name="eacute.ss02.alt" 
d="M87 526c0 121 68 188 249 188c52 0 118 -7 197 -21l-13 -81c-71 19 -132 29 -183 29c-63 0 -106 -11 -129 -34s-34 -52 -34 -88c0 -80 42 -121 163 -121c37 0 73 1 107 2v-78c-34 2 -71 3 -111 3c-73 0 -122 -12 -149 -37c-26 -25 -39 -57 -39 -96
c0 -89 57 -133 186 -133c68 0 139 11 214 34l12 -81c-81 -17 -156 -26 -226 -26c-225 0 -276 88 -276 203c0 92 36 149 121 180c-59 28 -89 80 -89 157zM261 740l99 174h89l-121 -174h-67z" />
    <glyph glyph-name="egrave.ss02.alt" 
d="M87 526c0 121 68 188 249 188c52 0 118 -7 197 -21l-13 -81c-71 19 -132 29 -183 29c-63 0 -106 -11 -129 -34s-34 -52 -34 -88c0 -80 42 -121 163 -121c37 0 73 1 107 2v-78c-34 2 -71 3 -111 3c-73 0 -122 -12 -149 -37c-26 -25 -39 -57 -39 -96
c0 -89 57 -133 186 -133c68 0 139 11 214 34l12 -81c-81 -17 -156 -26 -226 -26c-225 0 -276 88 -276 203c0 92 36 149 121 180c-59 28 -89 80 -89 157zM312 740l-121 174h89l99 -174h-67z" />
    <glyph glyph-name="ecircumflex.ss02.alt" 
d="M87 526c0 121 68 188 249 188c52 0 118 -7 197 -21l-13 -81c-71 19 -132 29 -183 29c-63 0 -106 -11 -129 -34s-34 -52 -34 -88c0 -80 42 -121 163 -121c37 0 73 1 107 2v-78c-34 2 -71 3 -111 3c-73 0 -122 -12 -149 -37c-26 -25 -39 -57 -39 -96
c0 -89 57 -133 186 -133c68 0 139 11 214 34l12 -81c-81 -17 -156 -26 -226 -26c-225 0 -276 88 -276 203c0 92 36 149 121 180c-59 28 -89 80 -89 157zM278 914h104l105 -174h-65l-92 125l-92 -125h-65z" />
    <glyph glyph-name="edieresis.ss02.alt" 
d="M87 526c0 121 68 188 249 188c52 0 118 -7 197 -21l-13 -81c-71 19 -132 29 -183 29c-63 0 -106 -11 -129 -34s-34 -52 -34 -88c0 -80 42 -121 163 -121c37 0 73 1 107 2v-78c-34 2 -71 3 -111 3c-73 0 -122 -12 -149 -37c-26 -25 -39 -57 -39 -96
c0 -89 57 -133 186 -133c68 0 139 11 214 34l12 -81c-81 -17 -156 -26 -226 -26c-225 0 -276 88 -276 203c0 92 36 149 121 180c-59 28 -89 80 -89 157zM237 891v-128h-78v128h78zM501 891v-128h-78v128h78z" />
    <glyph glyph-name="u.ss02" horiz-adv-x="734" 
d="M88 268v432h87v-429c0 -147 67 -211 214 -211c57 0 114 5 170 14v626h87v-683c-87 -21 -175 -31 -262 -31c-185 0 -296 95 -296 282z" />
    <glyph glyph-name="ordfeminine.ss02" horiz-adv-x="515" 
d="M352 241v150c-40 9 -76 14 -109 14c-47 0 -78 -8 -93 -24s-22 -38 -22 -65c0 -28 7 -50 22 -66s46 -24 93 -24c30 0 66 5 109 15zM235 468c33 0 72 -4 117 -13v42c0 83 -31 114 -108 114c-44 0 -93 -11 -148 -33l-13 70c73 17 128 26 166 26c131 0 178 -64 178 -176v-305
c-73 -19 -137 -29 -192 -29c-155 0 -185 76 -185 152s30 152 185 152z" />
    <glyph glyph-name="ordmasculine.ss02" horiz-adv-x="554" 
d="M133 419c0 -137 48 -193 144 -193s144 56 144 193c0 136 -48 192 -144 192s-144 -56 -144 -192zM499 419c0 -95 -20 -161 -60 -199c-39 -37 -93 -56 -162 -56s-123 19 -163 56c-39 38 -59 104 -59 199c0 94 20 160 59 198c40 38 94 57 163 57s123 -19 162 -57
c40 -38 60 -104 60 -198z" />
    <glyph glyph-name="afii10193.ss02" horiz-adv-x="734" 
d="M328 -180v130h86v-130h-86zM88 268v432h87v-429c0 -147 67 -211 214 -211c57 0 114 5 170 14v626h87v-683c-87 -21 -175 -31 -262 -31c-185 0 -296 95 -296 282z" />
    <glyph glyph-name="afii10070.ss02" horiz-adv-x="708" 
d="M380 59c81 0 163 14 248 41l16 -73c-90 -27 -178 -41 -264 -41c-123 0 -209 34 -258 101c-48 67 -67 150 -67 263c0 243 102 364 307 364c192 0 291 -108 291 -353v-23h-509c3 -101 23 -173 59 -216c37 -42 96 -63 177 -63zM362 641c-133 0 -200 -77 -215 -230h417
c-9 147 -65 230 -202 230z" />
    <glyph glyph-name="afii10071.ss02" horiz-adv-x="708" 
d="M380 59c81 0 163 14 248 41l16 -73c-90 -27 -178 -41 -264 -41c-123 0 -209 34 -258 101c-48 67 -67 150 -67 263c0 243 102 364 307 364c192 0 291 -108 291 -353v-23h-509c3 -101 23 -173 59 -216c37 -42 96 -63 177 -63zM362 641c-133 0 -200 -77 -215 -230h417
c-9 147 -65 230 -202 230zM261 891v-128h-78v128h78zM525 891v-128h-78v128h78z" />
    <glyph glyph-name="afii10065.ss02" horiz-adv-x="658" 
d="M491 82v240c-63 15 -121 23 -172 23c-76 0 -126 -15 -150 -44c-23 -28 -29 -56 -29 -99s6 -71 29 -100c24 -28 74 -43 150 -43c51 0 109 8 172 23zM313 418c49 0 108 -7 178 -21v66c0 132 -47 179 -163 179c-67 0 -138 -16 -213 -47l-15 83c91 24 168 36 231 36
c206 0 247 -122 247 -248v-439c-109 -27 -198 -41 -265 -41c-97 0 -166 19 -205 58s-58 92 -58 158s19 118 58 157s108 59 205 59z" />
    <glyph glyph-name="afii10074.ss02" horiz-adv-x="734" 
d="M88 268v432h87v-429c0 -147 67 -211 214 -211c57 0 114 5 170 14v626h87v-683c-87 -21 -175 -31 -262 -31c-185 0 -296 95 -296 282z" />
    <glyph glyph-name="afii10075.ss02" horiz-adv-x="734" 
d="M88 268v432h87v-429c0 -147 67 -211 214 -211c57 0 114 5 170 14v626h87v-683c-87 -21 -175 -31 -262 -31c-185 0 -296 95 -296 282zM187 847l56 39c26 -43 67 -65 124 -65s98 22 124 65l56 -39c-39 -62 -99 -93 -180 -93s-141 31 -180 93z" />
    <glyph glyph-name="afii10081.ss02" horiz-adv-x="734" 
d="M646 432v-432h-87v429c0 147 -67 211 -214 211c-57 0 -114 -5 -170 -14v-626h-87v683c87 21 175 31 262 31c185 0 296 -95 296 -282z" />
    <glyph glyph-name="afii10088.ss02" horiz-adv-x="753" 
d="M88 268v432h87v-429c0 -147 67 -211 214 -211c57 0 114 5 170 14v626h87v-612h77v-218h-76l-9 145c-87 -19 -171 -29 -254 -29c-185 0 -296 95 -296 282z" />
    <glyph glyph-name="afii10090.ss02" horiz-adv-x="1001" 
d="M88 308v392h87v-389c0 -83 20 -144 60 -183c41 -39 115 -62 222 -67v639h87v-640c109 3 203 13 282 32v608h87v-664c-133 -33 -267 -50 -402 -50c-321 4 -424 112 -423 322z" />
    <glyph glyph-name="afii10091.ss02" horiz-adv-x="1020" 
d="M88 308v392h87v-389c0 -83 20 -144 60 -183c41 -39 115 -62 222 -67v639h87v-640c109 3 203 13 282 32v608h87v-598h77v-232h-76l-9 161c-157 -30 -288 -45 -394 -45c-321 4 -424 112 -423 322z" />
    <glyph glyph-name="afii10070.ss02.alt" 
d="M87 526c0 121 68 188 249 188c52 0 118 -7 197 -21l-13 -81c-71 19 -132 29 -183 29c-63 0 -106 -11 -129 -34s-34 -52 -34 -88c0 -80 42 -121 163 -121c37 0 73 1 107 2v-78c-34 2 -71 3 -111 3c-73 0 -122 -12 -149 -37c-26 -25 -39 -57 -39 -96
c0 -89 57 -133 186 -133c68 0 139 11 214 34l12 -81c-81 -17 -156 -26 -226 -26c-225 0 -276 88 -276 203c0 92 36 149 121 180c-59 28 -89 80 -89 157z" />
    <glyph glyph-name="afii10071.ss02.alt" 
d="M87 526c0 121 68 188 249 188c52 0 118 -7 197 -21l-13 -81c-71 19 -132 29 -183 29c-63 0 -106 -11 -129 -34s-34 -52 -34 -88c0 -80 42 -121 163 -121c37 0 73 1 107 2v-78c-34 2 -71 3 -111 3c-73 0 -122 -12 -149 -37c-26 -25 -39 -57 -39 -96
c0 -89 57 -133 186 -133c68 0 139 11 214 34l12 -81c-81 -17 -156 -26 -226 -26c-225 0 -276 88 -276 203c0 92 36 149 121 180c-59 28 -89 80 -89 157zM237 891v-128h-78v128h78zM501 891v-128h-78v128h78z" />
    <glyph glyph-name="afii10070.ss02.accented" horiz-adv-x="708" 
d="M380 59c81 0 163 14 248 41l16 -73c-90 -27 -178 -41 -264 -41c-123 0 -209 34 -258 101c-48 67 -67 150 -67 263c0 243 102 364 307 364c192 0 291 -108 291 -353v-23h-509c3 -101 23 -173 59 -216c37 -42 96 -63 177 -63zM362 641c-133 0 -200 -77 -215 -230h417
c-9 147 -65 230 -202 230zM301 740l99 174h89l-121 -174h-67z" />
    <glyph glyph-name="afii10071.ss02.accented" horiz-adv-x="708" 
d="M240 901v-128h-78v128h78zM555 901v-128h-78v128h78zM380 59c81 0 163 14 248 41l16 -73c-90 -27 -178 -41 -264 -41c-123 0 -209 34 -258 101c-48 67 -67 150 -67 263c0 243 102 364 307 364c192 0 291 -108 291 -353v-23h-509c3 -101 23 -173 59 -216
c37 -42 96 -63 177 -63zM362 641c-133 0 -200 -77 -215 -230h417c-9 147 -65 230 -202 230zM270 740l99 174h89l-121 -174h-67z" />
    <glyph glyph-name="afii10071.ss02.accented.alt" 
d="M200 901v-128h-78v128h78zM515 901v-128h-78v128h78zM87 526c0 121 68 188 249 188c52 0 118 -7 197 -21l-13 -81c-71 19 -132 29 -183 29c-63 0 -106 -11 -129 -34s-34 -52 -34 -88c0 -80 42 -121 163 -121c37 0 73 1 107 2v-78c-34 2 -71 3 -111 3
c-73 0 -122 -12 -149 -37c-26 -25 -39 -57 -39 -96c0 -89 57 -133 186 -133c68 0 139 11 214 34l12 -81c-81 -17 -156 -26 -226 -26c-225 0 -276 88 -276 203c0 92 36 149 121 180c-59 28 -89 80 -89 157zM230 740l99 174h89l-121 -174h-67z" />
    <glyph glyph-name="afii10074.ss02.accented" horiz-adv-x="734" 
d="M88 268v432h87v-429c0 -147 67 -211 214 -211c57 0 114 5 170 14v626h87v-683c-87 -21 -175 -31 -262 -31c-185 0 -296 95 -296 282zM286 740l99 174h89l-121 -174h-67z" />
    <glyph glyph-name="afii10070.ss02.accented.alt" 
d="M87 526c0 121 68 188 249 188c52 0 118 -7 197 -21l-13 -81c-71 19 -132 29 -183 29c-63 0 -106 -11 -129 -34s-34 -52 -34 -88c0 -80 42 -121 163 -121c37 0 73 1 107 2v-78c-34 2 -71 3 -111 3c-73 0 -122 -12 -149 -37c-26 -25 -39 -57 -39 -96
c0 -89 57 -133 186 -133c68 0 139 11 214 34l12 -81c-81 -17 -156 -26 -226 -26c-225 0 -276 88 -276 203c0 92 36 149 121 180c-59 28 -89 80 -89 157zM271 740l99 174h89l-121 -174h-67z" />
    <glyph glyph-name="afii10065.ss02.accented" horiz-adv-x="658" 
d="M491 82v240c-63 15 -121 23 -172 23c-76 0 -126 -15 -150 -44c-23 -28 -29 -56 -29 -99s6 -71 29 -100c24 -28 74 -43 150 -43c51 0 109 8 172 23zM313 418c49 0 108 -7 178 -21v66c0 132 -47 179 -163 179c-67 0 -138 -16 -213 -47l-15 83c91 24 168 36 231 36
c206 0 247 -122 247 -248v-439c-109 -27 -198 -41 -265 -41c-97 0 -166 19 -205 58s-58 92 -58 158s19 118 58 157s108 59 205 59zM266 740l99 174h89l-121 -174h-67z" />
    <glyph glyph-name="ccedilla.ss02" horiz-adv-x="624" 
d="M396 -13l-3 -27h10c73 0 112 -37 112 -98c0 -67 -44 -98 -112 -98c-26 0 -56 3 -89 10l7 52c26 -9 50 -14 73 -14c78 -8 78 108 0 100c-21 0 -42 -1 -64 -3l10 78c-184 9 -285 119 -285 363c0 256 112 364 313 364c49 0 116 -8 201 -23l-13 -83c-78 22 -140 33 -186 33
c-159 0 -225 -92 -225 -291s66 -291 225 -291c46 0 108 11 186 33l13 -80c-66 -15 -124 -23 -173 -25z" />
    <glyph glyph-name="igrave.ss02" horiz-adv-x="263" 
d="M175 0h-87v700h87v-700zM119 740l-121 174h89l99 -174h-67z" />
    <glyph glyph-name="iacute.ss02" horiz-adv-x="263" 
d="M175 0h-87v700h87v-700zM77 740l99 174h89l-121 -174h-67z" />
    <glyph glyph-name="icircumflex.ss02" horiz-adv-x="263" 
d="M175 0h-87v700h87v-700zM80 914h104l105 -174h-65l-92 125l-92 -125h-65z" />
    <glyph glyph-name="idieresis.ss02" horiz-adv-x="263" 
d="M84 891v-128h-76v128h76zM255 891v-128h-76v128h76zM175 0h-87v700h87v-700z" />
    <glyph glyph-name="eth.ss02" horiz-adv-x="735" 
d="M21 386h79v298c76 20 151 30 225 30c127 0 218 -31 273 -94c55 -62 82 -152 82 -270s-27 -208 -82 -271c-55 -62 -146 -93 -273 -93c-74 0 -149 10 -225 30v299h-79v71zM318 315h-131v-241c43 -10 88 -15 137 -15c191 0 266 94 266 291s-75 291 -266 291
c-49 0 -94 -5 -137 -15v-240h131v-71z" />
    <glyph glyph-name="ograve.ss02" horiz-adv-x="736" 
d="M656 530c17 -49 25 -109 25 -180s-8 -131 -25 -180c-33 -99 -100 -147 -169 -168c-35 -11 -74 -16 -119 -16s-84 5 -119 16c-69 21 -136 69 -169 168c-17 49 -25 109 -25 180s8 131 25 180c33 99 100 147 169 168c35 11 74 16 119 16s84 -5 119 -16
c69 -21 136 -69 169 -168zM534 126c38 45 57 119 57 224s-19 179 -57 224c-37 45 -93 67 -166 67s-129 -22 -167 -67c-37 -45 -56 -119 -56 -224s19 -179 56 -224c38 -45 94 -67 167 -67s129 22 166 67zM384 740l-121 174h89l99 -174h-67z" />
    <glyph glyph-name="oacute.ss02" horiz-adv-x="736" 
d="M656 530c17 -49 25 -109 25 -180s-8 -131 -25 -180c-33 -99 -100 -147 -169 -168c-35 -11 -74 -16 -119 -16s-84 5 -119 16c-69 21 -136 69 -169 168c-17 49 -25 109 -25 180s8 131 25 180c33 99 100 147 169 168c35 11 74 16 119 16s84 -5 119 -16
c69 -21 136 -69 169 -168zM534 126c38 45 57 119 57 224s-19 179 -57 224c-37 45 -93 67 -166 67s-129 -22 -167 -67c-37 -45 -56 -119 -56 -224s19 -179 56 -224c38 -45 94 -67 167 -67s129 22 166 67zM336 740l99 174h89l-121 -174h-67z" />
    <glyph glyph-name="ocircumflex.ss02" horiz-adv-x="736" 
d="M656 530c17 -49 25 -109 25 -180s-8 -131 -25 -180c-33 -99 -100 -147 -169 -168c-35 -11 -74 -16 -119 -16s-84 5 -119 16c-69 21 -136 69 -169 168c-17 49 -25 109 -25 180s8 131 25 180c33 99 100 147 169 168c35 11 74 16 119 16s84 -5 119 -16
c69 -21 136 -69 169 -168zM534 126c38 45 57 119 57 224s-19 179 -57 224c-37 45 -93 67 -166 67s-129 -22 -167 -67c-37 -45 -56 -119 -56 -224s19 -179 56 -224c38 -45 94 -67 167 -67s129 22 166 67zM316 914h104l105 -174h-65l-92 125l-92 -125h-65z" />
    <glyph glyph-name="otilde.ss02" horiz-adv-x="736" 
d="M656 530c17 -49 25 -109 25 -180s-8 -131 -25 -180c-33 -99 -100 -147 -169 -168c-35 -11 -74 -16 -119 -16s-84 5 -119 16c-69 21 -136 69 -169 168c-17 49 -25 109 -25 180s8 131 25 180c33 99 100 147 169 168c35 11 74 16 119 16s84 -5 119 -16
c69 -21 136 -69 169 -168zM534 126c38 45 57 119 57 224s-19 179 -57 224c-37 45 -93 67 -166 67s-129 -22 -167 -67c-37 -45 -56 -119 -56 -224s19 -179 56 -224c38 -45 94 -67 167 -67s129 22 166 67zM535 889l35 -51c-40 -49 -67 -67 -119 -67c-30 0 -63 10 -99 29
c-31 16 -54 24 -69 24c-35 0 -54 -14 -82 -54l-35 51c40 49 67 67 119 67c30 0 63 -10 99 -29c31 -16 54 -24 69 -24c36 0 54 13 82 54z" />
    <glyph glyph-name="odieresis.ss02" horiz-adv-x="736" 
d="M656 530c17 -49 25 -109 25 -180s-8 -131 -25 -180c-33 -99 -100 -147 -169 -168c-35 -11 -74 -16 -119 -16s-84 5 -119 16c-69 21 -136 69 -169 168c-17 49 -25 109 -25 180s8 131 25 180c33 99 100 147 169 168c35 11 74 16 119 16s84 -5 119 -16
c69 -21 136 -69 169 -168zM534 126c38 45 57 119 57 224s-19 179 -57 224c-37 45 -93 67 -166 67s-129 -22 -167 -67c-37 -45 -56 -119 -56 -224s19 -179 56 -224c38 -45 94 -67 167 -67s129 22 166 67zM275 891v-128h-78v128h78zM539 891v-128h-78v128h78z" />
    <glyph glyph-name="oslash.ss02" horiz-adv-x="736" 
d="M591 350c0 109 -22 187 -65 234l-256 -509c28 -11 61 -16 98 -16c147 0 223 82 223 291zM145 350c0 -109 22 -187 65 -234l255 508c-29 11 -61 17 -97 17c-147 0 -223 -82 -223 -291zM536 765h81l-53 -105c78 -57 117 -160 117 -310c0 -141 -35 -241 -96 -293
s-128 -71 -217 -71c-49 0 -94 7 -133 20l-35 -71h-81l53 105c-78 57 -117 160 -117 310c0 141 35 241 96 293s128 71 217 71c49 0 93 -7 132 -20z" />
    <glyph glyph-name="thorn.ss02" horiz-adv-x="615" 
d="M175 493v-273c55 -9 99 -14 133 -14c118 0 177 50 177 151s-59 151 -177 151c-36 0 -80 -5 -133 -15zM88 700h87v-133c59 9 104 14 135 14c177 0 265 -75 265 -224s-88 -224 -265 -224c-37 0 -82 5 -135 14v-147h-87v700z" />
    <glyph glyph-name="yacute.ss02" horiz-adv-x="651" 
d="M325 351h1l220 349h104l-281 -436v-264h-87v264l-281 436h104zM268 740l99 174h89l-121 -174h-67z" />
    <glyph glyph-name="ydieresis.ss02" horiz-adv-x="651" 
d="M325 351h1l220 349h104l-281 -436v-264h-87v264l-281 436h104zM233 891v-128h-78v128h78zM497 891v-128h-78v128h78z" />
    <glyph glyph-name="germandbls.ss02" horiz-adv-x="639" 
d="M544 543l-171 -149c145 -9 211 -74 211 -201c0 -65 -19 -115 -57 -150s-106 -53 -204 -53c-6 0 -30 1 -71 2v73c21 -1 44 -2 67 -2c133 0 175 42 175 131c0 95 -53 131 -176 131h-66v60l200 175c-19 52 -51 81 -138 81c-103 0 -147 -45 -147 -156v-485h-87v483
c0 164 84 231 235 231c145 0 216 -51 229 -171z" />
    <glyph glyph-name="scaron.ss02" horiz-adv-x="601" 
d="M297 59c106 0 159 42 159 125c0 32 -3 52 -22 77c-17 25 -57 44 -117 52l-35 5c-151 21 -216 81 -216 202c0 129 82 194 234 194c55 0 127 -10 218 -29l-12 -83c-83 26 -152 39 -205 39c-97 0 -145 -40 -145 -121c0 -77 39 -110 139 -125l35 -5c81 -11 138 -35 169 -71
c31 -35 47 -80 47 -134c0 -133 -83 -199 -249 -199c-67 0 -150 12 -247 35l14 87c41 -16 83 -28 127 -37c44 -8 79 -12 106 -12zM393 914h65l-105 -174h-104l-105 174h65l92 -125z" />
    <glyph glyph-name="zcaron.ss02" horiz-adv-x="608" 
d="M154 73h404v-73h-508v73l391 554h-378v73h482v-73zM396 914h65l-105 -174h-104l-105 174h65l92 -125z" />
    <glyph glyph-name="lslash.ss02" horiz-adv-x="539" 
d="M187 73h330v-73h-417v349l-79 -24v73l79 24v278h87v-251l160 49v-73l-160 -49v-303z" />
    <glyph glyph-name="v.ss02" horiz-adv-x="680" 
d="M669 700l-280 -700h-100l-278 700h95l233 -599l235 599h95z" />
    <glyph glyph-name="acircumflex.ss01" horiz-adv-x="522" 
d="M247 234c-99 0 -123 -33 -123 -92s24 -92 123 -92c37 0 77 5 120 16v152c-47 11 -87 16 -120 16zM367 284v48c0 75 -22 116 -113 116c-39 0 -92 -11 -159 -33l-13 71c80 17 138 26 174 26c71 0 121 -16 148 -49c27 -32 41 -75 41 -129v-316c-77 -21 -144 -32 -199 -32
c-76 0 -129 14 -158 42c-29 29 -44 67 -44 114s15 85 44 113c29 29 82 43 158 43c32 0 72 -5 121 -14zM205 762h98l99 -174h-61l-87 125l-87 -125h-61z" />
    <glyph glyph-name="agrave.ss01" horiz-adv-x="522" 
d="M247 234c-99 0 -123 -33 -123 -92s24 -92 123 -92c37 0 77 5 120 16v152c-47 11 -87 16 -120 16zM367 284v48c0 75 -22 116 -113 116c-39 0 -92 -11 -159 -33l-13 71c80 17 138 26 174 26c71 0 121 -16 148 -49c27 -32 41 -75 41 -129v-316c-77 -21 -144 -32 -199 -32
c-76 0 -129 14 -158 42c-29 29 -44 67 -44 114s15 85 44 113c29 29 82 43 158 43c32 0 72 -5 121 -14zM269 588l-121 174h83l99 -174h-61z" />
    <glyph glyph-name="aacute.ss01" horiz-adv-x="522" 
d="M247 234c-99 0 -123 -33 -123 -92s24 -92 123 -92c37 0 77 5 120 16v152c-47 11 -87 16 -120 16zM367 284v48c0 75 -22 116 -113 116c-39 0 -92 -11 -159 -33l-13 71c80 17 138 26 174 26c71 0 121 -16 148 -49c27 -32 41 -75 41 -129v-316c-77 -21 -144 -32 -199 -32
c-76 0 -129 14 -158 42c-29 29 -44 67 -44 114s15 85 44 113c29 29 82 43 158 43c32 0 72 -5 121 -14zM196 588l99 174h83l-121 -174h-61z" />
    <glyph glyph-name="u.ss01" horiz-adv-x="575" 
d="M77 189v309h78v-306c0 -95 37 -142 140 -142c43 0 85 5 125 15v433h78v-478c-66 -23 -134 -34 -205 -34c-144 0 -216 72 -216 203z" />
    <glyph glyph-name="r.ss01" horiz-adv-x="341" 
d="M330 511v-70c-12 1 -23 1 -33 1c-49 0 -97 -6 -142 -18v-424h-78v478c67 23 136 34 205 34c20 0 36 0 48 -1z" />
    <glyph glyph-name="q.ss01" horiz-adv-x="580" 
d="M503 -200h-78v201c-50 -10 -96 -15 -137 -15c-93 0 -159 29 -192 80c-33 52 -46 107 -46 183s13 131 46 182c33 52 99 81 192 81c74 0 146 -11 215 -34v-678zM425 67v364c-47 11 -92 17 -137 17c-112 0 -158 -68 -158 -199s46 -199 158 -199c45 0 90 6 137 17z" />
    <glyph glyph-name="p.ss01" horiz-adv-x="580" 
d="M155 1v-201h-78v678c69 23 141 34 215 34c93 0 159 -29 192 -81c33 -51 46 -106 46 -182s-13 -131 -46 -183c-33 -51 -99 -80 -192 -80c-41 0 -87 5 -137 15zM155 431v-364c47 -11 92 -17 137 -17c112 0 158 68 158 199s-46 199 -158 199c-45 0 -90 -6 -137 -17z" />
    <glyph glyph-name="hyphenminus" horiz-adv-x="478" 
d="M390 297v-70h-302v70h302z" />
    <glyph glyph-name="afii10099.ss01" horiz-adv-x="613" 
d="M458 94v189c0 95 -37 142 -140 142c-43 0 -85 -5 -125 -15v-410h-78v582h-70v59h70v99h78v-99h186v-59h-186v-106c43 9 86 13 127 13c144 0 216 -72 216 -203v-194c0 -111 -16 -188 -49 -231c-32 -44 -86 -69 -162 -75l-7 64c54 5 91 24 110 57c20 33 30 95 30 187z" />
    <glyph glyph-name="afii10108.ss01" horiz-adv-x="613" 
d="M379 582h-186v-106c43 9 86 13 127 13c144 0 216 -72 216 -203v-286h-78v283c0 95 -37 142 -140 142c-43 0 -85 -5 -125 -15v-410h-78v582h-70v59h70v99h78v-99h186v-59z" />
    <glyph glyph-name="afii10193.ss01" horiz-adv-x="575" 
d="M249 -180v130h78v-130h-78zM77 189v309h78v-306c0 -95 37 -142 140 -142c43 0 85 5 125 15v433h78v-478c-66 -23 -134 -34 -205 -34c-144 0 -216 72 -216 203z" />
    <glyph glyph-name="aacute.ss04" horiz-adv-x="580" 
d="M425 94v310c-66 29 -117 44 -153 44c-99 0 -142 -51 -142 -199s43 -199 142 -199c36 0 87 15 153 44zM427 498h76v-498h-76v32c-67 -31 -124 -46 -170 -46c-136 0 -207 75 -207 263s71 263 207 263c46 0 103 -15 170 -46v32zM239 588l99 174h83l-121 -174h-61z" />
    <glyph glyph-name="agrave.ss04" horiz-adv-x="580" 
d="M425 94v310c-66 29 -117 44 -153 44c-99 0 -142 -51 -142 -199s43 -199 142 -199c36 0 87 15 153 44zM427 498h76v-498h-76v32c-67 -31 -124 -46 -170 -46c-136 0 -207 75 -207 263s71 263 207 263c46 0 103 -15 170 -46v32zM290 588l-121 174h83l99 -174h-61z" />
    <glyph glyph-name="acircumflex.ss04" horiz-adv-x="580" 
d="M425 94v310c-66 29 -117 44 -153 44c-99 0 -142 -51 -142 -199s43 -199 142 -199c36 0 87 15 153 44zM427 498h76v-498h-76v32c-67 -31 -124 -46 -170 -46c-136 0 -207 75 -207 263s71 263 207 263c46 0 103 -15 170 -46v32zM231 762h98l99 -174h-61l-87 125l-87 -125
h-61z" />
    <glyph glyph-name="adieresis.ss04" horiz-adv-x="580" 
d="M425 94v310c-66 29 -117 44 -153 44c-99 0 -142 -51 -142 -199s43 -199 142 -199c36 0 87 15 153 44zM427 498h76v-498h-76v32c-67 -31 -124 -46 -170 -46c-136 0 -207 75 -207 263s71 263 207 263c46 0 103 -15 170 -46v32zM195 740v-128h-78v128h78zM443 740v-128h-78
v128h78z" />
    <glyph glyph-name="atilde.ss04" horiz-adv-x="580" 
d="M425 94v310c-66 29 -117 44 -153 44c-99 0 -142 -51 -142 -199s43 -199 142 -199c36 0 87 15 153 44zM427 498h76v-498h-76v32c-67 -31 -124 -46 -170 -46c-136 0 -207 75 -207 263s71 263 207 263c46 0 103 -15 170 -46v32zM435 732l32 -48c-36 -45 -62 -62 -110 -62
c-28 0 -59 9 -92 27c-28 15 -49 22 -64 22c-32 0 -51 -13 -76 -50l-32 48c36 45 62 62 110 62c28 0 59 -9 92 -27c28 -15 49 -22 64 -22c32 0 51 13 76 50z" />
    <glyph glyph-name="aring.ss04" horiz-adv-x="580" 
d="M425 94v310c-66 29 -117 44 -153 44c-99 0 -142 -51 -142 -199s43 -199 142 -199c36 0 87 15 153 44zM427 498h76v-498h-76v32c-67 -31 -124 -46 -170 -46c-136 0 -207 75 -207 263s71 263 207 263c46 0 103 -15 170 -46v32zM280 786c75 0 113 -37 113 -112
s-38 -112 -113 -112s-113 37 -113 112s38 112 113 112zM233 726c-10 -11 -15 -28 -15 -52s5 -41 15 -52s26 -16 47 -16s37 5 47 16s15 28 15 52s-5 41 -15 52s-26 16 -47 16s-37 -5 -47 -16z" />
    <glyph glyph-name="ae.ss04" horiz-adv-x="933" 
d="M425 94v310c-66 29 -117 44 -153 44c-99 0 -142 -51 -142 -199s43 -199 142 -199c36 0 87 15 153 44zM659 448c-92 0 -143 -51 -154 -153h299c-7 100 -44 153 -145 153zM677 50c58 0 119 9 184 28l15 -64c-70 -19 -138 -28 -203 -28c-79 0 -139 19 -180 56v-42h-66v32
c-67 -31 -124 -46 -170 -46c-136 0 -207 75 -207 263s71 263 207 263c46 0 103 -15 170 -46v32h66v-43c40 38 95 57 166 57c83 0 141 -23 174 -69c33 -45 50 -110 50 -194v-17h-380c7 -128 53 -182 174 -182z" />
    <glyph glyph-name="A.ss03" horiz-adv-x="658" 
d="M491 82v240c-63 15 -121 23 -172 23c-76 0 -126 -15 -150 -44c-23 -28 -29 -56 -29 -99s6 -71 29 -100c24 -28 74 -43 150 -43c51 0 109 8 172 23zM313 418c49 0 108 -7 178 -21v66c0 132 -47 179 -163 179c-67 0 -138 -16 -213 -47l-15 83c91 24 168 36 231 36
c206 0 247 -122 247 -248v-439c-109 -27 -198 -41 -265 -41c-97 0 -166 19 -205 58s-58 92 -58 158s19 118 58 157s108 59 205 59z" />
    <glyph glyph-name="E.ss03" horiz-adv-x="708" 
d="M380 59c81 0 163 14 248 41l16 -73c-90 -27 -178 -41 -264 -41c-123 0 -209 34 -258 101c-48 67 -67 150 -67 263c0 243 102 364 307 364c192 0 291 -108 291 -353v-23h-509c3 -101 23 -173 59 -216c37 -42 96 -63 177 -63zM362 641c-133 0 -200 -77 -215 -230h417
c-9 147 -65 230 -202 230z" />
    <glyph glyph-name="M.ss03" horiz-adv-x="1161" 
d="M624 0h-87v429c0 147 -63 211 -202 211c-54 0 -107 -5 -160 -14v-626h-87v683c83 21 167 31 252 31c81 0 147 -20 197 -60c95 40 178 60 250 60c155 0 286 -67 286 -282v-432h-87v429c0 156 -63 211 -203 211c-55 0 -121 -16 -196 -47c25 -41 37 -95 37 -161v-432z" />
    <glyph glyph-name="N.ss03" horiz-adv-x="734" 
d="M646 432v-432h-87v429c0 147 -67 211 -214 211c-57 0 -114 -5 -170 -14v-626h-87v683c87 21 175 31 262 31c185 0 296 -95 296 -282z" />
    <glyph glyph-name="U.ss03" horiz-adv-x="734" 
d="M88 268v432h87v-429c0 -147 67 -211 214 -211c57 0 114 5 170 14v626h87v-683c-87 -21 -175 -31 -262 -31c-185 0 -296 95 -296 282z" />
    <glyph glyph-name="Aacute.ss03" horiz-adv-x="658" 
d="M491 82v240c-63 15 -121 23 -172 23c-76 0 -126 -15 -150 -44c-23 -28 -29 -56 -29 -99s6 -71 29 -100c24 -28 74 -43 150 -43c51 0 109 8 172 23zM313 418c49 0 108 -7 178 -21v66c0 132 -47 179 -163 179c-67 0 -138 -16 -213 -47l-15 83c91 24 168 36 231 36
c206 0 247 -122 247 -248v-439c-109 -27 -198 -41 -265 -41c-97 0 -166 19 -205 58s-58 92 -58 158s19 118 58 157s108 59 205 59zM277 740l99 174h89l-121 -174h-67z" />
    <glyph glyph-name="Agrave.ss03" horiz-adv-x="658" 
d="M491 82v240c-63 15 -121 23 -172 23c-76 0 -126 -15 -150 -44c-23 -28 -29 -56 -29 -99s6 -71 29 -100c24 -28 74 -43 150 -43c51 0 109 8 172 23zM313 418c49 0 108 -7 178 -21v66c0 132 -47 179 -163 179c-67 0 -138 -16 -213 -47l-15 83c91 24 168 36 231 36
c206 0 247 -122 247 -248v-439c-109 -27 -198 -41 -265 -41c-97 0 -166 19 -205 58s-58 92 -58 158s19 118 58 157s108 59 205 59zM319 740l-121 174h89l99 -174h-67z" />
    <glyph glyph-name="Acircumflex.ss03" horiz-adv-x="658" 
d="M491 82v240c-63 15 -121 23 -172 23c-76 0 -126 -15 -150 -44c-23 -28 -29 -56 -29 -99s6 -71 29 -100c24 -28 74 -43 150 -43c51 0 109 8 172 23zM313 418c49 0 108 -7 178 -21v66c0 132 -47 179 -163 179c-67 0 -138 -16 -213 -47l-15 83c91 24 168 36 231 36
c206 0 247 -122 247 -248v-439c-109 -27 -198 -41 -265 -41c-97 0 -166 19 -205 58s-58 92 -58 158s19 118 58 157s108 59 205 59zM259 914h104l105 -174h-65l-92 125l-92 -125h-65z" />
    <glyph glyph-name="Adieresis.ss03" horiz-adv-x="658" 
d="M491 82v240c-63 15 -121 23 -172 23c-76 0 -126 -15 -150 -44c-23 -28 -29 -56 -29 -99s6 -71 29 -100c24 -28 74 -43 150 -43c51 0 109 8 172 23zM313 418c49 0 108 -7 178 -21v66c0 132 -47 179 -163 179c-67 0 -138 -16 -213 -47l-15 83c91 24 168 36 231 36
c206 0 247 -122 247 -248v-439c-109 -27 -198 -41 -265 -41c-97 0 -166 19 -205 58s-58 92 -58 158s19 118 58 157s108 59 205 59zM218 891v-128h-78v128h78zM482 891v-128h-78v128h78z" />
    <glyph glyph-name="Atilde.ss03" horiz-adv-x="658" 
d="M491 82v240c-63 15 -121 23 -172 23c-76 0 -126 -15 -150 -44c-23 -28 -29 -56 -29 -99s6 -71 29 -100c24 -28 74 -43 150 -43c51 0 109 8 172 23zM313 418c49 0 108 -7 178 -21v66c0 132 -47 179 -163 179c-67 0 -138 -16 -213 -47l-15 83c91 24 168 36 231 36
c206 0 247 -122 247 -248v-439c-109 -27 -198 -41 -265 -41c-97 0 -166 19 -205 58s-58 92 -58 158s19 118 58 157s108 59 205 59zM488 889l35 -51c-40 -49 -67 -67 -119 -67c-30 0 -63 10 -99 29c-31 16 -54 24 -69 24c-35 0 -54 -14 -82 -54l-35 51c40 49 67 67 119 67
c30 0 63 -10 99 -29c31 -16 54 -24 69 -24c36 0 54 13 82 54z" />
    <glyph glyph-name="Aring.ss03" horiz-adv-x="658" 
d="M491 82v240c-63 15 -121 23 -172 23c-76 0 -126 -15 -150 -44c-23 -28 -29 -56 -29 -99s6 -71 29 -100c24 -28 74 -43 150 -43c51 0 109 8 172 23zM313 418c49 0 108 -7 178 -21v66c0 132 -47 179 -163 179c-67 0 -138 -16 -213 -47l-15 83c91 24 168 36 231 36
c206 0 247 -122 247 -248v-439c-109 -27 -198 -41 -265 -41c-97 0 -166 19 -205 58s-58 92 -58 158s19 118 58 157s108 59 205 59zM321 941c75 0 113 -37 113 -112s-38 -112 -113 -112s-113 37 -113 112s38 112 113 112zM274 881c-10 -11 -15 -28 -15 -52s5 -41 15 -52
s26 -16 47 -16s37 5 47 16s15 28 15 52s-5 41 -15 52s-26 16 -47 16s-37 -5 -47 -16z" />
    <glyph glyph-name="Eacute.ss03" horiz-adv-x="708" 
d="M380 59c81 0 163 14 248 41l16 -73c-90 -27 -178 -41 -264 -41c-123 0 -209 34 -258 101c-48 67 -67 150 -67 263c0 243 102 364 307 364c192 0 291 -108 291 -353v-23h-509c3 -101 23 -173 59 -216c37 -42 96 -63 177 -63zM362 641c-133 0 -200 -77 -215 -230h417
c-9 147 -65 230 -202 230zM301 740l99 174h89l-121 -174h-67z" />
    <glyph glyph-name="Egrave.ss03" horiz-adv-x="708" 
d="M380 59c81 0 163 14 248 41l16 -73c-90 -27 -178 -41 -264 -41c-123 0 -209 34 -258 101c-48 67 -67 150 -67 263c0 243 102 364 307 364c192 0 291 -108 291 -353v-23h-509c3 -101 23 -173 59 -216c37 -42 96 -63 177 -63zM362 641c-133 0 -200 -77 -215 -230h417
c-9 147 -65 230 -202 230zM343 740l-121 174h89l99 -174h-67z" />
    <glyph glyph-name="Ecircumflex.ss03" horiz-adv-x="708" 
d="M380 59c81 0 163 14 248 41l16 -73c-90 -27 -178 -41 -264 -41c-123 0 -209 34 -258 101c-48 67 -67 150 -67 263c0 243 102 364 307 364c192 0 291 -108 291 -353v-23h-509c3 -101 23 -173 59 -216c37 -42 96 -63 177 -63zM362 641c-133 0 -200 -77 -215 -230h417
c-9 147 -65 230 -202 230zM302 914h104l105 -174h-65l-92 125l-92 -125h-65z" />
    <glyph glyph-name="Edieresis.ss03" horiz-adv-x="708" 
d="M380 59c81 0 163 14 248 41l16 -73c-90 -27 -178 -41 -264 -41c-123 0 -209 34 -258 101c-48 67 -67 150 -67 263c0 243 102 364 307 364c192 0 291 -108 291 -353v-23h-509c3 -101 23 -173 59 -216c37 -42 96 -63 177 -63zM362 641c-133 0 -200 -77 -215 -230h417
c-9 147 -65 230 -202 230zM261 891v-128h-78v128h78zM525 891v-128h-78v128h78z" />
    <glyph glyph-name="Ntilde.ss03" horiz-adv-x="734" 
d="M646 432v-432h-87v429c0 147 -67 211 -214 211c-57 0 -114 -5 -170 -14v-626h-87v683c87 21 175 31 262 31c185 0 296 -95 296 -282zM534 889l35 -51c-40 -49 -67 -67 -119 -67c-30 0 -63 10 -99 29c-31 16 -54 24 -69 24c-35 0 -54 -14 -82 -54l-35 51
c40 49 67 67 119 67c30 0 63 -10 99 -29c31 -16 54 -24 69 -24c36 0 54 13 82 54z" />
    <glyph glyph-name="Uacute.ss03" horiz-adv-x="734" 
d="M88 268v432h87v-429c0 -147 67 -211 214 -211c57 0 114 5 170 14v626h87v-683c-87 -21 -175 -31 -262 -31c-185 0 -296 95 -296 282zM283 740l99 174h89l-121 -174h-67z" />
    <glyph glyph-name="Ugrave.ss03" horiz-adv-x="734" 
d="M88 268v432h87v-429c0 -147 67 -211 214 -211c57 0 114 5 170 14v626h87v-683c-87 -21 -175 -31 -262 -31c-185 0 -296 95 -296 282zM374 740l-121 174h89l99 -174h-67z" />
    <glyph glyph-name="Ucircumflex.ss03" horiz-adv-x="734" 
d="M88 268v432h87v-429c0 -147 67 -211 214 -211c57 0 114 5 170 14v626h87v-683c-87 -21 -175 -31 -262 -31c-185 0 -296 95 -296 282zM315 914h104l105 -174h-65l-92 125l-92 -125h-65z" />
    <glyph glyph-name="Udieresis.ss03" horiz-adv-x="734" 
d="M88 268v432h87v-429c0 -147 67 -211 214 -211c57 0 114 5 170 14v626h87v-683c-87 -21 -175 -31 -262 -31c-185 0 -296 95 -296 282zM274 891v-128h-78v128h78zM538 891v-128h-78v128h78z" />
    <glyph glyph-name="AE.ss03" horiz-adv-x="1142" 
d="M491 82v240c-63 15 -121 23 -172 23c-76 0 -126 -15 -150 -44c-23 -28 -29 -56 -29 -99s6 -71 29 -100c24 -28 74 -43 150 -43c51 0 109 8 172 23zM796 641c-133 0 -200 -77 -215 -230h417c-9 147 -65 230 -202 230zM814 59c81 0 163 14 248 41l16 -73
c-90 -27 -178 -41 -264 -41c-110 0 -191 28 -244 85v-46c-104 -26 -190 -39 -257 -39c-97 0 -166 19 -205 58s-58 92 -58 158s19 118 58 157s108 59 205 59c49 0 108 -7 178 -21v66c0 132 -47 179 -163 179c-67 0 -138 -16 -213 -47l-15 83c91 24 168 36 231 36
c112 0 186 -36 221 -109c51 73 132 109 244 109c192 0 291 -108 291 -353v-23h-509c3 -101 23 -173 59 -216c37 -42 96 -63 177 -63z" />
    <glyph glyph-name="OE.ss03" horiz-adv-x="1244" 
d="M534 126c38 45 57 119 57 224s-19 179 -57 224c-37 45 -93 67 -166 67s-129 -22 -167 -67c-37 -45 -56 -119 -56 -224s19 -179 56 -224c38 -45 94 -67 167 -67s129 22 166 67zM898 641c-133 0 -200 -77 -215 -230h417c-9 147 -65 230 -202 230zM916 59
c81 0 163 14 248 41l16 -73c-90 -27 -178 -41 -264 -41c-139 0 -232 46 -281 137c-48 -91 -137 -137 -267 -137c-89 0 -156 19 -217 71s-96 152 -96 293s35 241 96 293s128 71 217 71c131 0 220 -46 268 -138c49 92 136 138 262 138c192 0 291 -108 291 -353v-23h-509
c3 -101 23 -173 59 -216c37 -42 96 -63 177 -63z" />
    <glyph glyph-name="E.ss03.alt" 
d="M87 526c0 121 68 188 249 188c52 0 118 -7 197 -21l-13 -81c-71 19 -132 29 -183 29c-63 0 -106 -11 -129 -34s-34 -52 -34 -88c0 -80 42 -121 163 -121c37 0 73 1 107 2v-78c-34 2 -71 3 -111 3c-73 0 -122 -12 -149 -37c-26 -25 -39 -57 -39 -96
c0 -89 57 -133 186 -133c68 0 139 11 214 34l12 -81c-81 -17 -156 -26 -226 -26c-225 0 -276 88 -276 203c0 92 36 149 121 180c-59 28 -89 80 -89 157z" />
    <glyph glyph-name="Eacute.ss03.alt" 
d="M87 526c0 121 68 188 249 188c52 0 118 -7 197 -21l-13 -81c-71 19 -132 29 -183 29c-63 0 -106 -11 -129 -34s-34 -52 -34 -88c0 -80 42 -121 163 -121c37 0 73 1 107 2v-78c-34 2 -71 3 -111 3c-73 0 -122 -12 -149 -37c-26 -25 -39 -57 -39 -96
c0 -89 57 -133 186 -133c68 0 139 11 214 34l12 -81c-81 -17 -156 -26 -226 -26c-225 0 -276 88 -276 203c0 92 36 149 121 180c-59 28 -89 80 -89 157zM261 740l99 174h89l-121 -174h-67z" />
    <glyph glyph-name="Egrave.ss03.alt" 
d="M87 526c0 121 68 188 249 188c52 0 118 -7 197 -21l-13 -81c-71 19 -132 29 -183 29c-63 0 -106 -11 -129 -34s-34 -52 -34 -88c0 -80 42 -121 163 -121c37 0 73 1 107 2v-78c-34 2 -71 3 -111 3c-73 0 -122 -12 -149 -37c-26 -25 -39 -57 -39 -96
c0 -89 57 -133 186 -133c68 0 139 11 214 34l12 -81c-81 -17 -156 -26 -226 -26c-225 0 -276 88 -276 203c0 92 36 149 121 180c-59 28 -89 80 -89 157zM312 740l-121 174h89l99 -174h-67z" />
    <glyph glyph-name="Ecircumflex.ss03.alt" 
d="M87 526c0 121 68 188 249 188c52 0 118 -7 197 -21l-13 -81c-71 19 -132 29 -183 29c-63 0 -106 -11 -129 -34s-34 -52 -34 -88c0 -80 42 -121 163 -121c37 0 73 1 107 2v-78c-34 2 -71 3 -111 3c-73 0 -122 -12 -149 -37c-26 -25 -39 -57 -39 -96
c0 -89 57 -133 186 -133c68 0 139 11 214 34l12 -81c-81 -17 -156 -26 -226 -26c-225 0 -276 88 -276 203c0 92 36 149 121 180c-59 28 -89 80 -89 157zM278 914h104l105 -174h-65l-92 125l-92 -125h-65z" />
    <glyph glyph-name="Edieresis.ss03.alt" 
d="M87 526c0 121 68 188 249 188c52 0 118 -7 197 -21l-13 -81c-71 19 -132 29 -183 29c-63 0 -106 -11 -129 -34s-34 -52 -34 -88c0 -80 42 -121 163 -121c37 0 73 1 107 2v-78c-34 2 -71 3 -111 3c-73 0 -122 -12 -149 -37c-26 -25 -39 -57 -39 -96
c0 -89 57 -133 186 -133c68 0 139 11 214 34l12 -81c-81 -17 -156 -26 -226 -26c-225 0 -276 88 -276 203c0 92 36 149 121 180c-59 28 -89 80 -89 157zM237 891v-128h-78v128h78zM501 891v-128h-78v128h78z" />
    <glyph glyph-name="afii10145.ss03" horiz-adv-x="734" 
d="M328 -180v130h86v-130h-86zM88 268v432h87v-429c0 -147 67 -211 214 -211c57 0 114 5 170 14v626h87v-683c-87 -21 -175 -31 -262 -31c-185 0 -296 95 -296 282z" />
    <glyph glyph-name="afii10022.ss03" horiz-adv-x="708" 
d="M380 59c81 0 163 14 248 41l16 -73c-90 -27 -178 -41 -264 -41c-123 0 -209 34 -258 101c-48 67 -67 150 -67 263c0 243 102 364 307 364c192 0 291 -108 291 -353v-23h-509c3 -101 23 -173 59 -216c37 -42 96 -63 177 -63zM362 641c-133 0 -200 -77 -215 -230h417
c-9 147 -65 230 -202 230z" />
    <glyph glyph-name="afii10023.ss03" horiz-adv-x="708" 
d="M380 59c81 0 163 14 248 41l16 -73c-90 -27 -178 -41 -264 -41c-123 0 -209 34 -258 101c-48 67 -67 150 -67 263c0 243 102 364 307 364c192 0 291 -108 291 -353v-23h-509c3 -101 23 -173 59 -216c37 -42 96 -63 177 -63zM362 641c-133 0 -200 -77 -215 -230h417
c-9 147 -65 230 -202 230zM261 891v-128h-78v128h78zM525 891v-128h-78v128h78z" />
    <glyph glyph-name="afii10017.ss03" horiz-adv-x="658" 
d="M491 82v240c-63 15 -121 23 -172 23c-76 0 -126 -15 -150 -44c-23 -28 -29 -56 -29 -99s6 -71 29 -100c24 -28 74 -43 150 -43c51 0 109 8 172 23zM313 418c49 0 108 -7 178 -21v66c0 132 -47 179 -163 179c-67 0 -138 -16 -213 -47l-15 83c91 24 168 36 231 36
c206 0 247 -122 247 -248v-439c-109 -27 -198 -41 -265 -41c-97 0 -166 19 -205 58s-58 92 -58 158s19 118 58 157s108 59 205 59z" />
    <glyph glyph-name="afii10026.ss03" horiz-adv-x="734" 
d="M88 268v432h87v-429c0 -147 67 -211 214 -211c57 0 114 5 170 14v626h87v-683c-87 -21 -175 -31 -262 -31c-185 0 -296 95 -296 282z" />
    <glyph glyph-name="afii10027.ss03" horiz-adv-x="734" 
d="M88 268v432h87v-429c0 -147 67 -211 214 -211c57 0 114 5 170 14v626h87v-683c-87 -21 -175 -31 -262 -31c-185 0 -296 95 -296 282zM187 847l56 39c26 -43 67 -65 124 -65s98 22 124 65l56 -39c-39 -62 -99 -93 -180 -93s-141 31 -180 93z" />
    <glyph glyph-name="afii10033.ss03" horiz-adv-x="734" 
d="M646 432v-432h-87v429c0 147 -67 211 -214 211c-57 0 -114 -5 -170 -14v-626h-87v683c87 21 175 31 262 31c185 0 296 -95 296 -282z" />
    <glyph glyph-name="afii10040.ss03" horiz-adv-x="753" 
d="M88 268v432h87v-429c0 -147 67 -211 214 -211c57 0 114 5 170 14v626h87v-612h77v-218h-76l-9 145c-87 -19 -171 -29 -254 -29c-185 0 -296 95 -296 282z" />
    <glyph glyph-name="afii10042.ss03" horiz-adv-x="1001" 
d="M88 308v392h87v-389c0 -83 20 -144 60 -183c41 -39 115 -62 222 -67v639h87v-640c109 3 203 13 282 32v608h87v-664c-133 -33 -267 -50 -402 -50c-321 4 -424 112 -423 322z" />
    <glyph glyph-name="afii10043.ss03" horiz-adv-x="1020" 
d="M88 308v392h87v-389c0 -83 20 -144 60 -183c41 -39 115 -62 222 -67v639h87v-640c109 3 203 13 282 32v608h87v-598h77v-232h-76l-9 161c-157 -30 -288 -45 -394 -45c-321 4 -424 112 -423 322z" />
    <glyph glyph-name="afii10022.ss03.alt" 
d="M87 526c0 121 68 188 249 188c52 0 118 -7 197 -21l-13 -81c-71 19 -132 29 -183 29c-63 0 -106 -11 -129 -34s-34 -52 -34 -88c0 -80 42 -121 163 -121c37 0 73 1 107 2v-78c-34 2 -71 3 -111 3c-73 0 -122 -12 -149 -37c-26 -25 -39 -57 -39 -96
c0 -89 57 -133 186 -133c68 0 139 11 214 34l12 -81c-81 -17 -156 -26 -226 -26c-225 0 -276 88 -276 203c0 92 36 149 121 180c-59 28 -89 80 -89 157z" />
    <glyph glyph-name="afii10023.ss03.alt" 
d="M87 526c0 121 68 188 249 188c52 0 118 -7 197 -21l-13 -81c-71 19 -132 29 -183 29c-63 0 -106 -11 -129 -34s-34 -52 -34 -88c0 -80 42 -121 163 -121c37 0 73 1 107 2v-78c-34 2 -71 3 -111 3c-73 0 -122 -12 -149 -37c-26 -25 -39 -57 -39 -96
c0 -89 57 -133 186 -133c68 0 139 11 214 34l12 -81c-81 -17 -156 -26 -226 -26c-225 0 -276 88 -276 203c0 92 36 149 121 180c-59 28 -89 80 -89 157zM237 891v-128h-78v128h78zM501 891v-128h-78v128h78z" />
    <glyph glyph-name="afii10022.ss03.accented" horiz-adv-x="708" 
d="M380 59c81 0 163 14 248 41l16 -73c-90 -27 -178 -41 -264 -41c-123 0 -209 34 -258 101c-48 67 -67 150 -67 263c0 243 102 364 307 364c192 0 291 -108 291 -353v-23h-509c3 -101 23 -173 59 -216c37 -42 96 -63 177 -63zM362 641c-133 0 -200 -77 -215 -230h417
c-9 147 -65 230 -202 230zM301 740l99 174h89l-121 -174h-67z" />
    <glyph glyph-name="afii10023.ss03.accented" horiz-adv-x="708" 
d="M240 901v-128h-78v128h78zM555 901v-128h-78v128h78zM380 59c81 0 163 14 248 41l16 -73c-90 -27 -178 -41 -264 -41c-123 0 -209 34 -258 101c-48 67 -67 150 -67 263c0 243 102 364 307 364c192 0 291 -108 291 -353v-23h-509c3 -101 23 -173 59 -216
c37 -42 96 -63 177 -63zM362 641c-133 0 -200 -77 -215 -230h417c-9 147 -65 230 -202 230zM270 740l99 174h89l-121 -174h-67z" />
    <glyph glyph-name="afii10023.ss03.accented.alt" 
d="M200 901v-128h-78v128h78zM515 901v-128h-78v128h78zM87 526c0 121 68 188 249 188c52 0 118 -7 197 -21l-13 -81c-71 19 -132 29 -183 29c-63 0 -106 -11 -129 -34s-34 -52 -34 -88c0 -80 42 -121 163 -121c37 0 73 1 107 2v-78c-34 2 -71 3 -111 3
c-73 0 -122 -12 -149 -37c-26 -25 -39 -57 -39 -96c0 -89 57 -133 186 -133c68 0 139 11 214 34l12 -81c-81 -17 -156 -26 -226 -26c-225 0 -276 88 -276 203c0 92 36 149 121 180c-59 28 -89 80 -89 157zM230 740l99 174h89l-121 -174h-67z" />
    <glyph glyph-name="afii10026.ss03.accented" horiz-adv-x="734" 
d="M88 268v432h87v-429c0 -147 67 -211 214 -211c57 0 114 5 170 14v626h87v-683c-87 -21 -175 -31 -262 -31c-185 0 -296 95 -296 282zM286 740l99 174h89l-121 -174h-67z" />
    <glyph glyph-name="afii10022.ss03.accented.alt" 
d="M87 526c0 121 68 188 249 188c52 0 118 -7 197 -21l-13 -81c-71 19 -132 29 -183 29c-63 0 -106 -11 -129 -34s-34 -52 -34 -88c0 -80 42 -121 163 -121c37 0 73 1 107 2v-78c-34 2 -71 3 -111 3c-73 0 -122 -12 -149 -37c-26 -25 -39 -57 -39 -96
c0 -89 57 -133 186 -133c68 0 139 11 214 34l12 -81c-81 -17 -156 -26 -226 -26c-225 0 -276 88 -276 203c0 92 36 149 121 180c-59 28 -89 80 -89 157zM271 740l99 174h89l-121 -174h-67z" />
    <glyph glyph-name="afii10017.ss03.accented" horiz-adv-x="658" 
d="M491 82v240c-63 15 -121 23 -172 23c-76 0 -126 -15 -150 -44c-23 -28 -29 -56 -29 -99s6 -71 29 -100c24 -28 74 -43 150 -43c51 0 109 8 172 23zM313 418c49 0 108 -7 178 -21v66c0 132 -47 179 -163 179c-67 0 -138 -16 -213 -47l-15 83c91 24 168 36 231 36
c206 0 247 -122 247 -248v-439c-109 -27 -198 -41 -265 -41c-97 0 -166 19 -205 58s-58 92 -58 158s19 118 58 157s108 59 205 59zM266 740l99 174h89l-121 -174h-67z" />
    </font>
</defs>
</svg>
