<?xml version="1.0" encoding="utf-8"?>
<!-- Generator: Adobe Illustrator 18.1.0, SVG Export Plug-In . SVG Version: 6.00 Build 0)  -->
<!DOCTYPE svg PUBLIC "-//W3C//DTD SVG 1.1//EN" "http://www.w3.org/Graphics/SVG/1.1/DTD/svg11.dtd">
<svg version="1.1" id="Слой_2" xmlns="http://www.w3.org/2000/svg" xmlns:xlink="http://www.w3.org/1999/xlink" x="0px" y="0px"
	 viewBox="0 0 102.2 76.8" enable-background="new 0 0 102.2 76.8" xml:space="preserve">
<g>
	<linearGradient id="SVGID_1_" gradientUnits="userSpaceOnUse" x1="39.3775" y1="57.8549" x2="1.708031e-09" y2="57.8549">
		<stop  offset="0.1583" style="stop-color:#67B6C5"/>
		<stop  offset="0.3313" style="stop-color:#6BBDC5"/>
		<stop  offset="0.5891" style="stop-color:#76D2C6"/>
		<stop  offset="0.8984" style="stop-color:#88F3C7"/>
		<stop  offset="1" style="stop-color:#8FFFC8"/>
	</linearGradient>
	<path fill="url(#SVGID_1_)" d="M38.8,68.7c-16.6,0-30.1-13.3-30.5-29.8H0c0.4,21.1,17.5,38,38.6,38c0.2,0,0.5,0,0.7,0v-8.2
		C39.2,68.7,39,68.7,38.8,68.7z"/>
	<linearGradient id="SVGID_2_" gradientUnits="userSpaceOnUse" x1="39.4759" y1="11.2135" x2="71.9656" y2="11.2135">
		<stop  offset="0.1583" style="stop-color:#67B6C5"/>
		<stop  offset="0.3313" style="stop-color:#6BBDC5"/>
		<stop  offset="0.5891" style="stop-color:#76D2C6"/>
		<stop  offset="0.8984" style="stop-color:#88F3C7"/>
		<stop  offset="1" style="stop-color:#8FFFC8"/>
	</linearGradient>
	<path fill="url(#SVGID_2_)" d="M64.9,22.4l7.1-3.3C65.9,7.8,54,0,40.2,0c-0.2,0-0.5,0-0.7,0v7.7c0.2,0,0.3,0,0.5,0
		C50.7,7.7,60,13.7,64.9,22.4z"/>
	<g>
		<path fill="#68B0BF" d="M40.5,54.9v7.5h-0.9V54h3.7v0.9H40.5z"/>
		<path fill="#68B0BF" d="M48.2,54c0.4,0,0.8,0.1,1.1,0.4c0.3,0.3,0.4,0.6,0.4,1v1.9c0,0.4-0.1,0.8-0.4,1.1
			c-0.3,0.3-0.7,0.4-1.1,0.4h-1.9v3.6h-0.9V54H48.2z M48.2,57.9c0.3,0,0.6-0.2,0.6-0.6v-1.9c0-0.3-0.2-0.5-0.6-0.5h-1.9v2.9H48.2z"
			/>
		<path fill="#68B0BF" d="M54.7,62.4h-0.9l0.5-2.3h-1.1c-0.2,0-0.4-0.2-0.5-0.4L51.4,54h1l1.2,5c0,0.1,0.1,0.1,0.1,0.1h0.8
			c0,0,0.1,0,0.1,0l1.2-5.1h0.9L54.7,62.4z"/>
		<path fill="#68B0BF" d="M62.3,62.4v-7.5h-2.4v7.5h-0.9V54h4.3v8.4H62.3z"/>
		<path fill="#68B0BF" d="M69.4,62.4v-7.5H67v7.5H66V54h4.3v8.4H69.4z"/>
		<path fill="#68B0BF" d="M73.5,62.4h-0.9l1.4-8.1c0-0.2,0.2-0.4,0.5-0.4H76c0.2,0,0.4,0.2,0.5,0.4l1.4,8.1h-0.9l-0.3-2h-2.7
			L73.5,62.4z M75.7,55.1c0-0.1-0.1-0.1-0.1-0.1h-0.8c-0.1,0-0.1,0-0.1,0.1L74,59.4h2.4L75.7,55.1z"/>
	</g>
	<g>
		<path fill="#2C2C2C" d="M66.5,28.7v7.1h2.8l3.8-7.1h2.1l-4.3,8v0.2l4.3,9.9h-2.1l-3.8-9h-2.8v9h-2V28.7H66.5z"/>
		<path fill="#2C2C2C" d="M19.8,46.9h-2.1l3-17.4c0.1-0.4,0.5-0.8,1-0.8h3.6c0.5,0,0.9,0.4,1,0.8l3,17.4h-2.1l-0.7-4.4h-5.9
			L19.8,46.9z M24.6,31c0-0.2-0.1-0.3-0.2-0.3h-1.7c-0.1,0-0.2,0.1-0.2,0.3l-1.6,9.4h5.3L24.6,31z"/>
		<path fill="#2C2C2C" d="M33.2,30.8v16.2h-2V28.7h8.1v2H33.2z"/>
		<path fill="#2C2C2C" d="M47.1,28.7c0.9,0,1.7,0.3,2.3,0.9c0.6,0.6,1,1.3,1,2.2v4c0,0.9-0.3,1.7-1,2.3c-0.6,0.6-1.4,1-2.3,1H43v7.8
			h-2.1V28.7H47.1z M47.1,37.1c0.7,0,1.2-0.5,1.2-1.2v-4c0-0.7-0.5-1.1-1.2-1.1H43v6.3H47.1z"/>
		<path fill="#2C2C2C" d="M52.1,31.8c0-0.9,0.3-1.7,1-2.3c0.6-0.6,1.4-1,2.3-1h2.9c0.9,0,1.7,0.3,2.3,1c0.6,0.6,1,1.4,1,2.3v12
			c0,0.9-0.3,1.7-1,2.3c-0.6,0.6-1.4,1-2.3,1h-2.9c-0.9,0-1.7-0.3-2.3-1c-0.6-0.6-1-1.4-1-2.3V31.8z M54.2,43.9
			c0,0.7,0.5,1.2,1.2,1.2h2.9c0.7,0,1.2-0.5,1.2-1.2v-12c0-0.7-0.5-1.2-1.2-1.2h-2.9c-0.7,0-1.2,0.5-1.2,1.2V43.9z"/>
		<path fill="#2C2C2C" d="M76.4,31.8c0-0.9,0.3-1.7,1-2.3c0.6-0.6,1.4-1,2.3-1h2.9c0.9,0,1.7,0.3,2.3,1c0.6,0.6,1,1.4,1,2.3v12
			c0,0.9-0.3,1.7-1,2.3c-0.6,0.6-1.4,1-2.3,1h-2.9c-0.9,0-1.7-0.3-2.3-1c-0.6-0.6-1-1.4-1-2.3V31.8z M78.4,43.9
			c0,0.7,0.5,1.2,1.2,1.2h2.9c0.7,0,1.2-0.5,1.2-1.2v-12c0-0.7-0.5-1.2-1.2-1.2h-2.9c-0.7,0-1.2,0.5-1.2,1.2V43.9z"/>
		<path fill="#2C2C2C" d="M97.5,28.7h4.1l0.7,18.2h-2.1l-0.7-16.2h-0.2l-3.2,15.9h-1.9L91,30.8h-0.2l-0.7,16.2h-2.1l0.7-18.2h4
			l2.4,13.2L97.5,28.7z"/>
	</g>
</g>
</svg>
