<?xml version="1.0" encoding="utf-8"?>
<!-- Generator: Adobe Illustrator 18.1.0, SVG Export Plug-In . SVG Version: 6.00 Build 0)  -->
<!DOCTYPE svg PUBLIC "-//W3C//DTD SVG 1.1//EN" "http://www.w3.org/Graphics/SVG/1.1/DTD/svg11.dtd">
<svg version="1.1" id="Слой_3" xmlns="http://www.w3.org/2000/svg" xmlns:xlink="http://www.w3.org/1999/xlink" x="0px" y="0px"
	 viewBox="0 0 104.4 76.8" enable-background="new 0 0 104.4 76.8" xml:space="preserve">
<g>
	<g>
		<path fill="#1EB3C2" d="M50.4,58.6c0.5-0.2,0.8-0.7,0.8-1.3v-1.6c0-0.3-0.1-0.7-0.3-0.9c-0.3-0.3-0.5-0.3-0.9-0.3h-3.1V63h1v-4
			h2.1c0.3,0.2,0.4,0.4,0.4,0.8V63h1v-3.2C51.3,59.2,51,58.7,50.4,58.6z M50.3,57.2c0,0.4-0.1,0.6-0.3,0.8h-2.1v-2.6h2.1
			c0.2,0,0.3,0.2,0.3,0.3V57.2z"/>
		<path fill="#1EB3C2" d="M42.5,54.4h-1.3c-0.4,0-0.8,0.2-1.1,0.4c-0.3,0.3-0.4,0.7-0.4,1v5.7c0,0.4,0.2,0.8,0.4,1.1
			c0.3,0.3,0.7,0.4,1.1,0.4h1.3c0.4,0,0.8-0.2,1.1-0.4c0.3-0.3,0.4-0.7,0.4-1.1v-3h-2.5v1h1.6v2c0,0.3-0.2,0.6-0.6,0.6h-1.3
			c-0.3,0-0.6-0.3-0.6-0.6v-5.7c0-0.3,0.3-0.6,0.6-0.6h1.3c0.3,0,0.6,0.3,0.6,0.6v1.3h1v-1.3c0-0.4-0.2-0.8-0.4-1
			C43.3,54.5,42.8,54.4,42.5,54.4z"/>
		<path fill="#1EB3C2" d="M57.1,54.4h-1.4c-0.4,0-0.8,0.2-1.1,0.4c-0.3,0.3-0.4,0.7-0.4,1v5.7c0,0.4,0.2,0.8,0.4,1.1
			c0.3,0.3,0.7,0.4,1.1,0.4h1.4c0.4,0,0.8-0.2,1.1-0.4c0.3-0.3,0.4-0.7,0.4-1.1v-5.7c0-0.4-0.2-0.8-0.4-1
			C57.9,54.5,57.5,54.4,57.1,54.4z M57.6,61.5c0,0.3-0.3,0.6-0.6,0.6h-1.4c-0.3,0-0.6-0.3-0.6-0.6v-5.7c0-0.3,0.3-0.6,0.6-0.6H57
			c0.3,0,0.6,0.3,0.6,0.6V61.5z"/>
		<path fill="#1EB3C2" d="M65,61.5c0,0.3-0.3,0.6-0.6,0.6h-1.4c-0.3,0-0.6-0.3-0.6-0.6v-7.2h-1v7.2c0,0.4,0.2,0.8,0.4,1.1
			c0.3,0.3,0.7,0.4,1.1,0.4h1.4c0.4,0,0.8-0.2,1.1-0.4c0.3-0.3,0.4-0.7,0.4-1.1v-7.2h-1V61.5z"/>
		<path fill="#1EB3C2" d="M72.7,54.9c-0.3-0.3-0.6-0.4-1-0.4h-2.9V63h1v-3.7h1.9c0.4,0,0.8-0.2,1-0.4c0.3-0.3,0.4-0.7,0.4-1.1v-1.9
			C73.2,55.5,73.1,55.2,72.7,54.9z M72.2,57.8c0,0.3-0.3,0.6-0.6,0.6h-1.9v-3h1.9c0.3,0,0.6,0.2,0.6,0.5V57.8z"/>
	</g>
	<g>
		<path fill="#2C2C2C" d="M26.3,42.7h-6l-0.7,4.5h-2.1l3-17.7c0.1-0.3,0.5-0.8,1-0.8h3.7c0.4,0,1,0.3,1,0.8l3,17.7h-2.1L26.3,42.7z
			 M26,40.6l-1.6-9.6c-0.1-0.2-0.1-0.3-0.3-0.3h-1.7c-0.2,0-0.2,0.1-0.3,0.3l-1.6,9.6H26z"/>
		<path fill="#2C2C2C" d="M30.6,31.8c0-1,0.3-1.7,1-2.4s1.4-1,2.4-1h2.9c1,0,1.7,0.3,2.4,1c0.6,0.6,1,1.4,1,2.4v2.9H38v-2.9
			c0-0.7-0.5-1.2-1.2-1.2h-2.9c-0.7,0-1.2,0.5-1.2,1.2V44c0,0.7,0.5,1.2,1.2,1.2h2.9c0.9,0,1.2-0.4,1.2-1.2v-4.4h-3.3v-2.1h5.4V44
			c0,1-0.3,1.7-1,2.4c-0.6,0.6-1.4,1-2.4,1h-2.9c-1,0-1.7-0.3-2.4-1s-1-1.4-1-2.4C30.6,44,30.6,31.8,30.6,31.8z"/>
		<path fill="#2C2C2C" d="M49.4,28.6c0.8,0,1.4,0.3,1.9,0.8c0.5,0.5,0.8,1.2,0.8,1.9v3.3c0,1.1-0.7,2.3-1.7,2.7c1.1,0.5,2,1.7,2,2.9
			v6.9h-2.1v-6.9c0-0.9-0.3-1.4-1-1.7h-4.5v8.7h-2.1V28.6H49.4z M49.3,36.4c0.5-0.3,0.8-0.8,0.8-1.7v-3.4c0-0.3-0.3-0.7-0.8-0.7
			h-4.5v5.8H49.3z"/>
		<path fill="#2C2C2C" d="M54.5,31.8c0-1,0.3-1.7,1-2.4s1.4-1,2.4-1h3c1,0,1.7,0.3,2.4,1s1,1.4,1,2.4V44c0,1-0.3,1.7-1,2.4
			c-0.6,0.6-1.4,1-2.4,1h-3c-1,0-1.7-0.3-2.4-1c-0.6-0.6-1-1.4-1-2.4V31.8z M56.5,44c0,0.7,0.5,1.2,1.2,1.2h3c0.7,0,1.2-0.5,1.2-1.2
			V31.7c0-0.7-0.5-1.2-1.2-1.2h-3c-0.7,0-1.2,0.5-1.2,1.2V44z"/>
		<path fill="#2C2C2C" d="M66.4,31.8c0-1,0.3-1.7,1-2.4c0.7-0.7,1.5-1,2.4-1h3c1,0,1.7,0.3,2.4,1s1,1.4,1,2.4v2.9H74v-2.9
			c0-0.7-0.5-1.2-1.2-1.2h-3c-0.7,0-1.2,0.5-1.2,1.2V44c0,0.7,0.5,1.2,1.2,1.2h3.1c0.6,0,1-0.1,1-0.3c0.2-0.3,0.2-0.4,0.2-0.9v-3.7
			h2.1V44c0,1-0.3,1.7-1,2.4c-0.6,0.6-1.4,1-2.4,1h-3.1c-1,0-1.7-0.3-2.4-1c-0.6-0.6-1-1.4-1-2.4L66.4,31.8L66.4,31.8z"/>
		<path fill="#2C2C2C" d="M78.2,31.8c0-1,0.3-1.7,1-2.4c0.6-0.6,1.4-1,2.4-1h3c1,0,1.7,0.3,2.4,1c0.6,0.6,1,1.4,1,2.4V44
			c0,1-0.3,1.7-1,2.4c-0.6,0.6-1.4,1-2.4,1h-3c-1,0-1.7-0.3-2.4-1c-0.6-0.6-1-1.4-1-2.4V31.8z M80.3,44c0,0.7,0.5,1.2,1.2,1.2h3
			c0.7,0,1.2-0.5,1.2-1.2V31.7c0-0.7-0.5-1.2-1.2-1.2h-3c-0.7,0-1.2,0.5-1.2,1.2V44z"/>
		<path fill="#2C2C2C" d="M94.8,28.6L97.2,42l2.4-13.4h4.1l0.7,18.5h-2.1l-0.7-16.4h-0.3l-3.1,16.2h-1.9L93,30.7h-0.3L92,47.1H90
			l0.7-18.5L94.8,28.6L94.8,28.6z"/>
	</g>
</g>
<linearGradient id="SVGID_1_" gradientUnits="userSpaceOnUse" x1="39.3775" y1="57.8549" x2="1.708031e-09" y2="57.8549">
	<stop  offset="0.1583" style="stop-color:#67B6C5"/>
	<stop  offset="0.3313" style="stop-color:#6BBDC5"/>
	<stop  offset="0.5891" style="stop-color:#76D2C6"/>
	<stop  offset="0.8984" style="stop-color:#88F3C7"/>
	<stop  offset="1" style="stop-color:#8FFFC8"/>
</linearGradient>
<path fill="url(#SVGID_1_)" d="M38.8,68.7c-16.6,0-30.1-13.3-30.5-29.8H0c0.4,21.1,17.5,38,38.6,38c0.2,0,0.5,0,0.7,0v-8.2
	C39.2,68.7,39,68.7,38.8,68.7z"/>
<linearGradient id="SVGID_2_" gradientUnits="userSpaceOnUse" x1="39.4759" y1="11.2135" x2="71.9656" y2="11.2135">
	<stop  offset="0.1583" style="stop-color:#67B6C5"/>
	<stop  offset="0.3313" style="stop-color:#6BBDC5"/>
	<stop  offset="0.5891" style="stop-color:#76D2C6"/>
	<stop  offset="0.8984" style="stop-color:#88F3C7"/>
	<stop  offset="1" style="stop-color:#8FFFC8"/>
</linearGradient>
<path fill="url(#SVGID_2_)" d="M64.9,22.4l7.1-3.3C65.9,7.8,54,0,40.2,0c-0.2,0-0.5,0-0.7,0v7.7c0.2,0,0.3,0,0.5,0
	C50.7,7.7,60,13.7,64.9,22.4z"/>
</svg>
