<?xml version="1.0" encoding="utf-8"?>
<!-- Generator: Adobe Illustrator 18.1.0, SVG Export Plug-In . SVG Version: 6.00 Build 0)  -->
<!DOCTYPE svg PUBLIC "-//W3C//DTD SVG 1.1//EN" "http://www.w3.org/Graphics/SVG/1.1/DTD/svg11.dtd">
<svg version="1.1" id="Слой_1" xmlns="http://www.w3.org/2000/svg" xmlns:xlink="http://www.w3.org/1999/xlink" x="0px" y="0px"
	 viewBox="0 0 79.3 44.8" enable-background="new 0 0 79.3 44.8" xml:space="preserve">
<g opacity="0.5">
	<g>
		<path fill-rule="evenodd" clip-rule="evenodd" fill="#FFFFFF" d="M7.6,26.6v4.5c0,0.5,0,0.9-0.1,1.3c0,0.4-0.2,0.8-0.3,1.1
			c-0.2,0.3-0.4,0.5-0.7,0.7c-0.3,0.2-0.7,0.3-1.2,0.3c0.5,0,0.8,0.1,1.1,0.3C6.8,35,7,35.2,7.2,35.5c0.2,0.3,0.3,0.7,0.3,1.1
			c0.1,0.4,0.1,0.8,0.1,1.3v6.8H5.4v-6.8c0-0.6-0.1-1.2-0.3-1.6c-0.2-0.4-0.5-0.6-0.8-0.6H3.1v9H0.9V26.6h2.3v6.8h1.1
			c0.3,0,0.5-0.2,0.8-0.7c0.2-0.4,0.4-1,0.4-1.6v-4.5H7.6z M9.4,29.8c0-0.5,0.1-0.9,0.3-1.3c0.2-0.4,0.4-0.8,0.7-1.1
			c0.3-0.3,0.7-0.5,1.1-0.7c0.4-0.2,0.8-0.3,1.3-0.3c0.5,0,0.9,0.1,1.3,0.3c0.4,0.2,0.8,0.4,1.1,0.7c0.3,0.3,0.5,0.7,0.7,1.1
			c0.2,0.4,0.3,0.9,0.3,1.3v14.9h-2.3v-4.9h-2.2v4.9H9.4V29.8z M11.7,37.5h2.2v-8.7h-2.2V37.5z M17.9,29.8c0-0.5,0.1-0.9,0.3-1.3
			c0.2-0.4,0.4-0.8,0.7-1.1c0.3-0.3,0.7-0.5,1.1-0.7c0.4-0.2,0.9-0.3,1.3-0.3c0.5,0,0.9,0.1,1.3,0.3c0.4,0.2,0.8,0.4,1.1,0.7
			c0.3,0.3,0.6,0.7,0.7,1.1c0.2,0.4,0.3,0.9,0.3,1.3v1.5c0,0.5-0.1,0.9-0.3,1.3c-0.2,0.4-0.4,0.8-0.7,1.1c-0.3,0.3-0.7,0.5-1.1,0.7
			c-0.4,0.2-0.8,0.2-1.3,0.2c0.5,0,0.9,0.1,1.3,0.3c0.4,0.2,0.8,0.4,1.1,0.7c0.3,0.3,0.6,0.7,0.7,1.1c0.2,0.4,0.3,0.8,0.3,1.3v3.4
			c0,0.5-0.1,0.9-0.3,1.3c-0.2,0.4-0.4,0.8-0.7,1.1c-0.3,0.3-0.7,0.5-1.1,0.7c-0.4,0.2-0.9,0.3-1.3,0.3c-0.5,0-0.9-0.1-1.3-0.3
			c-0.4-0.2-0.8-0.4-1.1-0.7c-0.3-0.3-0.6-0.7-0.7-1.1c-0.2-0.4-0.3-0.8-0.3-1.3v-3.9h2.3v4.9h2.3v-4.3c0-0.6-0.1-1.2-0.3-1.6
			c-0.2-0.4-0.5-0.7-0.8-0.7H19v-2.3h2.3c0.3,0,0.6-0.2,0.8-0.7c0.2-0.4,0.3-1,0.3-1.6v-2.4h-2.3v2.3h-2.3V29.8z M26.5,29.8
			c0-0.5,0.1-0.9,0.3-1.3c0.2-0.4,0.4-0.8,0.7-1.1c0.3-0.3,0.7-0.5,1.1-0.7c0.4-0.2,0.9-0.3,1.3-0.3c0.5,0,0.9,0.1,1.3,0.3
			c0.4,0.2,0.8,0.4,1.1,0.7c0.3,0.3,0.5,0.7,0.7,1.1c0.2,0.4,0.3,0.9,0.3,1.3v14.9H31v-4.9h-2.2v4.9h-2.3V29.8z M28.7,37.5H31v-8.7
			h-2.2V37.5z M39.5,42.4v-2.2h-1.1c-0.5,0-0.9-0.1-1.3-0.3c-0.4-0.2-0.8-0.4-1.1-0.7c-0.3-0.3-0.6-0.6-0.7-1.1
			c-0.2-0.4-0.3-0.8-0.3-1.3V26.6h2.3v11.3h2.3V26.6h2.3v18.1h-2.3V42.4z M50.2,26.6v4.5c0,0.5,0,0.9-0.1,1.3
			c-0.1,0.4-0.2,0.8-0.3,1.1c-0.2,0.3-0.4,0.5-0.7,0.7c-0.3,0.2-0.7,0.3-1.2,0.3c0.5,0,0.8,0.1,1.1,0.3c0.3,0.2,0.5,0.4,0.7,0.7
			c0.2,0.3,0.3,0.7,0.3,1.1c0.1,0.4,0.1,0.8,0.1,1.3v6.8h-2.2v-6.8c0-0.6-0.1-1.2-0.3-1.6c-0.2-0.4-0.5-0.6-0.8-0.6h-1.1v9h-2.3
			V26.6h2.3v6.8h1.1c0.3,0,0.5-0.2,0.8-0.7c0.2-0.4,0.4-1,0.4-1.6v-4.5H50.2z M52,29.8c0-0.5,0.1-0.9,0.3-1.3
			c0.2-0.4,0.4-0.8,0.7-1.1c0.3-0.3,0.7-0.5,1.1-0.7c0.4-0.2,0.9-0.3,1.3-0.3c0.5,0,0.9,0.1,1.3,0.3c0.4,0.2,0.8,0.4,1.1,0.7
			c0.3,0.3,0.6,0.7,0.7,1.1c0.2,0.4,0.3,0.9,0.3,1.3v14.9h-2.3v-4.9h-2.2v4.9H52V29.8z M54.2,37.5h2.2v-8.7h-2.2V37.5z"/>
		<path fill-rule="evenodd" clip-rule="evenodd" fill="#FFFFFF" d="M70.7,22.4c5.1,5,8.4,11.5,8,18.9c-3.3-6.1-9.6-11-17.3-13.9
			c1-1.5,1.9-3,2.5-4.5C60,15,50.5,8.2,38.5,5.8C28.3,3.7,18.4,5.2,11.7,9.3c0.8,0.6,1.6,1.3,2.4,2.1c4.5,4.7,6.2,10.8,4.1,13.9
			c0.9-3.3-0.9-8.4-4.8-12.4c-1-1.1-2.1-2-3.1-2.7c-3.8,2.7-6.4,6.2-7.3,10.4c-0.1,0.5-0.2,0.9-0.2,1.4c-0.4-2.1-0.5-4.2,0-6.2
			c0.6-2.8,1.9-5.3,3.9-7.4C4,7.5,1.7,7.8,0.3,9.4C0.2,9.5,0.1,9.7,0,9.8c0.2-0.7,0.5-1.3,1-1.9C2.4,6.2,5,6,7.8,7.1
			c6.5-6,18.2-8.6,30.4-6.1c11.2,2.3,20.3,8.4,24.5,15.6C70.1,13.6,76.2,8.9,79.3,3C79.7,10.6,76.1,17.3,70.7,22.4z"/>
	</g>
</g>
</svg>
