<?xml version="1.0" encoding="utf-8"?>
<!-- Generator: Adobe Illustrator 15.0.0, SVG Export Plug-In . SVG Version: 6.00 Build 0)  -->
<!DOCTYPE svg PUBLIC "-//W3C//DTD SVG 1.1//EN" "http://www.w3.org/Graphics/SVG/1.1/DTD/svg11.dtd">
<svg version="1.1" id="Слой_1" xmlns="http://www.w3.org/2000/svg" xmlns:xlink="http://www.w3.org/1999/xlink" x="0px" y="0px"
	 width="612px" height="792px" viewBox="0 0 612 792" enable-background="new 0 0 612 792" xml:space="preserve">
<path fill="#1EB3C2" d="M306,90C136.309,90,0,226.309,0,396c0,169.69,136.309,306,306,306c169.691,0,306-136.31,306-306
	C612,226.309,475.691,90,306,90z M397.8,259.691c-13.909,0-30.6,0-44.509,0c-8.346,0-19.473,5.563-22.255,16.691
	c0,16.691,0,33.382,0,50.073c22.255,0,44.51,0,66.764,0c-2.781,25.036-5.563,47.291-8.346,69.545c-19.473,0-38.945,0-58.418,0
	c0,69.546,0,139.091,0,208.637c-27.818,0-58.418,0-86.236,0c0-69.546,0-139.091,0-208.637c-13.909,0-27.818,0-41.727,0
	c0-22.254,0-47.291,0-69.545c13.909,0,27.818,0,41.727,0c0-22.254,0-44.509,0-69.545c2.782-16.691,8.346-36.164,22.255-50.073
	c16.691-16.691,38.945-19.473,61.2-22.254c22.254,0,47.291,0,69.545,0C397.8,209.618,397.8,234.654,397.8,259.691z"/>
</svg>
