<?xml version="1.0" encoding="utf-8"?>
<!-- Generator: Adobe Illustrator 18.1.0, SVG Export Plug-In . SVG Version: 6.00 Build 0)  -->
<!DOCTYPE svg PUBLIC "-//W3C//DTD SVG 1.1//EN" "http://www.w3.org/Graphics/SVG/1.1/DTD/svg11.dtd">
<svg version="1.1" id="Слой_1" xmlns="http://www.w3.org/2000/svg" xmlns:xlink="http://www.w3.org/1999/xlink" x="0px" y="0px"
	 viewBox="0 0 88 52" enable-background="new 0 0 88 52" xml:space="preserve">
<g opacity="0.5">
	<path fill-rule="evenodd" clip-rule="evenodd" fill="#FFFFFF" d="M32.6,34.7h9.2c-1.2,0-2.6-0.7-3.5-2.5l-1.2-2.5
		c-0.8-1.8-2.3-2.5-3.4-2.5h-1.2c-1.2,0-2.3,0-2.7-2.1L28,9.9v19C28,34.7,31.9,34.7,32.6,34.7z M32.6,0c1.1,0,2.7,0.8,3.5,2.5
		L50.7,34c-1.1,0-2.3,0-3.1-1.8L33.7,2.5C32.9,0.7,31.4,0,30.3,0h-6.9c1.2,0,2.7,0.8,3.5,2.5l13.8,29.7c0.8,1.8,2.3,2.5,3.5,2.5
		h13.8L43.4,3.4c-0.9-2,0.7-3.4,2.3,0l14.5,31.2h6.9L51,0H32.6z"/>
	<path fill-rule="evenodd" clip-rule="evenodd" fill="#FFFFFF" d="M62.6,1.5c1.3,0,2.4,1.1,2.4,2.4c0,1.3-1.1,2.4-2.4,2.4
		c-1.3,0-2.4-1.1-2.4-2.4C60.2,2.6,61.3,1.5,62.6,1.5z M62.6,1.8c1.1,0,2.1,0.9,2.1,2.1c0,1.1-0.9,2-2.1,2c-1.1,0-2-0.9-2-2
		C60.5,2.7,61.5,1.8,62.6,1.8z"/>
	<path fill-rule="evenodd" clip-rule="evenodd" fill="#FFFFFF" d="M61.4,5.3V2.4h1.3c0.3,0,0.5,0,0.6,0.1c0.1,0.1,0.2,0.1,0.3,0.3
		c0.1,0.1,0.1,0.3,0.1,0.4c0,0.2-0.1,0.4-0.2,0.5C63.4,3.9,63.2,4,62.9,4c0.1,0,0.2,0.1,0.2,0.1c0.1,0.1,0.2,0.2,0.3,0.4l0.5,0.8
		h-0.5l-0.4-0.6c-0.1-0.2-0.2-0.3-0.3-0.4c-0.1-0.1-0.1-0.2-0.2-0.2c-0.1,0-0.1-0.1-0.2-0.1c0,0-0.1,0-0.2,0h-0.4v1.3H61.4z
		 M61.8,3.7h0.8c0.2,0,0.3,0,0.4-0.1c0.1,0,0.2-0.1,0.2-0.2c0.1-0.1,0.1-0.2,0.1-0.3c0-0.1,0-0.2-0.1-0.3c-0.1-0.1-0.3-0.1-0.5-0.1
		h-0.9V3.7z"/>
	<path fill-rule="evenodd" clip-rule="evenodd" fill="#FFFFFF" d="M4.5,49H2.1L2,49.3c-0.3,0.9-0.5,1.5-0.5,1.8c0,0.1,0,0.2,0.1,0.3
		c0,0.1,0.1,0.1,0.2,0.1h0.5V52H0v-0.5h0.3c0.1,0,0.3-0.2,0.5-0.5c0.2-0.3,0.5-1,0.9-2l2.1-5.3h0.5l2.2,7c0.1,0.2,0.2,0.4,0.2,0.5
		c0.1,0.1,0.2,0.2,0.3,0.2h0.4V52h-3v-0.5h0.4c0.2,0,0.3-0.1,0.3-0.2c0-0.1,0-0.1-0.1-0.2L4.5,49z M2.3,48.5h2l-0.9-2.8L2.3,48.5z
		 M7.7,43.9h6.4v2h-0.5v-0.2c0-0.2-0.1-0.5-0.3-0.7c-0.2-0.2-0.5-0.4-0.7-0.5c-0.3-0.1-0.5-0.2-0.6-0.2c-0.1,0-0.1,0-0.2,0.1
		c0,0-0.1,0.1-0.1,0.2V51c0,0.2,0,0.3,0.1,0.4c0.1,0,0.2,0.1,0.3,0.1h0.5V52H9.2v-0.5h0.5c0.1,0,0.2,0,0.3-0.1
		c0.1,0,0.1-0.2,0.1-0.4v-6.4c0-0.1,0-0.1-0.1-0.2c0-0.1-0.1-0.1-0.2-0.1c-0.2,0-0.4,0.1-0.6,0.2c-0.3,0.1-0.5,0.3-0.7,0.5
		c-0.2,0.2-0.3,0.4-0.3,0.7V46H7.7V43.9z M15.9,43.9h5.8v0.5h-0.5c-0.1,0-0.2,0-0.3,0.1c-0.1,0-0.1,0.2-0.1,0.4V51
		c0,0.2,0,0.3,0.1,0.4c0.1,0,0.2,0.1,0.3,0.1h0.5V52h-3.3v-0.5h0.5c0.1,0,0.2,0,0.3-0.1c0.1,0,0.1-0.2,0.1-0.4l0-6.2
		c0-0.3-0.1-0.4-0.3-0.4h-0.5c-0.1,0-0.3,0-0.4,0.1c-0.1,0-0.2,0.2-0.2,0.4c-0.1,0.2-0.1,0.5-0.1,0.9c-0.1,1.7-0.3,3-0.5,3.9
		c-0.2,0.9-0.4,1.6-0.7,1.9c-0.3,0.4-0.7,0.5-1.1,0.5c-0.3,0-0.6-0.1-0.8-0.3c-0.2-0.2-0.3-0.5-0.3-0.8c0-0.3,0.1-0.6,0.2-0.7
		c0.2-0.2,0.4-0.3,0.6-0.3c0.2,0,0.4,0.1,0.5,0.2c0.1,0.1,0.2,0.3,0.2,0.5c0,0.2,0,0.3,0,0.3c0,0.1,0.1,0.1,0.1,0.1
		c0.1,0,0.3-0.2,0.4-0.5c0.2-0.3,0.3-0.8,0.4-1.4c0.1-0.6,0.2-1.2,0.3-1.9c0.1-0.7,0.1-1.4,0.1-2c0-0.3,0-0.5-0.1-0.7
		c-0.1-0.2-0.3-0.3-0.7-0.3h-0.6V43.9z M26.5,49h-2.4l-0.1,0.3c-0.3,0.9-0.5,1.5-0.5,1.8c0,0.1,0,0.2,0.1,0.3c0,0.1,0.1,0.1,0.2,0.1
		h0.5V52H22v-0.5h0.3c0.1,0,0.3-0.2,0.5-0.5c0.2-0.3,0.5-1,0.9-2l2.1-5.3h0.5l2.2,7c0.1,0.2,0.2,0.4,0.2,0.5
		c0.1,0.1,0.2,0.2,0.3,0.2h0.4V52h-3v-0.5h0.4c0.2,0,0.3-0.1,0.3-0.2c0-0.1,0-0.1-0.1-0.2L26.5,49z M24.4,48.5h2l-0.9-2.8L24.4,48.5
		z M32.4,47.5h2.9v-2.6c0-0.2,0-0.3-0.1-0.4c-0.1,0-0.2-0.1-0.3-0.1h-0.5v-0.5h3.3v0.5h-0.5c-0.1,0-0.2,0-0.3,0.1
		c-0.1,0-0.1,0.2-0.1,0.4V51c0,0.2,0,0.3,0.1,0.4c0.1,0,0.2,0.1,0.3,0.1h0.5V52h-3.3v-0.5h0.5c0.1,0,0.2,0,0.3-0.1
		c0.1,0,0.1-0.2,0.1-0.4V48h-2.9V51c0,0.2,0,0.3,0.1,0.4c0.1,0,0.2,0.1,0.3,0.1h0.5V52h-3.3v-0.5h0.5c0.1,0,0.2,0,0.3-0.1
		c0.1,0,0.1-0.2,0.1-0.4v-6.2c0-0.2,0-0.3-0.1-0.4c-0.1,0-0.2-0.1-0.3-0.1h-0.5v-0.5h3.3v0.5h-0.5c-0.1,0-0.2,0-0.3,0.1
		c-0.1,0-0.1,0.2-0.1,0.4V47.5z M38.3,43.9h6.4v2h-0.5v-0.2c0-0.2-0.1-0.5-0.3-0.7c-0.2-0.2-0.5-0.4-0.7-0.5
		c-0.3-0.1-0.5-0.2-0.6-0.2c-0.1,0-0.1,0-0.2,0.1c0,0-0.1,0.1-0.1,0.2V51c0,0.2,0,0.3,0.1,0.4c0.1,0,0.2,0.1,0.3,0.1h0.5V52h-3.3
		v-0.5h0.5c0.1,0,0.2,0,0.3-0.1c0.1,0,0.1-0.2,0.1-0.4v-6.4c0-0.1,0-0.1-0.1-0.2c0-0.1-0.1-0.1-0.2-0.1c-0.2,0-0.4,0.1-0.6,0.2
		c-0.3,0.1-0.5,0.3-0.7,0.5c-0.2,0.2-0.3,0.4-0.3,0.7V46h-0.5V43.9z M45.1,43.9h3.3v0.5h-0.5c-0.1,0-0.2,0-0.3,0.1
		c-0.1,0-0.1,0.2-0.1,0.4v5.1l3-4.6v-0.5c0-0.2,0-0.3-0.1-0.4c-0.1-0.1-0.2-0.1-0.3-0.1h-0.5v-0.5H53v0.5h-0.5c-0.1,0-0.2,0-0.3,0.1
		c-0.1,0-0.1,0.2-0.1,0.4V51c0,0.2,0,0.3,0.1,0.4c0.1,0,0.2,0.1,0.3,0.1H53V52h-3.3v-0.5h0.5c0.1,0,0.2,0,0.3-0.1
		c0.1,0,0.1-0.2,0.1-0.4v-4.9l-3,4.6V51c0,0.2,0,0.3,0.1,0.4c0.1,0,0.2,0.1,0.3,0.1h0.5V52h-3.3v-0.5h0.5c0.1,0,0.2,0,0.3-0.1
		c0.1,0,0.1-0.2,0.1-0.4v-6.2c0-0.2,0-0.3-0.1-0.4c-0.1,0-0.2-0.1-0.3-0.1h-0.5V43.9z M59.4,43.9h0.5l0.1,2.4h-0.5l0-0.3
		c0-0.3-0.1-0.6-0.2-0.9c-0.2-0.3-0.4-0.5-0.6-0.7c-0.3-0.2-0.6-0.3-0.9-0.3c-0.3,0-0.6,0.1-0.8,0.2c-0.3,0.1-0.5,0.4-0.7,0.7
		c-0.2,0.3-0.4,0.7-0.5,1.2c-0.1,0.5-0.2,1-0.2,1.7c0,0.7,0.1,1.3,0.3,1.8c0.2,0.5,0.5,0.9,0.8,1.1c0.3,0.3,0.7,0.4,1.1,0.4
		c0.4,0,0.7-0.1,1-0.3c0.3-0.2,0.5-0.5,0.7-0.8c0.2-0.3,0.3-0.6,0.4-1l0.5,0.2c-0.2,0.6-0.4,1.1-0.6,1.5c-0.3,0.4-0.5,0.7-0.8,0.8
		c-0.3,0.2-0.6,0.3-0.8,0.3c-0.2,0.1-0.5,0.1-0.7,0.1c-0.7,0-1.4-0.2-2-0.5c-0.6-0.4-1-0.8-1.3-1.5c-0.3-0.6-0.4-1.3-0.4-2.1
		c0-0.6,0.1-1.1,0.2-1.6c0.2-0.5,0.4-1,0.7-1.4c0.3-0.4,0.7-0.7,1.2-0.9c0.5-0.2,1-0.3,1.6-0.3c0.7,0,1.3,0.2,1.9,0.5L59.4,43.9z
		 M61.2,48.3h2.9v1.2h-2.9V48.3z M65,43.9h7.5v0.5H72c-0.1,0-0.2,0-0.3,0.1c-0.1,0-0.1,0.2-0.1,0.4V51c0,0.2,0,0.3,0.1,0.4
		c0.1,0,0.2,0.1,0.3,0.1h0.5V52h-3.3v-0.5h0.5c0.1,0,0.2,0,0.3-0.1c0.1,0,0.1-0.2,0.1-0.4v-6.2c0-0.2,0-0.3-0.1-0.4
		c-0.1,0-0.2-0.1-0.3-0.1h-1.8c-0.1,0-0.2,0-0.3,0.1c-0.1,0-0.1,0.2-0.1,0.4V51c0,0.2,0,0.3,0.1,0.4c0.1,0,0.2,0.1,0.3,0.1h0.5V52
		H65v-0.5h0.5c0.1,0,0.2,0,0.3-0.1c0.1,0,0.1-0.2,0.1-0.4v-6.2c0-0.2,0-0.3-0.1-0.4c-0.1,0-0.2-0.1-0.3-0.1H65V43.9z M77.3,49H75
		l-0.1,0.3c-0.3,0.9-0.5,1.5-0.5,1.8c0,0.1,0,0.2,0.1,0.3c0,0.1,0.1,0.1,0.2,0.1h0.5V52h-2.3v-0.5h0.3c0.1,0,0.3-0.2,0.5-0.5
		c0.2-0.3,0.5-1,0.9-2l2.1-5.3h0.5l2.2,7c0.1,0.2,0.2,0.4,0.2,0.5c0.1,0.1,0.2,0.2,0.3,0.2h0.4V52h-3v-0.5h0.4
		c0.2,0,0.3-0.1,0.3-0.2c0-0.1,0-0.1-0.1-0.2L77.3,49z M75.2,48.5h2l-0.9-2.8L75.2,48.5z M83.2,47.4h0.8c0.2,0,0.3,0,0.4-0.1
		c0.1-0.1,0.2-0.2,0.3-0.4c0.1-0.2,0.2-0.5,0.3-0.8c0.2-0.6,0.4-1.1,0.6-1.5c0.2-0.3,0.4-0.6,0.6-0.7c0.2-0.1,0.4-0.2,0.7-0.2
		c0.2,0,0.4,0.1,0.7,0.2c0.2,0.1,0.3,0.4,0.3,0.8c0,0.3-0.1,0.5-0.2,0.6c-0.1,0.2-0.3,0.2-0.5,0.2c-0.1,0-0.3,0-0.5-0.2
		c-0.2-0.1-0.2-0.3-0.3-0.6c0-0.2,0-0.3-0.1-0.3c-0.1,0-0.2,0.1-0.2,0.2c0,0.1-0.1,0.3-0.2,0.7c-0.1,0.4-0.2,0.7-0.3,1.1
		c-0.1,0.3-0.3,0.6-0.5,0.9c-0.2,0.3-0.5,0.4-0.8,0.5v0.1c0.6,0,1.1,0.2,1.4,0.5c0.4,0.3,0.6,0.7,0.8,1c0.2,0.4,0.3,0.8,0.4,1.2
		c0.1,0.2,0.1,0.4,0.2,0.6c0.1,0.1,0.1,0.2,0.3,0.2c0.1,0,0.2-0.2,0.3-0.5l0.4,0.1c-0.2,0.8-0.6,1.2-1.2,1.2c-0.4,0-0.7-0.1-0.9-0.4
		c-0.3-0.2-0.5-0.6-0.6-0.9c-0.2-0.4-0.3-0.8-0.4-1.3c-0.1-0.5-0.2-0.8-0.3-1c-0.1-0.2-0.2-0.4-0.3-0.5c-0.1-0.1-0.3-0.2-0.4-0.2
		h-0.7V51c0,0.2,0,0.3,0.1,0.4c0.1,0,0.2,0.1,0.3,0.1H84V52h-3.3v-0.5h0.5c0.1,0,0.2,0,0.3-0.1c0.1,0,0.1-0.2,0.1-0.4v-6.2
		c0-0.2,0-0.3-0.1-0.4c-0.1,0-0.2-0.1-0.3-0.1h-0.5v-0.5H84v0.5h-0.5c-0.1,0-0.2,0-0.3,0.1c-0.1,0-0.1,0.2-0.1,0.4V47.4z"/>
</g>
</svg>
