<?xml version="1.0" encoding="utf-8"?>
<!-- Generator: Adobe Illustrator 18.1.0, SVG Export Plug-In . SVG Version: 6.00 Build 0)  -->
<!DOCTYPE svg PUBLIC "-//W3C//DTD SVG 1.1//EN" "http://www.w3.org/Graphics/SVG/1.1/DTD/svg11.dtd">
<svg version="1.1" id="Слой_1" xmlns="http://www.w3.org/2000/svg" xmlns:xlink="http://www.w3.org/1999/xlink" x="0px" y="0px"
	 viewBox="0 0 72.4 50.3" enable-background="new 0 0 72.4 50.3" xml:space="preserve">
<g opacity="0.5">
	<g>
		<path fill="#FFFFFF" d="M38.9,50.2h-8.1L19.4,28.1l-0.8,2.1l10.2,20.1h-4.5c-0.3,0-2.3-0.3-3.1-1c-0.9-0.8-2-2.8-3-4.6
			c-0.4-0.7-0.7-1.4-1-1.8c-0.4-0.6-1.1-1.2-1.9-1.2c-0.9,0-1.4,0.8-1.8,1.5c-0.7,1.4-1.2,2.6-1.6,3.6c-0.5,1.1-0.8,1.7-1,2
			c-1.1,1.4-3.3,1.5-3.4,1.5H0l18.4-47c0.3-0.9,1.5-2.8,3.7-2.8c1.5,0,2.9,1,3.7,2.5c0.4,0.8,24.1,46.6,24.1,46.6l0.4,0.7h-8.9
			L23.6,15.7l-1,2.6L38.9,50.2z M15.2,40.8c1,0,2.1,0.7,2.7,1.7c0.3,0.4,0.6,1.1,1,1.8c0.8,1.5,2,3.7,2.8,4.3
			c0.5,0.4,1.8,0.7,2.6,0.7l2.9,0l-9.7-19.1l1.8-4.4l12.1,23.4h5.9L21.6,18.3l2-5l18.4,35.9h6.7c-3-5.7-23.3-45.2-23.7-45.9
			c-0.6-1.2-1.7-2-2.8-2c-2.1,0-2.8,2.1-2.8,2.2L1.4,49.3h6c0,0,1.9,0,2.6-1.1c0.2-0.2,0.5-0.9,0.9-1.9c0.4-0.9,0.9-2.2,1.6-3.6
			C13.4,41.1,14.4,40.8,15.2,40.8z"/>
	</g>
	<g>
		<path fill="#FFFFFF" d="M52.4,50.3L29.9,5.9c0,0-1-2.5-0.2-4.1c1-1.7,3.1-1.9,4.7-1.8c0.9,0,37.9,0,37.9,0l-2.9,7.1H41.6L43,9.8
			l25.6,0l-2.8,6.5H46.3l1.3,2.5h17.2l-2,4.8c0,0-0.9,2-2.9,2c-1.6,0-3.4,0-5.1,0.1c-1.9,0.1-2.8,1.9-1.7,4.1
			c1.6,3.2,2.4,4.7,2.7,5.3c0.8,1.6,1.4,4.1,0.5,6C55.4,43.1,52.4,50.3,52.4,50.3z"/>
	</g>
</g>
</svg>
