<?xml version="1.0" encoding="utf-8"?>
<!-- Generator: Adobe Illustrator 18.1.0, SVG Export Plug-In . SVG Version: 6.00 Build 0)  -->
<!DOCTYPE svg PUBLIC "-//W3C//DTD SVG 1.1//EN" "http://www.w3.org/Graphics/SVG/1.1/DTD/svg11.dtd">
<svg version="1.1" id="Слой_1" xmlns="http://www.w3.org/2000/svg" xmlns:xlink="http://www.w3.org/1999/xlink" x="0px" y="0px"
	 viewBox="0 0 83 51.2" enable-background="new 0 0 83 51.2" xml:space="preserve">
<g opacity="0.5">
	<path fill="#FFFFFF" d="M41.5,51.2C18,51.2,0,39.8,0,25.6C0,11.4,18,0,41.5,0C65,0,83,11.4,83,25.6C83,39.8,65,51.2,41.5,51.2z
		 M41.5,49.7c23.4,0,40-11.3,40-24.1c0-12.8-16.6-24.1-40-24.1C18.1,1.5,1.5,12.8,1.5,25.6C1.5,38.4,18.1,49.7,41.5,49.7z"/>
	<path fill="#FFFFFF" d="M50.5,5.6L50.5,5.6c-0.3,0.3-0.6,0.7-0.9,1.8c-0.1,0.3-0.1,0.9,0,1.4l0,0l-0.3-0.5l-0.3-0.4
		c-1.2-1.4-2.3-2.1-3.5-2.4C44.2,5.2,43,5.7,42.3,6c-0.1,0.4-0.3,0.7-1.2,1.2l-0.9,0.5c-2.1,1.2-6.6,3.8-8.4,4.1c-1,0.1-1.7,0-2-0.1
		c-0.1,0-0.9,0.3-1.1,0.3c-0.1,0.2-0.8,1.3-0.8,1.3c0,0-0.3,0.3-0.5,0.5c0,0,0.1,0,0.1,0l0.1,0.1l0,0.2l0.1,0.8l0.5,2.5
		c0.2,0.7,0.7,1.5,1.6,2.4c0.6,0.6,0.7,1.2,0.9,2c0.7-0.6,1.2-1.2,1.3-1.6c0.3-0.7,0.3-1.6,0.3-2v-0.7l0.4,0.5c0.4,0.6,1,1,1.6,1.4
		c2.2,1.3,5,1.3,6,1.3c0.8,0,1.9-0.2,3-0.7l0.2-0.1l0.1,0.2c0.2,0.5,0.6,1.5,1.1,2.1c0.5,0.7,1.7,2,2.4,2.5c0.4,0.3,0.8,0.5,1.3,0.7
		c-0.9-1.1-1.8-2.5-2.3-3.9c-0.2-0.7-0.3-1.4-0.3-1.9c0-1,0.2-1.8,0.3-2.2c0.2-0.8,0.7-2.1,1-2.7l0.2-0.3l1,1.4l0.1,0.2
		c0.7,1,0.9,1.5,0.9,1.8c0,0,0,0.1,0,0.1c-0.1,0.2-0.1,0.3-0.3,0.3c0.2,0.1,0.4,0.1,0.8,0.1c0.9-0.1,1.6-0.5,1.8-1.1
		c0.1-0.4-0.2-0.8-0.3-1l-0.1-0.1c-0.2-0.3,0.1-0.9,0.2-1.1c0.2-0.4,0.6-1,0.7-1.6l0.2-1.9l0-0.7l0.3,0.1c1.4,0.5,2.5,0.5,4,0.2
		c1.1-0.2,2-0.7,2.9-1.2c-1.3,0.3-2.6,0.5-3.9,0.5c-1.5-0.1-2.9-0.9-3.9-1.6c-1-0.7-1.3-1.5-1.3-2.2c0-0.2,0-0.3,0-0.4
		c0.1-0.5,0.2-0.8,0.5-1.2C50.9,5.2,50.7,5.4,50.5,5.6z"/>
	<path fill="#FFFFFF" d="M57.3,5.9c2.4,1,4.4,2.2,5.9,3.6c-1.3-1.3-3.1-2.4-5.1-3.3c5.6,2.4,9.2,6,9.2,9.9
		c0,7.2-11.6,13.7-25.8,13.7c-14.3,0-25.8-6.6-25.8-13.7c0-4,3.6-7.6,9.2-9.9c-3,1.4-5.3,3.1-6.6,5.1c1.6-2.2,4.3-4.1,7.8-5.5
		C12.1,9.4,3.8,17.8,3.8,25.7c0,10.5,14.4,21.7,37.6,21.7c23.3,0,37.7-11.3,37.7-21.7C79.2,17.9,71.1,9.6,57.3,5.9z M8.1,28.2h-1
		v1.7H6.5v-2.1h1.5V28.2z M10.7,29.2h-0.5v0.7H9.7v-2.1h1.1c0.5,0,0.9,0.2,0.9,0.7C11.6,29.2,11,29.2,10.7,29.2z M14.4,29.5
		C14.2,29.9,14,30,13.7,30c-0.1,0-0.2,0-0.3,0v-0.4c0.1,0,0.1,0,0.2,0c0.2,0,0.3-0.1,0.3-0.2L13,27.8h0.7l0.5,1l0.4-1h0.6L14.4,29.5
		z M60.3,27.8c0.7,0,1,0.5,1,1.1c0,0.6-0.3,1.1-1,1.1c-0.8,0-1-0.6-1-1.1C59.3,28.4,59.5,27.8,60.3,27.8z M57.1,27.8h0.5v0.9h0
		l0.7-0.9h0.6l-0.8,1l0.9,1.1h-0.6l-0.7-1h0v1h-0.5V27.8z M24.9,27.8h0.6l0.9,2.1h-0.6l-0.2-0.4h-0.8l-0.1,0.4H24L24.9,27.8z
		 M20.5,27.8h2v2.1h-0.5v-1.7h-0.9v1.7h-0.5V27.8z M17.3,28.2v1.7h-0.5v-2.1h2v2.1h-0.5v-1.7H17.3z M36.5,44.4L36,42.7
		c-0.1-0.2-0.2-0.4-0.4-0.5c-0.2-0.1-0.5-0.1-0.8-0.1h-1.9c-0.7,0-1.2,0.3-1.3,0.9l-0.3,1.5h-1.8l2.3-9c-0.1-0.3-0.2-0.4-0.4-0.5
		c-0.2-0.1-0.5-0.1-0.9-0.1l0-1.3h7.1l3,10.8H36.5z M52.1,41.4c0,0.5-0.1,0.9-0.3,1.2c-0.2,0.4-0.5,0.7-0.9,0.9
		c-0.4,0.2-0.8,0.4-1.2,0.6c-0.5,0.1-0.9,0.2-1.4,0.2h-6.6l0-8.9c-0.1-0.2-0.2-0.4-0.4-0.5c-0.2-0.1-0.4-0.1-0.7-0.1l0-1.3h6.7
		c0.3,0,0.7,0,1.1,0.1c0.4,0,0.8,0.1,1.1,0.2c0.3,0.1,0.6,0.3,0.9,0.5c0.3,0.2,0.6,0.7,0.7,1c0.2,1-0.3,1.8-0.8,2.2
		c-0.6,0.4-0.7,0.7,0,1c0.4,0.2,1.7,1,1.8,2.2c0,0.1,0,0.2,0,0.3C52.1,41.2,52.1,41.3,52.1,41.4z M62.9,36.6
		c-0.3,0.5-0.7,0.9-1.2,1.2c-0.5,0.3-1.1,0.6-1.7,0.8c-0.6,0.2-1.3,0.4-1.9,0.6l0,0c-0.6,0.2-0.8,0.5-0.8,0.9l0,2.1h-3.7v-8.5
		c0-0.1,0-0.2,0-0.2c-0.1-0.2-0.2-0.4-0.4-0.5c-0.2-0.1-0.5-0.2-0.8-0.2H29.4c-0.4,0-0.7,0.1-0.9,0.3c-0.2,0.2-0.3,0.5-0.3,0.8
		l0,8.5h-4.1l0-8.5c0-0.1,0-0.1,0-0.2c0,0,0-0.1,0-0.1c-0.1-0.2-0.2-0.4-0.4-0.6c-0.2-0.1-0.5-0.2-0.8-0.2h-4.2l0-1.3h40.3
		c0.3,0,0.7,0,1.1,0.1c0.4,0.1,0.9,0.2,1.3,0.4c0.4,0.2,0.8,0.5,1.2,0.8c0.4,0.3,0.6,0.8,0.7,1.3c0.1,0.2,0.1,0.4,0.1,0.6
		C63.3,35.5,63.2,36.1,62.9,36.6z M64.3,29.9h-0.5v-1.5h0l-0.5,1.5H63l-0.5-1.5h0v1.5H62v-2.1h0.7l0.5,1.4l0.5-1.4h0.7V29.9z
		 M66.8,29.9h-0.5v-1.7h-0.8v1.7h-0.5v-2.1h1.7V29.9z M68.8,29.9l-0.1-0.4H68l-0.1,0.4h-0.5l0.8-2.1h0.5l0.8,2.1H68.8z M71.5,29.9
		h-0.5V29h-0.7v0.9h-0.5v-2.1h0.5v0.8h0.7v-0.8h0.5V29.9z M74.1,29.9h-0.5v-1.4l-0.8,1.4h-0.5v-2.1h0.5v1.4l0.8-1.4h0.5V29.9z
		 M75.5,27.3c0,0.1,0.1,0.2,0.3,0.2c0.2,0,0.3-0.1,0.3-0.2h0.3c0,0.4-0.5,0.4-0.6,0.4c-0.2,0-0.6,0-0.6-0.4H75.5z M76.1,29.9v-1.4
		l-0.8,1.4h-0.5v-2.1h0.5v1.4l0.8-1.4h0.5v2.1H76.1z"/>
	<path fill="#FFFFFF" d="M41.6,28.8c13.8,0,25-5.8,25-12.9c0-2.3-1.2-4.5-3.2-6.3c1.8,1.7,2.9,3.7,2.9,5.8c0,6.8-11,12.4-24.6,12.4
		c-13.6,0-24.6-5.6-24.6-12.4c0-1.4,0.5-2.8,1.4-4.1c-1.1,1.4-1.7,3-1.7,4.6C16.7,23,27.8,28.8,41.6,28.8z"/>
	<path fill="#FFFFFF" d="M46.4,37.8c0.3,0,0.5,0,0.8-0.1c0.3-0.1,0.5-0.2,0.7-0.5c0.4-0.7,0.2-1.2,0-1.7c-0.1-0.3-0.3-0.5-0.6-0.7
		c-0.3-0.2-0.6-0.3-0.9-0.3c-0.6,0-1,0.3-1,0.8l0,2C45.6,37.7,45.9,37.8,46.4,37.8z"/>
	<path fill="#FFFFFF" d="M34.9,38.1c-0.1-0.3-0.2-0.6-0.2-0.8c-0.1-0.2-0.1-0.4-0.2-0.6c-0.1-0.4-0.2-0.6-0.4-0.7
		c-0.1-0.1-0.3-0.1-0.5-0.1c-0.1,0-0.2,0-0.3,0.1c-0.1,0.1-0.1,0.2-0.2,0.3c-0.1,0.1-0.1,0.2-0.1,0.3c0,0.1-0.1,0.2-0.1,0.3
		c-0.2,0.7-0.5,1.4-0.6,2c-0.2,0.6-0.2,1.1-0.1,1.5c0.1,0.4,0.5,0.5,1.1,0.5h1.1c0.7,0,1-0.2,1-0.6c0-0.1,0-0.3-0.1-0.7
		C35.2,39.2,35,38.7,34.9,38.1z"/>
	<path fill="#FFFFFF" d="M48,40.2c-0.1-0.2-0.3-0.4-0.4-0.5c-0.2-0.2-0.3-0.3-0.5-0.4c-0.2-0.1-0.4-0.1-0.6-0.1
		c-0.6,0-0.9,0.3-0.9,0.8l0,2.7c0.1,0.4,0.4,0.6,1,0.6c0.3,0,0.5-0.1,0.7-0.2c0.2-0.1,0.4-0.3,0.6-0.5c0.2-0.2,0.3-0.4,0.4-0.7
		c0.1-0.2,0.1-0.5,0.1-0.7c0-0.1,0-0.3,0-0.4C48.2,40.6,48.1,40.4,48,40.2z"/>
	<path fill="#FFFFFF" d="M10.6,28.2h-0.4v0.6h0.4c0.3,0,0.4-0.1,0.4-0.3C11,28.2,10.8,28.2,10.6,28.2z"/>
	<polygon fill="#FFFFFF" points="25.2,28.4 24.9,29.2 25.4,29.2 	"/>
	<path fill="#FFFFFF" d="M60.3,29.6c0.5,0,0.5-0.5,0.5-0.7c0-0.2,0-0.7-0.5-0.7c-0.3,0-0.5,0.2-0.5,0.7C59.8,29.4,60,29.6,60.3,29.6
		z"/>
	<polygon fill="#FFFFFF" points="68.1,29.2 68.6,29.2 68.3,28.4 	"/>
	<path fill="#FFFFFF" d="M59.7,33.5c-0.1-0.2-0.2-0.4-0.4-0.6c-0.1-0.2-0.3-0.3-0.5-0.4c-0.2-0.1-0.4-0.2-0.7-0.2
		c-0.3,0-0.5,0.1-0.7,0.1c-0.2,0.1-0.3,0.3-0.3,0.5l0.1,3.3c0,0.1,0,0.2,0,0.3c0.1,0.4,0.4,0.5,0.9,0.5c0.2,0,0.5-0.1,0.7-0.2
		c0.2-0.2,0.4-0.4,0.6-0.6c0.2-0.2,0.3-0.5,0.4-0.8C60,35.3,60,35,60,34.8c0-0.2,0-0.4-0.1-0.6C59.9,34,59.8,33.7,59.7,33.5z"/>
</g>
</svg>
