<?xml version="1.0" encoding="utf-8"?>
<!-- Generator: Adobe Illustrator 18.1.0, SVG Export Plug-In . SVG Version: 6.00 Build 0)  -->
<!DOCTYPE svg PUBLIC "-//W3C//DTD SVG 1.1//EN" "http://www.w3.org/Graphics/SVG/1.1/DTD/svg11.dtd">
<svg version="1.1" id="Слой_1" xmlns="http://www.w3.org/2000/svg" xmlns:xlink="http://www.w3.org/1999/xlink" x="0px" y="0px"
	 viewBox="0 0 213.5 25.3" enable-background="new 0 0 213.5 25.3" xml:space="preserve">
<g>
	<g>
		<path fill="#000000" d="M66.5,0.2v9.7h3.8l5.2-9.7h2.9l-5.8,10.9v0.3l5.8,13.5h-2.9l-5.2-12.2h-3.8v12.2h-2.7V0.2H66.5z"/>
		<path fill="#000000" d="M2.8,25H0L4,1.2c0.1-0.5,0.7-1.1,1.3-1.1h4.9c0.6,0,1.2,0.5,1.3,1.1l4,23.8h-2.8l-1-6H3.8L2.8,25z
			 M9.3,3.4C9.2,3.1,9.1,3,9,3H6.7C6.5,3,6.4,3.1,6.4,3.4L4.3,16.2h7.2L9.3,3.4z"/>
		<path fill="#000000" d="M21.1,3V25h-2.8V0.2h11.1V3H21.1z"/>
		<path fill="#000000" d="M40,0.2c1.3,0,2.3,0.4,3.2,1.2c0.9,0.8,1.3,1.8,1.3,3v5.5c0,1.2-0.4,2.3-1.3,3.2c-0.9,0.9-1.9,1.3-3.2,1.3
			h-5.6V25h-2.8V0.2H40z M40,11.6c1,0,1.7-0.7,1.7-1.7V4.5C41.6,3.5,41,3,40,3h-5.6v8.6H40z"/>
		<path fill="#000000" d="M46.9,4.5c0-1.2,0.4-2.3,1.3-3.2C49.1,0.4,50.1,0,51.4,0h4c1.2,0,2.3,0.4,3.2,1.3c0.9,0.9,1.3,1.9,1.3,3.2
			v16.4c0,1.2-0.4,2.3-1.3,3.2c-0.9,0.9-1.9,1.3-3.2,1.3h-4c-1.2,0-2.3-0.4-3.2-1.3c-0.9-0.9-1.3-1.9-1.3-3.2V4.5z M49.7,20.9
			c0,1,0.7,1.7,1.7,1.7h4c1,0,1.7-0.7,1.7-1.7V4.5c0-1-0.7-1.7-1.7-1.7h-4c-1,0-1.7,0.7-1.7,1.7V20.9z"/>
		<path fill="#000000" d="M79.9,4.5c0-1.2,0.4-2.3,1.3-3.2C82.1,0.4,83.1,0,84.4,0h4c1.2,0,2.3,0.4,3.2,1.3c0.9,0.9,1.3,1.9,1.3,3.2
			v16.4c0,1.2-0.4,2.3-1.3,3.2c-0.9,0.9-1.9,1.3-3.2,1.3h-4c-1.2,0-2.3-0.4-3.2-1.3c-0.9-0.9-1.3-1.9-1.3-3.2V4.5z M82.7,20.9
			c0,1,0.7,1.7,1.7,1.7h4c1,0,1.7-0.7,1.7-1.7V4.5c0-1-0.7-1.7-1.7-1.7h-4c-1,0-1.7,0.7-1.7,1.7V20.9z"/>
		<path fill="#000000" d="M108.8,0.2h5.5l0.9,24.8h-2.8L111.6,3h-0.3l-4.4,21.7h-2.5L99.9,3h-0.3L98.7,25h-2.8l1-24.8h5.4l3.3,18
			L108.8,0.2z"/>
	</g>
	<linearGradient id="SVGID_1_" gradientUnits="userSpaceOnUse" x1="182.617" y1="42.9521" x2="148.7556" y2="-15.6975">
		<stop  offset="0.1583" style="stop-color:#00B7C7"/>
		<stop  offset="0.3329" style="stop-color:#00BEC7"/>
		<stop  offset="0.5932" style="stop-color:#00D3C7"/>
		<stop  offset="0.9055" style="stop-color:#00F4C7"/>
		<stop  offset="1" style="stop-color:#00FFC7"/>
	</linearGradient>
	<path fill="url(#SVGID_1_)" d="M124.1,3v22.1h-2.8v-25h11.1V3H124.1z M142.7,0.2c1.3,0,2.3,0.4,3.2,1.2c0.9,0.8,1.3,1.8,1.3,3.1
		v5.5c0,1.2-0.4,2.3-1.3,3.2c-0.9,0.9-1.9,1.3-3.2,1.3h-5.6v10.7h-2.8v-25H142.7z M142.7,11.6c1,0,1.7-0.7,1.7-1.7V4.5
		c0-1-0.7-1.5-1.7-1.5h-5.6v8.7H142.7z M157.6,25.1h-2.8l1.6-6.9h-3.1c-0.6,0-1.2-0.5-1.3-1.1l-4.1-17h2.9l3.6,14.9
		c0,0.3,0.2,0.4,0.3,0.4h2.2c0.1,0,0.2,0,0.2-0.1l3.6-15.2h2.8L157.6,25.1z M175.8,25.1V2.9h-7.2v22.2h-2.8v-25h12.9v25H175.8z
		 M192.8,25.1V2.9h-7.2v22.2h-2.8v-25h12.9v25H192.8z M200.6,25.1h-2.8l4.1-23.9c0.1-0.5,0.7-1.1,1.3-1.1h5c0.6,0,1.2,0.5,1.3,1.1
		l4.1,23.9h-2.8l-1-6.1h-8.1L200.6,25.1z M207.1,3.4C207,3.1,206.9,3,206.8,3h-2.3c-0.2,0-0.3,0.1-0.3,0.4L202,16.2h7.2L207.1,3.4z"
		/>
</g>
</svg>
