<?xml version="1.0" encoding="utf-8"?>
<!-- Generator: Adobe Illustrator 18.1.0, SVG Export Plug-In . SVG Version: 6.00 Build 0)  -->
<!DOCTYPE svg PUBLIC "-//W3C//DTD SVG 1.1//EN" "http://www.w3.org/Graphics/SVG/1.1/DTD/svg11.dtd">
<svg version="1.1" id="Слой_1" xmlns="http://www.w3.org/2000/svg" xmlns:xlink="http://www.w3.org/1999/xlink" x="0px" y="0px"
	 viewBox="0 0 81.3 55.1" enable-background="new 0 0 81.3 55.1" xml:space="preserve">
<g opacity="0.5">
	<g>
		<path fill="#FFFFFF" d="M81.3,41.4H65.3L42.6,15l8.9-10.4L81.3,41.4z M65.6,40.8H80L51.4,5.5L43.3,15L65.6,40.8z"/>
	</g>
	<g>
		<polygon fill-rule="evenodd" clip-rule="evenodd" fill="#FFFFFF" points="72.3,41.3 57.1,23 53.8,27.5 30.3,0 0.7,41.3 19.6,41.3 
			32.8,23.2 47.8,41.3 55,41.3 59.8,34.7 65.3,41.3 65.7,41.3 65.7,41.3 		"/>
	</g>
	<g>
		<path fill-rule="evenodd" clip-rule="evenodd" fill="#FFFFFF" d="M9,48.8v6.4H6.7v-4.6l-1.5,4.6H3.5l-1.6-4.6v4.6H0v-6.4h3.3
			l1.2,3.4l1.2-3.4H9z M13.8,54.5v0.7h-2.5v-6.4h2.5v2.6c0,0.3,0,0.7-0.1,1.2c0.3-0.5,0.6-1,0.9-1.4l1.3-1.7v-0.7h2.5v6.4h-2.5v-2.5
			c0-0.4,0-0.8,0.1-1.2c-0.2,0.4-0.5,0.9-0.9,1.4L13.8,54.5z M21.7,55.1h-2l2.6-6.4H25l2.6,6.4h-2.5l-1.7-4.5L21.7,55.1z M29.9,55.1
			h-2l2.6-6.4h2.7l2.6,6.4h-2.5l-1.7-4.5L29.9,55.1z M43.4,53.6v1.5h-6.2v-6.4h6.2v1.5h-3.7v0.9h3v1.4h-3v1H43.4z M52.3,48.8v6.4
			h-2.5v-2.5h-1.9v2.5h-2.5v-6.4h2.5v2.3h1.9v-2.3H52.3z M57,54.5v0.7h-2.5v-6.4H57v2.6c0,0.3,0,0.7-0.1,1.2c0.3-0.5,0.6-1,0.9-1.4
			l1.3-1.7v-0.7h2.5v6.4h-2.5v-2.5c0-0.4,0-0.8,0.1-1.2c-0.2,0.4-0.5,0.9-0.9,1.4L57,54.5z M66,53.2l-3.2-4.4h2.8l1.5,2.5l1.2-2.5
			h2.2l-2.4,4.7c-0.2,0.4-0.5,0.8-0.8,1c-0.3,0.3-0.6,0.4-0.9,0.6c-0.3,0.1-0.8,0.2-1.3,0.2h-1.3v-1.4h0.9
			C65.4,53.7,65.9,53.5,66,53.2z M80.8,48.8v6.4h-2.4v-4.6l-1.5,4.6h-1.6l-1.6-4.6v4.6h-1.9v-6.4h3.3l1.2,3.4l1.2-3.4H80.8z"/>
	</g>
	<g>
		<path fill-rule="evenodd" clip-rule="evenodd" fill="#FFFFFF" d="M0,46.8v-3.4h3.1v0.7H1.4v2.7H0z M4.3,47.9v-4.6h1.3v0.5
			c0.2-0.4,0.6-0.6,1.2-0.6c0.5,0,0.9,0.2,1.2,0.5C8.3,44,8.5,44.4,8.5,45c0,0.6-0.2,1.1-0.5,1.4c-0.3,0.3-0.7,0.5-1.3,0.5
			c-0.5,0-0.9-0.2-1.1-0.5v1.5H4.3z M5.6,45.3c0,0.2,0,0.4,0.1,0.5c0,0.1,0.1,0.2,0.3,0.2c0.1,0.1,0.3,0.1,0.4,0.1
			c0.2,0,0.4-0.1,0.5-0.2C7,45.8,7.1,45.5,7.1,45c0-0.7-0.2-1-0.7-1C6.2,44,6,44,5.9,44.1c-0.2,0.1-0.2,0.3-0.2,0.6V45.3z
			 M13.5,43.3l-1.5,3.3c-0.2,0.4-0.3,0.6-0.4,0.8c-0.1,0.2-0.3,0.3-0.5,0.4C11,47.9,10.7,48,10.3,48c-0.2,0-0.4,0-0.7,0v-0.8
			c0.2,0,0.5,0,0.7,0c0.3,0,0.5,0,0.5-0.1c0.1-0.1,0.2-0.2,0.2-0.3l-1.7-3.4h1.4l0.9,2l0.9-2H13.5z M14.8,46.8v-3.4h4v3.4h-1.4V44
			h-1.2v2.7H14.8z M20.5,46.8v-3.4h4v3.4h-1.4V44h-1.2v2.7H20.5z M30.3,46.8H29c0-0.1-0.1-0.3-0.1-0.5c-0.2,0.2-0.5,0.4-0.7,0.5
			c-0.2,0.1-0.5,0.1-0.8,0.1c-0.4,0-0.8-0.1-1.1-0.3c-0.3-0.2-0.4-0.4-0.4-0.7c0-0.2,0.1-0.4,0.2-0.6c0.2-0.2,0.4-0.3,0.8-0.4
			c0.3-0.1,1-0.2,1.9-0.2v-0.2c0-0.3-0.2-0.5-0.7-0.5c-0.5,0-0.7,0.2-0.8,0.5l-1.3-0.1c0.1-0.4,0.3-0.7,0.7-0.8
			c0.4-0.2,0.9-0.2,1.4-0.2c0.3,0,0.6,0,0.9,0.1c0.3,0.1,0.5,0.1,0.7,0.2c0.2,0.1,0.3,0.2,0.3,0.3c0.1,0.1,0.1,0.3,0.1,0.6v1.6
			C30.2,46.4,30.3,46.6,30.3,46.8z M28.9,45.1c-1,0.1-1.4,0.3-1.4,0.6c0,0.1,0,0.2,0.1,0.3c0.1,0.1,0.2,0.1,0.4,0.1
			c0.2,0,0.4-0.1,0.6-0.2c0.2-0.1,0.2-0.3,0.2-0.6V45.1z M37.3,44.5l1.6,2.3h-1.4l-1.1-1.5l-0.7,0.5v1h-1.4v-3.4h1.4v0.9
			c0,0.1,0,0.3,0,0.6c0.1-0.1,0.2-0.2,0.4-0.4l1.4-1.1h1.3L37.3,44.5z M41.9,43.3c0.7,0,1.3,0.2,1.7,0.5c0.4,0.3,0.6,0.8,0.6,1.3
			c0,0.5-0.2,0.9-0.6,1.3c-0.4,0.3-1,0.5-1.6,0.5c-0.7,0-1.2-0.2-1.6-0.5c-0.4-0.3-0.6-0.8-0.6-1.3c0-0.4,0.1-0.7,0.3-0.9
			c0.2-0.3,0.4-0.5,0.7-0.6C41,43.3,41.4,43.3,41.9,43.3z M41.9,43.9c-0.3,0-0.5,0.1-0.6,0.2c-0.1,0.1-0.2,0.4-0.2,0.9
			c0,0.4,0.1,0.7,0.2,0.9c0.1,0.2,0.3,0.3,0.6,0.3c0.2,0,0.4-0.1,0.6-0.2c0.1-0.1,0.2-0.4,0.2-0.9c0-0.4-0.1-0.8-0.2-0.9
			C42.3,44,42.2,43.9,41.9,43.9z M45.6,46.8v-3.4h2l1,2.7l1-2.7h1.9v3.4h-1.2V44h-0.1l-1.1,2.7h-1.4l-1-2.7h-0.1v2.7H45.6z
			 M53.3,46.8v-3.4h4v3.4h-1.4V44h-1.2v2.7H53.3z M63.1,46.8h-1.3c0-0.1-0.1-0.3-0.1-0.5c-0.2,0.2-0.5,0.4-0.7,0.5
			c-0.2,0.1-0.5,0.1-0.8,0.1c-0.4,0-0.8-0.1-1.1-0.3c-0.3-0.2-0.4-0.4-0.4-0.7c0-0.2,0.1-0.4,0.2-0.6c0.2-0.2,0.4-0.3,0.8-0.4
			c0.3-0.1,1-0.2,1.9-0.2v-0.2c0-0.3-0.2-0.5-0.7-0.5c-0.5,0-0.7,0.2-0.8,0.5l-1.3-0.1c0.1-0.4,0.3-0.7,0.7-0.8
			c0.4-0.2,0.9-0.2,1.4-0.2c0.3,0,0.6,0,0.9,0.1c0.3,0.1,0.5,0.1,0.6,0.2c0.2,0.1,0.3,0.2,0.3,0.3C63,44,63,44.3,63,44.6v1.6
			C63,46.4,63,46.6,63.1,46.8z M61.6,45.1c-1,0.1-1.4,0.3-1.4,0.6c0,0.1,0.1,0.2,0.2,0.3c0.1,0.1,0.2,0.1,0.4,0.1
			c0.2,0,0.4-0.1,0.6-0.2c0.2-0.1,0.2-0.3,0.2-0.6V45.1z M64.8,46.8v-3.4h1.4v1.2h1.4v-1.2h1.4v3.4h-1.4v-1.5h-1.4v1.5H64.8z
			 M72.1,46.4v0.4h-1.4v-3.4h1.4v1.3c0,0.2,0,0.5,0,0.8c0.2-0.3,0.4-0.5,0.6-0.7l0.9-0.9v-0.4h1.4v3.4h-1.4v-1.2c0-0.3,0-0.6,0-0.9
			c-0.2,0.3-0.4,0.5-0.6,0.8L72.1,46.4z M78,46.4v0.4h-1.4v-3.4H78v1.3c0,0.2,0,0.5,0,0.8c0.2-0.3,0.4-0.5,0.6-0.7l0.9-0.9v-0.4h1.4
			v3.4h-1.4v-1.2c0-0.3,0-0.6,0-0.9c-0.2,0.3-0.4,0.5-0.6,0.8L78,46.4z M77.3,41.8H78c0.1,0.3,0.3,0.4,0.7,0.4
			c0.5,0,0.7-0.1,0.7-0.4h0.7c-0.1,0.3-0.2,0.5-0.5,0.7c-0.3,0.2-0.6,0.3-1,0.3c-0.4,0-0.7-0.1-1-0.2C77.5,42.4,77.4,42.1,77.3,41.8
			z"/>
	</g>
</g>
</svg>
