<?xml version="1.0" encoding="utf-8"?>
<!-- Generator: Adobe Illustrator 18.1.0, SVG Export Plug-In . SVG Version: 6.00 Build 0)  -->
<!DOCTYPE svg PUBLIC "-//W3C//DTD SVG 1.1//EN" "http://www.w3.org/Graphics/SVG/1.1/DTD/svg11.dtd">
<svg version="1.1" id="Слой_1" xmlns="http://www.w3.org/2000/svg" xmlns:xlink="http://www.w3.org/1999/xlink" x="0px" y="0px"
	 viewBox="0 0 80.1 75.9" enable-background="new 0 0 80.1 75.9" xml:space="preserve">
<g opacity="0.5">
	<path fill-rule="evenodd" clip-rule="evenodd" fill="#FFFFFF" d="M29.3,75.6c-0.1,0-0.2-0.1-0.2-0.2v-1.1c0-0.1,0.1-0.2,0.2-0.2
		l1.4-0.4v-9.6h-2.2l-0.3,1.2c0,0.1-0.1,0.2-0.2,0.2h-1.1c-0.1,0-0.2-0.1-0.2-0.2c0-1,0-2.1,0-3.1c0-0.1,0.1-0.2,0.2-0.2h10.2
		c0.1,0,0.2,0.1,0.2,0.2c0,1,0,2.1,0,3.1c0,0.1-0.1,0.2-0.2,0.2H36c-0.1,0-0.2-0.1-0.2-0.2l-0.3-1.2h-2.2v9.6l1.4,0.4
		c0.1,0,0.2,0.1,0.2,0.2v1.1c0,0.1-0.1,0.2-0.2,0.2H29.3z M72.9,69.4h0.6c0,0,0.4,0,0.8-0.8c0.5-0.8,1.1-2.1,1.8-2.7
		c0.8-0.5,1.6-0.5,1.9-0.5h0.8c0.1,0,0.2,0.1,0.2,0.2v1.7c0,0.1-0.1,0.2-0.2,0.2H78c-0.7,0-1.3,1.2-1.5,1.5
		c-0.2,0.3-1.1,1.2-1.1,1.2v0.1c0,0,0.9,0.5,1.3,1.3c0.4,0.8,0.8,1.5,1.2,1.9c0.2,0.2,0.4,0.2,0.6,0.3h0.3c0.1,0,0.2,0.1,0.2,0.2
		v1.7c0,0.1-0.1,0.2-0.2,0.2h-0.8c0,0-1.3,0-2.1-0.9c-0.8-0.9-1.2-2.6-1.9-3.1c-0.4-0.3-0.9-0.3-1.3-0.4v3.9c0,0.2-0.1,0.3-0.3,0.3
		h-1.9c-0.2,0-0.3-0.1-0.3-0.3v-8.2l-1-0.2c-0.2,0-0.3-0.1-0.3-0.3v-0.9c0-0.2,0.1-0.3,0.3-0.3l3.2-0.2c0.2,0,0.3,0.1,0.3,0.3v0.2
		v1.4V69.4z M43.3,71.4c-1.1-0.1-3.3-0.1-3.3,1.4c0,1.6,2.5,1.6,3.3,0.2V71.4z M38.3,66.4c0-0.2,0-0.3,0.2-0.4c3-1.3,7.2-1.3,7.2,3
		c0,1.7,0,3.5,0,5.2c0.3,0.1,0.6,0.1,0.9,0.2c0.2,0,0.3,0.1,0.3,0.3c0,0.2,0,0.4,0,0.6c0,0.2-0.2,0.3-0.4,0.3
		c-0.8,0-1.6,0.1-2.4,0.1c-0.4,0-0.5-0.5-0.5-1.4c-0.8,1-1.8,1.6-3.1,1.5c-2-0.1-2.7-1.3-2.8-2.9c-0.1-2.5,1.8-3.6,5.6-3.3
		c0-3-1.7-2.8-3.9-2.2c-0.3,0.1-0.7,0.3-0.8,0C38.5,67.2,38.4,66.8,38.3,66.4z M64.6,71.4c-1.1-0.1-3.3-0.1-3.3,1.4
		c0,1.6,2.5,1.6,3.3,0.2V71.4z M59.7,66.4c0-0.2,0-0.3,0.2-0.4c3-1.3,7.2-1.3,7.2,3c0,1.7,0,3.5,0,5.2c0.3,0.1,0.6,0.1,0.9,0.2
		c0.2,0,0.3,0.1,0.3,0.3c0,0.2,0,0.4,0,0.6c0,0.2-0.2,0.3-0.4,0.3c-0.8,0-1.6,0.1-2.4,0.1c-0.4,0-0.5-0.5-0.5-1.4
		c-0.8,1-1.8,1.6-3.1,1.5c-2-0.1-2.7-1.3-2.8-2.9c-0.1-2.5,1.8-3.6,5.7-3.3c0-3-1.7-2.8-3.9-2.2c-0.3,0.1-0.7,0.3-0.8,0
		C59.8,67.2,59.7,66.8,59.7,66.4z M52.9,67.5c1.7,0,2.3,1.4,2.3,3.2c0,1.8-0.6,3.2-2.3,3.2c-1.7,0-2.3-1.4-2.3-3.2
		C50.6,69,51.2,67.5,52.9,67.5z M50,67.2c0,0,1.3-1.7,3.4-1.7c2.1,0,4.3,1.6,4.3,5.3c0,3.7-2.4,5.1-4.9,5.1c-2.6,0-4.7-1.8-4.7-5.9
		c0-4.1,1.3-6.1,2.5-7.1c1.3-0.9,2.9-1.3,3.6-1.7c0.8-0.4,0.9-0.9,1-1.1c0-0.1,0.2-0.3,0.4-0.2c0.3,0.1,1.6,0.6,1.7,0.6
		c0,0,0.3,0.1,0.1,0.5c-0.2,0.4-0.8,1.7-2,2.2c-1.3,0.6-2.7,0.5-3.8,1.4C50.6,65.5,50,67.2,50,67.2z"/>
	<path fill-rule="evenodd" clip-rule="evenodd" fill="#FFFFFF" d="M49.8,49.8h0.6c0,0,0.4,0,0.8-0.8c0.5-0.8,1.1-2.1,1.8-2.7
		c0.8-0.5,1.6-0.5,1.9-0.5h0.8c0.1,0,0.2,0.1,0.2,0.2v1.7c0,0.1-0.1,0.2-0.2,0.2h-0.8c-0.7,0-1.3,1.2-1.5,1.5
		c-0.2,0.3-1.1,1.2-1.1,1.2v0.1c0,0,0.9,0.5,1.3,1.3c0.4,0.8,0.8,1.5,1.2,1.9c0.2,0.2,0.4,0.2,0.6,0.3h0.3c0.1,0,0.2,0.1,0.2,0.2V56
		c0,0.1-0.1,0.2-0.2,0.2h-0.8c0,0-1.3,0-2.1-0.9c-0.8-0.9-1.2-2.6-1.9-3.1c-0.4-0.3-0.9-0.3-1.3-0.4v3.9c0,0.2-0.1,0.3-0.3,0.3h-1.9
		c-0.2,0-0.3-0.1-0.3-0.3v-8.2l-1-0.2c-0.2,0-0.3-0.1-0.3-0.3v-0.9c0-0.2,0.1-0.3,0.3-0.3l3.2-0.2c0.2,0,0.3,0.1,0.3,0.3v0.2v1.4
		V49.8z M71.3,56c0.2,0,1.2,0.1,2.3-1.8c1.1-1.9,2.9-5.4,2.9-5.4l0.1,0c-0.1,0.5-0.2,0.9-0.2,1.3v4.1v1.5v0.2c0,0.2,0.1,0.3,0.3,0.3
		l3.1-0.1c0.2,0,0.3-0.1,0.3-0.3v-0.6c0-0.2-0.1-0.2-0.3-0.3L79,54.6v-8.4c0-0.2-0.1-0.3-0.3-0.3h-1.2h-1.1c-0.1,0-0.5,0.1-0.7,0.5
		c-0.2,0.4-3.3,6.5-3.3,6.5l-0.1,0c0.1-0.6,0.2-1.3,0.2-1.8v-3.5v-1.2V46c0-0.2-0.1-0.3-0.3-0.3L68.8,46c-0.2,0-0.3,0.1-0.3,0.3v0.9
		c0,0.2,0.1,0.3,0.3,0.3l1.2,0.1v8.1c0,0.2,0.1,0.3,0.3,0.3H71.3z M71.6,42.3c-0.1-0.2,0.1-0.3,0.2-0.4l1.1-0.3
		c0.1,0,0.3-0.1,0.3,0.1c0.4,1.3,2.2,1.3,2.6,0c0.1-0.2,0.2-0.2,0.3-0.1l1.1,0.3c0.1,0,0.3,0.1,0.2,0.4
		C76.5,45.2,72.4,45.2,71.6,42.3z M42.6,47.6c0.3,0,0.5,0.1,0.5,0.3l0.2,0.9c0,0.1,0.1,0.2,0.2,0.2c0.3,0,0.6,0,0.8,0
		c0.1,0,0.2-0.2,0.2-0.4l0.1-2.1c0-0.2-0.1-0.4-0.3-0.5c-4.1-1.2-7.7,0.2-7.7,5c0,2.9,1.6,5.2,5,5.2c0.9,0,2-0.2,3-0.5
		c0.2-0.1,0.3-0.2,0.2-0.5l-0.2-1.1c-0.1-0.3-0.3-0.3-0.6-0.2c-2.8,1.1-5,0.1-4.9-3.3C39.3,48.5,40.5,47.2,42.6,47.6z M8.9,44.7
		c0-0.2-0.2-0.4-0.3-0.4H6.7c-0.8,0-1.3,0.5-1.5,1.5c-0.3,2.4,0.1,6-1.5,8.2h5.1V44.7z M0.2,54.5c2.9-2,2.4-5.7,2.8-8.9
		c0.3-2.3,1.4-3.3,3.6-3.3h2.6h0h1.9c0.2,0,0.3,0.1,0.3,0.3V54h1c0.1,0,0.3,0.1,0.3,0.3v4.5c0,0.1-0.1,0.3-0.3,0.3h-1.7
		c-0.2,0-0.3-0.1-0.3-0.3V56H2.3v2.8c0,0.1-0.1,0.3-0.3,0.3H0.3c-0.1,0-0.3-0.1-0.3-0.3v-4.1C0,54.6,0.1,54.5,0.2,54.5z M62.4,54.4
		c-1.9,0-2.3-1.4-2.3-3.4c0-2,0.5-3.4,2.3-3.4c1.9,0,2.3,1.4,2.3,3.4C64.7,53,64.2,54.4,62.4,54.4z M67.2,50.9
		c0-3.4-1.4-5.3-4.8-5.3c-3.4,0-4.8,1.9-4.8,5.3c0,3.4,1.4,5.3,4.8,5.3C65.8,56.3,67.2,54.4,67.2,50.9z M18.6,54.4
		c-1.9,0-2.3-1.4-2.3-3.4c0-2,0.5-3.4,2.3-3.4c1.9,0,2.3,1.4,2.3,3.4C20.9,53,20.5,54.4,18.6,54.4z M23.4,50.9
		c0-3.4-1.4-5.3-4.8-5.3c-3.4,0-4.8,1.9-4.8,5.3c0,3.4,1.4,5.3,4.8,5.3C22,56.3,23.4,54.4,23.4,50.9z M32.4,45.9h1.9
		c0.2,0,0.3,0.1,0.3,0.3v9.5c0,0.2-0.1,0.3-0.3,0.3h-1.9c-0.2,0-0.3-0.1-0.3-0.3V52h-3.6v3.8c0,0.2-0.1,0.3-0.3,0.3h-1.9
		c-0.2,0-0.3-0.1-0.3-0.3v-8.2l-1-0.2c-0.2,0-0.3-0.1-0.3-0.3v-0.9c0-0.2,0.1-0.3,0.3-0.3l3.2-0.2c0.2,0,0.3,0.1,0.3,0.3v0.2v1.4V50
		h3.6v-3.8C32.1,46,32.2,45.9,32.4,45.9z"/>
	<g>
		<path fill-rule="evenodd" clip-rule="evenodd" fill="#FFFFFF" d="M36.6,21l0.4-1.3c-0.1,0-0.2,0-0.3,0c-0.2,0-0.5,0-0.7,0l-0.6,2
			L36.6,21z"/>
		<path fill-rule="evenodd" clip-rule="evenodd" fill="#FFFFFF" d="M37.3,19.8l-0.3,1l1.5-0.9C38.1,19.9,37.7,19.8,37.3,19.8z"/>
		<path fill-rule="evenodd" clip-rule="evenodd" fill="#FFFFFF" d="M32.7,20.6c0.2,0.7,0.4,1.3,0.7,2l0.7-2.4
			C33.6,20.2,33.1,20.4,32.7,20.6z"/>
		<path fill-rule="evenodd" clip-rule="evenodd" fill="#FFFFFF" d="M35.6,19.8c-0.4,0-0.8,0.1-1.1,0.2l-0.8,2.8L35,22L35.6,19.8z"/>
		<path fill-rule="evenodd" clip-rule="evenodd" fill="#FFFFFF" d="M51.4,29.5c-0.9,0.9-2.3,1.7-3.5,2.2c-1.5,0.6-0.3,0.6,0.5,0.5
			c1.7-0.2,2.7-0.9,3.3-2.3C52,29.4,51.9,29,51.4,29.5z"/>
		<polygon fill-rule="evenodd" clip-rule="evenodd" fill="#FFFFFF" points="42.1,17.4 47.3,8.4 46.4,8.4 41.2,17.4 		"/>
		<path fill-rule="evenodd" clip-rule="evenodd" fill="#FFFFFF" d="M43.7,7.1C43.3,7,43,7,42.6,7c-5.9,0-10.7,4.6-11,10.4
			c0.4,0,0.8,0.1,1.2,0.1C38.6,17.5,43.4,12.9,43.7,7.1z M42.6,7.5c0.2,0,0.4,0,0.6,0c-0.6,5.3-5.1,9.4-10.5,9.4c-0.2,0-0.4,0-0.6,0
			C32.7,11.6,37.2,7.5,42.6,7.5z"/>
		<path fill-rule="evenodd" clip-rule="evenodd" fill="#FFFFFF" d="M36,21.8l1.9,0.2c0.1-0.3,0.3-0.5,0.4-0.8l-1.1-0.1L36,21.8z"/>
		<path fill-rule="evenodd" clip-rule="evenodd" fill="#FFFFFF" d="M37.7,20.8l0.8,0.1c0.1-0.2,0.2-0.5,0.2-0.7L37.7,20.8z"/>
		<path fill-rule="evenodd" clip-rule="evenodd" fill="#FFFFFF" d="M34.4,22.8l2.9,0.3c0.2-0.3,0.4-0.5,0.5-0.8l-2.2-0.3L34.4,22.8z
			"/>
		<path fill-rule="evenodd" clip-rule="evenodd" fill="#FFFFFF" d="M33.4,13.5c-0.4,0.9-0.8,1.9-0.9,2.9l0.9-0.7L33.4,13.5z"/>
		<path fill-rule="evenodd" clip-rule="evenodd" fill="#FFFFFF" d="M35.3,25.2c0.3-0.2,0.6-0.5,0.8-0.7l-1.6-0.2
			C34.7,24.6,35,24.9,35.3,25.2z"/>
		<path fill-rule="evenodd" clip-rule="evenodd" fill="#FFFFFF" d="M33.7,23.1c0.2,0.3,0.3,0.5,0.5,0.8l2.1,0.3
			c0.2-0.2,0.5-0.5,0.7-0.8L33.9,23L33.7,23.1z"/>
		<path fill-rule="evenodd" clip-rule="evenodd" fill="#FFFFFF" d="M39,8.5c-0.4,0.1-0.7,0.3-1,0.5l-0.1,2.9l1.1-0.9L39,8.5z"/>
		<path fill-rule="evenodd" clip-rule="evenodd" fill="#FFFFFF" d="M40.2,10.3l1.9,0.1c0.1-0.3,0.2-0.6,0.3-0.9l-1.3-0.1L40.2,10.3z
			"/>
		<path fill-rule="evenodd" clip-rule="evenodd" fill="#FFFFFF" d="M42.5,9.2c0.1-0.4,0.2-0.7,0.3-1.1l-1.3,1.1L42.5,9.2z"/>
		<path fill-rule="evenodd" clip-rule="evenodd" fill="#FFFFFF" d="M32.7,16.6c0.8,0,1.6-0.1,2.3-0.3l-1.9-0.1L32.7,16.6z"/>
		<path fill-rule="evenodd" clip-rule="evenodd" fill="#FFFFFF" d="M42.6,7.8c-0.6,0-1.3,0.1-1.9,0.2l0,1.5L42.6,7.8L42.6,7.8z"/>
		<path fill-rule="evenodd" clip-rule="evenodd" fill="#FFFFFF" d="M36.2,13.7l3.4,0.2c0.3-0.3,0.6-0.5,0.8-0.8l-3.3-0.2L36.2,13.7z
			"/>
		<path fill-rule="evenodd" clip-rule="evenodd" fill="#FFFFFF" d="M37.5,12.5l3.2,0.2c0.2-0.3,0.4-0.6,0.6-0.9l-2.8-0.2L37.5,12.5z
			"/>
		<path fill-rule="evenodd" clip-rule="evenodd" fill="#FFFFFF" d="M40.3,8.1c-0.4,0.1-0.7,0.2-1,0.3l-0.1,2.3l1.1-0.9L40.3,8.1z"/>
		<path fill-rule="evenodd" clip-rule="evenodd" fill="#FFFFFF" d="M37.7,15.3l-3.2-0.2l-1,0.8l2.4,0.2
			C36.6,15.9,37.1,15.6,37.7,15.3z"/>
		<path fill-rule="evenodd" clip-rule="evenodd" fill="#FFFFFF" d="M34.8,11.4c-0.4,0.5-0.8,1-1.1,1.5l-0.1,2.5l1.1-0.9L34.8,11.4z"
			/>
		<path fill-rule="evenodd" clip-rule="evenodd" fill="#FFFFFF" d="M36.2,10c-0.4,0.3-0.7,0.6-1.1,1l-0.1,3.2l1.1-0.9L36.2,10z"/>
		<path fill-rule="evenodd" clip-rule="evenodd" fill="#FFFFFF" d="M39.3,14.2L35.8,14l-1,0.8l3.3,0.2
			C38.6,14.8,38.9,14.5,39.3,14.2z"/>
		<path fill-rule="evenodd" clip-rule="evenodd" fill="#FFFFFF" d="M37.6,9.1c-0.4,0.2-0.7,0.4-1.1,0.7L36.5,13l1.1-0.9L37.6,9.1z"
			/>
		<path fill-rule="evenodd" clip-rule="evenodd" fill="#FFFFFF" d="M36.7,18.9c-1.8,0-3.5,0.4-4.9,1.2c0.5,2.4,1.7,4.6,3.5,6.2
			c2.3-1.6,4-4,4.6-6.9C38.8,19.1,37.7,18.9,36.7,18.9z M35.2,25.6c-1.5-1.4-2.5-3.2-2.9-5.2c1.4-0.6,2.8-0.9,4.4-0.9
			c0.8,0,1.7,0.1,2.5,0.3C38.6,22.1,37.2,24.2,35.2,25.6z"/>
		<path fill-rule="evenodd" clip-rule="evenodd" fill="#FFFFFF" d="M38.8,11.4l2.6,0.2c0.2-0.3,0.3-0.6,0.5-0.9l-2.1-0.1L38.8,11.4z
			"/>
		<path fill-rule="evenodd" clip-rule="evenodd" fill="#FFFFFF" d="M46.9,15c-0.1,0.3-0.2,0.5-0.2,0.8l1.3-0.7L46.9,15z"/>
		<path fill-rule="evenodd" clip-rule="evenodd" fill="#FFFFFF" d="M50.3,16.4c0.3,0,0.6-0.1,0.9-0.1l0.7-2.2
			c-0.1-0.2-0.1-0.3-0.2-0.5l-0.6,0.3L50.3,16.4z"/>
		<path fill-rule="evenodd" clip-rule="evenodd" fill="#FFFFFF" d="M49.6,14.6l-0.5,1.8c0.1,0,0.3,0,0.4,0c0.2,0,0.3,0,0.5,0
			l0.7-2.3L49.6,14.6z"/>
		<path fill-rule="evenodd" clip-rule="evenodd" fill="#FFFFFF" d="M43,19.3l-5,8.8c0.2,0.1,0.5,0.2,0.8,0.3l5.2-9.1H43z"/>
		<path fill-rule="evenodd" clip-rule="evenodd" fill="#FFFFFF" d="M48.1,12.7l3.5,0.4c-0.1-0.3-0.3-0.5-0.5-0.8L48.5,12
			C48.4,12.2,48.2,12.5,48.1,12.7z"/>
		<path fill-rule="evenodd" clip-rule="evenodd" fill="#FFFFFF" d="M47.6,16.2l0.2-0.6l-0.9,0.5C47.1,16.1,47.4,16.2,47.6,16.2z"/>
		<path fill-rule="evenodd" clip-rule="evenodd" fill="#FFFFFF" d="M52.6,16c-0.1-0.5-0.2-1-0.4-1.5l-0.5,1.7
			C51.9,16.1,52.3,16.1,52.6,16z"/>
		<path fill-rule="evenodd" clip-rule="evenodd" fill="#FFFFFF" d="M41.2,3.2c0.5-0.1,3.6-0.9,5.9,0c1.8,0.7,1.5,0.4,0.7-0.2
			c-1.9-1.3-4.5-1.5-6.5-1.2C39.4,2.2,39.8,3.5,41.2,3.2z"/>
		<path fill-rule="evenodd" clip-rule="evenodd" fill="#FFFFFF" d="M42.6,5.1c-7.1,0-12.9,5.8-12.9,12.9c0,7.1,5.8,12.9,12.9,12.9
			c7.1,0,12.9-5.8,12.9-12.9C55.5,10.9,49.7,5.1,42.6,5.1z M42.6,30.4c-6.8,0-12.4-5.5-12.4-12.4c0-6.8,5.5-12.4,12.4-12.4
			c6.8,0,12.4,5.5,12.4,12.4C54.9,24.9,49.4,30.4,42.6,30.4z"/>
		<path fill-rule="evenodd" clip-rule="evenodd" fill="#FFFFFF" d="M59.7,13.8c-0.7-2.8-3.2-5.2-5-7.2c-2.1-2.3-3.8-4.4-6.5-5.6
			C44.1-0.9,38.9,0.2,35.8,2c-3.8,2.2-4,3.8-7,6c-4.6,3.6-1.6,8.5-3.2,15.2c-1.4,5.7,4.6,6.2,4.4,10.9c-0.2,4.9,4,7.1,7.7,4
			c1.2-1.1,1.7-0.8,4.7-0.8c1.7-0.1,2.2-1.1,3.7-1.3c1.3-0.2,2.8,0.1,4.5-0.4c3.4-0.9,4.7-5.8,5.7-7.4C60,22.2,60.9,18.4,59.7,13.8z
			 M55.6,27.4c-0.9,1.6-2.2,6.1-5.4,7c-1.7,0.5-3,0.1-4.3,0.4c-1.4,0.2-1.9,1.2-3.5,1.3c-3.2,0.2-2.3-1.6-5.2,0.8
			c-3.5,2.9-6.7,0.8-6.6-3.8c0.1-4.4-5.5-4.9-4.2-10.3c1.5-6.3-1.3-11,3-14.4c2.8-2.2,3-3.6,6.6-5.7c2.9-1.7,7.8-2.7,11.7-1
			c2.6,1.1,4.2,3.1,6.1,5.3c1.7,1.9,4.1,4.2,4.8,6.8C59.9,18,59,21.6,55.6,27.4z"/>
		<path fill-rule="evenodd" clip-rule="evenodd" fill="#FFFFFF" d="M28.2,22.8c-0.6,0-0.6,1-0.6,1.4c0.2,4.2,4.7,2,4.8,8.4
			c0,2.3,0.6,3,1,3c0.5,0,1-0.9,1-1.9c-0.1-4.1-4.5-6-5.4-8.6C28.7,24.5,28.9,22.9,28.2,22.8z"/>
		<path fill-rule="evenodd" clip-rule="evenodd" fill="#FFFFFF" d="M48.8,11.7l2,0.3c-0.3-0.4-0.7-0.8-1.1-1.2
			C49.4,11.1,49.1,11.4,48.8,11.7z"/>
		<path fill-rule="evenodd" clip-rule="evenodd" fill="#FFFFFF" d="M49.7,9.6c-2.1,1.7-3.6,4.2-4,7c1.2,0.4,2.5,0.7,3.8,0.7
			c1.4,0,2.8-0.3,4-0.7C53.1,13.8,51.7,11.3,49.7,9.6z M49.5,16.7c-1.1,0-2.2-0.2-3.2-0.5c0.5-2.3,1.7-4.4,3.4-5.9
			c1.7,1.6,2.8,3.6,3.2,5.9C51.8,16.6,50.7,16.7,49.5,16.7z"/>
		<path fill-rule="evenodd" clip-rule="evenodd" fill="#FFFFFF" d="M48.2,15.4l-0.3,0.9c0.3,0,0.6,0.1,0.9,0.1l0.5-1.6L48.2,15.4z"
			/>
		<path fill-rule="evenodd" clip-rule="evenodd" fill="#FFFFFF" d="M50.1,24.9l-1-2.4l-0.5,0.8l0.9,2.2
			C49.7,25.3,49.9,25.1,50.1,24.9z"/>
		<path fill-rule="evenodd" clip-rule="evenodd" fill="#FFFFFF" d="M50.9,24l-1.1-2.6l-0.5,0.8l1,2.5C50.5,24.4,50.7,24.2,50.9,24z"
			/>
		<path fill-rule="evenodd" clip-rule="evenodd" fill="#FFFFFF" d="M52.2,21.5l-0.5-1.3h-0.8l0.9,2.3C51.9,22.1,52.1,21.8,52.2,21.5
			z"/>
		<path fill-rule="evenodd" clip-rule="evenodd" fill="#FFFFFF" d="M51.6,22.8l-1.1-2.7L50,21l1.1,2.7
			C51.3,23.4,51.4,23.1,51.6,22.8z"/>
		<path fill-rule="evenodd" clip-rule="evenodd" fill="#FFFFFF" d="M49.6,14.3L47.3,14c-0.1,0.2-0.2,0.5-0.3,0.7l1.4,0.2L49.6,14.3z
			"/>
		<path fill-rule="evenodd" clip-rule="evenodd" fill="#FFFFFF" d="M52.6,20.1H52l0.3,0.9C52.4,20.7,52.5,20.4,52.6,20.1z"/>
		<polygon fill-rule="evenodd" clip-rule="evenodd" fill="#FFFFFF" points="46.5,19.3 40.9,29 41.9,29 47.4,19.3 		"/>
		<path fill-rule="evenodd" clip-rule="evenodd" fill="#FFFFFF" d="M44.5,28.9c4.8-0.8,8.5-4.8,9.1-9.6H50L44.5,28.9z M52.9,19.8
			c-0.7,4-3.6,7.2-7.4,8.3l4.8-8.3H52.9z"/>
		<path fill-rule="evenodd" clip-rule="evenodd" fill="#FFFFFF" d="M49.3,25.8l-0.8-2L48,24.6l0.7,1.7
			C48.8,26.1,49.1,25.9,49.3,25.8z"/>
		<path fill-rule="evenodd" clip-rule="evenodd" fill="#FFFFFF" d="M42.8,32.8c-0.6-0.1-1.1,0-1.9,0c-2.1,0.1,0.7,1.2,2.2,0.7
			C44.6,33,43.9,32.9,42.8,32.8z"/>
		<path fill-rule="evenodd" clip-rule="evenodd" fill="#FFFFFF" d="M51.2,13.4L47.9,13c-0.1,0.2-0.3,0.5-0.4,0.7l2.6,0.3L51.2,13.4z
			"/>
		<path fill-rule="evenodd" clip-rule="evenodd" fill="#FFFFFF" d="M48.4,26.4l-0.6-1.5l-0.5,0.8l0.4,1.1
			C47.9,26.7,48.2,26.6,48.4,26.4z"/>
		<path fill-rule="evenodd" clip-rule="evenodd" fill="#FFFFFF" d="M47.4,27l-0.4-0.9l-0.8,1.5C46.6,27.4,47,27.2,47.4,27z"/>
	</g>
</g>
</svg>
