<?xml version="1.0" encoding="utf-8"?>
<!-- Generator: Adobe Illustrator 18.1.0, SVG Export Plug-In . SVG Version: 6.00 Build 0)  -->
<!DOCTYPE svg PUBLIC "-//W3C//DTD SVG 1.1//EN" "http://www.w3.org/Graphics/SVG/1.1/DTD/svg11.dtd">
<svg version="1.1" id="Слой_1" xmlns="http://www.w3.org/2000/svg" xmlns:xlink="http://www.w3.org/1999/xlink" x="0px" y="0px"
	 viewBox="0 0 69.7 69.7" enable-background="new 0 0 69.7 69.7" xml:space="preserve">
<g opacity="0.5">
	<g>
		<path fill-rule="evenodd" clip-rule="evenodd" fill="#FFFFFF" d="M0,34.8C0,54,15.6,69.7,34.8,69.7C54,69.7,69.7,54,69.7,34.8
			C69.7,15.6,54,0,34.8,0C15.6,0,0,15.6,0,34.8z M1,34.8C1,16.2,16.2,1,34.8,1c18.7,0,33.9,15.2,33.9,33.9
			c0,18.7-15.2,33.9-33.9,33.9C16.2,68.7,1,53.5,1,34.8z"/>
		<path fill-rule="evenodd" clip-rule="evenodd" fill="#FFFFFF" d="M42.5,62c0.2-0.1,0.2-0.3,0.2-0.4c-0.2-0.8-0.4-1.6-0.7-2.3
			c-0.1-0.4-0.3-0.5-0.6-0.4c-0.5,0.2-0.4,0.6-0.4,1c0,0.6,0.2,1.6,0.1,2.2c0,0.2-0.1,0.4,0.2,0.3C41.6,62.3,42.2,62.1,42.5,62
			L42.5,62z M45.1,61.2c0.2,0,0.4,0,0.5,0c0.1,0.1,0.2,0.2,0.3,0.5c0.1,0.3,0.2,0.5,0.2,0.7c0.1,0.4,0,0.7-0.1,0.8
			c-0.1,0-0.1,0-0.1,0c-0.1,0-0.3,0-0.5-0.1c-0.1-0.1-0.2-0.1-0.3-0.2c-0.2-0.1-0.3-0.2-0.4-0.3c-0.1-0.1-0.3-0.1-0.4-0.1
			c-0.2,0-0.3,0-0.4,0.1c-0.1,0-0.3,0.1-0.4,0.1C43.2,62.9,43,63,42.8,63c-0.2,0.1-0.3,0.1-0.5,0.2c-0.1,0-0.5,0.2-1.1,0.4
			c-0.2,0.1-0.4,0.2-0.5,0.2c-0.2,0.1-0.3,0.2-0.5,0.3c0,0-0.1,0.3-0.4,0.7c-0.1,0.1-0.1,0.2-0.2,0.3c-0.1,0.1-0.2,0.1-0.2,0.1
			c-0.1,0-0.1,0-0.2,0c-0.1,0-0.1-0.1-0.2-0.1c0-0.1-0.1-0.2-0.2-0.4c-0.1-0.3-0.1-0.6-0.2-0.8c0-0.2,0-0.4,0-0.5
			c0.2-0.1,0.3-0.2,0.5-0.3c0.3-0.1,0.5-0.4,0.6-0.6c0.1-0.1,0.1-0.3,0.1-0.5c0-0.6-0.1-1.8-0.3-2.5c0-0.2,0-0.4-0.1-0.5
			c-0.2-0.1-0.1,0-0.3-0.1c-0.3-0.1-0.3-0.5,0-0.6c0.9-0.4,2.7-1,3.4-1.1c0.4-0.1,0.7-0.2,1-0.2c0.5-0.1,0.7,0,0.7,0.3
			c0,0.1,0,0.3-0.2,0.4C44.1,57.9,44,58,44,58.1c-0.1,0.7,0.6,2.2,0.8,2.9C44.9,61.2,44.9,61.3,45.1,61.2L45.1,61.2z"/>
		<path fill-rule="evenodd" clip-rule="evenodd" fill="#FFFFFF" d="M14.1,52.3c-0.3,0.3-0.6,0.5-0.7,0.6c-0.1,0.2-0.1,0.3-0.1,0.4
			c0,0.1,0.1,0.2,0.1,0.2c0,0.1,0,0.1-0.1,0.2c-0.2,0.1-0.4,0.2-0.6,0.2c-0.3,0-0.5-0.1-0.8-0.2c-0.3-0.1-0.5-0.3-0.6-0.5
			C11.1,53,11,52.8,11,52.6c0-0.2,0-0.3,0-0.5c0-0.2,0-0.3,0-0.3c0,0-0.1-0.1-0.3-0.2c-0.2-0.1-0.4-0.2-0.6-0.3
			c-0.2-0.1-0.3-0.3-0.5-0.5c-0.2-0.3-0.3-0.5-0.4-0.8c-0.1-0.3-0.1-0.6,0-0.9c0.1-0.3,0.3-0.5,0.6-0.7c0.2-0.2,0.5-0.3,0.8-0.3
			c0.3,0,0.7,0.1,1.1,0.3c0.4,0.2,0.8,0.6,1.1,1.1c0.1,0.2,0.2,0.3,0.3,0.3c0.1,0,0.2,0,0.3-0.1c0.6-0.4,0.8-0.8,0.6-1.1
			c-0.1-0.1-0.2-0.2-0.3-0.2c-0.1,0-0.3,0-0.6,0c-0.3,0-0.5,0-0.7-0.1c-0.2-0.1-0.3-0.2-0.5-0.4c-0.1-0.1-0.1-0.3-0.1-0.5
			c0-0.2,0.1-0.3,0.2-0.4c0.2-0.2,0.5-0.2,0.9-0.1c0.4,0.1,0.8,0.3,1.1,0.6c0.4,0.3,0.7,0.6,0.9,0.9c0.2,0.2,0.3,0.5,0.5,0.9
			c0.1,0.3,0.2,0.7,0.1,1.1c-0.1,0.4-0.3,0.7-0.7,1L14.1,52.3L14.1,52.3z M11.3,50.2c-0.1,0.1-0.2,0.2-0.3,0.3c0,0.1,0,0.3,0.1,0.4
			c0.1,0.1,0.2,0.2,0.4,0.2c0.1,0,0.3-0.1,0.5-0.3c0.1-0.1,0.2-0.2,0.3-0.3c0-0.1,0-0.2,0-0.3c-0.1-0.1-0.3-0.2-0.4-0.2
			C11.7,50.1,11.5,50.1,11.3,50.2L11.3,50.2z"/>
		<path fill-rule="evenodd" clip-rule="evenodd" fill="#FFFFFF" d="M17.8,54.7c0,0,0.2,0.1,0.4,0.1c0.2,0,0.4,0,0.6,0
			c0.2,0,0.3-0.1,0.4-0.1c0,0,0-0.1,0-0.1c0,0,0-0.1,0-0.2c0-0.1,0-0.1,0-0.2c0-0.1,0-0.1,0.1-0.2c0.2-0.2,0.4-0.2,0.7-0.1
			c0.3,0.1,0.6,0.3,0.9,0.6c0.3,0.3,0.6,0.5,0.8,0.8c0.2,0.3,0.2,0.5,0,0.8c-0.1,0.1-0.2,0.2-0.2,0.2c-0.1,0-0.2-0.1-0.4-0.1
			c-0.2-0.1-0.4-0.1-0.6-0.2c-0.2,0-0.3-0.1-0.5-0.1c-0.2,0-0.3,0-0.3,0c0,0-0.1,0.2-0.1,0.4c0,0.2,0,0.5,0,0.9c0,0.4,0,0.7,0,0.9
			c0,0.3,0,0.4,0,0.4c0,0.2,0,0.5,0.1,0.7c0.1,0.3,0.1,0.4,0.2,0.5c0,0.1,0,0.2-0.1,0.3c-0.3,0.3-0.7,0.3-1.3-0.2l-1.2-1
			c-0.2-0.1-0.3-0.3-0.3-0.3c0-0.1-0.1-0.2,0-0.4l0-1.7c0-0.4,0-0.6,0-0.6c-0.1,0-0.2,0-0.3,0.2c-0.2,0.2-0.3,0.4-0.3,0.5
			c0,0.1,0,0.2,0,0.4c0,0.1,0,0.3-0.1,0.4c-0.1,0.1-0.2,0.2-0.3,0.2c-0.1,0-0.3,0-0.6-0.1c-0.3-0.1-0.6-0.3-1-0.7l-0.2-0.2
			c-0.3-0.2-0.5-0.4-0.6-0.6c-0.2-0.2-0.3-0.3-0.3-0.5c-0.1-0.2,0-0.3,0.1-0.5c0.1-0.1,0.1-0.1,0.2-0.1c0,0,0.1,0,0.3,0
			c0.1,0,0.2,0,0.3,0c0.1,0,0.2-0.1,0.4-0.3c0.1-0.1,0.3-0.4,0.6-0.7c0.3-0.3,0.5-0.7,0.8-1c0.1-0.2,0.2-0.3,0.2-0.4
			c0-0.1,0-0.2,0-0.3c0-0.1,0-0.2,0-0.3c0-0.1,0-0.1,0.1-0.2c0.3-0.3,0.8-0.2,1.7,0.5l0.3,0.2c0.8,0.7,1.1,1.2,0.8,1.5
			c-0.1,0.1-0.2,0.1-0.3,0.2c-0.1,0-0.2,0.1-0.3,0.1c-0.1,0-0.2,0.1-0.3,0.3c-0.1,0.1-0.1,0.2-0.2,0.3
			C17.8,54.6,17.8,54.6,17.8,54.7L17.8,54.7z"/>
		<path fill-rule="evenodd" clip-rule="evenodd" fill="#FFFFFF" d="M26.6,60.4c0.1,0.1,0.2,0.2,0.4,0.4c0.1,0.2,0.2,0.4,0.3,0.6
			c0.1,0.2,0,0.4-0.1,0.7c-0.1,0.3-0.3,0.5-0.5,0.7c-0.2,0.2-0.6,0.3-1,0.3c-0.4,0-0.9-0.1-1.4-0.3c-0.1-0.1-0.3-0.1-0.4-0.2
			c-0.2-0.1-0.3-0.1-0.4-0.2c-0.1-0.1-0.2-0.1-0.3-0.1c-0.1,0-0.2-0.1-0.4-0.2c-0.2-0.1-0.3-0.1-0.4-0.2c-0.1,0-0.2-0.1-0.3-0.1
			c-0.1,0-0.3-0.1-0.4-0.2c-0.2-0.1-0.3-0.1-0.5-0.2c-0.5-0.2-0.7-0.5-0.5-0.8c0.1-0.1,0.2-0.2,0.3-0.3c0.2-0.1,0.3-0.1,0.3-0.2
			c0.1-0.1,0.2-0.2,0.3-0.5c0.2-0.3,0.3-0.7,0.4-1c0.1-0.3,0.2-0.6,0.3-0.9c0.1-0.2,0.1-0.3,0.1-0.4c0-0.1,0-0.2-0.1-0.3
			c-0.1-0.1-0.1-0.2-0.1-0.3c0-0.1,0-0.2,0.1-0.3c0.1-0.2,0.2-0.3,0.4-0.3c0.2,0,0.4,0,0.6,0.1c0.3,0.1,0.6,0.3,0.9,0.4
			c0.4,0.2,0.6,0.3,0.7,0.3c0.1,0,0.2,0.1,0.5,0.2c0.3,0.1,0.5,0.2,0.7,0.3c0.7,0.3,1.2,0.6,1.4,1c0.2,0.4,0.2,0.7,0.1,1.1
			c-0.1,0.2-0.2,0.4-0.4,0.5C27,60.3,26.8,60.4,26.6,60.4L26.6,60.4z M24.5,59.4c0.1,0.1,0.3,0.1,0.5,0c0.2-0.1,0.3-0.2,0.3-0.4
			c0.1-0.2,0.1-0.3,0-0.5c0-0.2-0.1-0.3-0.3-0.4c0,0-0.1,0-0.2,0c-0.1,0-0.1,0.1-0.1,0.1l-0.3,0.8c0,0,0,0.1,0,0.2
			C24.4,59.3,24.5,59.4,24.5,59.4L24.5,59.4z M23.8,61.5c0.2,0.1,0.3,0,0.5,0c0.2-0.1,0.3-0.2,0.4-0.4c0.2-0.4,0-0.8-0.4-0.9
			c-0.2-0.1-0.3,0.1-0.5,0.6c-0.1,0.2-0.1,0.4-0.1,0.5C23.6,61.4,23.7,61.5,23.8,61.5L23.8,61.5z"/>
		<path fill-rule="evenodd" clip-rule="evenodd" fill="#FFFFFF" d="M33.6,62.1c-0.1,0.4-0.1,0.7,0,0.9c0,0.2,0.1,0.3,0.2,0.3
			c0.1,0,0.2,0.1,0.2,0.1c0.1,0,0.1,0.1,0.1,0.2c0,0.2-0.1,0.4-0.3,0.6c-0.2,0.2-0.4,0.3-0.7,0.4c-0.3,0.1-0.5,0.1-0.8,0.1
			c-0.2,0-0.4-0.1-0.5-0.2c-0.1-0.1-0.2-0.2-0.3-0.3c-0.1-0.1-0.2-0.2-0.2-0.2c-0.1,0-0.2,0-0.4,0.1c-0.2,0.1-0.4,0.2-0.6,0.2
			c-0.2,0.1-0.4,0.1-0.7,0c-0.3,0-0.6-0.1-0.9-0.3c-0.3-0.2-0.5-0.4-0.6-0.6c-0.1-0.3-0.2-0.6-0.1-0.9c0-0.3,0.2-0.5,0.4-0.8
			c0.2-0.2,0.5-0.4,1-0.5c0.4-0.1,0.9-0.1,1.5-0.1c0.2,0,0.3,0,0.4,0c0.1,0,0.1-0.1,0.1-0.3c0.1-0.7,0-1.1-0.4-1.2
			c-0.1,0-0.3,0-0.4,0.1c-0.1,0.1-0.2,0.2-0.4,0.4c-0.2,0.2-0.4,0.3-0.5,0.4c-0.2,0.1-0.3,0.1-0.6,0.1c-0.2,0-0.3-0.1-0.4-0.2
			c-0.1-0.1-0.1-0.3-0.1-0.5c0-0.3,0.2-0.5,0.6-0.7c0.4-0.2,0.8-0.3,1.2-0.4c0.5-0.1,0.9-0.1,1.3,0c0.3,0,0.6,0.1,0.9,0.3
			c0.3,0.1,0.6,0.4,0.9,0.7c0.2,0.3,0.3,0.7,0.3,1.2L33.6,62.1L33.6,62.1z M30.1,62.6c0,0.2,0,0.3,0.1,0.4c0.1,0.1,0.2,0.2,0.3,0.2
			c0.2,0,0.3,0,0.4-0.2c0.1-0.1,0.1-0.3,0.2-0.5c0-0.2,0-0.3,0-0.4c0-0.1-0.1-0.1-0.2-0.2c-0.2,0-0.3,0-0.5,0.1
			C30.3,62.3,30.2,62.4,30.1,62.6L30.1,62.6z"/>
		<path fill-rule="evenodd" clip-rule="evenodd" fill="#FFFFFF" d="M45.7,59.9c-0.3-0.6-0.4-1.1-0.3-1.7c0.1-0.6,0.3-1.1,0.7-1.5
			c0.4-0.5,0.9-0.8,1.4-1.1c0.4-0.2,0.9-0.3,1.3-0.3c0.4,0,0.8,0,1.2,0.2c0.4,0.1,0.7,0.3,0.9,0.6c0.3,0.2,0.5,0.5,0.6,0.8
			c0.2,0.4,0.3,0.8,0.2,1.2c0,0.4-0.2,0.8-0.4,1.2c-0.2,0.4-0.5,0.7-0.8,1c-0.3,0.3-0.7,0.5-1,0.7c-0.5,0.2-1,0.4-1.5,0.4
			c-0.5,0-1-0.1-1.4-0.4C46.2,60.8,45.9,60.4,45.7,59.9L45.7,59.9z M47.7,57c-0.2,0.1-0.2,0.2-0.3,0.4c0,0.2,0,0.3,0.1,0.5
			c0.3,0.5,0.6,0.9,0.9,1.3c0.4,0.4,0.7,0.5,1,0.4c0.3-0.1,0.4-0.4,0.2-0.8c-0.1-0.2-0.3-0.5-0.5-0.8c-0.2-0.3-0.5-0.6-0.7-0.8
			C48.1,56.9,47.9,56.9,47.7,57L47.7,57z"/>
		<path fill-rule="evenodd" clip-rule="evenodd" fill="#FFFFFF" d="M51.5,55.1c-0.1-0.1-0.3-0.2-0.4-0.3c-0.1,0-0.2-0.1-0.3-0.1
			c-0.1,0-0.2,0-0.3,0c0,0-0.1-0.1-0.2-0.1c-0.2-0.2-0.2-0.4,0-0.7c0.2-0.3,0.4-0.6,0.7-0.8c0.3-0.3,0.7-0.6,1.1-0.8
			c0.4-0.2,0.6-0.2,0.8,0c0.1,0.1,0.1,0.1,0.1,0.2c0,0,0,0.1,0,0.2c0,0.1,0,0.2,0,0.3c0,0.1,0.1,0.2,0.2,0.3
			c0.2,0.2,0.3,0.3,0.4,0.3c0.1,0,0.2-0.1,0.5-0.3c0.2-0.2,0.4-0.4,0.4-0.4c0-0.1-0.1-0.2-0.3-0.5c-0.1-0.1-0.2-0.2-0.3-0.2
			c-0.1,0-0.2-0.1-0.2-0.1c-0.1,0-0.1,0-0.2,0c-0.1,0-0.1-0.1-0.2-0.1c-0.2-0.2-0.2-0.4,0-0.7c0.2-0.2,0.4-0.5,0.7-0.7
			c0.4-0.4,0.8-0.7,1.1-0.8c0.3-0.1,0.5-0.2,0.6-0.2c0.1,0,0.2,0.1,0.3,0.2c0.1,0.1,0.1,0.2,0.1,0.4c0,0.2,0,0.3,0,0.4
			c0,0.1,0.1,0.2,0.3,0.4l1.4,1.5c0.2,0.2,0.3,0.3,0.4,0.3c0.1,0,0.2,0,0.4,0c0.2,0,0.3,0.1,0.4,0.2c0.1,0.1,0.1,0.3,0,0.6
			c-0.1,0.3-0.5,0.7-1.1,1.3c-0.2,0.2-0.3,0.3-0.5,0.4c-0.2,0.1-0.3,0.2-0.5,0.2c-0.2,0-0.3,0-0.5-0.1c-0.1-0.1-0.1-0.1-0.1-0.2
			c0,0,0-0.1,0-0.2c0-0.1,0-0.2,0-0.3c0-0.1-0.1-0.2-0.1-0.3l-0.2-0.3c-0.2-0.2-0.3-0.3-0.4-0.3c-0.1,0-0.2,0.1-0.5,0.3
			c-0.2,0.2-0.4,0.4-0.4,0.4c0,0.1,0.1,0.2,0.3,0.4C54.9,55,55,55,55,55.1c0.1,0.1,0.2,0.1,0.2,0.2c0.1,0,0.1,0,0.2,0
			c0.1,0,0.2,0,0.2,0c0.1,0,0.1,0.1,0.2,0.1c0.2,0.2,0.2,0.5-0.1,0.8c-0.2,0.3-0.5,0.7-0.9,1c-0.2,0.2-0.4,0.3-0.5,0.4
			c-0.2,0.1-0.4,0.2-0.6,0.3c-0.2,0.1-0.4,0-0.5-0.1c-0.1-0.1-0.1-0.2-0.1-0.4c0-0.2,0-0.3,0-0.4c0-0.1-0.1-0.3-0.3-0.5
			c-0.2-0.2-0.4-0.5-0.8-0.9C51.9,55.4,51.6,55.2,51.5,55.1L51.5,55.1z"/>
		<circle fill-rule="evenodd" clip-rule="evenodd" fill="#FFFFFF" cx="36.7" cy="61.9" r="1.1"/>
		<path fill="#FFFFFF" d="M27.1,49c-0.5-0.5-1.1-0.8-1.8-0.8c-0.7,0-1.3,0.3-1.8,0.8l0,0c-1,1-1,2.6,0,3.6c0.5,0.5,1.1,0.8,1.8,0.8
			c0.7,0,1.3-0.3,1.8-0.8C28,51.6,28,50,27.1,49z M25.3,52.7c-1.1,0-1.9-0.9-1.9-1.9c0-1.1,0.9-1.9,1.9-1.9c1.1,0,1.9,0.9,1.9,1.9
			C27.2,51.8,26.4,52.7,25.3,52.7z"/>
		<path fill="#FFFFFF" d="M25.3,51.7c-0.5,0-0.9-0.4-0.9-0.9c0-0.5,0.4-0.9,0.9-0.9c0.5,0,0.9,0.4,0.9,0.9
			C26.2,51.3,25.8,51.7,25.3,51.7z"/>
		<path fill="#FFFFFF" d="M37.4,10.9c-2.2,0-4.2,0.9-5.8,2.5c-1.5,1.6-2.4,3.8-2.4,6.1c0,2.3,0.9,4.5,2.4,6.1c1,1,2.2,1.8,3.5,2.2
			c-0.7-1.3-1-2.8-1-4.3c0-2.5,0.9-4.8,2.6-6.6c1.7-1.8,3.9-2.7,6.3-2.7c0.3,0,0.6,0,0.9,0c-0.2-0.3-0.5-0.6-0.7-0.9
			C41.6,11.8,39.6,10.9,37.4,10.9z"/>
		<g>
			<path fill="#FFFFFF" d="M30.8,30.9c1.5,0,3-0.4,4.3-1.1c-1.8-0.4-3.5-1.4-4.8-2.8c-3.9-4.1-3.9-10.7,0-14.8
				c0.1-0.1,0.3-0.3,0.4-0.4c-2.4,0-4.6,1-6.2,2.8c-1.7,1.8-2.7,4.2-2.7,6.8s0.9,5,2.7,6.8C26.1,29.9,28.4,30.9,30.8,30.9z"/>
			<path fill="#FFFFFF" d="M32.9,52.5c-0.7,0.8-2,0.8-2.7,0c-0.4-0.4-0.6-0.9-0.6-1.5c0-0.6,0.2-1.1,0.6-1.5
				c0.4-0.4,0.8-0.6,1.3-0.6l0,0c0.5,0,1,0.2,1.3,0.6C33.7,50.4,33.7,51.7,32.9,52.5z"/>
			<path fill="#FFFFFF" d="M38.1,18.2L38.1,18.2c-2.8,3-2.8,7.6,0,10.5c0.2-1.8,1-3.5,2.2-4.7c1.5-1.6,3.5-2.5,5.7-2.5
				c1.4,0,2.8,0.4,4.1,1.2c-0.2-1.7-0.9-3.2-2-4.5c-1.3-1.4-3.1-2.2-4.9-2.2C41.2,16.1,39.4,16.8,38.1,18.2z"/>
			<path fill="#FFFFFF" d="M27,37.4c2.7,0,5.2-1.1,7.1-3.1c0.8-0.8,1.5-1.8,1.9-2.9c-1.6,0.9-3.4,1.4-5.3,1.4c-3,0-5.8-1.2-7.9-3.4
				c-2.6-2.7-3.7-6.5-3-10.3c0,0,0,0-0.1,0.1c-1.9,2-3,4.7-3,7.5c0,2.9,1.1,5.5,3,7.5C21.8,36.3,24.4,37.4,27,37.4z"/>
			<path fill="#FFFFFF" d="M52.5,24.2c0.3-2.9-0.7-5.7-2.7-7.8c-0.9-0.9-1.9-1.7-3.1-2.2c-0.5-1-1.1-1.9-1.9-2.7
				c-2-2-4.6-3.2-7.3-3.2c-1.5,0-3,0.3-4.3,1c-0.8-0.2-1.6-0.3-2.4-0.3c-3.1,0-5.9,1.2-8.1,3.5c-0.8,0.8-1.4,1.7-1.9,2.7
				c-1,0.6-1.9,1.3-2.7,2.2c-3.3,3.4-4.4,8.4-3,13.1c-0.8,4.8,0.7,9.7,3.9,13.1c2.6,2.8,6.1,4.3,9.8,4.4c0,0,0,0,0,0.1
				c-1.6,1.6-1.6,4.3,0,5.9c0.8,0.8,1.8,1.2,2.9,1.2c1.1,0,2.1-0.4,2.9-1.2c0.3-0.3,0.6-0.7,0.8-1.1c0.1,0.1,0.1,0.2,0.2,0.2
				c1,1,2.2,1.6,3.6,1.6c1.4,0,2.6-0.6,3.6-1.6c0.8-0.8,1.2-1.8,1.4-2.9c1.6,0,3.1-0.7,4.2-1.9c1.2-1.2,1.8-3,1.8-4.7
				c0.6-0.3,1.1-0.8,1.6-1.2c2-2.1,2.6-5.1,1.7-7.9C55.2,31.3,54.9,27.1,52.5,24.2z M50.9,41.7c-0.5,0.5-1,0.9-1.6,1.2l-0.2,0.4v0.1
				l0,0c0.1,1.6-0.5,3.1-1.5,4.2c-1,1-2.3,1.6-3.7,1.6c0,0-0.1,0-0.1,0l-0.5,0l0,0.4c-0.1,1-0.5,2-1.2,2.8c-0.8,0.8-1.8,1.3-3,1.3
				c-1.1,0-2.2-0.5-3-1.3c-0.2-0.2-0.4-0.5-0.6-0.8l-0.6-1l-0.3,1.1c-0.1,0.6-0.4,1.1-0.8,1.6c-0.6,0.6-1.4,1-2.2,1
				c-0.8,0-1.6-0.3-2.2-1c-1.2-1.3-1.2-3.4,0-4.6c0.3-0.3,0.7-0.6,1.1-0.8l1.3-0.2c0.8,0.1,1.5,0.4,2,1c0.1,0.1,0.2,0.2,0.3,0.3
				l0.7,0.9l0.1-1.1c0.1-1,0.5-1.8,1.2-2.5c0.1-0.1,0.3-0.3,0.5-0.4l-0.5-0.7c-1.3,0.8-2.8,1.4-4.3,1.8L31,47l-0.8,0.1
				c-0.4,0-0.8,0.1-1.2,0.1c-3.6,0-6.9-1.5-9.5-4.1c-3.1-3.2-4.5-7.9-3.7-12.4l0-0.1l0-0.1c-1.3-4.4-0.3-9.1,2.8-12.3
				c0.8-0.8,1.7-1.5,2.6-2.1l0.1-0.1l0.1-0.1c0.5-1,1.1-1.8,1.8-2.6c2-2.1,4.6-3.2,7.4-3.2c0.8,0,1.6,0.1,2.4,0.3l0.2,0l0.1-0.1
				c1.3-0.7,2.7-1,4.1-1c2.5,0,4.9,1,6.7,2.9c0.6,0.6,1,1.2,1.4,2c0,0,0,0.1,0,0l0,0.1l0,0c0.1,0.2,0.2,0.4,0.3,0.6l0.1,0.2l0.2,0.1
				c1.1,0.4,2.1,1.1,3,2c1.8,1.9,2.7,4.6,2.4,7.3l0,0.2l0.1,0.1c2.3,2.7,2.6,6.6,0.6,9.5l-0.1,0.2l0.1,0.2
				C53.3,37,52.7,39.8,50.9,41.7z M33.4,47.3c0.4-0.1,0.7-0.3,1.1-0.4c-0.1,0.3-0.3,0.6-0.4,0.9C33.9,47.6,33.6,47.4,33.4,47.3z"/>
			<path fill="#FFFFFF" d="M46.1,31.6c-1.3,0-2.6,0.5-3.5,1.5l0,0c-1.1,1.1-1.6,2.7-1.4,4.2l0,0.2c0,0.1,0,0.1,0,0.2
				c0.7-0.3,1.6-0.5,2.4-0.5h0c1.6,0,3.1,0.7,4.2,1.8c0.6,0.6,1,1.3,1.3,2c0.2-0.1,0.4-0.3,0.5-0.5c2-2.1,2-5.4,0-7.5
				C48.7,32.2,47.4,31.6,46.1,31.6z"/>
			<path fill="#FFFFFF" d="M50.2,25.4c-1.1-1.2-2.6-1.8-4.2-1.8c-1.6,0-3.1,0.7-4.2,1.8c-1.1,1.2-1.8,2.8-1.8,4.5
				c0,0.9,0.2,1.8,0.6,2.7c0.2-0.3,0.4-0.6,0.7-0.8c1.3-1.4,3.1-2.1,4.9-2.1c1.9,0,3.6,0.8,4.9,2.1c0.2,0.2,0.3,0.3,0.4,0.5
				C52.4,29.9,51.9,27.2,50.2,25.4z"/>
			<path fill="#FFFFFF" d="M37.7,41.6l0.2-0.3c0.3-0.8,0.8-1.6,1.4-2.2c0,0,0.1,0,0.1-0.1c-0.2-0.7-0.3-1.4-0.3-2.1
				c0-0.7,0.1-1.4,0.3-2.2c-0.6-0.9-1.1-1.9-1.3-3c-0.6,1.5-1.5,2.8-2.6,4c-2.3,2.4-5.3,3.7-8.6,3.7c-3.2,0-6.3-1.3-8.6-3.7
				c-0.4-0.4-0.8-0.9-1.1-1.4c0.3,2.9,1.5,5.5,3.4,7.6c2.2,2.3,5.2,3.6,8.4,3.6c3.2,0,6.1-1.3,8.4-3.6
				C37.6,41.8,37.7,41.7,37.7,41.6z"/>
			<path fill="#FFFFFF" d="M43.6,39.2c-1,0-2,0.4-2.8,1.2c-0.8,0.9-1.3,2.6-1.2,3.8c1,0.2,1.8,0.4,2.6,1.1c0.6,0.7,1.2,1.3,1.4,2.2
				c1,0,2-0.4,2.7-1.2c1.6-1.6,1.6-4.3,0-6C45.6,39.7,44.6,39.2,43.6,39.2z"/>
			<path fill="#FFFFFF" d="M41.1,51.4c-0.6,0.6-1.3,0.9-2.1,0.9c-0.8,0-1.5-0.3-2.1-0.9c-0.6-0.6-0.9-1.4-0.9-2.2
				c0-0.8,0.3-1.6,0.9-2.2c0.6-0.6,1.3-0.9,2.1-0.9c0.8,0,1.5,0.3,2.1,0.9C42.3,48.2,42.3,50.2,41.1,51.4z"/>
		</g>
	</g>
	<path fill="#FFFFFF" d="M35.8,45.1c0,0,0.9-0.6,1.4-1.1c0.5-0.5,1.3-1.3,1.3-1.3s-0.2,0.4-0.2,1c0,0.5,0,1.1,0,1.1
		s-0.7,0.2-1.2,0.5c-0.4,0.2-1.1,0.8-1.1,0.8L35.8,45.1z"/>
</g>
</svg>
