<svg xmlns="http://www.w3.org/2000/svg" viewBox="0 0 115.8 46.4" enable-background="new 0 0 115.8 46.4"><g fill="#1EB3C2"><path d="M31.2 36.1v10.2h-1.3V34.8H35v1.3h-3.8zM41.8 34.8c.6 0 1.1.2 1.5.6.4.4.6.8.6 1.4v2.5c0 .6-.2 1.1-.6 1.5-.4.4-.9.6-1.5.6h-2.6v4.9h-1.3V34.8h3.9zm0 5.3c.5 0 .8-.3.8-.8v-2.5c0-.4-.3-.7-.8-.7h-2.6v4h2.6zM50.6 46.4h-1.3l.8-3.2h-1.4c-.3 0-.6-.2-.6-.5l-1.9-7.9h1.3l1.7 6.9c0 .1.1.2.1.2h1s.1 0 .1-.1l1.7-7h1.3l-2.8 11.6zM61 46.4V36.1h-3.3v10.3h-1.3V34.8h5.9v11.5H61zM70.8 46.4V36.1h-3.3v10.3h-1.3V34.8h5.9v11.5h-1.3zM76.3 46.4H75l1.9-11c0-.2.3-.5.6-.5h2.3c.3 0 .6.2.6.5l1.9 11H81l-.5-2.8h-3.8l-.4 2.8zm3.1-10.1c0-.1-.1-.2-.1-.2h-1.1c-.1 0-.1.1-.1.2l-1 6h3.3l-1-6z"/></g><g fill="#fff"><path d="M66.8.2v9.7h3.8L75.8.2h2.9l-5.8 11v.3L78.7 25h-2.9l-5.2-12.3h-3.8V25H64V.2h2.8zM2.8 25.1H0L4.1 1.2C4.2.7 4.8.1 5.4.1h5c.6 0 1.2.5 1.3 1.1l4.1 23.9H13L12 19H3.8l-1 6.1zM9.3 3.4c0-.3-.1-.4-.3-.4H6.7c-.1 0-.2.1-.3.4L4.3 16.3h7.2L9.3 3.4zM21.2 3v22.2h-2.8V.2h11.1V3h-8.3zM40.2.2c1.3 0 2.3.4 3.2 1.2.9.8 1.3 1.8 1.3 3.1V10c0 1.2-.4 2.3-1.3 3.2-.9.9-1.9 1.3-3.2 1.3h-5.6v10.7h-2.8V.2h8.4zm0 11.5c1 0 1.7-.7 1.7-1.7V4.5c0-1-.7-1.5-1.7-1.5h-5.6v8.7h5.6zM47.1 4.5c0-1.2.4-2.3 1.3-3.2.9-.9 2-1.3 3.2-1.3h4c1.2 0 2.3.4 3.2 1.3.9.9 1.3 1.9 1.3 3.2V21c0 1.2-.4 2.3-1.3 3.2-.9.9-1.9 1.3-3.2 1.3h-4c-1.2 0-2.3-.4-3.2-1.3-.9-.9-1.3-1.9-1.3-3.2V4.5zM49.9 21c0 1 .7 1.7 1.7 1.7h4c1 0 1.7-.7 1.7-1.7V4.5c0-1-.7-1.7-1.7-1.7h-4c-1 0-1.7.7-1.7 1.7V21zM80.3 4.5c0-1.2.4-2.3 1.3-3.2.9-.9 1.9-1.3 3.2-1.3h4C90 0 91.1.4 92 1.3c.9.9 1.3 1.9 1.3 3.2V21c0 1.2-.4 2.3-1.3 3.2-.9.9-1.9 1.3-3.2 1.3h-4c-1.2 0-2.3-.4-3.2-1.3-.9-.9-1.3-1.9-1.3-3.2V4.5zM83.1 21c0 1 .7 1.7 1.7 1.7h4c1 0 1.7-.7 1.7-1.7V4.5c0-1-.7-1.7-1.7-1.7h-4c-1 0-1.7.7-1.7 1.7V21zM109.3.2h5.6l.9 25H113L112.1 3h-.3l-4.4 21.8h-2.6L100.4 3h-.3l-.9 22.2h-2.8l1-25h5.5l3.3 18.1L109.3.2z"/></g></svg>