<?xml version="1.0" encoding="utf-8"?>
<!-- Generator: Adobe Illustrator 18.1.0, SVG Export Plug-In . SVG Version: 6.00 Build 0)  -->
<!DOCTYPE svg PUBLIC "-//W3C//DTD SVG 1.1//EN" "http://www.w3.org/Graphics/SVG/1.1/DTD/svg11.dtd">
<svg version="1.1" id="Слой_1" xmlns="http://www.w3.org/2000/svg" xmlns:xlink="http://www.w3.org/1999/xlink" x="0px" y="0px"
	 viewBox="0 0 85.6 55.8" enable-background="new 0 0 85.6 55.8" xml:space="preserve">
<g opacity="0.5">
	<g>
		<path fill="#FFFFFF" d="M42.8,0C30.7,0,21,7.4,21,16.5s9.8,16.5,21.8,16.5s21.8-7.4,21.8-16.5C64.6,7.4,54.8,0,42.8,0z M42.8,32.6
			c-11.8,0-21.4-7.2-21.4-16.1c0-8.9,9.6-16.1,21.4-16.1s21.4,7.2,21.4,16.1C64.2,25.4,54.6,32.6,42.8,32.6z"/>
		<g>
			<path fill="#FFFFFF" d="M22.7,16.9H23c0-0.1,0-0.2,0-0.3h-0.1c0-0.3,0.2-0.5,0.5-0.5l0.4,0c0.3,0,0.5,0.2,0.5,0.5l0,0h-0.1
				c0,0.1,0,0.2,0,0.2h0.4c0-0.1,0-0.2,0-0.2c0-0.4-0.3-0.7-0.7-0.8l-0.4,0c-0.4,0-0.7,0.3-0.7,0.8C22.7,16.7,22.7,16.8,22.7,16.9z"
				/>
			<path fill="#FFFFFF" d="M23.2,18.3l0.4-0.1c0.1,0,0.3-0.1,0.3-0.3l0.4-0.1c0.2,0,0.3-0.2,0.3-0.4c0-0.2,0-0.3,0-0.5l-0.2,0v0.1
				l-1.6,0.1c0,0.2,0,0.5,0.1,0.7C22.8,18.2,23,18.4,23.2,18.3z M23.8,17.7l0-0.3l0.5,0l0,0.1c0,0.1,0,0.1-0.1,0.1L23.8,17.7z
				 M23.1,18.1c-0.1,0-0.1,0-0.1-0.1l0-0.4l0.6-0.1l0,0.4c0,0.1,0,0.1-0.1,0.1L23.1,18.1z"/>
			<path fill="#FFFFFF" d="M23.1,19.6l0.2-0.1c-0.1-0.2-0.1-0.4-0.1-0.5c0-0.1,0-0.1,0.1-0.2l0.5-0.1c0.1,0.2,0.1,0.4,0.1,0.6
				l0.2-0.1c-0.1-0.2-0.1-0.4-0.1-0.6l0.3-0.1c0.1,0,0.1,0,0.1,0.1c0,0.2,0.1,0.3,0.1,0.5l0.2-0.1c0-0.1-0.1-0.3-0.1-0.5
				c-0.1-0.2-0.2-0.3-0.4-0.3l-1.1,0.2c-0.2,0-0.3,0.3-0.3,0.5C23,19.2,23,19.4,23.1,19.6z"/>
			<path fill="#FFFFFF" d="M23.9,21.7c0.2-0.3,0.5-0.5,0.7-0.8c0.1,0,0.1,0.1,0.2,0l0.3-0.1l0.1,0.1l0.2-0.1l-0.1-0.1
				c-0.1-0.1-0.2-0.2-0.3-0.1l-0.3,0.1c0-0.1-0.1-0.1-0.1-0.2l0.6-0.2L25.1,20l-0.6,0.2L24.5,20l0.3-0.1c0.1,0,0.2-0.2,0.1-0.3
				l0-0.1l-0.2,0.1l0,0.1l-0.3,0.1c-0.1,0-0.1,0.1-0.2,0.2c-0.4,0-0.7-0.1-1.1-0.1l0.1,0.3c0.3,0,0.7,0,1,0.1l0.1,0.1l-0.9,0.3
				l0.1,0.3l0.9-0.4l0.1,0.1c-0.3,0.2-0.5,0.5-0.7,0.7C23.8,21.5,23.8,21.6,23.9,21.7z"/>
			<path fill="#FFFFFF" d="M24.4,22.7l0.2-0.1c-0.1-0.2-0.2-0.3-0.3-0.5c0-0.1,0-0.1,0-0.2l0.4-0.2c0.1,0.2,0.2,0.4,0.3,0.6l0.2-0.1
				c-0.1-0.2-0.2-0.4-0.3-0.6l0.3-0.2c0.1,0,0.1,0,0.2,0.1c0.1,0.1,0.2,0.3,0.3,0.4l0.2-0.1c-0.1-0.1-0.2-0.3-0.3-0.4
				c-0.1-0.2-0.3-0.2-0.5-0.2l-1,0.5c-0.2,0.1-0.2,0.3-0.1,0.5C24.2,22.4,24.3,22.6,24.4,22.7z"/>
			<path fill="#FFFFFF" d="M25.1,23.8l0.2-0.1c-0.1-0.1-0.2-0.3-0.3-0.5c0-0.1,0-0.1,0-0.2l0.4-0.3c0.1,0.2,0.2,0.4,0.4,0.5l0.2-0.1
				c-0.1-0.2-0.3-0.3-0.4-0.5l0.3-0.2c0.1,0,0.1,0,0.2,0c0.1,0.1,0.2,0.3,0.3,0.4l0.2-0.1c-0.1-0.1-0.2-0.3-0.3-0.4
				c-0.1-0.2-0.3-0.2-0.5-0.1l-0.9,0.6c-0.2,0.1-0.2,0.3-0.1,0.5C24.9,23.5,25,23.6,25.1,23.8z"/>
			<path fill="#FFFFFF" d="M27.9,24.5l0.2-0.2c-0.1-0.1-0.2-0.2-0.3-0.3l-0.5,0.1l0.2-0.5l-0.3-0.3l-0.2,0.2l0.1,0.1l-1.2,1l0.2,0.2
				l1-0.9l-0.2,0.6l0.6-0.1l-1,1l0.2,0.2L27.9,24.5L27.9,24.5z"/>
			<path fill="#FFFFFF" d="M28.9,25.5l0.1-0.2c-0.2-0.1-0.3-0.3-0.5-0.4c-0.1-0.1-0.4-0.1-0.5,0l-0.2,0.3c-0.1,0.1-0.1,0.2-0.1,0.3
				c-0.2,0.1-0.4,0.2-0.5,0.3l-0.1-0.1l-0.2,0.2c0.1,0.1,0.2,0.2,0.3,0.3l0.7-0.4l0.2,0.2l-0.5,0.5l0.2,0.2l1-1.2L28.9,25.5z
				 M28.3,25.7L28,25.5c-0.1-0.1-0.1-0.1,0-0.2l0.2-0.3c0-0.1,0.1-0.1,0.2,0l0.2,0.2L28.3,25.7z"/>
			<path fill="#FFFFFF" d="M29,27.4l0.2-0.3L28.9,27l-0.1,0.1c-0.2-0.2-0.3-0.5-0.1-0.7l0.2-0.3c0.2-0.2,0.5-0.2,0.7-0.1l0,0
				l-0.1,0.1l0.2,0.1l0.2-0.3l-0.2-0.1c-0.3-0.2-0.8-0.2-1,0.1l-0.2,0.3c-0.3,0.3-0.2,0.8,0.2,1.1L29,27.4z"/>
			<path fill="#FFFFFF" d="M30.5,27.8l0.4-0.6c0.1-0.3,0.1-0.6-0.2-0.8c-0.3-0.2-0.6-0.1-0.8,0.1l-0.4,0.6c-0.2,0.3-0.1,0.6,0.2,0.8
				C30,28.1,30.3,28,30.5,27.8z M30.3,27.6c-0.1,0.1-0.3,0.2-0.4,0.1c-0.2-0.1-0.2-0.3-0.1-0.4l0.4-0.6c0.1-0.1,0.3-0.2,0.4-0.1
				c0.1,0.1,0.2,0.3,0.1,0.4L30.3,27.6z"/>
			<path fill="#FFFFFF" d="M32.7,28.4c0.1-0.2,0-0.5-0.3-0.7c-0.3-0.1-0.5,0-0.7,0.2s0,0.5,0.3,0.7C32.3,28.7,32.5,28.6,32.7,28.4z"
				/>
			<path fill="#FFFFFF" d="M34.6,30.2c0-0.3-0.1-0.7-0.1-1c0.1,0,0.1-0.1,0.2-0.1l0.2-0.5l0.1,0l0.1-0.2l-0.1,0
				c-0.1,0-0.3,0-0.3,0.1L34.4,29l-0.4-0.1l0.3-0.7L34,28.1l-0.1,0.2l0.1,0l-0.6,1.5l0.3,0.1l0.3-0.8l0.2,0.1c0,0.3,0.1,0.6,0.1,0.9
				L34.6,30.2z"/>
			<path fill="#FFFFFF" d="M36.1,30.1l0.2-0.7c0.1-0.3-0.1-0.6-0.4-0.7s-0.6,0.1-0.7,0.3L35,29.8c-0.1,0.3,0.1,0.6,0.4,0.7
				C35.7,30.6,36,30.4,36.1,30.1z M35.9,30.1c0,0.2-0.2,0.3-0.4,0.2c-0.2-0.1-0.3-0.2-0.2-0.4l0.2-0.7c0.1-0.2,0.2-0.3,0.4-0.2
				c0.2,0.1,0.3,0.2,0.2,0.4L35.9,30.1z"/>
			<path fill="#FFFFFF" d="M37.8,29.5l0.1-0.2l-0.5-0.1c-0.2,0-0.3,0-0.4,0.2c-0.2,0.4-0.4,0.8-0.6,1.2l-0.1,0l-0.1,0.2l0.3,0.1
				c0.2-0.5,0.5-0.9,0.7-1.3c0-0.1,0.1-0.1,0.1-0.1l0.1,0l-0.3,1.5l0.3,0.1l0.3-1.5L37.8,29.5z"/>
			<path fill="#FFFFFF" d="M38.9,30.9l0.1-0.4c0-0.2-0.1-0.4-0.3-0.4L38.2,30l0.1-0.5l0.5,0.1l0,0.1l0.3,0l0.1-0.4
				c-0.4-0.1-0.7-0.1-1.1-0.2L38,29.5l0.1,0l-0.3,1.5l0.7,0.1C38.7,31.2,38.9,31.1,38.9,30.9z M38.6,30.8c0,0.1-0.1,0.1-0.1,0.1
				l-0.4-0.1l0.1-0.6l0.4,0.1c0.1,0,0.1,0.1,0.1,0.1L38.6,30.8z"/>
			<path fill="#FFFFFF" d="M40.5,29.9l0-0.2l-0.5,0c-0.2,0-0.3,0.1-0.4,0.2c-0.1,0.4-0.3,0.8-0.5,1.2l-0.1,0l0,0.2l0.3,0l0.2-0.5
				c0.2,0,0.3,0,0.5,0.1L40,31.4l0.3,0l0.1-1.6L40.5,29.9z M40.1,30.7c-0.1,0-0.3,0-0.4-0.1c0.1-0.1,0.1-0.3,0.3-0.7
				c0-0.1,0.1-0.1,0.1-0.1l0.1,0L40.1,30.7z"/>
			<path fill="#FFFFFF" d="M41.7,31.5l0-0.4l-0.3,0v0.1c-0.3,0-0.5-0.2-0.5-0.5l0-0.4c0-0.3,0.3-0.5,0.5-0.5l0,0V30l0.3,0l0-0.4
				l-0.3,0c-0.4,0-0.8,0.3-0.8,0.7l0,0.4c0,0.4,0.3,0.7,0.7,0.8L41.7,31.5z"/>
			<path fill="#FFFFFF" d="M42.9,31.2v-0.4c0-0.2-0.2-0.4-0.4-0.4h-0.3l0-0.7H42l0,1.4c0,0.2,0.2,0.4,0.4,0.4h0.2
				C42.7,31.5,42.9,31.4,42.9,31.2z M42.6,31.2c0,0.1-0.1,0.1-0.1,0.1h-0.2c-0.1,0-0.1-0.1-0.1-0.1l0-0.5h0.3c0.1,0,0.1,0.1,0.1,0.1
				L42.6,31.2z M43.3,31.5l0-1.8H43l0,1.8H43.3z"/>
			<path fill="#FFFFFF" d="M45.5,30.4c0-0.3-0.3-0.5-0.5-0.4c-0.3,0-0.5,0.3-0.5,0.5c0,0.3,0.3,0.5,0.5,0.4
				C45.3,30.9,45.5,30.6,45.5,30.4z"/>
			<path fill="#FFFFFF" d="M47.9,29.4l-0.1-0.2l-0.4,0.1l-0.2,0.5l-0.4-0.4l-0.4,0.1l0,0.2l0.1,0l0.2,1.5l0.3,0L47,29.8l0.4,0.5
				c0.1-0.2,0.2-0.4,0.2-0.6l0.3,1.4l0.3-0.1l-0.3-1.5L47.9,29.4z"/>
			<path fill="#FFFFFF" d="M49.3,29.1l-0.1-0.2C49,28.9,48.8,29,48.6,29c-0.2,0.1-0.3,0.3-0.3,0.4l0.1,0.3c0,0.1,0.1,0.2,0.2,0.2
				l-0.1,0.6l-0.1,0l0.1,0.2c0.1,0,0.2-0.1,0.4-0.1l0.1-0.8l0.3-0.1l0.2,0.7l0.3-0.1l-0.4-1.5L49.3,29.1z M49.1,29.8l-0.3,0.1
				c-0.1,0-0.1,0-0.1-0.1l-0.1-0.3c0-0.1,0-0.1,0.1-0.1l0.3-0.1L49.1,29.8z"/>
			<path fill="#FFFFFF" d="M50.9,30.3l-0.1-0.3L50.6,30l0,0.1c-0.3,0.1-0.6-0.1-0.6-0.3l-0.1-0.3c-0.1-0.3,0.1-0.5,0.3-0.6l0,0
				l0,0.1l0.2-0.1l-0.1-0.3l-0.2,0.1c-0.4,0.1-0.6,0.5-0.5,0.9l0.1,0.3c0.1,0.4,0.5,0.6,1,0.5L50.9,30.3z"/>
			<path fill="#FFFFFF" d="M52.2,28.9l-0.1-0.2l-0.1,0.1l-0.3-0.7l-0.2,0.1l0.3,0.7l-0.6,0.2l-0.2-0.7l-0.2,0.1l0.6,1.7l0.3-0.1
				l-0.3-0.8l0.6-0.2l0.3,0.8l0.3-0.1L52,28.9L52.2,28.9z"/>
			<path fill="#FFFFFF" d="M53.5,28.9l-0.2-0.3c-0.1-0.2-0.3-0.2-0.5-0.1l-0.2,0.1l-0.3-0.7L52,27.9l0.6,1.3
				c0.1,0.2,0.3,0.3,0.5,0.2l0.2-0.1C53.4,29.3,53.5,29,53.5,28.9z M53.2,29c0,0.1,0,0.1-0.1,0.2L53,29.2c-0.1,0-0.1,0-0.2-0.1
				l-0.2-0.4l0.3-0.1c0.1,0,0.1,0,0.2,0.1L53.2,29z M54,29l-0.8-1.6L53,27.5l0.8,1.6L54,29z"/>
			<path fill="#FFFFFF" d="M55.1,28.4l-0.1-0.2c-0.1,0.1-0.3,0.2-0.5,0.3c-0.1,0-0.1,0-0.2,0L54.1,28c0.2-0.1,0.4-0.2,0.6-0.3
				l-0.1-0.2c-0.2,0.1-0.4,0.2-0.6,0.3l-0.2-0.3c0-0.1,0-0.1,0.1-0.2c0.1-0.1,0.3-0.2,0.4-0.3l-0.1-0.2c-0.1,0.1-0.3,0.2-0.4,0.2
				c-0.2,0.1-0.3,0.3-0.2,0.5l0.5,1c0.1,0.2,0.3,0.2,0.5,0.1C54.7,28.6,54.9,28.5,55.1,28.4z"/>
			<path fill="#FFFFFF" d="M57,27.3L56.8,27l-0.1,0.1L55.9,26L56,26l-0.1-0.2c-0.2,0.1-0.3,0.2-0.5,0.4c-0.2,0.1-0.2,0.3-0.1,0.5
				l0.7,1l-0.1,0.1l0.2,0.3l0.2-0.1l-0.1-0.1c0.2-0.1,0.4-0.3,0.6-0.4l0.1,0.1L57,27.3z M56.4,27.3c-0.1,0.1-0.2,0.2-0.3,0.2l-0.7-1
				c0-0.1,0-0.1,0-0.2c0.1-0.1,0.1-0.1,0.2-0.1L56.4,27.3z"/>
			<path fill="#FFFFFF" d="M57.9,26.5l-0.1-0.2l-0.4,0.3c-0.1,0-0.1,0-0.2,0l-0.3-0.4l0.5-0.4l-0.1-0.2l-0.5,0.4l-0.2-0.3
				c0-0.1,0-0.1,0-0.2l0.4-0.3l-0.2-0.2l-0.4,0.3c-0.2,0.1-0.2,0.4-0.1,0.5l0.7,0.9c0.1,0.2,0.4,0.2,0.5,0L57.9,26.5z"/>
			<path fill="#FFFFFF" d="M57.9,24.3l-0.2-0.2l-0.3,0.3c-0.1,0.1-0.1,0.3-0.1,0.5c0.2,0.4,0.4,0.8,0.6,1.1l-0.1,0.1l0.2,0.2
				l0.2-0.2c-0.2-0.5-0.5-0.9-0.7-1.3c0-0.1,0-0.1,0-0.1l0.1-0.1l1.1,1.1l0.2-0.2L57.9,24.3L57.9,24.3z"/>
			<path fill="#FFFFFF" d="M58.9,23.2l-0.2-0.1l-0.2,0.3c0.2,0.4,0.3,0.9,0.5,1.3l-0.9-0.9L57.9,24l1.3,1.3l0.2-0.2
				c-0.1-0.5-0.3-0.9-0.5-1.4l1,0.8l0.2-0.2L58.9,23.2L58.9,23.2z"/>
			<path fill="#FFFFFF" d="M61.1,22.9c-0.3,0-0.7-0.1-1-0.1c0-0.1,0-0.2-0.1-0.2l-0.4-0.3l0.1-0.1L59.5,22l-0.1,0.1
				c-0.1,0.1,0,0.3,0.1,0.3l0.4,0.3c-0.1,0.1-0.1,0.2-0.2,0.3l-0.6-0.4l-0.2,0.3L59,23l0.1-0.1l1.2,0.9l0.2-0.2l-0.7-0.5L60,23
				c0.3,0.1,0.6,0.1,0.9,0.1C60.9,23.1,61,23,61.1,22.9z"/>
			<path fill="#FFFFFF" d="M60.4,20.9l-0.2-0.1C60.1,20.9,60,21,60,21.2c-0.1,0.1,0,0.3,0.1,0.5c0.3,0.3,0.6,0.6,0.9,0.9l-0.1,0.1
				l0.2,0.1l0.2-0.3L61,22.1c0.1-0.1,0.2-0.3,0.2-0.4l0.4,0.2l0.1-0.3L60.4,20.9L60.4,20.9z M61,21.6L60.8,22
				c-0.1-0.1-0.2-0.2-0.6-0.5c0,0-0.1-0.1,0-0.1l0.1-0.1L61,21.6z"/>
			<path fill="#FFFFFF" d="M61,19.6l-0.3-0.1c-0.1,0.4-0.3,0.7-0.4,1.1l0.3,0.1l0.1-0.2l-0.1-0.1c0-0.1,0.1-0.1,0.1-0.2l1.6,0.6
				l0.1-0.3L60.7,20l0.1-0.2l0.1,0C61,19.8,61,19.7,61,19.6z"/>
			<path fill="#FFFFFF" d="M62.7,18.9l-0.2-0.1l-0.1,0.5c0,0.1-0.1,0.1-0.1,0.1l-0.5-0.1l0.1-0.6l-0.2-0.1l-0.1,0.6l-0.3-0.1
				c-0.1,0-0.1-0.1-0.1-0.1l0.1-0.5l-0.2-0.1L60.8,19c0,0.2,0.1,0.4,0.3,0.4l1,0.3c0.2,0.1,0.4-0.1,0.5-0.3L62.7,18.9z"/>
			<path fill="#FFFFFF" d="M62.9,17.5l-0.4,0l0,0.3l0.1,0c0,0.3-0.3,0.5-0.5,0.5l-0.4-0.1c-0.3,0-0.4-0.3-0.4-0.5l0,0l0.1,0l0-0.2
				l-0.4,0l0,0.2c0,0.4,0.2,0.7,0.6,0.8l0.4,0.1c0.4,0.1,0.8-0.2,0.8-0.7L62.9,17.5z"/>
			<path fill="#FFFFFF" d="M62.6,16.2l-0.4,0c-0.2,0-0.3,0.2-0.3,0.4v0.3l-0.7,0v0.2l1.4,0.1c0.2,0,0.4-0.2,0.4-0.4v-0.2
				C62.9,16.4,62.8,16.2,62.6,16.2z M62.6,16.5c0.1,0,0.1,0.1,0.1,0.1v0.2c0,0.1-0.1,0.1-0.1,0.1l-0.5,0v-0.3c0-0.1,0.1-0.1,0.1-0.1
				L62.6,16.5z M62.9,15.8l-1.8,0.1v0.2l1.8-0.1V15.8z"/>
		</g>
		<path fill="#FFFFFF" d="M42.8,30.4"/>
		<g>
			<g>
				<path fill="#FFFFFF" d="M28.9,9.2C28.8,9.1,28.8,9.1,28.9,9.2c-0.1,0-0.2,0-0.2,0.1c-0.2,0.2-0.3,0.1-0.4,0l-1.6-1.6l0.1-0.1
					c0.3-0.3,0.7-0.4,1.1-0.3c0,0,0.1,0,0.1,0C28,7.1,28,7.1,28,7.1l-0.7-0.6c0,0-0.1,0-0.1,0.1s-0.1,0.1-0.1,0.1
					c0.1,0,0.1,0.1,0,0.2c-0.6,0.6-1.3,1.2-1.8,1.9c-0.1,0.1-0.1,0.1-0.2,0c0,0-0.1,0-0.1,0.1C25,8.9,25,8.9,25,8.9l0.7,0.7
					c0,0,0.1,0,0.1-0.1c0.1-0.1,0-0.1,0-0.1c-0.2-0.4-0.1-0.8,0.2-1.1l0.1-0.1l1.7,1.5c0.1,0.1,0.2,0.2,0,0.4c0,0-0.1,0.1-0.1,0.1
					c0,0,0,0,0.1,0.1c0,0,0.1,0,0.1,0c0,0,0.1-0.1,0.1-0.1c0.2-0.2,0.2-0.3,0.4-0.5c0.2-0.2,0.2-0.2,0.5-0.4c0,0,0.1-0.1,0.1-0.1
					C28.9,9.2,28.9,9.2,28.9,9.2z"/>
				<path fill="#FFFFFF" d="M29.3,5l-0.2,0.1c0.1,0.9,0.2,1.9,0.4,2.8c0.1,0.4,0,0.5,0,0.6c0,0,0,0.1,0,0.1s0.1,0.1,0.1,0.1l0,0
					c0.1-0.1,0.2-0.2,0.3-0.3c0.1-0.1,0.3-0.2,0.4-0.3l0,0c0,0,0-0.1,0-0.1c0,0-0.1-0.1-0.1-0.1C30,8.2,29.9,8,29.8,8
					c0,0,0-0.1-0.1-0.2l-0.1-0.4c0.3-0.2,0.6-0.4,0.9-0.6l0.4,0.3C31,7.2,31,7.2,31,7.2c0.1,0.1,0,0.2-0.2,0.3c0,0,0,0.1,0,0.1
					c0,0,0.1,0.1,0.1,0.1l0,0c0.2-0.1,0.3-0.3,0.5-0.4c0.1-0.1,0.3-0.2,0.5-0.3l0,0c0,0,0-0.1,0-0.1c0-0.1-0.1-0.1-0.1-0.1
					c-0.2,0.1-0.3,0-0.5-0.1C30.8,6.1,30,5.5,29.3,5z M30.3,6.6c-0.2,0.2-0.5,0.3-0.7,0.5c-0.1-0.4-0.2-0.8-0.2-1.3l0,0
					C29.7,6.1,30,6.3,30.3,6.6z"/>
				<path fill="#FFFFFF" d="M33.8,4.2c0.5-0.2,0.5-0.6,0.5-0.9C34.2,3.2,34.1,3,33.8,3c-0.3,0-0.6,0.1-0.9,0.2
					c-0.6,0.2-1.1,0.5-1.7,0.8l0,0c0,0,0,0.1,0,0.1c0,0.1,0.1,0.1,0.1,0.1c0.1,0,0.1-0.1,0.2-0.1c0.3-0.2,0.4,0,0.5,0.1L32.8,6
					c0.1,0.2,0,0.3-0.2,0.4c-0.1,0-0.1,0-0.1,0.1c0,0,0,0.1,0,0.1c0,0.1,0.1,0.1,0.1,0.1l0,0c0.3-0.2,0.5-0.3,0.7-0.4
					C33.7,6.1,33.6,6.2,34,6c0.2-0.1,0.6-0.3,0.9-0.6C35,5.1,35,4.9,34.9,4.6C34.8,4.2,34.3,4.1,33.8,4.2L33.8,4.2z M32.4,3.7
					c0.1-0.1,0.3-0.1,0.4-0.2c0.2-0.1,0.4-0.2,0.6-0.1c0.2,0,0.3,0.2,0.3,0.3c0.1,0.1,0.1,0.3,0,0.5c-0.1,0.1-0.3,0.3-0.4,0.3
					l-0.2,0.1c0,0,0,0.1,0,0.1c0,0.1,0.1,0.1,0.1,0.1c0.1,0,0.1-0.1,0.2-0.1c0.3-0.1,0.7-0.2,0.9,0.3c0.1,0.2,0.1,0.3,0,0.5
					c-0.1,0.2-0.3,0.3-0.4,0.4c-0.5,0.2-0.5,0-0.6-0.1L32.4,3.7z"/>
				<path fill="#FFFFFF" d="M44.7,2.6c0.5,0,0.8-0.3,0.8-0.6c0-0.2-0.1-0.4-0.3-0.5c-0.2-0.1-0.5-0.2-0.9-0.2c-0.6,0-1.2-0.1-1.9,0
					h0c0,0,0,0.1,0,0.1s0,0.1,0,0.1c0.1,0,0.1,0,0.2,0c0.4,0,0.3,0.2,0.3,0.3l0,2c0,0.2-0.1,0.3-0.3,0.3c-0.1,0-0.1,0-0.1,0
					c0,0,0,0.1,0,0.1c0,0.1,0,0.1,0,0.1h0c0.4,0,0.6,0,0.7,0c0.5,0,0.3,0.1,0.8,0.1c0.2,0,0.7,0,1.1-0.2c0.2-0.2,0.4-0.4,0.4-0.6
					C45.5,3,45.1,2.7,44.7,2.6L44.7,2.6z M43.6,1.5c0.1,0,0.3,0,0.4,0c0.2,0,0.4,0,0.6,0.2c0.1,0.1,0.1,0.3,0.1,0.4
					c0,0.1-0.1,0.3-0.2,0.4c-0.2,0.1-0.4,0.1-0.5,0.1c-0.1,0-0.1,0-0.2,0c0,0,0,0,0,0.1c0,0.1,0,0.1,0,0.1c0.1,0,0.1,0,0.2,0
					c0.3,0,0.7,0.1,0.7,0.7c0,0.2-0.1,0.3-0.2,0.4C44.5,4,44.3,4.1,44.1,4c-0.5,0-0.5-0.3-0.5-0.4V1.5z"/>
				<path fill="#FFFFFF" d="M36,2.4c0.1-0.1,0.2-0.1,0.4-0.1c0.7-0.2,0.8,0.2,0.9,0.4c0.1,0.5-0.1,0.7-0.4,0.8c-0.1,0-0.2,0-0.3,0.1
					c0,0,0,0,0,0.1c0,0.1,0,0.1,0,0.1c0.1,0,0.3,0,0.5-0.1c0.3-0.1,0.7-0.2,0.9-0.5C38,3,38,2.7,38,2.5c-0.1-0.8-1.3-0.6-1.5-0.5
					c-0.5,0.1-1.1,0.3-1.6,0.5l0,0c0,0,0,0.1,0,0.1c0,0.1,0.1,0.1,0.1,0.1c0.1,0,0.1-0.1,0.2-0.1c0.4-0.1,0.4,0.1,0.4,0.2L36,4.8
					c0.1,0.2,0,0.3-0.2,0.4c-0.1,0-0.1,0-0.1,0c0,0,0,0,0,0.1c0,0.1,0.1,0.1,0.1,0.1c0.1,0,0.1,0,0.1,0c0.4-0.1,0.3-0.1,0.6-0.2
					C36.7,5,36.7,5,37.1,4.9c0.1,0,0.1,0,0.1-0.1c0,0,0-0.1,0-0.1c0-0.1-0.1-0.1-0.1-0.1c-0.1,0-0.1,0-0.2,0.1
					c-0.3,0.1-0.3-0.1-0.4-0.2L36,2.4z"/>
				<path fill="#FFFFFF" d="M40.2,1.3c-0.6,0.1-1,0.3-1.2,0.6c-0.4,0.5-0.3,0.9-0.3,1.2c0.1,0.3,0.2,0.8,0.6,1.1
					c0.2,0.2,0.6,0.3,1.1,0.3c0.5,0,0.9-0.3,1.1-0.5C41.9,3.5,42,3.1,42,2.7c0-0.3-0.1-0.8-0.5-1.1C41.2,1.4,40.8,1.2,40.2,1.3z
					 M40.2,1.5c0.2,0,0.5,0,0.8,0.3c0.2,0.3,0.3,0.7,0.3,0.9s0,0.7-0.1,1c-0.2,0.3-0.4,0.4-0.6,0.5c-0.2,0-0.5,0-0.7-0.3
					c-0.2-0.3-0.3-0.7-0.3-0.9c0-0.2-0.1-0.7,0.1-1C39.7,1.7,39.9,1.5,40.2,1.5z"/>
				<path fill="#FFFFFF" d="M49.5,1.9c0,0,0,0-0.1-0.1c-0.1,0-0.1,0-0.1,0c0,0.1,0,0.1-0.2,0.1C49,2,49,1.9,48.8,1.9
					c-0.1-0.1-0.3-0.1-0.4-0.1c-0.5-0.1-1,0-1.3,0.1c-0.4,0.2-0.7,0.6-0.8,1.2c-0.1,0.4,0.1,0.8,0.2,1c0.1,0.2,0.5,0.6,1.3,0.7
					c0.3,0.1,0.7,0.1,1.1,0l0.1,0l0.2-0.7c0,0,0,0-0.1-0.1c-0.1,0-0.1,0-0.1,0c-0.2,0.3-0.5,0.7-1.1,0.5c-0.2-0.1-0.5-0.1-0.7-0.5
					c0-0.1-0.2-0.4-0.1-1c0.1-0.3,0.2-0.6,0.4-0.8c0.3-0.4,0.7-0.3,0.9-0.3c0.5,0.1,0.7,0.4,0.7,0.8c0,0,0,0,0.1,0.1
					c0.1,0,0.1,0,0.1,0L49.5,1.9z"/>
				<path fill="#FFFFFF" d="M54.1,7.4C54.1,7.3,54,7.3,54.1,7.4c0-0.1-0.5,0-1-0.3c-0.3-0.2-0.5-0.6-0.7-1.3c0-0.1-0.2-0.6-0.3-0.8
					c-0.1-0.3-0.2-0.5-0.6-0.8c-0.1,0-0.1-0.1-0.2-0.1c0.3,0,0.5-0.1,0.7-0.2c0.2-0.1,0.3-0.2,0.4-0.3c0.2-0.2,0.3-0.2,0.4-0.2l0,0
					c0,0,0,0-0.1,0.1c0,0-0.1,0.1-0.1,0.1C52.5,3.8,52.7,4,52.9,4c0.2,0.1,0.4,0,0.5-0.2c0.1-0.1,0.1-0.4-0.4-0.6
					c-0.1-0.1-0.2-0.1-0.4-0.1c-0.3,0-0.5,0.2-0.7,0.4C51.3,4,51.1,3.9,51,3.9l0.3-0.7c0.1-0.3,0.3-0.2,0.4-0.2c0.1,0,0.1,0,0.1,0.1
					c0,0,0.1,0,0.1-0.1s0-0.1,0-0.1c-0.1,0-0.1,0-0.1-0.1c-0.3-0.1-0.5-0.1-0.7-0.2c-0.2-0.1-0.3-0.1-0.7-0.3c-0.1,0-0.1,0-0.2,0
					c0,0-0.1,0-0.1,0.1c0,0.1,0,0.1,0,0.1c0.1,0,0.1,0,0.2,0c0,0,0.1,0,0.1,0c0.2,0.1,0.2,0.2,0.1,0.3L50,4.8C50,5,49.9,5.1,49.7,5
					l-0.1,0C49.5,5,49.5,5,49.5,5s0,0-0.1,0.1c0,0.1,0,0.1,0,0.1c0,0,0.1,0,0.1,0.1c0.5,0.1,0.1,0,0.6,0.2c0.5,0.2,0.1,0.1,0.6,0.2
					c0.1,0,0.1,0,0.1,0c0,0,0,0,0.1-0.1c0-0.1,0-0.1,0-0.1c-0.1,0-0.1,0-0.1,0c-0.2-0.1-0.2-0.2-0.1-0.4l0.4-1
					c0.4,0.2,0.5,0.6,0.6,0.9c0.3,0.9,0.3,0.9,0.3,1c0.1,0.4,0.4,1,1,1.3C53.2,7.5,53.7,7.5,54.1,7.4C54,7.5,54,7.4,54.1,7.4z"/>
				<path fill="#FFFFFF" d="M56.2,6.1l-1,1.4c-0.1,0.2-0.3,0.2-0.5,0.1c-0.1,0-0.1-0.1-0.1-0.1c0,0-0.1,0-0.1,0.1c0,0.1,0,0.1,0,0.1
					c0,0,0.1,0.1,0.1,0.1C55,7.9,54.9,7.8,55.2,8c0.2,0.1,0.3,0.2,0.5,0.4c0.1,0,0.1,0.1,0.1,0.1c0,0,0.1,0,0.1-0.1
					c0-0.1,0-0.1,0-0.1c-0.1,0-0.1-0.1-0.1-0.1C55.5,8,55.6,8,55.7,7.8l1.2-1.5c0.2-0.2,0.3-0.4,0.5-0.3c0,0,0-0.1,0-0.1
					c0-0.1,0-0.1,0-0.1c-0.2-0.1-0.8,0-0.9,0c-0.8,0.1-1.5,0.4-2.3,0.6l0.8-1.4c0.1-0.2,0.3-0.2,0.5-0.1c0.1,0,0.1,0.1,0.1,0.1
					c0,0,0.1,0,0.1-0.1c0-0.1,0-0.1,0-0.1c0,0-0.1-0.1-0.1-0.1c-0.5-0.3-0.3-0.2-0.7-0.3c-0.3-0.1-0.3-0.2-0.6-0.4
					c-0.1,0-0.1-0.1-0.2-0.1c0,0-0.1,0-0.1,0.1c0,0.1,0,0.1,0,0.1c0.1,0,0.1,0,0.2,0.1c0.3,0.2,0.2,0.3,0.2,0.4l-1.2,2.3
					c0,0,0,0,0.1,0.1c0,0,0.1,0,0.1,0l0,0C54.3,6.5,55.2,6.3,56.2,6.1z"/>
				<path fill="#FFFFFF" d="M59,7.6l0.6,0.6c0.2,0.3,0.4,0.5,0.1,0.9c0,0,0,0.1,0,0.1c0,0.1,0.1,0.1,0.1,0.1l0.5-0.4c0,0,0,0,0,0
					c0,0,0-0.1,0-0.1C59.7,8,59,7.3,58.2,6.6l0,0c0,0-0.1,0-0.1,0.1c0,0.1,0,0.1,0,0.1c0.1,0,0.1,0.1,0.2,0.1
					c0.3,0.3,0.1,0.4,0.1,0.5l-1.4,1.5c-0.2,0.2-0.3,0.1-0.5,0c0,0-0.1-0.1-0.1-0.1c0,0-0.1,0-0.1,0.1c0,0,0,0.1,0,0.1l0,0l0.1,0.1
					L56.5,9c0.2,0.2,0.3,0.2,0.3,0.3c0.6,0.6,0.2,0.2,0.9,1c0.1,0.2,0.4,0.5,0.8,0.4c0.2-0.1,0.4-0.3,0.5-0.4c0,0,0-0.1,0-0.1
					c0,0-0.1-0.1-0.1-0.1c-0.4,0.2-0.8,0.3-1.3-0.3c-0.4-0.4-0.3-0.6-0.1-0.8l0.6-0.6l0.2,0.2c0.3,0.3,0.3,0.4,0,0.7
					c0,0,0,0.1,0.1,0.1c0,0,0.1,0.1,0.1,0.1l0.9-0.8c0,0,0-0.1-0.1-0.1c-0.1-0.1-0.1-0.1-0.1-0.1c-0.3,0.2-0.4,0.2-0.7-0.1l-0.2-0.2
					L59,7.6z"/>
			</g>
		</g>
		<path fill="#FFFFFF" d="M58.8,15.6c-0.3-0.3-0.7-0.6-0.8-0.9c-0.1-0.4,0.1-0.8,0.2-1.1c0.2-0.4,0.4-0.9,0.1-1.4
			c-0.3-0.5-0.9-0.7-1.4-0.9c-0.5-0.2-0.9-0.3-1.2-0.6c-0.3-0.3-0.3-0.7-0.4-1.1c0-0.4-0.1-0.9-0.6-1.3C54.2,8,53.6,7.9,53,7.9
			c-0.5,0-1-0.1-1.5-0.3C51,7.4,50.8,7,50.5,6.7c-0.3-0.4-0.5-0.8-1.2-1c-0.2-0.1-0.4-0.1-0.7-0.1c-0.4,0-0.8,0.1-1.1,0.2
			c-0.4,0.1-0.8,0.2-1.2,0.2c-0.1,0-0.3,0-0.4,0c-0.5-0.1-1-0.3-1.4-0.6c-0.5-0.3-1-0.6-1.7-0.6c-0.7,0-1.2,0.3-1.7,0.6
			c-0.4,0.3-0.8,0.5-1.4,0.6c-0.1,0-0.3,0-0.4,0c-0.4,0-0.8-0.1-1.2-0.2c-0.4-0.1-0.8-0.2-1.1-0.2c-0.2,0-0.5,0-0.7,0.1
			c-0.6,0.2-0.9,0.6-1.1,0.9c-0.2,0.3-0.5,0.7-1,0.9c-0.5,0.2-1,0.2-1.5,0.3c-0.6,0-1.2,0.1-1.7,0.4c-0.5,0.4-0.5,0.8-0.6,1.3
			c0,0.4-0.1,0.7-0.4,1.1c-0.3,0.3-0.8,0.5-1.3,0.7c-0.5,0.2-1.1,0.4-1.4,0.9c-0.3,0.5-0.1,0.9,0.1,1.3c0.2,0.4,0.3,0.7,0.2,1.1
			c-0.1,0.4-0.5,0.7-0.8,1C26.5,16,26,16.4,26,16.9s0.4,0.9,0.8,1.3c0.3,0.3,0.7,0.6,0.8,1c0.1,0.4,0,0.8-0.2,1.1
			c-0.2,0.4-0.4,0.9-0.1,1.3c0.3,0.5,0.8,0.7,1.3,0.8c0.5,0.2,0.9,0.3,1.3,0.7c0.4,0.3,0.4,0.7,0.4,1.1c0,0.4,0.1,0.9,0.5,1.2
			c0.5,0.3,1.1,0.4,1.7,0.4c0.5,0,1.1,0.1,1.6,0.3c0.5,0.2,0.7,0.6,1,0.9c0.2,0.4,0.5,0.8,1.1,1c0.2,0.1,0.4,0.1,0.7,0.1
			c0.4,0,0.7-0.1,1.1-0.2c0.4-0.1,0.8-0.2,1.2-0.2c0.1,0,0.3,0,0.4,0c0.6,0.1,1.1,0.3,1.5,0.6c0.5,0.3,0.9,0.6,1.7,0.6
			c0.7,0,1.2-0.3,1.8-0.6c0.4-0.2,0.8-0.5,1.4-0.6c0.1,0,0.3,0,0.5,0c0.4,0,0.8,0.1,1.2,0.2c0.4,0.1,0.7,0.2,1.1,0.2
			c0.2,0,0.4,0,0.6-0.1c0.6-0.2,0.9-0.6,1.2-1c0.2-0.3,0.5-0.7,0.9-0.9c0.5-0.3,1-0.3,1.5-0.3c0.6,0,1.2,0,1.7-0.4
			c0.5-0.4,0.5-0.8,0.6-1.3c0-0.4,0.1-0.7,0.4-1.1c0.3-0.3,0.8-0.5,1.2-0.7c0.6-0.2,1.1-0.4,1.4-0.9c0.3-0.5,0.1-0.9-0.1-1.4
			c-0.2-0.4-0.3-0.7-0.2-1.1c0.1-0.4,0.5-0.7,0.8-1c0.4-0.3,0.8-0.7,0.8-1.3C59.6,16.3,59.2,16,58.8,15.6z M42.8,26.3
			c-7.3,0-13.2-4.2-13.2-9.4c0-5.2,5.9-9.4,13.2-9.4c7.3,0,13.2,4.2,13.2,9.4S50.1,26.3,42.8,26.3z"/>
		<path fill="#FFFFFF" d="M38.6,15.4c0.4-0.3,0.6-0.5,0.7-0.7c0.1-0.2,0.1-0.5,0.1-0.7c0.1,0.2,0.3,0.3,0.6,0.5
			c0.7,0.3,1.7,0.4,2.3,0.3c0.3,0,0.8-0.1,1.2-0.3c0.1,0.1,0.2,0.5,0.4,0.7c0.2,0.3,0.7,0.7,0.9,0.8c0.3,0.2,0.5,0.2,0.8,0.3
			c-0.4-0.3-0.8-0.9-1-1.5c-0.2-0.6,0-1.1,0.1-1.4c0.1-0.3,0.3-0.7,0.4-0.9c0.1,0.2,0.2,0.3,0.3,0.4s0.4,0.5,0.3,0.6
			c0,0.1-0.1,0.1-0.2,0.1c0.1,0.1,0.2,0.2,0.5,0.1c0.4-0.1,0.7-0.2,0.8-0.5c0.1-0.2-0.1-0.4-0.1-0.4c0-0.1,0-0.2,0.1-0.3
			c0.1-0.1,0.3-0.4,0.3-0.6c0.1-0.3,0.1-0.5,0.1-0.8c0.6,0.1,1,0.1,1.6,0c0.7-0.2,1.3-0.5,1.6-0.8c-0.5,0.2-1.3,0.4-2,0.4
			c-0.5,0-1-0.2-1.4-0.4c-0.4-0.2-0.5-0.5-0.4-0.8C46.7,9.2,46.8,9,47,8.8c-0.3,0.1-0.4,0.2-0.6,0.4c-0.2,0.2-0.4,0.5-0.3,1.1
			C46,10.2,46,10.1,46,10c-0.3-0.5-0.9-0.7-1.4-0.8c-0.5-0.1-1,0.1-1.3,0.3c0,0.1-0.1,0.2-0.5,0.4c-0.5,0.3-2.8,1.6-3.6,1.8
			c-0.5,0.1-0.8,0-0.8,0s-0.3,0.1-0.5,0.1c-0.1,0.2-0.2,0.3-0.4,0.5c-0.2,0.2-0.4,0.4-0.5,0.5c0.2-0.1,0.4-0.3,0.4-0.2
			c0,0.1,0,0.3,0,0.3s0.1,0.5,0.1,0.9c0.1,0.2,0.2,0.5,0.6,0.8C38.5,14.8,38.6,15,38.6,15.4L38.6,15.4z"/>
		<circle fill="#FFFFFF" cx="60.9" cy="12.4" r="0.8"/>
		<circle fill="#FFFFFF" cx="24.6" cy="12.4" r="0.8"/>
		<g>
			<g>
				<path fill="#FFFFFF" d="M34.1,16.2c0.1,0,0.2,0,0.3,0.3l0.8,2.1h0.1l1-2.1c0.1-0.2,0.1-0.2,0.2-0.2h1.3c0,0,0,0,0,0.1
					c0,0.1,0,0.1,0,0.2c0,0,0,0.1,0,0.1c-0.5-0.1-0.6,0.3-0.6,0.5v1.7c0,0.1,0,0.1,0,0.3c0,0.2-0.2,0.3-0.3,0.3c-0.1,0-0.2,0-0.3,0
					c-0.1,0-0.1,0-0.1-0.1c0-0.2,0-0.4,0-0.5v-1.3c0-0.1,0-0.5,0.1-0.9h-0.1l-1.5,3h-0.2L33.8,17c-0.1-0.3-0.1-0.4-0.3-0.4h0l0,0.2
					v2.3c0,0.2,0,0.6,0.6,0.4c0,0,0,0,0,0.1c0,0.1,0,0.1,0,0.2c0,0,0,0,0,0h-0.1c-0.1,0-0.2,0-0.3,0c-0.1,0-0.3,0-0.4,0
					c-0.1,0-0.3,0-0.7,0h-0.1c0,0,0,0,0-0.1c0,0,0-0.1,0-0.1s0-0.1,0-0.1c0.6,0.1,0.6-0.2,0.6-0.5l0.1-2.2c0-0.3-0.3-0.3-0.6-0.3
					c0,0,0,0,0-0.1c0,0,0-0.1,0-0.1c0,0,0-0.1,0-0.1L34.1,16.2L34.1,16.2z"/>
				<path fill="#FFFFFF" d="M43.2,18.9c0-0.1,0-0.1-0.1-0.1s-0.1,0-0.1,0c-0.2,0.2-0.5,0.3-0.7,0.3c-0.3,0-0.5-0.1-0.7-0.3
					c-0.1-0.2-0.2-0.4-0.2-0.7c0-0.1,0-0.6,0.3-0.9c0.1-0.1,0.3-0.3,0.6-0.3c0.1,0,0.2,0,0.3,0.1c-0.2,0-0.2,0.2-0.2,0.3
					c0,0.2,0.2,0.3,0.3,0.3c0.2,0,0.4-0.2,0.4-0.4c0-0.3-0.2-0.6-0.8-0.6c-0.4,0-0.7,0.1-1,0.3c-0.3,0.3-0.5,0.7-0.5,1.1
					c0,0.4,0.1,0.7,0.4,0.9s0.6,0.4,1,0.4S42.8,19.2,43.2,18.9L43.2,18.9C43.2,19,43.2,19,43.2,18.9z"/>
				<path fill="#FFFFFF" d="M46.4,19c-0.1,0-0.2,0-0.3-0.1c-0.1-0.1-0.1-0.2-0.1-0.3v-1.6c0-0.1,0-0.1,0-0.2
					c0.1-0.1,0.2-0.1,0.3-0.1h0c0,0,0.1,0,0.1-0.1c0-0.1-0.1-0.1-0.1-0.1l-0.1,0c-0.1,0-0.1,0-0.2,0c-0.2,0-0.4,0-0.7,0
					c-0.1,0-0.1,0-0.2,0h-0.1c0,0-0.1,0-0.1,0.1c0,0.1,0.1,0.1,0.1,0.1h0c0.1,0,0.1,0,0.1,0c0.2,0,0.2,0.1,0.2,0.3v0.6h-1.2v-0.6
					c0-0.1,0-0.1,0-0.2c0.1-0.1,0.2-0.1,0.3-0.1h0c0,0,0.1-0.1,0.1-0.1c0-0.1,0-0.1,0-0.1l-0.1,0c-0.1,0-0.1,0-0.2,0
					c-0.2,0-0.4,0-0.7,0c-0.1,0-0.1,0-0.2,0h-0.1c0,0,0,0-0.1,0.1s0,0.1,0,0.1c0,0.1,0,0.1,0,0.1h0c0.1,0,0.1,0,0.1,0
					c0.2,0,0.2,0.1,0.2,0.3v1.6c0,0.1,0,0.2-0.1,0.3c0,0-0.1,0.1-0.2,0.1l0,0c0,0-0.1,0-0.1,0h0c0,0-0.1,0.1-0.1,0.1
					c0,0.1,0.1,0.1,0.1,0.1l0.1,0c0.1,0,0.2,0,0.2,0h0.1c0.1,0,0.3,0,0.4,0h0.1c0.1,0,0.2,0,0.2,0h0.1c0,0,0.1,0,0.1-0.1
					c0-0.1-0.1-0.1-0.1-0.1h0c-0.1,0-0.2,0-0.3-0.1c-0.1-0.1-0.1-0.2-0.1-0.3V18h1.2v0.7c0,0.1,0,0.2-0.1,0.3
					C45.4,19,45.3,19,45.2,19h0c0,0-0.1,0.1-0.1,0.1c0,0.1,0.1,0.1,0.1,0.1l0.1,0c0.1,0,0.2,0,0.2,0h0.1c0.1,0,0.3,0,0.4,0h0.1
					c0.1,0,0.2,0,0.2,0h0.1c0,0,0.1,0,0.1-0.1S46.5,19,46.4,19L46.4,19z"/>
				<g>
					<path fill="#FFFFFF" d="M49.1,17.8c-0.2-0.2-0.5-0.2-0.6-0.2c-0.2,0-0.3,0-0.6,0.1l0,0c0,0,0,0.1,0,0.1c0,0.1,0.1,0.1,0.1,0.1
						h0c0.1,0,0.3-0.1,0.4-0.1c0.3,0,0.4,0.2,0.4,0.5c0,0.1,0,0.3-0.1,0.4C48.5,19,48.3,19,48.1,19c-0.3,0-0.4-0.1-0.4-0.3v-1.5
						c0-0.1,0-0.1,0-0.2c0.1-0.1,0.2-0.1,0.3-0.1h0c0,0,0.1,0,0.1-0.1s-0.1-0.1-0.1-0.1l-0.1,0c-0.1,0-0.1,0-0.2,0
						c-0.2,0-0.4,0-0.7,0c-0.1,0-0.1,0-0.2,0h-0.1c0,0-0.1,0-0.1,0.1c0,0.1,0.1,0.1,0.1,0.1h0c0.1,0,0.1,0,0.1,0
						c0.2,0,0.2,0.1,0.2,0.3v1.6c0,0.3-0.1,0.4-0.4,0.3h0c0,0-0.1,0.1-0.1,0.1c0,0.1,0.1,0.1,0.1,0.1l0.1,0c0.1,0,0.2,0,0.2,0
						c0,0,0.1,0,0.4,0c0.1,0,0.2,0,0.3,0l0.1,0c0.1,0,0.2,0,0.4,0c0.2,0,0.5,0,0.7-0.2c0.3-0.2,0.4-0.4,0.4-0.7
						C49.3,18.2,49.2,18,49.1,17.8z"/>
					<path fill="#FFFFFF" d="M50.6,19c-0.1,0-0.2,0-0.3-0.1c-0.1-0.1-0.1-0.2-0.1-0.3v-1.6c0-0.1,0-0.1,0-0.2
						c0.1-0.1,0.2-0.1,0.3-0.1h0c0,0,0.1,0,0.1-0.1c0-0.1-0.1-0.1-0.1-0.1l-0.1,0c-0.1,0-0.1,0-0.2,0c-0.2,0-0.4,0-0.7,0
						c-0.1,0-0.1,0-0.2,0h-0.1c0,0-0.1,0.1-0.1,0.1c0,0.1,0.1,0.1,0.1,0.1h0c0.1,0,0.1,0,0.1,0c0.2,0,0.2,0.1,0.2,0.3v1.6
						c0,0.1,0,0.2-0.1,0.3c0,0-0.1,0.1-0.2,0.1c0,0-0.1,0-0.1,0h0c0,0-0.1,0-0.1,0.1c0,0.1,0.1,0.1,0.1,0.1l0.1,0c0.1,0,0.2,0,0.2,0
						h0.1c0.1,0,0.3,0,0.4,0h0.1c0.1,0,0.2,0,0.2,0h0.1c0,0,0.1,0,0.1-0.1S50.7,19,50.6,19L50.6,19z"/>
				</g>
				<path fill="#FFFFFF" d="M52.9,18.8c-0.2,0.1-0.4,0.2-0.7,0.2c-0.3,0-0.5-0.1-0.7-0.3c-0.2-0.2-0.2-0.5-0.2-0.7
					c0-0.1,0-0.1,0-0.2h1.5c0.2,0,0.3-0.1,0.3-0.2c0-0.2-0.1-0.6-0.4-0.9c-0.2-0.1-0.4-0.2-0.7-0.2c-0.3,0-0.7,0.1-0.9,0.3
					c-0.3,0.3-0.4,0.7-0.4,1.1c0,0.5,0.2,0.7,0.3,0.9c0.1,0.2,0.5,0.4,1,0.4c0.2,0,0.6,0,1-0.3c0,0,0-0.1,0-0.1
					C53,18.8,52.9,18.8,52.9,18.8z M52.1,16.8c0.5,0,0.5,0.5,0.5,0.7c0,0,0,0.1,0,0.1h-1.1c0-0.2,0.1-0.4,0.2-0.5
					C51.7,17,51.8,16.8,52.1,16.8z"/>
				<path fill="#FFFFFF" d="M40.6,19L40.6,19c-0.1,0-0.3,0-0.3-0.1c-0.1-0.1-0.1-0.2-0.1-0.3v-1.6c0-0.1,0-0.1,0-0.2
					c0.1-0.1,0.2-0.1,0.3-0.1h0c0,0,0,0,0-0.1s0-0.1,0-0.1c0,0,0-0.1,0-0.1l-1.2,0c-0.5,0-0.7,0-0.9,0.1c-0.4,0.2-0.4,0.5-0.4,0.6
					c0,0.2,0.1,0.4,0.3,0.5c0.1,0.1,0.3,0.1,0.5,0.1c-0.3,0.1-0.5,0.3-0.6,0.4c-0.1,0.1-0.3,0.3-0.4,0.4c-0.4,0.4-0.6,0.7-0.9,0.7
					c-0.3,0-0.6-0.1-0.8-0.2h0c0,0,0,0-0.1,0s0,0.1-0.1,0.1c0,0,0,0.1,0,0.1s0,0,0,0c0.2,0.2,0.6,0.3,1,0.3c0.6,0,1-0.3,1.2-0.6
					c0.1-0.1,0.4-0.5,0.5-0.7c0.2-0.2,0.4-0.5,0.7-0.6c0,0,0.1-0.1,0.1-0.1c0-0.1-0.1-0.1-0.1-0.1h0c-0.2,0-0.3,0-0.3,0
					c-0.3,0-0.5-0.2-0.5-0.4c0-0.2,0.1-0.3,0.2-0.4c0.2-0.1,0.3-0.1,0.5-0.1c0.3,0,0.3,0,0.3,0.3v1.5c0,0.1,0,0.2-0.1,0.3
					c0,0-0.1,0.1-0.2,0.1c0,0-0.1,0-0.1,0h0c0,0,0,0,0,0.1c0,0,0,0.1,0,0.1c0,0,0,0.1,0,0.1l0.1,0c0.1,0,0.2,0,0.2,0h0.1
					c0.1,0,0.3,0,0.4,0h0.1c0.1,0,0.2,0,0.2,0h0.1c0,0,0,0,0.1-0.1C40.7,19.2,40.7,19.1,40.6,19C40.6,19.1,40.6,19,40.6,19z"/>
			</g>
			<g>
				<path fill="#FFFFFF" d="M37.8,20.2L37.8,20.2l0.6,2.8c0,0.2,0.1,0.5,0.5,0.4c0,0,0.1,0.1,0.1,0.1s-0.1,0.1-0.1,0.1h-0.1
					c-0.1,0-0.2,0-0.3,0c-0.1,0-0.3,0-0.4,0c-0.1,0-0.2,0-0.4,0c-0.1,0-0.2,0-0.3,0h-0.2c0,0-0.1-0.1-0.1-0.1s0.1-0.1,0.1-0.1
					c0.2,0.1,0.6,0,0.4-0.6l-0.5-2.3h-0.3c-0.1,0.9-0.6,2.3-1,2.8c-0.1,0.2-0.3,0.4-0.6,0.4c-0.2,0-0.4-0.2-0.4-0.5
					c0-0.3,0.2-0.5,0.4-0.5c0.2,0,0.3,0.2,0.3,0.3l0.1,0c0.2-0.3,0.5-0.8,0.7-1.3c0.2-0.6,0.2-0.8,0.2-1c0-0.2,0-0.3-0.3-0.3
					c-0.1,0-0.3,0-0.4,0.1c0,0-0.1-0.1-0.1-0.1c0-0.1,0.1-0.1,0.1-0.1S37.8,20.2,37.8,20.2z"/>
				<path fill="#FFFFFF" d="M41.6,22.9c0-0.1-0.1-0.1-0.1-0.1c-0.1,0-0.1,0.1-0.2,0.1c0,0-0.1,0-0.1,0c0,0-0.1-0.1-0.1-0.2l0-1.2
					c0-0.3-0.1-0.5-0.3-0.7c-0.2-0.2-0.5-0.3-0.9-0.3c-0.8,0-1.1,0.4-1.1,0.6c0,0.2,0.1,0.3,0.3,0.3c0.2,0,0.3-0.1,0.3-0.3
					c0-0.1,0-0.1-0.1-0.2c0,0,0,0-0.1-0.1c0,0,0.1-0.1,0.4-0.1c0.5,0,0.7,0.2,0.7,0.7v0.1c-0.1,0.1-0.3,0.1-0.4,0.1
					c-0.1,0-0.2,0-0.3,0.1c-0.2,0-0.3,0.1-0.5,0.1c-0.5,0.1-0.7,0.4-0.7,0.7c0,0.4,0.3,0.7,0.8,0.7c0.3,0,0.7-0.1,1-0.4
					c0,0.1,0.1,0.4,0.5,0.4c0.2,0,0.4-0.1,0.5-0.2l0,0C41.6,23.1,41.6,23,41.6,22.9z M40.6,21.8l0,0.8C40.3,22.8,40,23,39.8,23
					c-0.2,0-0.4-0.1-0.4-0.4C39.4,22.1,39.9,22,40.6,21.8L40.6,21.8z"/>
				<path fill="#FFFFFF" d="M43.7,21.7c0.1,0,0.2-0.1,0.3-0.1c0.2-0.1,0.2-0.3,0.2-0.5c0-0.2-0.1-0.4-0.4-0.5
					c-0.2-0.1-0.4-0.1-0.8-0.1h-1.3c0,0-0.1,0-0.1,0.1c0,0.1,0.1,0.1,0.1,0.1h0c0.3-0.1,0.4,0.1,0.4,0.3v1.6c0,0.3-0.1,0.4-0.4,0.3
					h0c0,0-0.1,0-0.1,0.1c0,0.1,0.1,0.1,0.1,0.1l0.1,0c0.1,0,0.1,0,0.2,0h0.1c0.1,0,0.2,0,0.3,0c0.2,0,0.4,0,0.5,0
					c0.1,0,0.3,0,0.3,0c0.2,0,0.5,0,0.8-0.2c0.2-0.1,0.4-0.4,0.4-0.6C44.4,22.1,44.2,21.8,43.7,21.7z M43.1,21.7c-0.1,0-0.1,0-0.2,0
					h0c0,0-0.1,0-0.1,0.1c0,0.1,0.1,0.1,0.1,0.1h0c0.1,0,0.1,0,0.2,0c0.5,0,0.7,0.3,0.7,0.5c0,0.2-0.1,0.3-0.2,0.4
					c-0.2,0.1-0.4,0.1-0.5,0.1c-0.3,0-0.4-0.1-0.4-0.3v-1.8c0.2,0,0.3,0,0.5,0c0.3,0,0.5,0.1,0.5,0.4C43.6,21.3,43.6,21.7,43.1,21.7
					z"/>
				<path fill="#FFFFFF" d="M50.8,22.9L50.8,22.9c-0.3,0.1-0.4,0-0.4-0.3v-1.9c0-0.1,0-0.2,0.1-0.3c0,0,0,0,0-0.1
					c0-0.1-0.1-0.1-0.1-0.1l0,0c-0.1,0.1-0.3,0.2-0.9,1c-0.1,0.2-0.8,1-0.8,1v-1.2c0-0.2,0.1-0.3,0.3-0.3c0,0,0.1,0,0.1,0h0
					c0,0,0.1,0,0.1-0.1c0-0.1-0.1-0.1-0.1-0.1h-0.1c-0.1,0-0.1,0-0.2,0c0,0-0.1,0-0.1,0c-0.1,0-0.1,0-0.2,0c-0.1,0-0.1,0-0.2,0
					c-0.1,0-0.1,0-0.4,0h-0.1c0,0-0.1,0-0.1,0.1c0,0.1,0.1,0.1,0.1,0.1h0c0.3-0.1,0.4,0.1,0.4,0.3v2.1c0,0,0,0,0.1,0.1
					c0.1,0,0.1,0,0.1,0l0,0l1.6-1.9v1.4c0,0.3-0.1,0.4-0.4,0.3h0c0,0-0.1,0.1-0.1,0.1c0,0.1,0.1,0.1,0.1,0.1l0.1,0
					c0.1,0,0.2,0,0.2,0h0.1c0.1,0,0.3,0,0.4,0h0.1c0.1,0,0.1,0,0.2,0h0.1c0,0,0.1,0,0.1-0.1C50.9,23,50.8,22.9,50.8,22.9z"/>
				<path fill="#FFFFFF" d="M49.2,23.3C49.2,23.2,49.1,23.2,49.2,23.3c-0.1-0.1-0.5,0.2-0.9,0.2c-0.3,0-0.6-0.2-1-0.7
					c-0.1-0.1-0.4-0.4-0.5-0.5c-0.2-0.2-0.4-0.3-0.8-0.4c-0.1,0-0.1,0-0.1,0c0,0,0,0,0,0c0.2-0.1,0.4-0.3,0.6-0.7
					c0-0.1,0.1-0.3,0.2-0.3c0,0.1,0,0.1,0,0.2c0,0.2,0.1,0.3,0.3,0.3c0.2,0,0.4-0.1,0.4-0.4c0-0.3-0.3-0.4-0.5-0.4
					c-0.3,0-0.5,0.2-0.6,0.3c-0.1,0.1-0.1,0.3-0.2,0.4c0,0.1-0.1,0.1-0.1,0.2c-0.1,0.2-0.3,0.3-0.5,0.3l0-0.6c0-0.1,0-0.1,0-0.2
					c0.1-0.1,0.2-0.1,0.3-0.1h0c0,0,0.1,0,0.1-0.1c0-0.1-0.1-0.1-0.1-0.1l-0.1,0c-0.1,0-0.1,0-0.2,0c-0.2,0-0.4,0-0.7,0
					c-0.1,0-0.1,0-0.2,0h-0.1c0,0-0.1,0-0.1,0.1c0,0.1,0.1,0.1,0.1,0.1h0c0.1,0,0.1,0,0.1,0c0.2,0,0.2,0.1,0.2,0.3v1.6
					c0,0.1,0,0.2-0.1,0.3c-0.1,0.1-0.2,0.1-0.3,0.1h0c0,0-0.1,0-0.1,0.1c0,0.1,0.1,0.1,0.1,0.1l0.1,0c0.1,0,0.2,0,0.2,0H45
					c0.1,0,0.3,0,0.4,0h0.1c0.1,0,0.2,0,0.2,0h0.1c0,0,0.1,0,0.1-0.1c0-0.1-0.1-0.1-0.1-0.1h0c-0.1,0-0.2,0-0.3-0.1
					c-0.1-0.1-0.1-0.2-0.1-0.3v-0.7c0.4,0,0.6,0.3,0.8,0.5c0.5,0.5,0.5,0.6,0.6,0.7c0.2,0.3,0.7,0.6,1.3,0.6c0.4,0,0.9-0.2,1.1-0.3
					C49.3,23.4,49.3,23.3,49.2,23.3z"/>
			</g>
		</g>
	</g>
	<g>
		<g>
			<g>
				<path fill="#FFFFFF" d="M8.4,48.4c0.3,0,0.5,0.1,0.7,0.5l1.5,4.2h0.1l2.1-4.3c0.2-0.3,0.3-0.4,0.5-0.4H16c0,0,0.1,0.1,0.1,0.1
					c0.1,0.1,0,0.3,0,0.3c0,0.1-0.1,0.1-0.1,0.1c-1.1-0.2-1.2,0.6-1.2,1v3.5c0,0.1,0,0.3,0,0.6c0,0.4-0.4,0.6-0.7,0.7
					c-0.3,0.1-0.4,0-0.6,0c-0.1,0-0.2-0.1-0.2-0.2c0-0.3,0-0.9,0-1.1v-2.6c0-0.3,0-1,0.1-1.8h-0.1l-2.9,6.1h-0.4l-2.2-5.2
					c-0.2-0.6-0.3-0.7-0.5-0.9H7.3l0,0.4v4.7c0,0.4,0,1.1,1.2,0.9c0,0,0.1,0.1,0.1,0.1c0,0.1,0,0.2,0,0.3c0,0.1-0.1,0.1-0.1,0.1H8.3
					c-0.2,0-0.5,0-0.7,0c-0.2,0-0.5-0.1-0.7-0.1c-0.3,0-0.7,0.1-1.3,0.1H5.2c0,0,0,0-0.1-0.1c0-0.1,0-0.2,0-0.3
					C5.2,55,5.2,55,5.2,55c1.2,0.2,1.3-0.5,1.3-1l0.1-4.5c0-0.7-0.7-0.7-1.2-0.6c0,0,0-0.1-0.1-0.1c0-0.1,0-0.2,0-0.3
					c0-0.1,0.1-0.1,0.1-0.1L8.4,48.4L8.4,48.4z"/>
				<path fill="#FFFFFF" d="M26.9,53.9c0-0.1-0.1-0.2-0.2-0.2c-0.1-0.1-0.2-0.1-0.2-0.1c-0.5,0.3-1,0.5-1.5,0.5
					c-0.6,0-1.1-0.2-1.4-0.7c-0.3-0.4-0.4-0.8-0.4-1.4c0-0.3,0-1.2,0.5-1.8c0.2-0.2,0.6-0.6,1.3-0.6c0.3,0,0.5,0.1,0.6,0.1
					c-0.3,0.1-0.5,0.3-0.5,0.6c0,0.4,0.4,0.7,0.7,0.7c0.4,0,0.8-0.3,0.8-0.8c0-0.5-0.4-1.1-1.6-1.1c-0.8,0-1.4,0.2-2,0.7
					c-0.7,0.6-1,1.3-1,2.3c0,0.8,0.2,1.4,0.7,1.9c0.5,0.5,1.2,0.8,1.9,0.8s1.5-0.2,2.2-0.7l0,0C26.9,54,26.9,54,26.9,53.9z"/>
				<path fill="#FFFFFF" d="M33.5,54.1c-0.3,0.1-0.5,0-0.6-0.1c-0.1-0.1-0.1-0.4-0.1-0.6v-3.2c0-0.1,0-0.3,0.1-0.4
					c0.1-0.2,0.3-0.3,0.7-0.2h0c0,0,0.1-0.1,0.1-0.2c0-0.1-0.1-0.3-0.1-0.3l-0.3,0c-0.1,0-0.3,0-0.5,0c-0.4,0.1-0.9,0-1.3,0
					c-0.1,0-0.3,0-0.4,0h-0.2c0,0-0.1,0.1-0.1,0.2c0,0.2,0.1,0.3,0.1,0.3h0c0.1,0,0.2,0,0.3,0c0.4,0,0.5,0.3,0.5,0.6v1.1h-2.5v-1.1
					c0-0.1,0-0.3,0.1-0.4c0.1-0.2,0.3-0.3,0.7-0.2h0c0,0,0.1-0.1,0.1-0.2c0-0.1-0.1-0.3-0.1-0.3l-0.3,0c-0.1,0-0.3,0-0.5,0
					c-0.4,0.1-0.9,0-1.3,0c-0.1,0-0.3,0-0.4,0h-0.2c0,0-0.1,0-0.1,0.1c0,0.1,0,0.2,0,0.2c0,0.1,0.1,0.1,0.1,0.1h0c0.1,0,0.2,0,0.3,0
					c0.4,0,0.5,0.3,0.5,0.6v3.2c0,0.1,0,0.4-0.1,0.5c-0.1,0.1-0.2,0.1-0.3,0.1l0,0c-0.1,0-0.1,0-0.2,0h0c0,0-0.1,0.1-0.1,0.2
					c0,0.2,0.1,0.2,0.1,0.2l0.3,0c0.2,0,0.3,0,0.5,0l0.2,0c0.3,0,0.6,0,0.8,0l0.2,0c0.2,0,0.3,0,0.5,0h0.2c0,0,0.1-0.1,0.1-0.2
					c0-0.2-0.1-0.3-0.1-0.3h0c-0.3,0.1-0.5,0-0.6-0.1c-0.1-0.1-0.1-0.4-0.1-0.6v-1.5h2.5v1.5c0,0.1,0,0.4-0.1,0.5
					c-0.1,0.1-0.3,0.1-0.6,0.1h0c0,0-0.1,0.1-0.1,0.2c0,0.1,0.1,0.3,0.1,0.3l0.3,0c0.2,0,0.3,0,0.5,0l0.2,0c0.3,0,0.6,0,0.8,0l0.2,0
					c0.2,0,0.3,0,0.5,0h0.3c0,0,0.1-0.1,0.1-0.2C33.7,54.2,33.5,54,33.5,54.1L33.5,54.1z"/>
				<g>
					<path fill="#FFFFFF" d="M38.9,51.6c-0.4-0.4-1.1-0.4-1.3-0.4c-0.4,0-0.7,0-1.2,0.2l-0.1,0.1c0,0-0.1,0.1,0,0.3
						c0,0.1,0.1,0.2,0.1,0.2l0.1,0c0.2-0.1,0.5-0.2,0.8-0.2c0.5,0,0.8,0.4,0.8,1.1c0,0.2-0.1,0.6-0.2,0.8C37.7,54,37.2,54,37,54
						c-0.7,0-0.7-0.2-0.7-0.6v-3.1c0-0.1,0-0.3,0.1-0.4c0.1-0.2,0.3-0.3,0.7-0.2h0c0,0,0.1-0.1,0.1-0.2c0-0.1-0.1-0.3-0.1-0.3
						l-0.3,0c-0.1,0-0.3,0-0.5,0c-0.4,0.1-0.9,0-1.3,0c-0.1,0-0.3,0-0.4,0h-0.2c0,0-0.1,0.1-0.1,0.2s0.1,0.3,0.1,0.3h0
						c0.1,0,0.2,0,0.3,0c0.4,0,0.5,0.3,0.5,0.6v3.2c0,0.6-0.3,0.8-0.9,0.7l0,0c0,0-0.1,0.1-0.1,0.2c0,0.1,0.1,0.3,0.1,0.3l0.3,0
						c0.3,0,0.3,0,0.4,0c0.1,0,0.2,0,0.8,0c0.2,0,0.4,0,0.6,0l0.2,0c0.2,0,0.5,0,0.7,0c0.4,0,0.9,0,1.5-0.4c0.5-0.3,0.8-0.9,0.8-1.5
						C39.4,52.3,39.2,51.9,38.9,51.6z"/>
					<path fill="#FFFFFF" d="M42,54.1c-0.3,0.1-0.5,0-0.6-0.1c-0.1-0.1-0.1-0.4-0.1-0.6v-3.2c0-0.1,0-0.3,0.1-0.4
						c0.1-0.2,0.3-0.3,0.7-0.2h0c0,0,0.1-0.1,0.1-0.2c0-0.2-0.1-0.3-0.1-0.3l-0.3,0c-0.1,0-0.3,0-0.5,0c-0.4,0.1-0.9,0-1.3,0
						c-0.1,0-0.3,0-0.4,0h-0.2c0,0-0.1,0.1-0.1,0.2s0.1,0.3,0.1,0.3h0c0.1,0,0.2,0,0.3,0c0.4,0,0.5,0.3,0.5,0.6v3.2
						c0,0.1,0,0.4-0.1,0.5c-0.1,0.1-0.2,0.1-0.3,0.1c-0.1,0-0.1,0-0.2,0h0c0,0-0.1,0.1-0.1,0.2c0,0.2,0.1,0.3,0.1,0.3l0.3,0
						c0.2,0,0.3,0,0.5,0l0.2,0c0.3,0,0.6,0,0.8,0l0.2,0c0.2,0,0.3,0,0.5,0h0.3c0,0,0.1-0.1,0.1-0.2C42.2,54.2,42.1,54.1,42,54.1
						L42,54.1z"/>
				</g>
				<path fill="#FFFFFF" d="M46.7,53.7c-0.4,0.3-0.8,0.5-1.4,0.5c-0.6,0-1-0.2-1.4-0.6c-0.4-0.5-0.5-1.1-0.5-1.5c0-0.1,0-0.2,0-0.3
					h3.1c0.5,0,0.5-0.1,0.5-0.4c0-0.4-0.1-1.3-0.7-1.8C46.1,49.2,45.5,49,45,49c-0.7,0-1.4,0.3-1.8,0.7c-0.5,0.5-0.8,1.4-0.8,2.3
					c0,0.9,0.3,1.5,0.6,1.8c0.3,0.3,0.9,0.9,2.1,0.9c0.5,0,1.2-0.1,2-0.7c0,0,0-0.1-0.1-0.3C46.9,53.7,46.7,53.7,46.7,53.7z
					 M45,49.6c0.9,0,1,0.9,1,1.3c0,0.1,0,0.1,0,0.2h-2.3c0.1-0.4,0.2-0.8,0.4-1.1C44.2,49.8,44.5,49.6,45,49.6z"/>
				<path fill="#FFFFFF" d="M21.8,54L21.8,54c-0.3,0.1-0.5,0-0.6-0.1C21,53.8,21,53.5,21,53.4v-3.2c0-0.1,0-0.3,0.1-0.4
					c0.1-0.2,0.3-0.3,0.7-0.2h0c0,0,0,0,0.1-0.1c0-0.1,0-0.1,0-0.2c0,0-0.1-0.1-0.1-0.1l-2.5,0c-0.9,0-1.4,0.1-1.8,0.3
					c-0.7,0.4-0.8,0.9-0.8,1.3c0,0.5,0.2,0.9,0.6,1.1c0.3,0.2,0.6,0.3,0.9,0.3c-0.6,0.2-1,0.5-1.3,0.8s-0.5,0.6-0.7,0.9
					c-0.7,0.9-1.3,1.3-1.9,1.4c-0.7,0.1-1.3-0.2-1.5-0.4l0,0c0,0-0.1,0-0.1,0.1c-0.1,0-0.1,0.1-0.1,0.2c0,0,0,0.1,0,0.1l0,0
					c0.5,0.3,1.3,0.6,2,0.6c1.2,0.1,2-0.7,2.5-1.2c0.2-0.2,0.8-1,1-1.4c0.3-0.5,0.8-1.1,1.5-1.2c0,0,0.1-0.1,0.1-0.3
					c0-0.1-0.1-0.2-0.1-0.2h0c-0.4,0.1-0.6,0.1-0.7,0.1c-0.5,0-0.9-0.4-0.9-0.9c0-0.4,0.1-0.6,0.4-0.8c0.3-0.2,0.7-0.2,1-0.2
					c0.5,0,0.5,0,0.5,0.6v3.1c0,0.1,0,0.4-0.1,0.5C19.6,54,19.4,54,19.3,54c-0.1,0-0.1,0-0.2,0h0c0,0-0.1,0.1-0.1,0.1
					c0,0.1,0,0.2,0,0.2c0,0.1,0.1,0.1,0.1,0.1l0.3,0c0.2,0,0.3,0,0.5,0l0.2,0c0.3,0,0.6,0,0.8,0l0.2,0c0.2,0,0.3,0,0.5,0h0.2
					c0,0,0.1-0.1,0.1-0.1C21.9,54.3,21.9,54.2,21.8,54C21.8,54.1,21.8,54,21.8,54z"/>
			</g>
			<g>
				<path fill="#FFFFFF" d="M54.9,48.5l0.1,0.1l1.1,5.5c0.1,0.4,0.2,1.1,0.9,0.9c0,0,0.1,0.1,0.1,0.3c0,0.2-0.1,0.3-0.1,0.3h-0.3
					c-0.2,0-0.4,0-0.5,0c-0.2,0-0.5-0.1-0.7-0.1c-0.3,0-0.5,0-0.7,0.1c-0.2,0-0.4,0-0.5,0h-0.4c0,0-0.1-0.1-0.1-0.3
					c0-0.1,0.1-0.3,0.1-0.3c0.4,0.1,1.1,0.1,0.8-1.2l-0.9-4.7h-0.6c-0.2,1.8-1.2,4.6-2,5.8c-0.3,0.5-0.7,0.8-1.2,0.8
					c-0.5,0-0.9-0.4-0.9-0.9c0-0.6,0.4-0.9,0.9-0.9c0.4,0,0.7,0.4,0.7,0.7l0.1-0.1c0.5-0.6,0.9-1.5,1.3-2.7c0.4-1.2,0.4-1.7,0.4-2.1
					c0-0.3-0.1-0.6-0.7-0.6c-0.2,0-0.5,0.1-0.7,0.1c0,0-0.1-0.1-0.1-0.3c0-0.2,0.1-0.3,0.1-0.3L54.9,48.5L54.9,48.5z"/>
				<path fill="#FFFFFF" d="M62.5,54c-0.1-0.1-0.2-0.1-0.2-0.1C62.2,54,62,54.1,62,54.1s-0.2,0-0.2-0.1c-0.1-0.1-0.1-0.2-0.1-0.5
					l0.1-2.5c0-0.6-0.2-1.1-0.5-1.4c-0.4-0.4-1-0.6-1.8-0.6c-1.7,0-2.1,0.8-2.1,1.3c0,0.3,0.2,0.7,0.7,0.7c0.4,0,0.7-0.3,0.7-0.7
					c0-0.2,0-0.3-0.1-0.4c0,0-0.1-0.1-0.1-0.1c0-0.1,0.2-0.2,0.7-0.2c1,0,1.3,0.4,1.3,1.4v0.1c-0.3,0.1-0.5,0.2-0.8,0.2
					c-0.2,0-0.3,0.1-0.5,0.1c-0.3,0.1-0.7,0.2-1,0.3c-1,0.3-1.4,0.8-1.4,1.5c0,0.9,0.7,1.4,1.7,1.4c0.7,0,1.4-0.3,2.1-0.8
					c0.1,0.3,0.3,0.8,1,0.8c0.5,0,0.9-0.3,1-0.4l0,0C62.6,54.3,62.6,54.1,62.5,54z M60.5,51.7l0,1.6c-0.5,0.5-1.2,0.8-1.7,0.8
					c-0.5,0-0.8-0.3-0.8-0.8c0-1,1.1-1.3,2.4-1.6L60.5,51.7z"/>
				<path fill="#FFFFFF" d="M66.8,51.6c0.2-0.1,0.5-0.2,0.6-0.3c0.3-0.3,0.5-0.5,0.5-0.9c0-0.5-0.3-0.8-0.8-1
					c-0.4-0.2-0.8-0.2-1.7-0.2h-2.6c0,0-0.1,0.1-0.1,0.2c0,0.2,0.1,0.3,0.1,0.3h0c0.7-0.1,0.7,0.2,0.7,0.6v3.2
					c0,0.6-0.2,0.8-0.7,0.7h0c0,0-0.1,0.1-0.1,0.2c0,0.1,0.1,0.3,0.1,0.3l0.3,0c0.1,0,0.2,0,0.3,0l0.2,0c0.2,0,0.4,0,0.6,0
					c0.4,0,0.7,0,1,0.1c0.3,0,0.5,0,0.7,0c0.5,0,1.1,0,1.6-0.4c0.5-0.3,0.7-0.8,0.7-1.2C68.2,52.4,67.8,51.8,66.8,51.6z M65.6,51.4
					c-0.1,0-0.3,0-0.4,0h0c0,0-0.1,0.1-0.1,0.2c0,0.2,0.1,0.3,0.1,0.3h0c0.1,0,0.3,0,0.4,0c1.1,0,1.3,0.6,1.3,1.1
					c0,0.3-0.1,0.6-0.4,0.8c-0.3,0.2-0.8,0.2-1,0.2c-0.7,0-0.8-0.3-0.8-0.7v-3.6c0.3,0,0.6-0.1,0.9-0.1c0.6,0,1,0.1,1,0.8
					C66.7,50.8,66.7,51.4,65.6,51.4z"/>
				<path fill="#FFFFFF" d="M81.2,54L81.2,54c-0.6,0.1-0.8-0.1-0.8-0.6v-3.7c0-0.1,0-0.4,0.2-0.6c0,0,0-0.1,0-0.1
					c-0.1-0.1-0.3-0.2-0.3-0.2l-0.1,0c-0.3,0.1-0.6,0.4-1.9,2c-0.3,0.4-1.6,2-1.6,2v-2.5c0-0.5,0.2-0.7,0.5-0.7c0.1,0,0.2,0,0.2,0
					l0,0c0,0,0.1-0.1,0.1-0.3c0-0.2-0.1-0.2-0.1-0.2h-0.2c-0.2,0-0.3,0-0.5,0c-0.1,0-0.2,0-0.3,0c-0.1,0-0.2,0-0.3,0
					c-0.2,0-0.3,0-0.4,0c-0.1,0-0.2,0-0.8,0l-0.3,0c0,0-0.1,0.1-0.1,0.2c0,0.1,0.1,0.3,0.1,0.3h0c0.7-0.1,0.7,0.1,0.7,0.6v4.3
					c0,0,0.1,0.1,0.2,0.1c0.1,0,0.2,0,0.2,0l0.1-0.1l3.3-3.9v2.8c0,0.6-0.2,0.8-0.7,0.7h0c0,0-0.1,0.1-0.1,0.2
					c0,0.1,0.1,0.3,0.1,0.3l0.3,0c0.2,0,0.3,0,0.5,0l0.2,0c0.3,0,0.6,0,0.9,0l0.2,0c0.2,0,0.3,0,0.5,0h0.2c0,0,0.1-0.1,0.1-0.2
					C81.3,54.2,81.2,54,81.2,54z"/>
				<path fill="#FFFFFF" d="M78,54.7c-0.1-0.1-0.2-0.1-0.2-0.1s-0.7,0.5-1.7,0.4c-0.7-0.1-1.2-0.5-2-1.3c-0.2-0.2-0.8-0.8-1-1.1
					c-0.4-0.5-0.8-0.7-1.5-0.8c-0.1,0-0.2,0-0.3-0.1c0,0,0,0,0.1,0c0.3-0.1,0.8-0.6,1.2-1.5c0.1-0.1,0.2-0.5,0.4-0.7
					c-0.1,0.1-0.1,0.2-0.1,0.3c0,0.4,0.3,0.6,0.7,0.6c0.4,0,0.7-0.3,0.7-0.8c0-0.6-0.5-0.8-1-0.8c-0.7,0-1,0.4-1.2,0.7
					c-0.2,0.3-0.3,0.6-0.4,0.8c-0.1,0.1-0.1,0.3-0.2,0.4c-0.2,0.3-0.5,0.6-0.9,0.6l0-1.2c0-0.1,0-0.3,0.1-0.4
					c0.1-0.2,0.3-0.3,0.7-0.2h0c0,0,0.1-0.1,0.1-0.2c0-0.2-0.1-0.3-0.1-0.3l-0.3,0c-0.1,0-0.3,0-0.5,0c-0.4,0-0.8,0.1-1.3,0
					c-0.1,0-0.3,0-0.4,0h-0.2c0,0-0.1,0.1-0.1,0.2c0,0.2,0.1,0.3,0.1,0.3h0c0.1,0,0.2,0,0.3,0c0.4,0,0.5,0.3,0.5,0.6v3.2
					c0,0.1,0,0.4-0.1,0.5c-0.1,0.1-0.3,0.1-0.6,0.1h0c0,0-0.1,0.1-0.1,0.2c0,0.1,0.1,0.3,0.1,0.3l0.3,0c0.2,0,0.3,0,0.5,0l0.2,0
					c0.3,0,0.6,0,0.8,0l0.2,0c0.2,0,0.3,0,0.5,0h0.2c0,0,0.1-0.1,0.1-0.2c0-0.2-0.1-0.3-0.1-0.3h0c-0.3,0.1-0.5,0-0.6-0.1
					c-0.1-0.1-0.1-0.4-0.1-0.6V52c0.8,0,1.1,0.6,1.6,1.1c1,1.1,1,1.1,1.2,1.4c0.5,0.5,1.4,1.2,2.6,1.1c0.9,0,1.7-0.4,2.2-0.7
					C78.1,54.9,78.1,54.8,78,54.7z"/>
			</g>
		</g>
		<g>
			<path fill="#FFFFFF" d="M6.2,46.2c-0.1,0-0.2,0-0.4,0c-0.9,0-1.1-0.1-1.7-0.1c-0.7,0-0.8,0.1-1.7,0.1c-0.2,0-0.3,0-0.4,0
				c0,0-0.1-0.1-0.1-0.2c0-0.2,0.1-0.3,0.1-0.3c0.2,0,0.3,0,0.5,0c0.8,0,0.8-0.4,0.8-0.8v-6H2.8c-1.1,0-1.8,0.5-2.3,1.5
				c0,0-0.1,0.1-0.3,0.1c-0.1,0-0.2-0.1-0.2-0.1l0.3-2.5c0,0,0.1-0.1,0.3-0.1c0.2,0,0.3,0.1,0.3,0.1c-0.1,0.2,0,0.4,0.3,0.4h5.9
				c0.3,0,0.3-0.2,0.3-0.4c0,0,0.1-0.1,0.3-0.1c0.2,0,0.3,0.1,0.3,0.1l0.3,2.5c0,0-0.1,0.1-0.3,0.1c-0.1,0-0.2-0.1-0.2-0.1
				c-0.5-1-1.2-1.5-2.3-1.5H4.9v6c0,0.4,0,0.8,0.8,0.8c0.2,0,0.3,0,0.5,0c0,0,0.1,0.1,0.1,0.3C6.3,46.1,6.2,46.2,6.2,46.2z"/>
			<path fill="#FFFFFF" d="M14.8,44.9c0.2,0.6,0.4,0.9,0.9,0.9c0,0,0.1,0.1,0.1,0.2c0,0.1-0.1,0.2-0.1,0.2h-0.1
				c-0.5,0-0.9-0.1-1.4-0.1c-0.6,0-1.2,0.1-1.7,0.1h-0.1c0,0-0.1-0.1-0.1-0.2c0-0.1,0.1-0.3,0.1-0.3c0.4,0,0.7,0,0.7-0.3
				c0-0.1,0-0.2-0.1-0.5l-0.5-1.3H9.9l-0.4,1.1c-0.1,0.3-0.1,0.5-0.1,0.5c0,0.2,0.1,0.7,0.9,0.5c0,0,0.1,0.1,0.1,0.2
				c0,0.1-0.1,0.3-0.1,0.3h-0.1c-0.5,0-0.9-0.1-1.3-0.1s-0.9,0.1-1.3,0.1H7.4c0,0-0.1-0.1-0.1-0.2c0-0.1,0.1-0.3,0.1-0.3
				c0.2-0.1,0.6-0.3,1.1-1.2l3.3-6.5h0.6L14.8,44.9z M11.6,40L11.6,40L10.2,43h2.3L11.6,40z"/>
			<path fill="#FFFFFF" d="M22.1,41.8c1.1,0.1,2.1,0.7,2.1,2c0,0.6-0.3,1.3-0.9,1.8c-0.9,0.7-2.1,0.7-2.7,0.7
				c-1.2,0-0.8-0.1-2.1-0.1c-0.4,0-0.9,0-2,0.1h-0.1c0,0-0.1-0.1-0.1-0.3c0-0.1,0.1-0.3,0.1-0.3c0.1,0,0.2,0,0.4,0
				c0.5,0,0.9-0.2,0.9-0.8v-5.4c0-0.3,0.1-0.8-0.8-0.8c-0.2,0-0.3,0-0.4,0c0,0-0.1-0.1-0.1-0.2c0-0.1,0.1-0.3,0.1-0.3l0.1,0h4.4
				c0.8,0,1.5,0.1,2.1,0.4c0.6,0.4,0.9,0.9,0.9,1.3C23.9,40.8,23.3,41.7,22.1,41.8L22.1,41.8z M19.4,44.7c0,0.3,0,0.9,1.3,0.9
				c0.4,0,1-0.1,1.4-0.6c0.2-0.2,0.4-0.6,0.4-1.1c0-1.6-1-1.7-1.8-1.7c-0.2,0-0.3,0-0.5,0c0,0-0.1-0.1-0.1-0.3
				c0-0.2,0.1-0.3,0.1-0.3c0.2,0,0.3,0,0.5,0s0.8,0,1.1-0.3c0.4-0.3,0.5-0.7,0.5-1.1s-0.1-0.7-0.4-1c-0.4-0.3-1-0.3-1.4-0.3
				c-0.3,0-0.7,0-1,0.1L19.4,44.7L19.4,44.7z"/>
			<path fill="#FFFFFF" d="M46.8,41.8c1.1,0.1,2.1,0.7,2.1,2c0,0.6-0.3,1.3-0.9,1.8c-0.9,0.7-2.1,0.7-2.7,0.7
				c-1.2,0-0.8-0.1-2.1-0.1c-0.4,0-0.9,0-2,0.1h-0.1c0,0-0.1-0.1-0.1-0.3c0-0.1,0.1-0.3,0.1-0.3c0.1,0,0.2,0,0.4,0
				c0.5,0,0.9-0.2,0.9-0.8v-5.4c0-0.3,0.1-0.8-0.8-0.8c-0.2,0-0.3,0-0.4,0c0,0-0.1-0.1-0.1-0.2c0-0.1,0.1-0.3,0.1-0.3l0.1,0h4.4
				c0.8,0,1.5,0.1,2.1,0.4c0.6,0.4,0.9,0.9,0.9,1.3C48.7,40.8,48.1,41.7,46.8,41.8L46.8,41.8z M44.2,44.7c0,0.3,0,0.9,1.3,0.9
				c0.4,0,1-0.1,1.4-0.6c0.2-0.2,0.4-0.6,0.4-1.1c0-1.6-1-1.7-1.8-1.7c-0.2,0-0.3,0-0.5,0c0,0-0.1-0.1-0.1-0.3
				c0-0.2,0.1-0.3,0.1-0.3c0.2,0,0.3,0,0.5,0s0.8,0,1.1-0.3c0.4-0.3,0.5-0.7,0.5-1.1s-0.1-0.7-0.4-1c-0.4-0.3-1-0.3-1.4-0.3
				c-0.3,0-0.7,0-1,0.1C44.2,39.1,44.2,44.7,44.2,44.7z"/>
			<path fill="#FFFFFF" d="M27.7,45c0,0.4,0,0.8,0.8,0.8c0.2,0,0.3,0,0.5,0c0,0,0.1,0.1,0.1,0.3c0,0.1-0.1,0.2-0.1,0.2
				c-0.1,0-0.2,0-0.4,0c-0.9,0-1-0.1-1.7-0.1c-1,0-0.5,0.1-1.7,0.1c-0.2,0-0.3,0-0.4,0c0,0-0.1-0.1-0.1-0.2c0-0.1,0.1-0.2,0.1-0.2
				c0.1,0,0.2,0,0.4,0c0.5,0,0.9-0.2,0.9-0.8v-5.4c0-0.3,0.1-0.8-0.8-0.8c-0.2,0-0.3,0-0.4,0c0,0-0.1-0.1-0.1-0.3
				c0-0.1,0.1-0.3,0.1-0.3l0.1,0h4c0.6,0,3.3,0,3.3,2.1c0,0.7-0.2,1.2-0.5,1.6c-0.7,0.8-1.7,0.9-2.4,0.9c-0.5,0-0.9-0.1-1.2-0.2
				c0,0-0.1-0.1,0-0.3c0-0.1,0.1-0.2,0.1-0.2c0.5,0.1,0.7,0.1,0.9,0.1c0.7,0,1.4-0.4,1.4-1.8c0-0.6-0.2-1.5-1.8-1.5
				c-0.4,0-0.7,0.1-0.9,0.1L27.7,45L27.7,45z"/>
			<path fill="#FFFFFF" d="M39.8,39.2c1.1,1,1.2,2.3,1.2,3.1s-0.1,2.1-1.2,3.1c-0.5,0.5-1.4,1.1-2.9,1.1c-1.4,0-2.4-0.6-2.9-1.1
				c-1.1-1-1.2-2.3-1.2-3.1s0.1-2.1,1.2-3.1c0.5-0.5,1.4-1.1,2.9-1.1S39.2,38.7,39.8,39.2z M35.2,39.8c-0.4,0.8-0.5,1.9-0.5,2.5
				s0.1,1.7,0.5,2.5c0.5,0.9,1.2,1.1,1.7,1.1c0.6,0,1.2-0.2,1.7-1.1c0.4-0.8,0.5-1.9,0.5-2.5s-0.1-1.7-0.5-2.5
				c-0.5-0.9-1.2-1.1-1.7-1.1C36.3,38.7,35.6,38.9,35.2,39.8z"/>
			<path fill="#FFFFFF" d="M57,40.4c0,0-0.1,0.1-0.3,0.1c-0.2,0-0.3-0.1-0.3-0.1c-0.3-1.2-1-1.7-2.2-1.7c-0.5,0-1.4,0.1-2.1,1.2
				c-0.4,0.6-0.5,1.6-0.5,2.3c0,1.6,0.6,2.5,0.7,2.6c0.6,0.8,1.3,0.9,1.9,0.9c1.6,0,2.3-1.1,2.5-2.1c0,0,0.1-0.1,0.3-0.1
				c0.2,0,0.3,0.1,0.3,0.1l0,1.9l-0.2,0.1c-0.9,0.5-2.1,0.7-2.8,0.7c-2.1,0-3.1-0.8-3.6-1.3c-0.5-0.6-0.9-1.5-0.9-2.6
				c0-1.6,0.6-2.8,1.5-3.5c0.7-0.6,1.7-1,2.9-1c0.3,0,0.8,0,1.1,0.1c0.6,0.1,0.6,0.2,0.8,0.2c0.3,0,0.4-0.2,0.3-0.4
				c0,0,0.1-0.1,0.3-0.1c0.1,0,0.3,0.1,0.3,0.1L57,40.4z"/>
			<path fill="#FFFFFF" d="M72.1,46.6c-0.1-0.1-0.2-0.2-0.2-0.2s-1.1,0.9-2.5,0.7c-1-0.1-2.1-0.8-3.2-2.2c-0.2-0.3-1.1-1.3-1.4-1.7
				c-0.6-0.7-1-1.1-2.1-1.4c-0.2,0-0.3-0.1-0.5-0.1c0.6-0.2,1.1-0.8,1.3-1.2c0.3-0.4,0.4-0.7,0.5-1.1c0.3-0.6,0.4-0.7,0.6-0.8v0.1
				c0,0.1-0.1,0.1-0.1,0.2c0,0.1,0,0.3,0,0.4c0,0.6,0.6,0.8,0.9,0.8c0.6,0,0.9-0.4,0.9-1c0-0.4-0.3-1.1-1.4-1.1c-0.3,0-0.6,0-1,0.3
				c-0.6,0.4-0.9,1.1-1.2,1.6c-0.9,1.7-1.3,1.6-1.6,1.6v-2c0-0.8,0.5-0.8,0.8-0.8c0.1,0,0.2,0,0.3,0c0,0,0.1-0.1,0.1-0.2
				c0-0.1-0.1-0.3-0.1-0.3c-0.1,0-0.2,0-0.4,0c-0.8,0-1.1,0.1-1.6,0.1s-0.8-0.1-1.6-0.1c-0.2,0-0.3,0-0.4,0c0,0-0.1,0.1-0.1,0.3
				c0,0.2,0.1,0.2,0.1,0.2c0.2,0,0.3,0,0.4,0c0.1,0,0.2,0,0.3,0c0.5,0.1,0.5,0.4,0.5,0.8V45c0,0.5-0.2,0.8-0.7,0.8
				c-0.1,0-0.2,0-0.2,0c-0.2,0-0.3,0-0.4,0c0,0-0.1,0.1-0.1,0.2s0.1,0.2,0.1,0.2c0.1,0,0.2,0,0.4,0c1.3,0,0.2-0.1,1.6-0.1
				s0.4,0.1,1.6,0.1c0.2,0,0.3,0,0.4,0c0,0,0.1-0.1,0.1-0.2c0-0.1-0.1-0.3-0.1-0.3c-0.3,0-0.3,0-0.4,0c-0.7,0-0.7-0.3-0.7-0.8v-2.8
				c1,0.1,1.5,1,2.1,1.8c1.5,1.8,1.5,1.9,1.7,2.2c0.7,0.9,2,1.9,3.8,1.9c1.3-0.1,2.5-0.6,3.2-1.2C72.1,46.8,72.2,46.7,72.1,46.6z"/>
			<path fill="#FFFFFF" d="M69,46.4L69,46.4c-0.1,0.1-0.2,0.1-0.3,0.1c-0.1,0-0.2-0.1-0.2-0.1v-6.8c0-0.3,0.1-0.8-0.8-0.8
				c-0.2,0-0.3,0-0.5,0c0,0-0.1-0.1-0.1-0.3c0-0.1,0.1-0.2,0.1-0.2c0.1,0,0.2,0,0.4,0c1,0,1,0.1,1.7,0.1c0.8,0,0.4-0.1,1.7-0.1
				c0.2,0,0.3,0,0.4,0c0,0,0.1,0.1,0.1,0.3c0,0.1-0.1,0.2-0.1,0.2c-0.1,0-0.3,0-0.4,0c-0.4,0-0.9,0.1-0.9,0.8v4.3l3.9-4.6
				c0.2-0.3,1.2-1.3,1.7-1.5c0,0,0.1,0.1,0.2,0.1c0.1,0.1,0.1,0.2,0.1,0.2c-0.5,0.3-0.5,0.9-0.5,1.6V45c0,0.4,0,0.8,0.8,0.8
				c0.2,0,0.3,0,0.5,0c0,0,0.1,0.1,0.1,0.3c0,0.1-0.1,0.2-0.1,0.2c-0.1,0-0.2,0-0.4,0c-0.8,0-1.1-0.1-1.7-0.1
				c-0.9,0-0.5,0.1-1.7,0.1c-0.2,0-0.3,0-0.4,0c0,0-0.1-0.1-0.1-0.3c0-0.1,0.1-0.2,0.1-0.2c0.1,0,0.2,0,0.4,0c0.5,0,0.9-0.2,0.9-0.8
				v-4.5L69,46.4z"/>
			<path fill="#FFFFFF" d="M80.6,41.5h0.6c1,0,1.2-0.2,1.2-1.2c0,0,0.1-0.1,0.3-0.1c0.1,0,0.2,0.1,0.2,0.1v3.1c0,0-0.1,0.1-0.3,0.1
				c-0.2,0-0.3-0.1-0.3-0.1c-0.1-1-0.2-1.2-1.2-1.2h-0.6v2.3c0,0.8,0.1,1.2,1.6,1.2c1.9,0,2.6-1,2.7-2.1c0,0,0.1-0.1,0.3-0.1
				c0.1,0,0.3,0.1,0.3,0.1c0.2,0.4,0.3,1.3,0.1,1.9c-0.4,0.9-1.5,0.9-2.2,0.9c-2.7,0-1.3-0.1-3.5-0.1c-0.3,0-0.5,0-1.2,0.1
				c-0.2,0-0.3,0-0.5,0c-0.1,0-0.2,0-0.3,0h-0.1c0,0-0.1-0.1-0.1-0.3c0-0.1,0.1-0.3,0.1-0.3c0.1,0,0.2,0,0.4,0
				c0.5,0,0.9-0.2,0.9-0.8v-5.4c0-0.3,0.1-0.8-0.8-0.8c-0.2,0-0.3,0-0.4,0c0,0-0.1-0.1-0.1-0.3c0-0.1,0.1-0.3,0.1-0.3l0.1,0h7
				c0,0,0.1,0.1,0.1,0.1c0,0,0,0.1,0,0.1v1.8c0,0-0.1,0.1-0.3,0.1s-0.3-0.1-0.3-0.1c-0.3-1.3-1-1.4-1.8-1.4h-2V41.5z"/>
		</g>
	</g>
</g>
</svg>
